M48
; DRILL file {KiCad (5.1.2)-2} date 11/18/2019 3:02:30 PM
; FORMAT={-:-/ absolute / inch / decimal}
; #@! TF.CreationDate,2019-11-18T15:02:30-05:00
; #@! TF.GenerationSoftware,Kicad,Pcbnew,(5.1.2)-2
; #@! TF.FileFunction,Plated,1,2,PTH
FMAT,2
INCH
T1C0.0157
T2C0.0315
T3C0.0394
T4C0.0472
T5C0.0472
%
G90
G05
T1
X3.9Y-4.9
X3.9Y-5.6
X4.1974Y-5.4026
X4.3Y-4.8
X4.9Y-4.55
X5.05Y-4.9
X5.3026Y-4.9474
X5.6Y-4.7
T2
X4.85Y-5.55
X5.15Y-5.55
X4.4Y-5.4
X4.7Y-5.4
X4.4Y-5.55
X4.7Y-5.55
X4.85Y-5.4
X5.15Y-5.4
X4.0Y-5.2
X4.1Y-5.3
X4.2Y-5.2
X6.15Y-4.65
X6.15Y-4.95
X4.0Y-4.55
X4.1Y-4.45
X4.2Y-4.55
X4.55Y-4.75
X4.55Y-4.95
X4.65Y-4.85
X5.25Y-4.6
X5.55Y-4.6
X4.4Y-5.7
X4.7Y-5.7
X5.7Y-4.65
X6.0Y-4.65
T3
X5.3Y-5.55
X6.15Y-5.1
X3.5Y-5.25
X3.5Y-5.35
X3.5Y-5.45
X3.5Y-5.55
T4
X3.5Y-4.85
X3.5Y-5.0
X3.5Y-4.45
X3.5Y-4.6
T5
X5.95Y-4.8
X5.95Y-5.6
X5.7Y-4.7913
X5.7Y-5.5
T0
M30
