G04 #@! TF.GenerationSoftware,KiCad,Pcbnew,(5.1.2)-2*
G04 #@! TF.CreationDate,2019-11-18T15:02:21-05:00*
G04 #@! TF.ProjectId,Lab_Sensing,4c61625f-5365-46e7-9369-6e672e6b6963,rev?*
G04 #@! TF.SameCoordinates,Original*
G04 #@! TF.FileFunction,Soldermask,Top*
G04 #@! TF.FilePolarity,Negative*
%FSLAX46Y46*%
G04 Gerber Fmt 4.6, Leading zero omitted, Abs format (unit mm)*
G04 Created by KiCad (PCBNEW (5.1.2)-2) date 2019-11-18 15:02:21*
%MOMM*%
%LPD*%
G04 APERTURE LIST*
%ADD10C,0.100000*%
G04 APERTURE END LIST*
D10*
G36*
X119628228Y-143961703D02*
G01*
X119783100Y-144025853D01*
X119922481Y-144118985D01*
X120041015Y-144237519D01*
X120134147Y-144376900D01*
X120198297Y-144531772D01*
X120231000Y-144696184D01*
X120231000Y-144863816D01*
X120198297Y-145028228D01*
X120134147Y-145183100D01*
X120041015Y-145322481D01*
X119922481Y-145441015D01*
X119783100Y-145534147D01*
X119628228Y-145598297D01*
X119463816Y-145631000D01*
X119296184Y-145631000D01*
X119131772Y-145598297D01*
X118976900Y-145534147D01*
X118837519Y-145441015D01*
X118718985Y-145322481D01*
X118625853Y-145183100D01*
X118561703Y-145028228D01*
X118529000Y-144863816D01*
X118529000Y-144696184D01*
X118561703Y-144531772D01*
X118625853Y-144376900D01*
X118718985Y-144237519D01*
X118837519Y-144118985D01*
X118976900Y-144025853D01*
X119131772Y-143961703D01*
X119296184Y-143929000D01*
X119463816Y-143929000D01*
X119628228Y-143961703D01*
X119628228Y-143961703D01*
G37*
G36*
X111926823Y-143941313D02*
G01*
X112087242Y-143989976D01*
X112154361Y-144025852D01*
X112235078Y-144068996D01*
X112364659Y-144175341D01*
X112471004Y-144304922D01*
X112471005Y-144304924D01*
X112550024Y-144452758D01*
X112598687Y-144613177D01*
X112615117Y-144780000D01*
X112598687Y-144946823D01*
X112550024Y-145107242D01*
X112509477Y-145183100D01*
X112471004Y-145255078D01*
X112364659Y-145384659D01*
X112235078Y-145491004D01*
X112235076Y-145491005D01*
X112087242Y-145570024D01*
X111926823Y-145618687D01*
X111801804Y-145631000D01*
X111718196Y-145631000D01*
X111593177Y-145618687D01*
X111432758Y-145570024D01*
X111284924Y-145491005D01*
X111284922Y-145491004D01*
X111155341Y-145384659D01*
X111048996Y-145255078D01*
X111010523Y-145183100D01*
X110969976Y-145107242D01*
X110921313Y-144946823D01*
X110904883Y-144780000D01*
X110921313Y-144613177D01*
X110969976Y-144452758D01*
X111048995Y-144304924D01*
X111048996Y-144304922D01*
X111155341Y-144175341D01*
X111284922Y-144068996D01*
X111365639Y-144025852D01*
X111432758Y-143989976D01*
X111593177Y-143941313D01*
X111718196Y-143929000D01*
X111801804Y-143929000D01*
X111926823Y-143941313D01*
X111926823Y-143941313D01*
G37*
G36*
X151494903Y-141037075D02*
G01*
X151722571Y-141131378D01*
X151927466Y-141268285D01*
X152101715Y-141442534D01*
X152238622Y-141647429D01*
X152332925Y-141875097D01*
X152381000Y-142116787D01*
X152381000Y-142363213D01*
X152332925Y-142604903D01*
X152238622Y-142832571D01*
X152101715Y-143037466D01*
X151927466Y-143211715D01*
X151722571Y-143348622D01*
X151722570Y-143348623D01*
X151722569Y-143348623D01*
X151494903Y-143442925D01*
X151253214Y-143491000D01*
X151006786Y-143491000D01*
X150765097Y-143442925D01*
X150537431Y-143348623D01*
X150537430Y-143348623D01*
X150537429Y-143348622D01*
X150332534Y-143211715D01*
X150158285Y-143037466D01*
X150021378Y-142832571D01*
X149927075Y-142604903D01*
X149879000Y-142363213D01*
X149879000Y-142116787D01*
X149927075Y-141875097D01*
X150021378Y-141647429D01*
X150158285Y-141442534D01*
X150332534Y-141268285D01*
X150537429Y-141131378D01*
X150765097Y-141037075D01*
X151006786Y-140989000D01*
X151253214Y-140989000D01*
X151494903Y-141037075D01*
X151494903Y-141037075D01*
G37*
G36*
X102599928Y-142526764D02*
G01*
X102621009Y-142533160D01*
X102640445Y-142543548D01*
X102657476Y-142557524D01*
X102671452Y-142574555D01*
X102681840Y-142593991D01*
X102688236Y-142615072D01*
X102691000Y-142643140D01*
X102691000Y-143106860D01*
X102688236Y-143134928D01*
X102681840Y-143156009D01*
X102671452Y-143175445D01*
X102657476Y-143192476D01*
X102640445Y-143206452D01*
X102621009Y-143216840D01*
X102599928Y-143223236D01*
X102571860Y-143226000D01*
X100758140Y-143226000D01*
X100730072Y-143223236D01*
X100708991Y-143216840D01*
X100689555Y-143206452D01*
X100672524Y-143192476D01*
X100658548Y-143175445D01*
X100648160Y-143156009D01*
X100641764Y-143134928D01*
X100639000Y-143106860D01*
X100639000Y-142643140D01*
X100641764Y-142615072D01*
X100648160Y-142593991D01*
X100658548Y-142574555D01*
X100672524Y-142557524D01*
X100689555Y-142543548D01*
X100708991Y-142533160D01*
X100730072Y-142526764D01*
X100758140Y-142524000D01*
X102571860Y-142524000D01*
X102599928Y-142526764D01*
X102599928Y-142526764D01*
G37*
G36*
X107549928Y-142526764D02*
G01*
X107571009Y-142533160D01*
X107590445Y-142543548D01*
X107607476Y-142557524D01*
X107621452Y-142574555D01*
X107631840Y-142593991D01*
X107638236Y-142615072D01*
X107641000Y-142643140D01*
X107641000Y-143106860D01*
X107638236Y-143134928D01*
X107631840Y-143156009D01*
X107621452Y-143175445D01*
X107607476Y-143192476D01*
X107590445Y-143206452D01*
X107571009Y-143216840D01*
X107549928Y-143223236D01*
X107521860Y-143226000D01*
X105708140Y-143226000D01*
X105680072Y-143223236D01*
X105658991Y-143216840D01*
X105639555Y-143206452D01*
X105622524Y-143192476D01*
X105608548Y-143175445D01*
X105598160Y-143156009D01*
X105591764Y-143134928D01*
X105589000Y-143106860D01*
X105589000Y-142643140D01*
X105591764Y-142615072D01*
X105598160Y-142593991D01*
X105608548Y-142574555D01*
X105622524Y-142557524D01*
X105639555Y-142543548D01*
X105658991Y-142533160D01*
X105680072Y-142526764D01*
X105708140Y-142524000D01*
X107521860Y-142524000D01*
X107549928Y-142526764D01*
X107549928Y-142526764D01*
G37*
G36*
X102599928Y-141256764D02*
G01*
X102621009Y-141263160D01*
X102640445Y-141273548D01*
X102657476Y-141287524D01*
X102671452Y-141304555D01*
X102681840Y-141323991D01*
X102688236Y-141345072D01*
X102691000Y-141373140D01*
X102691000Y-141836860D01*
X102688236Y-141864928D01*
X102681840Y-141886009D01*
X102671452Y-141905445D01*
X102657476Y-141922476D01*
X102640445Y-141936452D01*
X102621009Y-141946840D01*
X102599928Y-141953236D01*
X102571860Y-141956000D01*
X100758140Y-141956000D01*
X100730072Y-141953236D01*
X100708991Y-141946840D01*
X100689555Y-141936452D01*
X100672524Y-141922476D01*
X100658548Y-141905445D01*
X100648160Y-141886009D01*
X100641764Y-141864928D01*
X100639000Y-141836860D01*
X100639000Y-141373140D01*
X100641764Y-141345072D01*
X100648160Y-141323991D01*
X100658548Y-141304555D01*
X100672524Y-141287524D01*
X100689555Y-141273548D01*
X100708991Y-141263160D01*
X100730072Y-141256764D01*
X100758140Y-141254000D01*
X102571860Y-141254000D01*
X102599928Y-141256764D01*
X102599928Y-141256764D01*
G37*
G36*
X107549928Y-141256764D02*
G01*
X107571009Y-141263160D01*
X107590445Y-141273548D01*
X107607476Y-141287524D01*
X107621452Y-141304555D01*
X107631840Y-141323991D01*
X107638236Y-141345072D01*
X107641000Y-141373140D01*
X107641000Y-141836860D01*
X107638236Y-141864928D01*
X107631840Y-141886009D01*
X107621452Y-141905445D01*
X107607476Y-141922476D01*
X107590445Y-141936452D01*
X107571009Y-141946840D01*
X107549928Y-141953236D01*
X107521860Y-141956000D01*
X105708140Y-141956000D01*
X105680072Y-141953236D01*
X105658991Y-141946840D01*
X105639555Y-141936452D01*
X105622524Y-141922476D01*
X105608548Y-141905445D01*
X105598160Y-141886009D01*
X105591764Y-141864928D01*
X105589000Y-141836860D01*
X105589000Y-141373140D01*
X105591764Y-141345072D01*
X105598160Y-141323991D01*
X105608548Y-141304555D01*
X105622524Y-141287524D01*
X105639555Y-141273548D01*
X105658991Y-141263160D01*
X105680072Y-141256764D01*
X105708140Y-141254000D01*
X107521860Y-141254000D01*
X107549928Y-141256764D01*
X107549928Y-141256764D01*
G37*
G36*
X135521000Y-141871000D02*
G01*
X133719000Y-141871000D01*
X133719000Y-140069000D01*
X135521000Y-140069000D01*
X135521000Y-141871000D01*
X135521000Y-141871000D01*
G37*
G36*
X89005909Y-140075072D02*
G01*
X89076627Y-140082037D01*
X89246466Y-140133557D01*
X89402991Y-140217222D01*
X89438729Y-140246552D01*
X89540186Y-140329814D01*
X89620369Y-140427519D01*
X89652778Y-140467009D01*
X89736443Y-140623534D01*
X89787963Y-140793373D01*
X89805359Y-140970000D01*
X89787963Y-141146627D01*
X89736443Y-141316466D01*
X89652778Y-141472991D01*
X89623448Y-141508729D01*
X89540186Y-141610186D01*
X89438729Y-141693448D01*
X89402991Y-141722778D01*
X89246466Y-141806443D01*
X89076627Y-141857963D01*
X89010443Y-141864481D01*
X88944260Y-141871000D01*
X88855740Y-141871000D01*
X88789557Y-141864481D01*
X88723373Y-141857963D01*
X88553534Y-141806443D01*
X88397009Y-141722778D01*
X88361271Y-141693448D01*
X88259814Y-141610186D01*
X88176552Y-141508729D01*
X88147222Y-141472991D01*
X88063557Y-141316466D01*
X88012037Y-141146627D01*
X87994641Y-140970000D01*
X88012037Y-140793373D01*
X88063557Y-140623534D01*
X88147222Y-140467009D01*
X88179631Y-140427519D01*
X88259814Y-140329814D01*
X88361271Y-140246552D01*
X88397009Y-140217222D01*
X88553534Y-140133557D01*
X88723373Y-140082037D01*
X88794091Y-140075072D01*
X88855740Y-140069000D01*
X88944260Y-140069000D01*
X89005909Y-140075072D01*
X89005909Y-140075072D01*
G37*
G36*
X123356823Y-140131313D02*
G01*
X123517242Y-140179976D01*
X123584361Y-140215852D01*
X123665078Y-140258996D01*
X123794659Y-140365341D01*
X123901004Y-140494922D01*
X123901005Y-140494924D01*
X123980024Y-140642758D01*
X124028687Y-140803177D01*
X124045117Y-140970000D01*
X124028687Y-141136823D01*
X123980024Y-141297242D01*
X123927631Y-141395262D01*
X123901004Y-141445078D01*
X123794659Y-141574659D01*
X123665078Y-141681004D01*
X123665076Y-141681005D01*
X123517242Y-141760024D01*
X123356823Y-141808687D01*
X123231804Y-141821000D01*
X123148196Y-141821000D01*
X123023177Y-141808687D01*
X122862758Y-141760024D01*
X122714924Y-141681005D01*
X122714922Y-141681004D01*
X122585341Y-141574659D01*
X122478996Y-141445078D01*
X122452369Y-141395262D01*
X122399976Y-141297242D01*
X122351313Y-141136823D01*
X122334883Y-140970000D01*
X122351313Y-140803177D01*
X122399976Y-140642758D01*
X122478995Y-140494924D01*
X122478996Y-140494922D01*
X122585341Y-140365341D01*
X122714922Y-140258996D01*
X122795639Y-140215852D01*
X122862758Y-140179976D01*
X123023177Y-140131313D01*
X123148196Y-140119000D01*
X123231804Y-140119000D01*
X123356823Y-140131313D01*
X123356823Y-140131313D01*
G37*
G36*
X131058228Y-140151703D02*
G01*
X131213100Y-140215853D01*
X131352481Y-140308985D01*
X131471015Y-140427519D01*
X131564147Y-140566900D01*
X131628297Y-140721772D01*
X131661000Y-140886184D01*
X131661000Y-141053816D01*
X131628297Y-141218228D01*
X131564147Y-141373100D01*
X131471015Y-141512481D01*
X131352481Y-141631015D01*
X131213100Y-141724147D01*
X131058228Y-141788297D01*
X130893816Y-141821000D01*
X130726184Y-141821000D01*
X130561772Y-141788297D01*
X130406900Y-141724147D01*
X130267519Y-141631015D01*
X130148985Y-141512481D01*
X130055853Y-141373100D01*
X129991703Y-141218228D01*
X129959000Y-141053816D01*
X129959000Y-140886184D01*
X129991703Y-140721772D01*
X130055853Y-140566900D01*
X130148985Y-140427519D01*
X130267519Y-140308985D01*
X130406900Y-140215853D01*
X130561772Y-140151703D01*
X130726184Y-140119000D01*
X130893816Y-140119000D01*
X131058228Y-140151703D01*
X131058228Y-140151703D01*
G37*
G36*
X119628228Y-140151703D02*
G01*
X119783100Y-140215853D01*
X119922481Y-140308985D01*
X120041015Y-140427519D01*
X120134147Y-140566900D01*
X120198297Y-140721772D01*
X120231000Y-140886184D01*
X120231000Y-141053816D01*
X120198297Y-141218228D01*
X120134147Y-141373100D01*
X120041015Y-141512481D01*
X119922481Y-141631015D01*
X119783100Y-141724147D01*
X119628228Y-141788297D01*
X119463816Y-141821000D01*
X119296184Y-141821000D01*
X119131772Y-141788297D01*
X118976900Y-141724147D01*
X118837519Y-141631015D01*
X118718985Y-141512481D01*
X118625853Y-141373100D01*
X118561703Y-141218228D01*
X118529000Y-141053816D01*
X118529000Y-140886184D01*
X118561703Y-140721772D01*
X118625853Y-140566900D01*
X118718985Y-140427519D01*
X118837519Y-140308985D01*
X118976900Y-140215853D01*
X119131772Y-140151703D01*
X119296184Y-140119000D01*
X119463816Y-140119000D01*
X119628228Y-140151703D01*
X119628228Y-140151703D01*
G37*
G36*
X111926823Y-140131313D02*
G01*
X112087242Y-140179976D01*
X112154361Y-140215852D01*
X112235078Y-140258996D01*
X112364659Y-140365341D01*
X112471004Y-140494922D01*
X112471005Y-140494924D01*
X112550024Y-140642758D01*
X112598687Y-140803177D01*
X112615117Y-140970000D01*
X112598687Y-141136823D01*
X112550024Y-141297242D01*
X112497631Y-141395262D01*
X112471004Y-141445078D01*
X112364659Y-141574659D01*
X112235078Y-141681004D01*
X112235076Y-141681005D01*
X112087242Y-141760024D01*
X111926823Y-141808687D01*
X111801804Y-141821000D01*
X111718196Y-141821000D01*
X111593177Y-141808687D01*
X111432758Y-141760024D01*
X111284924Y-141681005D01*
X111284922Y-141681004D01*
X111155341Y-141574659D01*
X111048996Y-141445078D01*
X111022369Y-141395262D01*
X110969976Y-141297242D01*
X110921313Y-141136823D01*
X110904883Y-140970000D01*
X110921313Y-140803177D01*
X110969976Y-140642758D01*
X111048995Y-140494924D01*
X111048996Y-140494922D01*
X111155341Y-140365341D01*
X111284922Y-140258996D01*
X111365639Y-140215852D01*
X111432758Y-140179976D01*
X111593177Y-140131313D01*
X111718196Y-140119000D01*
X111801804Y-140119000D01*
X111926823Y-140131313D01*
X111926823Y-140131313D01*
G37*
G36*
X145025239Y-138467101D02*
G01*
X145261053Y-138538634D01*
X145478381Y-138654799D01*
X145668871Y-138811129D01*
X145825201Y-139001619D01*
X145941366Y-139218947D01*
X146012899Y-139454761D01*
X146037053Y-139700000D01*
X146012899Y-139945239D01*
X145941366Y-140181053D01*
X145825201Y-140398381D01*
X145668871Y-140588871D01*
X145478381Y-140745201D01*
X145261053Y-140861366D01*
X145025239Y-140932899D01*
X144841457Y-140951000D01*
X144718543Y-140951000D01*
X144534761Y-140932899D01*
X144298947Y-140861366D01*
X144081619Y-140745201D01*
X143891129Y-140588871D01*
X143734799Y-140398381D01*
X143618634Y-140181053D01*
X143547101Y-139945239D01*
X143522947Y-139700000D01*
X143547101Y-139454761D01*
X143618634Y-139218947D01*
X143734799Y-139001619D01*
X143891129Y-138811129D01*
X144081619Y-138654799D01*
X144298947Y-138538634D01*
X144534761Y-138467101D01*
X144718543Y-138449000D01*
X144841457Y-138449000D01*
X145025239Y-138467101D01*
X145025239Y-138467101D01*
G37*
G36*
X102599928Y-139986764D02*
G01*
X102621009Y-139993160D01*
X102640445Y-140003548D01*
X102657476Y-140017524D01*
X102671452Y-140034555D01*
X102681840Y-140053991D01*
X102688236Y-140075072D01*
X102691000Y-140103140D01*
X102691000Y-140566860D01*
X102688236Y-140594928D01*
X102681840Y-140616009D01*
X102671452Y-140635445D01*
X102657476Y-140652476D01*
X102640445Y-140666452D01*
X102621009Y-140676840D01*
X102599928Y-140683236D01*
X102571860Y-140686000D01*
X100758140Y-140686000D01*
X100730072Y-140683236D01*
X100708991Y-140676840D01*
X100689555Y-140666452D01*
X100672524Y-140652476D01*
X100658548Y-140635445D01*
X100648160Y-140616009D01*
X100641764Y-140594928D01*
X100639000Y-140566860D01*
X100639000Y-140103140D01*
X100641764Y-140075072D01*
X100648160Y-140053991D01*
X100658548Y-140034555D01*
X100672524Y-140017524D01*
X100689555Y-140003548D01*
X100708991Y-139993160D01*
X100730072Y-139986764D01*
X100758140Y-139984000D01*
X102571860Y-139984000D01*
X102599928Y-139986764D01*
X102599928Y-139986764D01*
G37*
G36*
X107549928Y-139986764D02*
G01*
X107571009Y-139993160D01*
X107590445Y-140003548D01*
X107607476Y-140017524D01*
X107621452Y-140034555D01*
X107631840Y-140053991D01*
X107638236Y-140075072D01*
X107641000Y-140103140D01*
X107641000Y-140566860D01*
X107638236Y-140594928D01*
X107631840Y-140616009D01*
X107621452Y-140635445D01*
X107607476Y-140652476D01*
X107590445Y-140666452D01*
X107571009Y-140676840D01*
X107549928Y-140683236D01*
X107521860Y-140686000D01*
X105708140Y-140686000D01*
X105680072Y-140683236D01*
X105658991Y-140676840D01*
X105639555Y-140666452D01*
X105622524Y-140652476D01*
X105608548Y-140635445D01*
X105598160Y-140616009D01*
X105591764Y-140594928D01*
X105589000Y-140566860D01*
X105589000Y-140103140D01*
X105591764Y-140075072D01*
X105598160Y-140053991D01*
X105608548Y-140034555D01*
X105622524Y-140017524D01*
X105639555Y-140003548D01*
X105658991Y-139993160D01*
X105680072Y-139986764D01*
X105708140Y-139984000D01*
X107521860Y-139984000D01*
X107549928Y-139986764D01*
X107549928Y-139986764D01*
G37*
G36*
X107549928Y-138716764D02*
G01*
X107571009Y-138723160D01*
X107590445Y-138733548D01*
X107607476Y-138747524D01*
X107621452Y-138764555D01*
X107631840Y-138783991D01*
X107638236Y-138805072D01*
X107641000Y-138833140D01*
X107641000Y-139296860D01*
X107638236Y-139324928D01*
X107631840Y-139346009D01*
X107621452Y-139365445D01*
X107607476Y-139382476D01*
X107590445Y-139396452D01*
X107571009Y-139406840D01*
X107549928Y-139413236D01*
X107521860Y-139416000D01*
X105708140Y-139416000D01*
X105680072Y-139413236D01*
X105658991Y-139406840D01*
X105639555Y-139396452D01*
X105622524Y-139382476D01*
X105608548Y-139365445D01*
X105598160Y-139346009D01*
X105591764Y-139324928D01*
X105589000Y-139296860D01*
X105589000Y-138833140D01*
X105591764Y-138805072D01*
X105598160Y-138783991D01*
X105608548Y-138764555D01*
X105622524Y-138747524D01*
X105639555Y-138733548D01*
X105658991Y-138723160D01*
X105680072Y-138716764D01*
X105708140Y-138714000D01*
X107521860Y-138714000D01*
X107549928Y-138716764D01*
X107549928Y-138716764D01*
G37*
G36*
X102599928Y-138716764D02*
G01*
X102621009Y-138723160D01*
X102640445Y-138733548D01*
X102657476Y-138747524D01*
X102671452Y-138764555D01*
X102681840Y-138783991D01*
X102688236Y-138805072D01*
X102691000Y-138833140D01*
X102691000Y-139296860D01*
X102688236Y-139324928D01*
X102681840Y-139346009D01*
X102671452Y-139365445D01*
X102657476Y-139382476D01*
X102640445Y-139396452D01*
X102621009Y-139406840D01*
X102599928Y-139413236D01*
X102571860Y-139416000D01*
X100758140Y-139416000D01*
X100730072Y-139413236D01*
X100708991Y-139406840D01*
X100689555Y-139396452D01*
X100672524Y-139382476D01*
X100658548Y-139365445D01*
X100648160Y-139346009D01*
X100641764Y-139324928D01*
X100639000Y-139296860D01*
X100639000Y-138833140D01*
X100641764Y-138805072D01*
X100648160Y-138783991D01*
X100658548Y-138764555D01*
X100672524Y-138747524D01*
X100689555Y-138733548D01*
X100708991Y-138723160D01*
X100730072Y-138716764D01*
X100758140Y-138714000D01*
X102571860Y-138714000D01*
X102599928Y-138716764D01*
X102599928Y-138716764D01*
G37*
G36*
X89010443Y-137535519D02*
G01*
X89076627Y-137542037D01*
X89246466Y-137593557D01*
X89402991Y-137677222D01*
X89433768Y-137702480D01*
X89540186Y-137789814D01*
X89623448Y-137891271D01*
X89652778Y-137927009D01*
X89736443Y-138083534D01*
X89787963Y-138253373D01*
X89805359Y-138430000D01*
X89787963Y-138606627D01*
X89736443Y-138776466D01*
X89652778Y-138932991D01*
X89623448Y-138968729D01*
X89540186Y-139070186D01*
X89438729Y-139153448D01*
X89402991Y-139182778D01*
X89246466Y-139266443D01*
X89076627Y-139317963D01*
X89010443Y-139324481D01*
X88944260Y-139331000D01*
X88855740Y-139331000D01*
X88789557Y-139324481D01*
X88723373Y-139317963D01*
X88553534Y-139266443D01*
X88397009Y-139182778D01*
X88361271Y-139153448D01*
X88259814Y-139070186D01*
X88176552Y-138968729D01*
X88147222Y-138932991D01*
X88063557Y-138776466D01*
X88012037Y-138606627D01*
X87994641Y-138430000D01*
X88012037Y-138253373D01*
X88063557Y-138083534D01*
X88147222Y-137927009D01*
X88176552Y-137891271D01*
X88259814Y-137789814D01*
X88366232Y-137702480D01*
X88397009Y-137677222D01*
X88553534Y-137593557D01*
X88723373Y-137542037D01*
X88789557Y-137535519D01*
X88855740Y-137529000D01*
X88944260Y-137529000D01*
X89010443Y-137535519D01*
X89010443Y-137535519D01*
G37*
G36*
X119628228Y-136341703D02*
G01*
X119783100Y-136405853D01*
X119922481Y-136498985D01*
X120041015Y-136617519D01*
X120134147Y-136756900D01*
X120198297Y-136911772D01*
X120231000Y-137076184D01*
X120231000Y-137243816D01*
X120198297Y-137408228D01*
X120134147Y-137563100D01*
X120041015Y-137702481D01*
X119922481Y-137821015D01*
X119783100Y-137914147D01*
X119628228Y-137978297D01*
X119463816Y-138011000D01*
X119296184Y-138011000D01*
X119131772Y-137978297D01*
X118976900Y-137914147D01*
X118837519Y-137821015D01*
X118718985Y-137702481D01*
X118625853Y-137563100D01*
X118561703Y-137408228D01*
X118529000Y-137243816D01*
X118529000Y-137076184D01*
X118561703Y-136911772D01*
X118625853Y-136756900D01*
X118718985Y-136617519D01*
X118837519Y-136498985D01*
X118976900Y-136405853D01*
X119131772Y-136341703D01*
X119296184Y-136309000D01*
X119463816Y-136309000D01*
X119628228Y-136341703D01*
X119628228Y-136341703D01*
G37*
G36*
X111926823Y-136321313D02*
G01*
X112087242Y-136369976D01*
X112154361Y-136405852D01*
X112235078Y-136448996D01*
X112364659Y-136555341D01*
X112471004Y-136684922D01*
X112471005Y-136684924D01*
X112550024Y-136832758D01*
X112598687Y-136993177D01*
X112615117Y-137160000D01*
X112598687Y-137326823D01*
X112550024Y-137487242D01*
X112509477Y-137563100D01*
X112471004Y-137635078D01*
X112364659Y-137764659D01*
X112235078Y-137871004D01*
X112235076Y-137871005D01*
X112087242Y-137950024D01*
X111926823Y-137998687D01*
X111801804Y-138011000D01*
X111718196Y-138011000D01*
X111593177Y-137998687D01*
X111432758Y-137950024D01*
X111284924Y-137871005D01*
X111284922Y-137871004D01*
X111155341Y-137764659D01*
X111048996Y-137635078D01*
X111010523Y-137563100D01*
X110969976Y-137487242D01*
X110921313Y-137326823D01*
X110904883Y-137160000D01*
X110921313Y-136993177D01*
X110969976Y-136832758D01*
X111048995Y-136684924D01*
X111048996Y-136684922D01*
X111155341Y-136555341D01*
X111284922Y-136448996D01*
X111365639Y-136405852D01*
X111432758Y-136369976D01*
X111593177Y-136321313D01*
X111718196Y-136309000D01*
X111801804Y-136309000D01*
X111926823Y-136321313D01*
X111926823Y-136321313D01*
G37*
G36*
X131058228Y-136341703D02*
G01*
X131213100Y-136405853D01*
X131352481Y-136498985D01*
X131471015Y-136617519D01*
X131564147Y-136756900D01*
X131628297Y-136911772D01*
X131661000Y-137076184D01*
X131661000Y-137243816D01*
X131628297Y-137408228D01*
X131564147Y-137563100D01*
X131471015Y-137702481D01*
X131352481Y-137821015D01*
X131213100Y-137914147D01*
X131058228Y-137978297D01*
X130893816Y-138011000D01*
X130726184Y-138011000D01*
X130561772Y-137978297D01*
X130406900Y-137914147D01*
X130267519Y-137821015D01*
X130148985Y-137702481D01*
X130055853Y-137563100D01*
X129991703Y-137408228D01*
X129959000Y-137243816D01*
X129959000Y-137076184D01*
X129991703Y-136911772D01*
X130055853Y-136756900D01*
X130148985Y-136617519D01*
X130267519Y-136498985D01*
X130406900Y-136405853D01*
X130561772Y-136341703D01*
X130726184Y-136309000D01*
X130893816Y-136309000D01*
X131058228Y-136341703D01*
X131058228Y-136341703D01*
G37*
G36*
X123356823Y-136321313D02*
G01*
X123517242Y-136369976D01*
X123584361Y-136405852D01*
X123665078Y-136448996D01*
X123794659Y-136555341D01*
X123901004Y-136684922D01*
X123901005Y-136684924D01*
X123980024Y-136832758D01*
X124028687Y-136993177D01*
X124045117Y-137160000D01*
X124028687Y-137326823D01*
X123980024Y-137487242D01*
X123939477Y-137563100D01*
X123901004Y-137635078D01*
X123794659Y-137764659D01*
X123665078Y-137871004D01*
X123665076Y-137871005D01*
X123517242Y-137950024D01*
X123356823Y-137998687D01*
X123231804Y-138011000D01*
X123148196Y-138011000D01*
X123023177Y-137998687D01*
X122862758Y-137950024D01*
X122714924Y-137871005D01*
X122714922Y-137871004D01*
X122585341Y-137764659D01*
X122478996Y-137635078D01*
X122440523Y-137563100D01*
X122399976Y-137487242D01*
X122351313Y-137326823D01*
X122334883Y-137160000D01*
X122351313Y-136993177D01*
X122399976Y-136832758D01*
X122478995Y-136684924D01*
X122478996Y-136684922D01*
X122585341Y-136555341D01*
X122714922Y-136448996D01*
X122795639Y-136405852D01*
X122862758Y-136369976D01*
X123023177Y-136321313D01*
X123148196Y-136309000D01*
X123231804Y-136309000D01*
X123356823Y-136321313D01*
X123356823Y-136321313D01*
G37*
G36*
X89010442Y-134995518D02*
G01*
X89076627Y-135002037D01*
X89246466Y-135053557D01*
X89402991Y-135137222D01*
X89438729Y-135166552D01*
X89540186Y-135249814D01*
X89623448Y-135351271D01*
X89652778Y-135387009D01*
X89736443Y-135543534D01*
X89787963Y-135713373D01*
X89805359Y-135890000D01*
X89787963Y-136066627D01*
X89736443Y-136236466D01*
X89652778Y-136392991D01*
X89642223Y-136405852D01*
X89540186Y-136530186D01*
X89438729Y-136613448D01*
X89402991Y-136642778D01*
X89246466Y-136726443D01*
X89076627Y-136777963D01*
X89010442Y-136784482D01*
X88944260Y-136791000D01*
X88855740Y-136791000D01*
X88789558Y-136784482D01*
X88723373Y-136777963D01*
X88553534Y-136726443D01*
X88397009Y-136642778D01*
X88361271Y-136613448D01*
X88259814Y-136530186D01*
X88157777Y-136405852D01*
X88147222Y-136392991D01*
X88063557Y-136236466D01*
X88012037Y-136066627D01*
X87994641Y-135890000D01*
X88012037Y-135713373D01*
X88063557Y-135543534D01*
X88147222Y-135387009D01*
X88176552Y-135351271D01*
X88259814Y-135249814D01*
X88361271Y-135166552D01*
X88397009Y-135137222D01*
X88553534Y-135053557D01*
X88723373Y-135002037D01*
X88789558Y-134995518D01*
X88855740Y-134989000D01*
X88944260Y-134989000D01*
X89010442Y-134995518D01*
X89010442Y-134995518D01*
G37*
G36*
X104265589Y-133858876D02*
G01*
X104364893Y-133878629D01*
X104505206Y-133936748D01*
X104631484Y-134021125D01*
X104738875Y-134128516D01*
X104823252Y-134254794D01*
X104881371Y-134395107D01*
X104911000Y-134544063D01*
X104911000Y-134695937D01*
X104881371Y-134844893D01*
X104823252Y-134985206D01*
X104738875Y-135111484D01*
X104631484Y-135218875D01*
X104505206Y-135303252D01*
X104364893Y-135361371D01*
X104265589Y-135381124D01*
X104215938Y-135391000D01*
X104064062Y-135391000D01*
X104014411Y-135381124D01*
X103915107Y-135361371D01*
X103774794Y-135303252D01*
X103648516Y-135218875D01*
X103541125Y-135111484D01*
X103456748Y-134985206D01*
X103398629Y-134844893D01*
X103369000Y-134695937D01*
X103369000Y-134544063D01*
X103398629Y-134395107D01*
X103456748Y-134254794D01*
X103541125Y-134128516D01*
X103648516Y-134021125D01*
X103774794Y-133936748D01*
X103915107Y-133878629D01*
X104014411Y-133858876D01*
X104064062Y-133849000D01*
X104215938Y-133849000D01*
X104265589Y-133858876D01*
X104265589Y-133858876D01*
G37*
G36*
X89801000Y-134251000D02*
G01*
X87999000Y-134251000D01*
X87999000Y-132449000D01*
X89801000Y-132449000D01*
X89801000Y-134251000D01*
X89801000Y-134251000D01*
G37*
G36*
X101725589Y-131318876D02*
G01*
X101824893Y-131338629D01*
X101965206Y-131396748D01*
X102091484Y-131481125D01*
X102198875Y-131588516D01*
X102283252Y-131714794D01*
X102341371Y-131855107D01*
X102371000Y-132004063D01*
X102371000Y-132155937D01*
X102341371Y-132304893D01*
X102283252Y-132445206D01*
X102198875Y-132571484D01*
X102091484Y-132678875D01*
X101965206Y-132763252D01*
X101824893Y-132821371D01*
X101725589Y-132841124D01*
X101675938Y-132851000D01*
X101524062Y-132851000D01*
X101474411Y-132841124D01*
X101375107Y-132821371D01*
X101234794Y-132763252D01*
X101108516Y-132678875D01*
X101001125Y-132571484D01*
X100916748Y-132445206D01*
X100858629Y-132304893D01*
X100829000Y-132155937D01*
X100829000Y-132004063D01*
X100858629Y-131855107D01*
X100916748Y-131714794D01*
X101001125Y-131588516D01*
X101108516Y-131481125D01*
X101234794Y-131396748D01*
X101375107Y-131338629D01*
X101474411Y-131318876D01*
X101524062Y-131309000D01*
X101675938Y-131309000D01*
X101725589Y-131318876D01*
X101725589Y-131318876D01*
G37*
G36*
X106805589Y-131318876D02*
G01*
X106904893Y-131338629D01*
X107045206Y-131396748D01*
X107171484Y-131481125D01*
X107278875Y-131588516D01*
X107363252Y-131714794D01*
X107421371Y-131855107D01*
X107451000Y-132004063D01*
X107451000Y-132155937D01*
X107421371Y-132304893D01*
X107363252Y-132445206D01*
X107278875Y-132571484D01*
X107171484Y-132678875D01*
X107045206Y-132763252D01*
X106904893Y-132821371D01*
X106805589Y-132841124D01*
X106755938Y-132851000D01*
X106604062Y-132851000D01*
X106554411Y-132841124D01*
X106455107Y-132821371D01*
X106314794Y-132763252D01*
X106188516Y-132678875D01*
X106081125Y-132571484D01*
X105996748Y-132445206D01*
X105938629Y-132304893D01*
X105909000Y-132155937D01*
X105909000Y-132004063D01*
X105938629Y-131855107D01*
X105996748Y-131714794D01*
X106081125Y-131588516D01*
X106188516Y-131481125D01*
X106314794Y-131396748D01*
X106455107Y-131338629D01*
X106554411Y-131318876D01*
X106604062Y-131309000D01*
X106755938Y-131309000D01*
X106805589Y-131318876D01*
X106805589Y-131318876D01*
G37*
G36*
X157111000Y-130441000D02*
G01*
X155309000Y-130441000D01*
X155309000Y-128639000D01*
X157111000Y-128639000D01*
X157111000Y-130441000D01*
X157111000Y-130441000D01*
G37*
G36*
X90450870Y-128550870D02*
G01*
X87349130Y-128550870D01*
X87349130Y-125449130D01*
X90450870Y-125449130D01*
X90450870Y-128550870D01*
X90450870Y-128550870D01*
G37*
G36*
X121686968Y-126253565D02*
G01*
X121725638Y-126265296D01*
X121761277Y-126284346D01*
X121792517Y-126309983D01*
X121818154Y-126341223D01*
X121837204Y-126376862D01*
X121848935Y-126415532D01*
X121853500Y-126461888D01*
X121853500Y-127538112D01*
X121848935Y-127584468D01*
X121837204Y-127623138D01*
X121818154Y-127658777D01*
X121792517Y-127690017D01*
X121761277Y-127715654D01*
X121725638Y-127734704D01*
X121686968Y-127746435D01*
X121640612Y-127751000D01*
X120989388Y-127751000D01*
X120943032Y-127746435D01*
X120904362Y-127734704D01*
X120868723Y-127715654D01*
X120837483Y-127690017D01*
X120811846Y-127658777D01*
X120792796Y-127623138D01*
X120781065Y-127584468D01*
X120776500Y-127538112D01*
X120776500Y-126461888D01*
X120781065Y-126415532D01*
X120792796Y-126376862D01*
X120811846Y-126341223D01*
X120837483Y-126309983D01*
X120868723Y-126284346D01*
X120904362Y-126265296D01*
X120943032Y-126253565D01*
X120989388Y-126249000D01*
X121640612Y-126249000D01*
X121686968Y-126253565D01*
X121686968Y-126253565D01*
G37*
G36*
X123561968Y-126253565D02*
G01*
X123600638Y-126265296D01*
X123636277Y-126284346D01*
X123667517Y-126309983D01*
X123693154Y-126341223D01*
X123712204Y-126376862D01*
X123723935Y-126415532D01*
X123728500Y-126461888D01*
X123728500Y-127538112D01*
X123723935Y-127584468D01*
X123712204Y-127623138D01*
X123693154Y-127658777D01*
X123667517Y-127690017D01*
X123636277Y-127715654D01*
X123600638Y-127734704D01*
X123561968Y-127746435D01*
X123515612Y-127751000D01*
X122864388Y-127751000D01*
X122818032Y-127746435D01*
X122779362Y-127734704D01*
X122743723Y-127715654D01*
X122712483Y-127690017D01*
X122686846Y-127658777D01*
X122667796Y-127623138D01*
X122656065Y-127584468D01*
X122651500Y-127538112D01*
X122651500Y-126461888D01*
X122656065Y-126415532D01*
X122667796Y-126376862D01*
X122686846Y-126341223D01*
X122712483Y-126309983D01*
X122743723Y-126284346D01*
X122779362Y-126265296D01*
X122818032Y-126253565D01*
X122864388Y-126249000D01*
X123515612Y-126249000D01*
X123561968Y-126253565D01*
X123561968Y-126253565D01*
G37*
G36*
X156376823Y-124891313D02*
G01*
X156537242Y-124939976D01*
X156669906Y-125010886D01*
X156685078Y-125018996D01*
X156814659Y-125125341D01*
X156921004Y-125254922D01*
X156921005Y-125254924D01*
X157000024Y-125402758D01*
X157048687Y-125563177D01*
X157065117Y-125730000D01*
X157048687Y-125896823D01*
X157000024Y-126057242D01*
X156930141Y-126187983D01*
X156921004Y-126205078D01*
X156814659Y-126334659D01*
X156685078Y-126441004D01*
X156685076Y-126441005D01*
X156537242Y-126520024D01*
X156376823Y-126568687D01*
X156251804Y-126581000D01*
X156168196Y-126581000D01*
X156043177Y-126568687D01*
X155882758Y-126520024D01*
X155734924Y-126441005D01*
X155734922Y-126441004D01*
X155605341Y-126334659D01*
X155498996Y-126205078D01*
X155489859Y-126187983D01*
X155419976Y-126057242D01*
X155371313Y-125896823D01*
X155354883Y-125730000D01*
X155371313Y-125563177D01*
X155419976Y-125402758D01*
X155498995Y-125254924D01*
X155498996Y-125254922D01*
X155605341Y-125125341D01*
X155734922Y-125018996D01*
X155750094Y-125010886D01*
X155882758Y-124939976D01*
X156043177Y-124891313D01*
X156168196Y-124879000D01*
X156251804Y-124879000D01*
X156376823Y-124891313D01*
X156376823Y-124891313D01*
G37*
G36*
X115695589Y-124968876D02*
G01*
X115794893Y-124988629D01*
X115935206Y-125046748D01*
X116061484Y-125131125D01*
X116168875Y-125238516D01*
X116253252Y-125364794D01*
X116311371Y-125505107D01*
X116341000Y-125654063D01*
X116341000Y-125805937D01*
X116311371Y-125954893D01*
X116253252Y-126095206D01*
X116168875Y-126221484D01*
X116061484Y-126328875D01*
X115935206Y-126413252D01*
X115794893Y-126471371D01*
X115695589Y-126491124D01*
X115645938Y-126501000D01*
X115494062Y-126501000D01*
X115444411Y-126491124D01*
X115345107Y-126471371D01*
X115204794Y-126413252D01*
X115078516Y-126328875D01*
X114971125Y-126221484D01*
X114886748Y-126095206D01*
X114828629Y-125954893D01*
X114799000Y-125805937D01*
X114799000Y-125654063D01*
X114828629Y-125505107D01*
X114886748Y-125364794D01*
X114971125Y-125238516D01*
X115078516Y-125131125D01*
X115204794Y-125046748D01*
X115345107Y-124988629D01*
X115444411Y-124968876D01*
X115494062Y-124959000D01*
X115645938Y-124959000D01*
X115695589Y-124968876D01*
X115695589Y-124968876D01*
G37*
G36*
X126318674Y-125108465D02*
G01*
X126356367Y-125119899D01*
X126391103Y-125138466D01*
X126421548Y-125163452D01*
X126446534Y-125193897D01*
X126465101Y-125228633D01*
X126476535Y-125266326D01*
X126481000Y-125311661D01*
X126481000Y-126148339D01*
X126476535Y-126193674D01*
X126465101Y-126231367D01*
X126446534Y-126266103D01*
X126421548Y-126296548D01*
X126391103Y-126321534D01*
X126356367Y-126340101D01*
X126318674Y-126351535D01*
X126273339Y-126356000D01*
X125186661Y-126356000D01*
X125141326Y-126351535D01*
X125103633Y-126340101D01*
X125068897Y-126321534D01*
X125038452Y-126296548D01*
X125013466Y-126266103D01*
X124994899Y-126231367D01*
X124983465Y-126193674D01*
X124979000Y-126148339D01*
X124979000Y-125311661D01*
X124983465Y-125266326D01*
X124994899Y-125228633D01*
X125013466Y-125193897D01*
X125038452Y-125163452D01*
X125068897Y-125138466D01*
X125103633Y-125119899D01*
X125141326Y-125108465D01*
X125186661Y-125104000D01*
X126273339Y-125104000D01*
X126318674Y-125108465D01*
X126318674Y-125108465D01*
G37*
G36*
X102664928Y-125381764D02*
G01*
X102686009Y-125388160D01*
X102705445Y-125398548D01*
X102722476Y-125412524D01*
X102736452Y-125429555D01*
X102746840Y-125448991D01*
X102753236Y-125470072D01*
X102756000Y-125498140D01*
X102756000Y-125961860D01*
X102753236Y-125989928D01*
X102746840Y-126011009D01*
X102736452Y-126030445D01*
X102722476Y-126047476D01*
X102705445Y-126061452D01*
X102686009Y-126071840D01*
X102664928Y-126078236D01*
X102636860Y-126081000D01*
X100823140Y-126081000D01*
X100795072Y-126078236D01*
X100773991Y-126071840D01*
X100754555Y-126061452D01*
X100737524Y-126047476D01*
X100723548Y-126030445D01*
X100713160Y-126011009D01*
X100706764Y-125989928D01*
X100704000Y-125961860D01*
X100704000Y-125498140D01*
X100706764Y-125470072D01*
X100713160Y-125448991D01*
X100723548Y-125429555D01*
X100737524Y-125412524D01*
X100754555Y-125398548D01*
X100773991Y-125388160D01*
X100795072Y-125381764D01*
X100823140Y-125379000D01*
X102636860Y-125379000D01*
X102664928Y-125381764D01*
X102664928Y-125381764D01*
G37*
G36*
X107614928Y-125381764D02*
G01*
X107636009Y-125388160D01*
X107655445Y-125398548D01*
X107672476Y-125412524D01*
X107686452Y-125429555D01*
X107696840Y-125448991D01*
X107703236Y-125470072D01*
X107706000Y-125498140D01*
X107706000Y-125961860D01*
X107703236Y-125989928D01*
X107696840Y-126011009D01*
X107686452Y-126030445D01*
X107672476Y-126047476D01*
X107655445Y-126061452D01*
X107636009Y-126071840D01*
X107614928Y-126078236D01*
X107586860Y-126081000D01*
X105773140Y-126081000D01*
X105745072Y-126078236D01*
X105723991Y-126071840D01*
X105704555Y-126061452D01*
X105687524Y-126047476D01*
X105673548Y-126030445D01*
X105663160Y-126011009D01*
X105656764Y-125989928D01*
X105654000Y-125961860D01*
X105654000Y-125498140D01*
X105656764Y-125470072D01*
X105663160Y-125448991D01*
X105673548Y-125429555D01*
X105687524Y-125412524D01*
X105704555Y-125398548D01*
X105723991Y-125388160D01*
X105745072Y-125381764D01*
X105773140Y-125379000D01*
X107586860Y-125379000D01*
X107614928Y-125381764D01*
X107614928Y-125381764D01*
G37*
G36*
X123561968Y-123713565D02*
G01*
X123600638Y-123725296D01*
X123636277Y-123744346D01*
X123667517Y-123769983D01*
X123693154Y-123801223D01*
X123712204Y-123836862D01*
X123723935Y-123875532D01*
X123728500Y-123921888D01*
X123728500Y-124998112D01*
X123723935Y-125044468D01*
X123712204Y-125083138D01*
X123693154Y-125118777D01*
X123667517Y-125150017D01*
X123636277Y-125175654D01*
X123600638Y-125194704D01*
X123561968Y-125206435D01*
X123515612Y-125211000D01*
X122864388Y-125211000D01*
X122818032Y-125206435D01*
X122779362Y-125194704D01*
X122743723Y-125175654D01*
X122712483Y-125150017D01*
X122686846Y-125118777D01*
X122667796Y-125083138D01*
X122656065Y-125044468D01*
X122651500Y-124998112D01*
X122651500Y-123921888D01*
X122656065Y-123875532D01*
X122667796Y-123836862D01*
X122686846Y-123801223D01*
X122712483Y-123769983D01*
X122743723Y-123744346D01*
X122779362Y-123725296D01*
X122818032Y-123713565D01*
X122864388Y-123709000D01*
X123515612Y-123709000D01*
X123561968Y-123713565D01*
X123561968Y-123713565D01*
G37*
G36*
X121686968Y-123713565D02*
G01*
X121725638Y-123725296D01*
X121761277Y-123744346D01*
X121792517Y-123769983D01*
X121818154Y-123801223D01*
X121837204Y-123836862D01*
X121848935Y-123875532D01*
X121853500Y-123921888D01*
X121853500Y-124998112D01*
X121848935Y-125044468D01*
X121837204Y-125083138D01*
X121818154Y-125118777D01*
X121792517Y-125150017D01*
X121761277Y-125175654D01*
X121725638Y-125194704D01*
X121686968Y-125206435D01*
X121640612Y-125211000D01*
X120989388Y-125211000D01*
X120943032Y-125206435D01*
X120904362Y-125194704D01*
X120868723Y-125175654D01*
X120837483Y-125150017D01*
X120811846Y-125118777D01*
X120792796Y-125083138D01*
X120781065Y-125044468D01*
X120776500Y-124998112D01*
X120776500Y-123921888D01*
X120781065Y-123875532D01*
X120792796Y-123836862D01*
X120811846Y-123801223D01*
X120837483Y-123769983D01*
X120868723Y-123744346D01*
X120904362Y-123725296D01*
X120943032Y-123713565D01*
X120989388Y-123709000D01*
X121640612Y-123709000D01*
X121686968Y-123713565D01*
X121686968Y-123713565D01*
G37*
G36*
X107614928Y-124111764D02*
G01*
X107636009Y-124118160D01*
X107655445Y-124128548D01*
X107672476Y-124142524D01*
X107686452Y-124159555D01*
X107696840Y-124178991D01*
X107703236Y-124200072D01*
X107706000Y-124228140D01*
X107706000Y-124691860D01*
X107703236Y-124719928D01*
X107696840Y-124741009D01*
X107686452Y-124760445D01*
X107672476Y-124777476D01*
X107655445Y-124791452D01*
X107636009Y-124801840D01*
X107614928Y-124808236D01*
X107586860Y-124811000D01*
X105773140Y-124811000D01*
X105745072Y-124808236D01*
X105723991Y-124801840D01*
X105704555Y-124791452D01*
X105687524Y-124777476D01*
X105673548Y-124760445D01*
X105663160Y-124741009D01*
X105656764Y-124719928D01*
X105654000Y-124691860D01*
X105654000Y-124228140D01*
X105656764Y-124200072D01*
X105663160Y-124178991D01*
X105673548Y-124159555D01*
X105687524Y-124142524D01*
X105704555Y-124128548D01*
X105723991Y-124118160D01*
X105745072Y-124111764D01*
X105773140Y-124109000D01*
X107586860Y-124109000D01*
X107614928Y-124111764D01*
X107614928Y-124111764D01*
G37*
G36*
X102664928Y-124111764D02*
G01*
X102686009Y-124118160D01*
X102705445Y-124128548D01*
X102722476Y-124142524D01*
X102736452Y-124159555D01*
X102746840Y-124178991D01*
X102753236Y-124200072D01*
X102756000Y-124228140D01*
X102756000Y-124691860D01*
X102753236Y-124719928D01*
X102746840Y-124741009D01*
X102736452Y-124760445D01*
X102722476Y-124777476D01*
X102705445Y-124791452D01*
X102686009Y-124801840D01*
X102664928Y-124808236D01*
X102636860Y-124811000D01*
X100823140Y-124811000D01*
X100795072Y-124808236D01*
X100773991Y-124801840D01*
X100754555Y-124791452D01*
X100737524Y-124777476D01*
X100723548Y-124760445D01*
X100713160Y-124741009D01*
X100706764Y-124719928D01*
X100704000Y-124691860D01*
X100704000Y-124228140D01*
X100706764Y-124200072D01*
X100713160Y-124178991D01*
X100723548Y-124159555D01*
X100737524Y-124142524D01*
X100754555Y-124128548D01*
X100773991Y-124118160D01*
X100795072Y-124111764D01*
X100823140Y-124109000D01*
X102636860Y-124109000D01*
X102664928Y-124111764D01*
X102664928Y-124111764D01*
G37*
G36*
X89231887Y-121674763D02*
G01*
X89352372Y-121698729D01*
X89462873Y-121744500D01*
X89634611Y-121815636D01*
X89888621Y-121985360D01*
X90104640Y-122201379D01*
X90274364Y-122455389D01*
X90311896Y-122546000D01*
X90391271Y-122737628D01*
X90401064Y-122786860D01*
X90450870Y-123037251D01*
X90450870Y-123342749D01*
X90422940Y-123483160D01*
X90391271Y-123642372D01*
X90356923Y-123725296D01*
X90274364Y-123924611D01*
X90104640Y-124178621D01*
X89888621Y-124394640D01*
X89634611Y-124564364D01*
X89469279Y-124632846D01*
X89352372Y-124681271D01*
X89299137Y-124691860D01*
X89052749Y-124740870D01*
X88747251Y-124740870D01*
X88500863Y-124691860D01*
X88447628Y-124681271D01*
X88330721Y-124632846D01*
X88165389Y-124564364D01*
X87911379Y-124394640D01*
X87695360Y-124178621D01*
X87525636Y-123924611D01*
X87443077Y-123725296D01*
X87408729Y-123642372D01*
X87377060Y-123483160D01*
X87349130Y-123342749D01*
X87349130Y-123037251D01*
X87398936Y-122786860D01*
X87408729Y-122737628D01*
X87488104Y-122546000D01*
X87525636Y-122455389D01*
X87695360Y-122201379D01*
X87911379Y-121985360D01*
X88165389Y-121815636D01*
X88337127Y-121744500D01*
X88447628Y-121698729D01*
X88568113Y-121674763D01*
X88747251Y-121639130D01*
X89052749Y-121639130D01*
X89231887Y-121674763D01*
X89231887Y-121674763D01*
G37*
G36*
X126318674Y-123058465D02*
G01*
X126356367Y-123069899D01*
X126391103Y-123088466D01*
X126421548Y-123113452D01*
X126446534Y-123143897D01*
X126465101Y-123178633D01*
X126476535Y-123216326D01*
X126481000Y-123261661D01*
X126481000Y-124098339D01*
X126476535Y-124143674D01*
X126465101Y-124181367D01*
X126446534Y-124216103D01*
X126421548Y-124246548D01*
X126391103Y-124271534D01*
X126356367Y-124290101D01*
X126318674Y-124301535D01*
X126273339Y-124306000D01*
X125186661Y-124306000D01*
X125141326Y-124301535D01*
X125103633Y-124290101D01*
X125068897Y-124271534D01*
X125038452Y-124246548D01*
X125013466Y-124216103D01*
X124994899Y-124181367D01*
X124983465Y-124143674D01*
X124979000Y-124098339D01*
X124979000Y-123261661D01*
X124983465Y-123216326D01*
X124994899Y-123178633D01*
X125013466Y-123143897D01*
X125038452Y-123113452D01*
X125068897Y-123088466D01*
X125103633Y-123069899D01*
X125141326Y-123058465D01*
X125186661Y-123054000D01*
X126273339Y-123054000D01*
X126318674Y-123058465D01*
X126318674Y-123058465D01*
G37*
G36*
X140569928Y-123476764D02*
G01*
X140591009Y-123483160D01*
X140610445Y-123493548D01*
X140627476Y-123507524D01*
X140641452Y-123524555D01*
X140651840Y-123543991D01*
X140658236Y-123565072D01*
X140661000Y-123593140D01*
X140661000Y-124056860D01*
X140658236Y-124084928D01*
X140651840Y-124106009D01*
X140641452Y-124125445D01*
X140627476Y-124142476D01*
X140610445Y-124156452D01*
X140591009Y-124166840D01*
X140569928Y-124173236D01*
X140541860Y-124176000D01*
X138728140Y-124176000D01*
X138700072Y-124173236D01*
X138678991Y-124166840D01*
X138659555Y-124156452D01*
X138642524Y-124142476D01*
X138628548Y-124125445D01*
X138618160Y-124106009D01*
X138611764Y-124084928D01*
X138609000Y-124056860D01*
X138609000Y-123593140D01*
X138611764Y-123565072D01*
X138618160Y-123543991D01*
X138628548Y-123524555D01*
X138642524Y-123507524D01*
X138659555Y-123493548D01*
X138678991Y-123483160D01*
X138700072Y-123476764D01*
X138728140Y-123474000D01*
X140541860Y-123474000D01*
X140569928Y-123476764D01*
X140569928Y-123476764D01*
G37*
G36*
X135619928Y-123476764D02*
G01*
X135641009Y-123483160D01*
X135660445Y-123493548D01*
X135677476Y-123507524D01*
X135691452Y-123524555D01*
X135701840Y-123543991D01*
X135708236Y-123565072D01*
X135711000Y-123593140D01*
X135711000Y-124056860D01*
X135708236Y-124084928D01*
X135701840Y-124106009D01*
X135691452Y-124125445D01*
X135677476Y-124142476D01*
X135660445Y-124156452D01*
X135641009Y-124166840D01*
X135619928Y-124173236D01*
X135591860Y-124176000D01*
X133778140Y-124176000D01*
X133750072Y-124173236D01*
X133728991Y-124166840D01*
X133709555Y-124156452D01*
X133692524Y-124142476D01*
X133678548Y-124125445D01*
X133668160Y-124106009D01*
X133661764Y-124084928D01*
X133659000Y-124056860D01*
X133659000Y-123593140D01*
X133661764Y-123565072D01*
X133668160Y-123543991D01*
X133678548Y-123524555D01*
X133692524Y-123507524D01*
X133709555Y-123493548D01*
X133728991Y-123483160D01*
X133750072Y-123476764D01*
X133778140Y-123474000D01*
X135591860Y-123474000D01*
X135619928Y-123476764D01*
X135619928Y-123476764D01*
G37*
G36*
X118235589Y-122428876D02*
G01*
X118334893Y-122448629D01*
X118475206Y-122506748D01*
X118601484Y-122591125D01*
X118708875Y-122698516D01*
X118793252Y-122824794D01*
X118851371Y-122965107D01*
X118854385Y-122980262D01*
X118880879Y-123113452D01*
X118881000Y-123114063D01*
X118881000Y-123265937D01*
X118851371Y-123414893D01*
X118793252Y-123555206D01*
X118708875Y-123681484D01*
X118601484Y-123788875D01*
X118475206Y-123873252D01*
X118334893Y-123931371D01*
X118235589Y-123951124D01*
X118185938Y-123961000D01*
X118034062Y-123961000D01*
X117984411Y-123951124D01*
X117885107Y-123931371D01*
X117744794Y-123873252D01*
X117618516Y-123788875D01*
X117511125Y-123681484D01*
X117426748Y-123555206D01*
X117368629Y-123414893D01*
X117339000Y-123265937D01*
X117339000Y-123114063D01*
X117339122Y-123113452D01*
X117365615Y-122980262D01*
X117368629Y-122965107D01*
X117426748Y-122824794D01*
X117511125Y-122698516D01*
X117618516Y-122591125D01*
X117744794Y-122506748D01*
X117885107Y-122448629D01*
X117984411Y-122428876D01*
X118034062Y-122419000D01*
X118185938Y-122419000D01*
X118235589Y-122428876D01*
X118235589Y-122428876D01*
G37*
G36*
X107614928Y-122841764D02*
G01*
X107636009Y-122848160D01*
X107655445Y-122858548D01*
X107672476Y-122872524D01*
X107686452Y-122889555D01*
X107696840Y-122908991D01*
X107703236Y-122930072D01*
X107706000Y-122958140D01*
X107706000Y-123421860D01*
X107703236Y-123449928D01*
X107696840Y-123471009D01*
X107686452Y-123490445D01*
X107672476Y-123507476D01*
X107655445Y-123521452D01*
X107636009Y-123531840D01*
X107614928Y-123538236D01*
X107586860Y-123541000D01*
X105773140Y-123541000D01*
X105745072Y-123538236D01*
X105723991Y-123531840D01*
X105704555Y-123521452D01*
X105687524Y-123507476D01*
X105673548Y-123490445D01*
X105663160Y-123471009D01*
X105656764Y-123449928D01*
X105654000Y-123421860D01*
X105654000Y-122958140D01*
X105656764Y-122930072D01*
X105663160Y-122908991D01*
X105673548Y-122889555D01*
X105687524Y-122872524D01*
X105704555Y-122858548D01*
X105723991Y-122848160D01*
X105745072Y-122841764D01*
X105773140Y-122839000D01*
X107586860Y-122839000D01*
X107614928Y-122841764D01*
X107614928Y-122841764D01*
G37*
G36*
X102664928Y-122841764D02*
G01*
X102686009Y-122848160D01*
X102705445Y-122858548D01*
X102722476Y-122872524D01*
X102736452Y-122889555D01*
X102746840Y-122908991D01*
X102753236Y-122930072D01*
X102756000Y-122958140D01*
X102756000Y-123421860D01*
X102753236Y-123449928D01*
X102746840Y-123471009D01*
X102736452Y-123490445D01*
X102722476Y-123507476D01*
X102705445Y-123521452D01*
X102686009Y-123531840D01*
X102664928Y-123538236D01*
X102636860Y-123541000D01*
X100823140Y-123541000D01*
X100795072Y-123538236D01*
X100773991Y-123531840D01*
X100754555Y-123521452D01*
X100737524Y-123507476D01*
X100723548Y-123490445D01*
X100713160Y-123471009D01*
X100706764Y-123449928D01*
X100704000Y-123421860D01*
X100704000Y-122958140D01*
X100706764Y-122930072D01*
X100713160Y-122908991D01*
X100723548Y-122889555D01*
X100737524Y-122872524D01*
X100754555Y-122858548D01*
X100773991Y-122848160D01*
X100795072Y-122841764D01*
X100823140Y-122839000D01*
X102636860Y-122839000D01*
X102664928Y-122841764D01*
X102664928Y-122841764D01*
G37*
G36*
X151375239Y-120687101D02*
G01*
X151611053Y-120758634D01*
X151828381Y-120874799D01*
X152018871Y-121031129D01*
X152175201Y-121221619D01*
X152291366Y-121438947D01*
X152362899Y-121674761D01*
X152387053Y-121920000D01*
X152362899Y-122165239D01*
X152291366Y-122401053D01*
X152175201Y-122618381D01*
X152018871Y-122808871D01*
X151828381Y-122965201D01*
X151611053Y-123081366D01*
X151375239Y-123152899D01*
X151191457Y-123171000D01*
X151068543Y-123171000D01*
X150884761Y-123152899D01*
X150648947Y-123081366D01*
X150431619Y-122965201D01*
X150241129Y-122808871D01*
X150084799Y-122618381D01*
X149968634Y-122401053D01*
X149897101Y-122165239D01*
X149872947Y-121920000D01*
X149897101Y-121674761D01*
X149968634Y-121438947D01*
X150084799Y-121221619D01*
X150241129Y-121031129D01*
X150431619Y-120874799D01*
X150648947Y-120758634D01*
X150884761Y-120687101D01*
X151068543Y-120669000D01*
X151191457Y-120669000D01*
X151375239Y-120687101D01*
X151375239Y-120687101D01*
G37*
G36*
X146031000Y-122951000D02*
G01*
X143529000Y-122951000D01*
X143529000Y-120449000D01*
X146031000Y-120449000D01*
X146031000Y-122951000D01*
X146031000Y-122951000D01*
G37*
G36*
X140569928Y-122206764D02*
G01*
X140591009Y-122213160D01*
X140610445Y-122223548D01*
X140627476Y-122237524D01*
X140641452Y-122254555D01*
X140651840Y-122273991D01*
X140658236Y-122295072D01*
X140661000Y-122323140D01*
X140661000Y-122786860D01*
X140658236Y-122814928D01*
X140651840Y-122836009D01*
X140641452Y-122855445D01*
X140627476Y-122872476D01*
X140610445Y-122886452D01*
X140591009Y-122896840D01*
X140569928Y-122903236D01*
X140541860Y-122906000D01*
X138728140Y-122906000D01*
X138700072Y-122903236D01*
X138678991Y-122896840D01*
X138659555Y-122886452D01*
X138642524Y-122872476D01*
X138628548Y-122855445D01*
X138618160Y-122836009D01*
X138611764Y-122814928D01*
X138609000Y-122786860D01*
X138609000Y-122323140D01*
X138611764Y-122295072D01*
X138618160Y-122273991D01*
X138628548Y-122254555D01*
X138642524Y-122237524D01*
X138659555Y-122223548D01*
X138678991Y-122213160D01*
X138700072Y-122206764D01*
X138728140Y-122204000D01*
X140541860Y-122204000D01*
X140569928Y-122206764D01*
X140569928Y-122206764D01*
G37*
G36*
X135619928Y-122206764D02*
G01*
X135641009Y-122213160D01*
X135660445Y-122223548D01*
X135677476Y-122237524D01*
X135691452Y-122254555D01*
X135701840Y-122273991D01*
X135708236Y-122295072D01*
X135711000Y-122323140D01*
X135711000Y-122786860D01*
X135708236Y-122814928D01*
X135701840Y-122836009D01*
X135691452Y-122855445D01*
X135677476Y-122872476D01*
X135660445Y-122886452D01*
X135641009Y-122896840D01*
X135619928Y-122903236D01*
X135591860Y-122906000D01*
X133778140Y-122906000D01*
X133750072Y-122903236D01*
X133728991Y-122896840D01*
X133709555Y-122886452D01*
X133692524Y-122872476D01*
X133678548Y-122855445D01*
X133668160Y-122836009D01*
X133661764Y-122814928D01*
X133659000Y-122786860D01*
X133659000Y-122323140D01*
X133661764Y-122295072D01*
X133668160Y-122273991D01*
X133678548Y-122254555D01*
X133692524Y-122237524D01*
X133709555Y-122223548D01*
X133728991Y-122213160D01*
X133750072Y-122206764D01*
X133778140Y-122204000D01*
X135591860Y-122204000D01*
X135619928Y-122206764D01*
X135619928Y-122206764D01*
G37*
G36*
X121686968Y-121173565D02*
G01*
X121725638Y-121185296D01*
X121761277Y-121204346D01*
X121792517Y-121229983D01*
X121818154Y-121261223D01*
X121837204Y-121296862D01*
X121848935Y-121335532D01*
X121853500Y-121381888D01*
X121853500Y-122458112D01*
X121848935Y-122504468D01*
X121837204Y-122543138D01*
X121818154Y-122578777D01*
X121792517Y-122610017D01*
X121761277Y-122635654D01*
X121725638Y-122654704D01*
X121686968Y-122666435D01*
X121640612Y-122671000D01*
X120989388Y-122671000D01*
X120943032Y-122666435D01*
X120904362Y-122654704D01*
X120868723Y-122635654D01*
X120837483Y-122610017D01*
X120811846Y-122578777D01*
X120792796Y-122543138D01*
X120781065Y-122504468D01*
X120776500Y-122458112D01*
X120776500Y-121381888D01*
X120781065Y-121335532D01*
X120792796Y-121296862D01*
X120811846Y-121261223D01*
X120837483Y-121229983D01*
X120868723Y-121204346D01*
X120904362Y-121185296D01*
X120943032Y-121173565D01*
X120989388Y-121169000D01*
X121640612Y-121169000D01*
X121686968Y-121173565D01*
X121686968Y-121173565D01*
G37*
G36*
X123561968Y-121173565D02*
G01*
X123600638Y-121185296D01*
X123636277Y-121204346D01*
X123667517Y-121229983D01*
X123693154Y-121261223D01*
X123712204Y-121296862D01*
X123723935Y-121335532D01*
X123728500Y-121381888D01*
X123728500Y-122458112D01*
X123723935Y-122504468D01*
X123712204Y-122543138D01*
X123693154Y-122578777D01*
X123667517Y-122610017D01*
X123636277Y-122635654D01*
X123600638Y-122654704D01*
X123561968Y-122666435D01*
X123515612Y-122671000D01*
X122864388Y-122671000D01*
X122818032Y-122666435D01*
X122779362Y-122654704D01*
X122743723Y-122635654D01*
X122712483Y-122610017D01*
X122686846Y-122578777D01*
X122667796Y-122543138D01*
X122656065Y-122504468D01*
X122651500Y-122458112D01*
X122651500Y-121381888D01*
X122656065Y-121335532D01*
X122667796Y-121296862D01*
X122686846Y-121261223D01*
X122712483Y-121229983D01*
X122743723Y-121204346D01*
X122779362Y-121185296D01*
X122818032Y-121173565D01*
X122864388Y-121169000D01*
X123515612Y-121169000D01*
X123561968Y-121173565D01*
X123561968Y-121173565D01*
G37*
G36*
X126318674Y-121298465D02*
G01*
X126356367Y-121309899D01*
X126391103Y-121328466D01*
X126421548Y-121353452D01*
X126446534Y-121383897D01*
X126465101Y-121418633D01*
X126476535Y-121456326D01*
X126481000Y-121501661D01*
X126481000Y-122338339D01*
X126476535Y-122383674D01*
X126465101Y-122421367D01*
X126446534Y-122456103D01*
X126421548Y-122486548D01*
X126391103Y-122511534D01*
X126356367Y-122530101D01*
X126318674Y-122541535D01*
X126273339Y-122546000D01*
X125186661Y-122546000D01*
X125141326Y-122541535D01*
X125103633Y-122530101D01*
X125068897Y-122511534D01*
X125038452Y-122486548D01*
X125013466Y-122456103D01*
X124994899Y-122421367D01*
X124983465Y-122383674D01*
X124979000Y-122338339D01*
X124979000Y-121501661D01*
X124983465Y-121456326D01*
X124994899Y-121418633D01*
X125013466Y-121383897D01*
X125038452Y-121353452D01*
X125068897Y-121328466D01*
X125103633Y-121309899D01*
X125141326Y-121298465D01*
X125186661Y-121294000D01*
X126273339Y-121294000D01*
X126318674Y-121298465D01*
X126318674Y-121298465D01*
G37*
G36*
X130124468Y-121386065D02*
G01*
X130163138Y-121397796D01*
X130198777Y-121416846D01*
X130230017Y-121442483D01*
X130255654Y-121473723D01*
X130274704Y-121509362D01*
X130286435Y-121548032D01*
X130291000Y-121594388D01*
X130291000Y-122245612D01*
X130286435Y-122291968D01*
X130274704Y-122330638D01*
X130255654Y-122366277D01*
X130230017Y-122397517D01*
X130198777Y-122423154D01*
X130163138Y-122442204D01*
X130124468Y-122453935D01*
X130078112Y-122458500D01*
X129001888Y-122458500D01*
X128955532Y-122453935D01*
X128916862Y-122442204D01*
X128881223Y-122423154D01*
X128849983Y-122397517D01*
X128824346Y-122366277D01*
X128805296Y-122330638D01*
X128793565Y-122291968D01*
X128789000Y-122245612D01*
X128789000Y-121594388D01*
X128793565Y-121548032D01*
X128805296Y-121509362D01*
X128824346Y-121473723D01*
X128849983Y-121442483D01*
X128881223Y-121416846D01*
X128916862Y-121397796D01*
X128955532Y-121386065D01*
X129001888Y-121381500D01*
X130078112Y-121381500D01*
X130124468Y-121386065D01*
X130124468Y-121386065D01*
G37*
G36*
X132668674Y-121053465D02*
G01*
X132706367Y-121064899D01*
X132741103Y-121083466D01*
X132771548Y-121108452D01*
X132796534Y-121138897D01*
X132815101Y-121173633D01*
X132826535Y-121211326D01*
X132831000Y-121256661D01*
X132831000Y-122093339D01*
X132826535Y-122138674D01*
X132815101Y-122176367D01*
X132796534Y-122211103D01*
X132771548Y-122241548D01*
X132741103Y-122266534D01*
X132706367Y-122285101D01*
X132668674Y-122296535D01*
X132623339Y-122301000D01*
X131536661Y-122301000D01*
X131491326Y-122296535D01*
X131453633Y-122285101D01*
X131418897Y-122266534D01*
X131388452Y-122241548D01*
X131363466Y-122211103D01*
X131344899Y-122176367D01*
X131333465Y-122138674D01*
X131329000Y-122093339D01*
X131329000Y-121256661D01*
X131333465Y-121211326D01*
X131344899Y-121173633D01*
X131363466Y-121138897D01*
X131388452Y-121108452D01*
X131418897Y-121083466D01*
X131453633Y-121064899D01*
X131491326Y-121053465D01*
X131536661Y-121049000D01*
X132623339Y-121049000D01*
X132668674Y-121053465D01*
X132668674Y-121053465D01*
G37*
G36*
X102664928Y-121571764D02*
G01*
X102686009Y-121578160D01*
X102705445Y-121588548D01*
X102722476Y-121602524D01*
X102736452Y-121619555D01*
X102746840Y-121638991D01*
X102753236Y-121660072D01*
X102756000Y-121688140D01*
X102756000Y-122151860D01*
X102753236Y-122179928D01*
X102746840Y-122201009D01*
X102736452Y-122220445D01*
X102722476Y-122237476D01*
X102705445Y-122251452D01*
X102686009Y-122261840D01*
X102664928Y-122268236D01*
X102636860Y-122271000D01*
X100823140Y-122271000D01*
X100795072Y-122268236D01*
X100773991Y-122261840D01*
X100754555Y-122251452D01*
X100737524Y-122237476D01*
X100723548Y-122220445D01*
X100713160Y-122201009D01*
X100706764Y-122179928D01*
X100704000Y-122151860D01*
X100704000Y-121688140D01*
X100706764Y-121660072D01*
X100713160Y-121638991D01*
X100723548Y-121619555D01*
X100737524Y-121602524D01*
X100754555Y-121588548D01*
X100773991Y-121578160D01*
X100795072Y-121571764D01*
X100823140Y-121569000D01*
X102636860Y-121569000D01*
X102664928Y-121571764D01*
X102664928Y-121571764D01*
G37*
G36*
X107614928Y-121571764D02*
G01*
X107636009Y-121578160D01*
X107655445Y-121588548D01*
X107672476Y-121602524D01*
X107686452Y-121619555D01*
X107696840Y-121638991D01*
X107703236Y-121660072D01*
X107706000Y-121688140D01*
X107706000Y-122151860D01*
X107703236Y-122179928D01*
X107696840Y-122201009D01*
X107686452Y-122220445D01*
X107672476Y-122237476D01*
X107655445Y-122251452D01*
X107636009Y-122261840D01*
X107614928Y-122268236D01*
X107586860Y-122271000D01*
X105773140Y-122271000D01*
X105745072Y-122268236D01*
X105723991Y-122261840D01*
X105704555Y-122251452D01*
X105687524Y-122237476D01*
X105673548Y-122220445D01*
X105663160Y-122201009D01*
X105656764Y-122179928D01*
X105654000Y-122151860D01*
X105654000Y-121688140D01*
X105656764Y-121660072D01*
X105663160Y-121638991D01*
X105673548Y-121619555D01*
X105687524Y-121602524D01*
X105704555Y-121588548D01*
X105723991Y-121578160D01*
X105745072Y-121571764D01*
X105773140Y-121569000D01*
X107586860Y-121569000D01*
X107614928Y-121571764D01*
X107614928Y-121571764D01*
G37*
G36*
X140569928Y-120936764D02*
G01*
X140591009Y-120943160D01*
X140610445Y-120953548D01*
X140627476Y-120967524D01*
X140641452Y-120984555D01*
X140651840Y-121003991D01*
X140658236Y-121025072D01*
X140661000Y-121053140D01*
X140661000Y-121516860D01*
X140658236Y-121544928D01*
X140651840Y-121566009D01*
X140641452Y-121585445D01*
X140627476Y-121602476D01*
X140610445Y-121616452D01*
X140591009Y-121626840D01*
X140569928Y-121633236D01*
X140541860Y-121636000D01*
X138728140Y-121636000D01*
X138700072Y-121633236D01*
X138678991Y-121626840D01*
X138659555Y-121616452D01*
X138642524Y-121602476D01*
X138628548Y-121585445D01*
X138618160Y-121566009D01*
X138611764Y-121544928D01*
X138609000Y-121516860D01*
X138609000Y-121053140D01*
X138611764Y-121025072D01*
X138618160Y-121003991D01*
X138628548Y-120984555D01*
X138642524Y-120967524D01*
X138659555Y-120953548D01*
X138678991Y-120943160D01*
X138700072Y-120936764D01*
X138728140Y-120934000D01*
X140541860Y-120934000D01*
X140569928Y-120936764D01*
X140569928Y-120936764D01*
G37*
G36*
X135619928Y-120936764D02*
G01*
X135641009Y-120943160D01*
X135660445Y-120953548D01*
X135677476Y-120967524D01*
X135691452Y-120984555D01*
X135701840Y-121003991D01*
X135708236Y-121025072D01*
X135711000Y-121053140D01*
X135711000Y-121516860D01*
X135708236Y-121544928D01*
X135701840Y-121566009D01*
X135691452Y-121585445D01*
X135677476Y-121602476D01*
X135660445Y-121616452D01*
X135641009Y-121626840D01*
X135619928Y-121633236D01*
X135591860Y-121636000D01*
X133778140Y-121636000D01*
X133750072Y-121633236D01*
X133728991Y-121626840D01*
X133709555Y-121616452D01*
X133692524Y-121602476D01*
X133678548Y-121585445D01*
X133668160Y-121566009D01*
X133661764Y-121544928D01*
X133659000Y-121516860D01*
X133659000Y-121053140D01*
X133661764Y-121025072D01*
X133668160Y-121003991D01*
X133678548Y-120984555D01*
X133692524Y-120967524D01*
X133709555Y-120953548D01*
X133728991Y-120943160D01*
X133750072Y-120936764D01*
X133778140Y-120934000D01*
X135591860Y-120934000D01*
X135619928Y-120936764D01*
X135619928Y-120936764D01*
G37*
G36*
X115695589Y-119888876D02*
G01*
X115794893Y-119908629D01*
X115935206Y-119966748D01*
X116061484Y-120051125D01*
X116168875Y-120158516D01*
X116253252Y-120284794D01*
X116311371Y-120425107D01*
X116319075Y-120463837D01*
X116338801Y-120563005D01*
X116341000Y-120574063D01*
X116341000Y-120725937D01*
X116311371Y-120874893D01*
X116253252Y-121015206D01*
X116168875Y-121141484D01*
X116061484Y-121248875D01*
X115935206Y-121333252D01*
X115794893Y-121391371D01*
X115695589Y-121411124D01*
X115645938Y-121421000D01*
X115494062Y-121421000D01*
X115444411Y-121411124D01*
X115345107Y-121391371D01*
X115204794Y-121333252D01*
X115078516Y-121248875D01*
X114971125Y-121141484D01*
X114886748Y-121015206D01*
X114828629Y-120874893D01*
X114799000Y-120725937D01*
X114799000Y-120574063D01*
X114801200Y-120563005D01*
X114820925Y-120463837D01*
X114828629Y-120425107D01*
X114886748Y-120284794D01*
X114971125Y-120158516D01*
X115078516Y-120051125D01*
X115204794Y-119966748D01*
X115345107Y-119908629D01*
X115444411Y-119888876D01*
X115494062Y-119879000D01*
X115645938Y-119879000D01*
X115695589Y-119888876D01*
X115695589Y-119888876D01*
G37*
G36*
X130124468Y-119511065D02*
G01*
X130163138Y-119522796D01*
X130198777Y-119541846D01*
X130230017Y-119567483D01*
X130255654Y-119598723D01*
X130274704Y-119634362D01*
X130286435Y-119673032D01*
X130291000Y-119719388D01*
X130291000Y-120370612D01*
X130286435Y-120416968D01*
X130274704Y-120455638D01*
X130255654Y-120491277D01*
X130230017Y-120522517D01*
X130198777Y-120548154D01*
X130163138Y-120567204D01*
X130124468Y-120578935D01*
X130078112Y-120583500D01*
X129001888Y-120583500D01*
X128955532Y-120578935D01*
X128916862Y-120567204D01*
X128881223Y-120548154D01*
X128849983Y-120522517D01*
X128824346Y-120491277D01*
X128805296Y-120455638D01*
X128793565Y-120416968D01*
X128789000Y-120370612D01*
X128789000Y-119719388D01*
X128793565Y-119673032D01*
X128805296Y-119634362D01*
X128824346Y-119598723D01*
X128849983Y-119567483D01*
X128881223Y-119541846D01*
X128916862Y-119522796D01*
X128955532Y-119511065D01*
X129001888Y-119506500D01*
X130078112Y-119506500D01*
X130124468Y-119511065D01*
X130124468Y-119511065D01*
G37*
G36*
X126318674Y-119248465D02*
G01*
X126356367Y-119259899D01*
X126391103Y-119278466D01*
X126421548Y-119303452D01*
X126446534Y-119333897D01*
X126465101Y-119368633D01*
X126476535Y-119406326D01*
X126481000Y-119451661D01*
X126481000Y-120288339D01*
X126476535Y-120333674D01*
X126465101Y-120371367D01*
X126446534Y-120406103D01*
X126421548Y-120436548D01*
X126391103Y-120461534D01*
X126356367Y-120480101D01*
X126318674Y-120491535D01*
X126273339Y-120496000D01*
X125186661Y-120496000D01*
X125141326Y-120491535D01*
X125103633Y-120480101D01*
X125068897Y-120461534D01*
X125038452Y-120436548D01*
X125013466Y-120406103D01*
X124994899Y-120371367D01*
X124983465Y-120333674D01*
X124979000Y-120288339D01*
X124979000Y-119451661D01*
X124983465Y-119406326D01*
X124994899Y-119368633D01*
X125013466Y-119333897D01*
X125038452Y-119303452D01*
X125068897Y-119278466D01*
X125103633Y-119259899D01*
X125141326Y-119248465D01*
X125186661Y-119244000D01*
X126273339Y-119244000D01*
X126318674Y-119248465D01*
X126318674Y-119248465D01*
G37*
G36*
X135619928Y-119666764D02*
G01*
X135641009Y-119673160D01*
X135660445Y-119683548D01*
X135677476Y-119697524D01*
X135691452Y-119714555D01*
X135701840Y-119733991D01*
X135708236Y-119755072D01*
X135711000Y-119783140D01*
X135711000Y-120246860D01*
X135708236Y-120274928D01*
X135701840Y-120296009D01*
X135691452Y-120315445D01*
X135677476Y-120332476D01*
X135660445Y-120346452D01*
X135641009Y-120356840D01*
X135619928Y-120363236D01*
X135591860Y-120366000D01*
X133778140Y-120366000D01*
X133750072Y-120363236D01*
X133728991Y-120356840D01*
X133709555Y-120346452D01*
X133692524Y-120332476D01*
X133678548Y-120315445D01*
X133668160Y-120296009D01*
X133661764Y-120274928D01*
X133659000Y-120246860D01*
X133659000Y-119783140D01*
X133661764Y-119755072D01*
X133668160Y-119733991D01*
X133678548Y-119714555D01*
X133692524Y-119697524D01*
X133709555Y-119683548D01*
X133728991Y-119673160D01*
X133750072Y-119666764D01*
X133778140Y-119664000D01*
X135591860Y-119664000D01*
X135619928Y-119666764D01*
X135619928Y-119666764D01*
G37*
G36*
X140569928Y-119666764D02*
G01*
X140591009Y-119673160D01*
X140610445Y-119683548D01*
X140627476Y-119697524D01*
X140641452Y-119714555D01*
X140651840Y-119733991D01*
X140658236Y-119755072D01*
X140661000Y-119783140D01*
X140661000Y-120246860D01*
X140658236Y-120274928D01*
X140651840Y-120296009D01*
X140641452Y-120315445D01*
X140627476Y-120332476D01*
X140610445Y-120346452D01*
X140591009Y-120356840D01*
X140569928Y-120363236D01*
X140541860Y-120366000D01*
X138728140Y-120366000D01*
X138700072Y-120363236D01*
X138678991Y-120356840D01*
X138659555Y-120346452D01*
X138642524Y-120332476D01*
X138628548Y-120315445D01*
X138618160Y-120296009D01*
X138611764Y-120274928D01*
X138609000Y-120246860D01*
X138609000Y-119783140D01*
X138611764Y-119755072D01*
X138618160Y-119733991D01*
X138628548Y-119714555D01*
X138642524Y-119697524D01*
X138659555Y-119683548D01*
X138678991Y-119673160D01*
X138700072Y-119666764D01*
X138728140Y-119664000D01*
X140541860Y-119664000D01*
X140569928Y-119666764D01*
X140569928Y-119666764D01*
G37*
G36*
X132668674Y-119003465D02*
G01*
X132706367Y-119014899D01*
X132741103Y-119033466D01*
X132771548Y-119058452D01*
X132796534Y-119088897D01*
X132815101Y-119123633D01*
X132826535Y-119161326D01*
X132831000Y-119206661D01*
X132831000Y-120043339D01*
X132826535Y-120088674D01*
X132815101Y-120126367D01*
X132796534Y-120161103D01*
X132771548Y-120191548D01*
X132741103Y-120216534D01*
X132706367Y-120235101D01*
X132668674Y-120246535D01*
X132623339Y-120251000D01*
X131536661Y-120251000D01*
X131491326Y-120246535D01*
X131453633Y-120235101D01*
X131418897Y-120216534D01*
X131388452Y-120191548D01*
X131363466Y-120161103D01*
X131344899Y-120126367D01*
X131333465Y-120088674D01*
X131329000Y-120043339D01*
X131329000Y-119206661D01*
X131333465Y-119161326D01*
X131344899Y-119123633D01*
X131363466Y-119088897D01*
X131388452Y-119058452D01*
X131418897Y-119033466D01*
X131453633Y-119014899D01*
X131491326Y-119003465D01*
X131536661Y-118999000D01*
X132623339Y-118999000D01*
X132668674Y-119003465D01*
X132668674Y-119003465D01*
G37*
G36*
X123561968Y-118633565D02*
G01*
X123600638Y-118645296D01*
X123636277Y-118664346D01*
X123667517Y-118689983D01*
X123693154Y-118721223D01*
X123712204Y-118756862D01*
X123723935Y-118795532D01*
X123728500Y-118841888D01*
X123728500Y-119918112D01*
X123723935Y-119964468D01*
X123712204Y-120003138D01*
X123693154Y-120038777D01*
X123667517Y-120070017D01*
X123636277Y-120095654D01*
X123600638Y-120114704D01*
X123561968Y-120126435D01*
X123515612Y-120131000D01*
X122864388Y-120131000D01*
X122818032Y-120126435D01*
X122779362Y-120114704D01*
X122743723Y-120095654D01*
X122712483Y-120070017D01*
X122686846Y-120038777D01*
X122667796Y-120003138D01*
X122656065Y-119964468D01*
X122651500Y-119918112D01*
X122651500Y-118841888D01*
X122656065Y-118795532D01*
X122667796Y-118756862D01*
X122686846Y-118721223D01*
X122712483Y-118689983D01*
X122743723Y-118664346D01*
X122779362Y-118645296D01*
X122818032Y-118633565D01*
X122864388Y-118629000D01*
X123515612Y-118629000D01*
X123561968Y-118633565D01*
X123561968Y-118633565D01*
G37*
G36*
X121686968Y-118633565D02*
G01*
X121725638Y-118645296D01*
X121761277Y-118664346D01*
X121792517Y-118689983D01*
X121818154Y-118721223D01*
X121837204Y-118756862D01*
X121848935Y-118795532D01*
X121853500Y-118841888D01*
X121853500Y-119918112D01*
X121848935Y-119964468D01*
X121837204Y-120003138D01*
X121818154Y-120038777D01*
X121792517Y-120070017D01*
X121761277Y-120095654D01*
X121725638Y-120114704D01*
X121686968Y-120126435D01*
X121640612Y-120131000D01*
X120989388Y-120131000D01*
X120943032Y-120126435D01*
X120904362Y-120114704D01*
X120868723Y-120095654D01*
X120837483Y-120070017D01*
X120811846Y-120038777D01*
X120792796Y-120003138D01*
X120781065Y-119964468D01*
X120776500Y-119918112D01*
X120776500Y-118841888D01*
X120781065Y-118795532D01*
X120792796Y-118756862D01*
X120811846Y-118721223D01*
X120837483Y-118689983D01*
X120868723Y-118664346D01*
X120904362Y-118645296D01*
X120943032Y-118633565D01*
X120989388Y-118629000D01*
X121640612Y-118629000D01*
X121686968Y-118633565D01*
X121686968Y-118633565D01*
G37*
G36*
X145028228Y-117291703D02*
G01*
X145183100Y-117355853D01*
X145322481Y-117448985D01*
X145441015Y-117567519D01*
X145534147Y-117706900D01*
X145598297Y-117861772D01*
X145631000Y-118026184D01*
X145631000Y-118193816D01*
X145598297Y-118358228D01*
X145534147Y-118513100D01*
X145441015Y-118652481D01*
X145322481Y-118771015D01*
X145183100Y-118864147D01*
X145028228Y-118928297D01*
X144863816Y-118961000D01*
X144696184Y-118961000D01*
X144531772Y-118928297D01*
X144376900Y-118864147D01*
X144237519Y-118771015D01*
X144118985Y-118652481D01*
X144025853Y-118513100D01*
X143961703Y-118358228D01*
X143929000Y-118193816D01*
X143929000Y-118026184D01*
X143961703Y-117861772D01*
X144025853Y-117706900D01*
X144118985Y-117567519D01*
X144237519Y-117448985D01*
X144376900Y-117355853D01*
X144531772Y-117291703D01*
X144696184Y-117259000D01*
X144863816Y-117259000D01*
X145028228Y-117291703D01*
X145028228Y-117291703D01*
G37*
G36*
X152566823Y-117271313D02*
G01*
X152727242Y-117319976D01*
X152859906Y-117390886D01*
X152875078Y-117398996D01*
X153004659Y-117505341D01*
X153111004Y-117634922D01*
X153111005Y-117634924D01*
X153190024Y-117782758D01*
X153190025Y-117782761D01*
X153191682Y-117788222D01*
X153238687Y-117943177D01*
X153255117Y-118110000D01*
X153238687Y-118276823D01*
X153207616Y-118379250D01*
X153190519Y-118435612D01*
X153190024Y-118437242D01*
X153149477Y-118513100D01*
X153111004Y-118585078D01*
X153004659Y-118714659D01*
X152875078Y-118821004D01*
X152875076Y-118821005D01*
X152727242Y-118900024D01*
X152566823Y-118948687D01*
X152441804Y-118961000D01*
X152358196Y-118961000D01*
X152233177Y-118948687D01*
X152072758Y-118900024D01*
X151924924Y-118821005D01*
X151924922Y-118821004D01*
X151795341Y-118714659D01*
X151688996Y-118585078D01*
X151650523Y-118513100D01*
X151609976Y-118437242D01*
X151609482Y-118435612D01*
X151592384Y-118379250D01*
X151561313Y-118276823D01*
X151544883Y-118110000D01*
X151561313Y-117943177D01*
X151608318Y-117788222D01*
X151609975Y-117782761D01*
X151609976Y-117782758D01*
X151688995Y-117634924D01*
X151688996Y-117634922D01*
X151795341Y-117505341D01*
X151924922Y-117398996D01*
X151940094Y-117390886D01*
X152072758Y-117319976D01*
X152233177Y-117271313D01*
X152358196Y-117259000D01*
X152441804Y-117259000D01*
X152566823Y-117271313D01*
X152566823Y-117271313D01*
G37*
G36*
X156458228Y-117291703D02*
G01*
X156613100Y-117355853D01*
X156752481Y-117448985D01*
X156871015Y-117567519D01*
X156964147Y-117706900D01*
X157028297Y-117861772D01*
X157061000Y-118026184D01*
X157061000Y-118193816D01*
X157028297Y-118358228D01*
X156964147Y-118513100D01*
X156871015Y-118652481D01*
X156752481Y-118771015D01*
X156613100Y-118864147D01*
X156458228Y-118928297D01*
X156293816Y-118961000D01*
X156126184Y-118961000D01*
X155961772Y-118928297D01*
X155806900Y-118864147D01*
X155667519Y-118771015D01*
X155548985Y-118652481D01*
X155455853Y-118513100D01*
X155391703Y-118358228D01*
X155359000Y-118193816D01*
X155359000Y-118026184D01*
X155391703Y-117861772D01*
X155455853Y-117706900D01*
X155548985Y-117567519D01*
X155667519Y-117448985D01*
X155806900Y-117355853D01*
X155961772Y-117291703D01*
X156126184Y-117259000D01*
X156293816Y-117259000D01*
X156458228Y-117291703D01*
X156458228Y-117291703D01*
G37*
G36*
X130124468Y-117576065D02*
G01*
X130163138Y-117587796D01*
X130198777Y-117606846D01*
X130230017Y-117632483D01*
X130255654Y-117663723D01*
X130274704Y-117699362D01*
X130286435Y-117738032D01*
X130291000Y-117784388D01*
X130291000Y-118435612D01*
X130286435Y-118481968D01*
X130274704Y-118520638D01*
X130255654Y-118556277D01*
X130230017Y-118587517D01*
X130198777Y-118613154D01*
X130163138Y-118632204D01*
X130124468Y-118643935D01*
X130078112Y-118648500D01*
X129001888Y-118648500D01*
X128955532Y-118643935D01*
X128916862Y-118632204D01*
X128881223Y-118613154D01*
X128849983Y-118587517D01*
X128824346Y-118556277D01*
X128805296Y-118520638D01*
X128793565Y-118481968D01*
X128789000Y-118435612D01*
X128789000Y-117784388D01*
X128793565Y-117738032D01*
X128805296Y-117699362D01*
X128824346Y-117663723D01*
X128849983Y-117632483D01*
X128881223Y-117606846D01*
X128916862Y-117587796D01*
X128955532Y-117576065D01*
X129001888Y-117571500D01*
X130078112Y-117571500D01*
X130124468Y-117576065D01*
X130124468Y-117576065D01*
G37*
G36*
X90450870Y-118390870D02*
G01*
X87349130Y-118390870D01*
X87349130Y-115289130D01*
X90450870Y-115289130D01*
X90450870Y-118390870D01*
X90450870Y-118390870D01*
G37*
G36*
X141218228Y-116021703D02*
G01*
X141373100Y-116085853D01*
X141512481Y-116178985D01*
X141631015Y-116297519D01*
X141724147Y-116436900D01*
X141788297Y-116591772D01*
X141821000Y-116756184D01*
X141821000Y-116923816D01*
X141788297Y-117088228D01*
X141724147Y-117243100D01*
X141631015Y-117382481D01*
X141512481Y-117501015D01*
X141373100Y-117594147D01*
X141218228Y-117658297D01*
X141053816Y-117691000D01*
X140886184Y-117691000D01*
X140721772Y-117658297D01*
X140566900Y-117594147D01*
X140427519Y-117501015D01*
X140308985Y-117382481D01*
X140215853Y-117243100D01*
X140151703Y-117088228D01*
X140119000Y-116923816D01*
X140119000Y-116756184D01*
X140151703Y-116591772D01*
X140215853Y-116436900D01*
X140308985Y-116297519D01*
X140427519Y-116178985D01*
X140566900Y-116085853D01*
X140721772Y-116021703D01*
X140886184Y-115989000D01*
X141053816Y-115989000D01*
X141218228Y-116021703D01*
X141218228Y-116021703D01*
G37*
G36*
X133516823Y-116001313D02*
G01*
X133677242Y-116049976D01*
X133744361Y-116085852D01*
X133825078Y-116128996D01*
X133954659Y-116235341D01*
X134061004Y-116364922D01*
X134061005Y-116364924D01*
X134140024Y-116512758D01*
X134188687Y-116673177D01*
X134205117Y-116840000D01*
X134188687Y-117006823D01*
X134140024Y-117167242D01*
X134099477Y-117243100D01*
X134061004Y-117315078D01*
X133954659Y-117444659D01*
X133825078Y-117551004D01*
X133825076Y-117551005D01*
X133677242Y-117630024D01*
X133516823Y-117678687D01*
X133391804Y-117691000D01*
X133308196Y-117691000D01*
X133183177Y-117678687D01*
X133022758Y-117630024D01*
X132874924Y-117551005D01*
X132874922Y-117551004D01*
X132745341Y-117444659D01*
X132638996Y-117315078D01*
X132600523Y-117243100D01*
X132559976Y-117167242D01*
X132511313Y-117006823D01*
X132494883Y-116840000D01*
X132511313Y-116673177D01*
X132559976Y-116512758D01*
X132638995Y-116364924D01*
X132638996Y-116364922D01*
X132745341Y-116235341D01*
X132874922Y-116128996D01*
X132955639Y-116085852D01*
X133022758Y-116049976D01*
X133183177Y-116001313D01*
X133308196Y-115989000D01*
X133391804Y-115989000D01*
X133516823Y-116001313D01*
X133516823Y-116001313D01*
G37*
G36*
X130124468Y-115701065D02*
G01*
X130163138Y-115712796D01*
X130198777Y-115731846D01*
X130230017Y-115757483D01*
X130255654Y-115788723D01*
X130274704Y-115824362D01*
X130286435Y-115863032D01*
X130291000Y-115909388D01*
X130291000Y-116560612D01*
X130286435Y-116606968D01*
X130274704Y-116645638D01*
X130255654Y-116681277D01*
X130230017Y-116712517D01*
X130198777Y-116738154D01*
X130163138Y-116757204D01*
X130124468Y-116768935D01*
X130078112Y-116773500D01*
X129001888Y-116773500D01*
X128955532Y-116768935D01*
X128916862Y-116757204D01*
X128881223Y-116738154D01*
X128849983Y-116712517D01*
X128824346Y-116681277D01*
X128805296Y-116645638D01*
X128793565Y-116606968D01*
X128789000Y-116560612D01*
X128789000Y-115909388D01*
X128793565Y-115863032D01*
X128805296Y-115824362D01*
X128824346Y-115788723D01*
X128849983Y-115757483D01*
X128881223Y-115731846D01*
X128916862Y-115712796D01*
X128955532Y-115701065D01*
X129001888Y-115696500D01*
X130078112Y-115696500D01*
X130124468Y-115701065D01*
X130124468Y-115701065D01*
G37*
G36*
X106805589Y-114808876D02*
G01*
X106904893Y-114828629D01*
X107045206Y-114886748D01*
X107171484Y-114971125D01*
X107278875Y-115078516D01*
X107363252Y-115204794D01*
X107421371Y-115345107D01*
X107451000Y-115494063D01*
X107451000Y-115645937D01*
X107421371Y-115794893D01*
X107363252Y-115935206D01*
X107278875Y-116061484D01*
X107171484Y-116168875D01*
X107045206Y-116253252D01*
X106904893Y-116311371D01*
X106805589Y-116331124D01*
X106755938Y-116341000D01*
X106604062Y-116341000D01*
X106554411Y-116331124D01*
X106455107Y-116311371D01*
X106314794Y-116253252D01*
X106188516Y-116168875D01*
X106081125Y-116061484D01*
X105996748Y-115935206D01*
X105938629Y-115794893D01*
X105909000Y-115645937D01*
X105909000Y-115494063D01*
X105938629Y-115345107D01*
X105996748Y-115204794D01*
X106081125Y-115078516D01*
X106188516Y-114971125D01*
X106314794Y-114886748D01*
X106455107Y-114828629D01*
X106554411Y-114808876D01*
X106604062Y-114799000D01*
X106755938Y-114799000D01*
X106805589Y-114808876D01*
X106805589Y-114808876D01*
G37*
G36*
X101725589Y-114808876D02*
G01*
X101824893Y-114828629D01*
X101965206Y-114886748D01*
X102091484Y-114971125D01*
X102198875Y-115078516D01*
X102283252Y-115204794D01*
X102341371Y-115345107D01*
X102371000Y-115494063D01*
X102371000Y-115645937D01*
X102341371Y-115794893D01*
X102283252Y-115935206D01*
X102198875Y-116061484D01*
X102091484Y-116168875D01*
X101965206Y-116253252D01*
X101824893Y-116311371D01*
X101725589Y-116331124D01*
X101675938Y-116341000D01*
X101524062Y-116341000D01*
X101474411Y-116331124D01*
X101375107Y-116311371D01*
X101234794Y-116253252D01*
X101108516Y-116168875D01*
X101001125Y-116061484D01*
X100916748Y-115935206D01*
X100858629Y-115794893D01*
X100829000Y-115645937D01*
X100829000Y-115494063D01*
X100858629Y-115345107D01*
X100916748Y-115204794D01*
X101001125Y-115078516D01*
X101108516Y-114971125D01*
X101234794Y-114886748D01*
X101375107Y-114828629D01*
X101474411Y-114808876D01*
X101524062Y-114799000D01*
X101675938Y-114799000D01*
X101725589Y-114808876D01*
X101725589Y-114808876D01*
G37*
G36*
X89252497Y-111518863D02*
G01*
X89352372Y-111538729D01*
X89469279Y-111587154D01*
X89634611Y-111655636D01*
X89888621Y-111825360D01*
X90104640Y-112041379D01*
X90274364Y-112295389D01*
X90330587Y-112431125D01*
X90375071Y-112538517D01*
X90391271Y-112577629D01*
X90450870Y-112877251D01*
X90450870Y-113182749D01*
X90411137Y-113382497D01*
X90391271Y-113482372D01*
X90375070Y-113521484D01*
X90274364Y-113764611D01*
X90104640Y-114018621D01*
X89888621Y-114234640D01*
X89634611Y-114404364D01*
X89469279Y-114472846D01*
X89352372Y-114521271D01*
X89252497Y-114541137D01*
X89052749Y-114580870D01*
X88747251Y-114580870D01*
X88547503Y-114541137D01*
X88447628Y-114521271D01*
X88330721Y-114472846D01*
X88165389Y-114404364D01*
X87911379Y-114234640D01*
X87695360Y-114018621D01*
X87525636Y-113764611D01*
X87424930Y-113521484D01*
X87408729Y-113482372D01*
X87388863Y-113382497D01*
X87349130Y-113182749D01*
X87349130Y-112877251D01*
X87408729Y-112577629D01*
X87424930Y-112538517D01*
X87469413Y-112431125D01*
X87525636Y-112295389D01*
X87695360Y-112041379D01*
X87911379Y-111825360D01*
X88165389Y-111655636D01*
X88330721Y-111587154D01*
X88447628Y-111538729D01*
X88547503Y-111518863D01*
X88747251Y-111479130D01*
X89052749Y-111479130D01*
X89252497Y-111518863D01*
X89252497Y-111518863D01*
G37*
G36*
X104265589Y-112268876D02*
G01*
X104364893Y-112288629D01*
X104505206Y-112346748D01*
X104631484Y-112431125D01*
X104738875Y-112538516D01*
X104823252Y-112664794D01*
X104881371Y-112805107D01*
X104911000Y-112954063D01*
X104911000Y-113105937D01*
X104881371Y-113254893D01*
X104823252Y-113395206D01*
X104738875Y-113521484D01*
X104631484Y-113628875D01*
X104505206Y-113713252D01*
X104364893Y-113771371D01*
X104265589Y-113791124D01*
X104215938Y-113801000D01*
X104064062Y-113801000D01*
X104014411Y-113791124D01*
X103915107Y-113771371D01*
X103774794Y-113713252D01*
X103648516Y-113628875D01*
X103541125Y-113521484D01*
X103456748Y-113395206D01*
X103398629Y-113254893D01*
X103369000Y-113105937D01*
X103369000Y-112954063D01*
X103398629Y-112805107D01*
X103456748Y-112664794D01*
X103541125Y-112538516D01*
X103648516Y-112431125D01*
X103774794Y-112346748D01*
X103915107Y-112288629D01*
X104014411Y-112268876D01*
X104064062Y-112259000D01*
X104215938Y-112259000D01*
X104265589Y-112268876D01*
X104265589Y-112268876D01*
G37*
G36*
X135501000Y-113681000D02*
G01*
X134499000Y-113681000D01*
X134499000Y-112379000D01*
X135501000Y-112379000D01*
X135501000Y-113681000D01*
X135501000Y-113681000D01*
G37*
G36*
X137661000Y-113681000D02*
G01*
X136659000Y-113681000D01*
X136659000Y-112379000D01*
X137661000Y-112379000D01*
X137661000Y-113681000D01*
X137661000Y-113681000D01*
G37*
G36*
X140961000Y-113681000D02*
G01*
X139959000Y-113681000D01*
X139959000Y-112379000D01*
X140961000Y-112379000D01*
X140961000Y-113681000D01*
X140961000Y-113681000D01*
G37*
G36*
X132201000Y-113681000D02*
G01*
X131199000Y-113681000D01*
X131199000Y-112379000D01*
X132201000Y-112379000D01*
X132201000Y-113681000D01*
X132201000Y-113681000D01*
G37*
M02*
