G04 #@! TF.GenerationSoftware,KiCad,Pcbnew,(5.1.2)-2*
G04 #@! TF.CreationDate,2019-11-18T15:02:21-05:00*
G04 #@! TF.ProjectId,Lab_Sensing,4c61625f-5365-46e7-9369-6e672e6b6963,rev?*
G04 #@! TF.SameCoordinates,Original*
G04 #@! TF.FileFunction,Legend,Top*
G04 #@! TF.FilePolarity,Positive*
%FSLAX46Y46*%
G04 Gerber Fmt 4.6, Leading zero omitted, Abs format (unit mm)*
G04 Created by KiCad (PCBNEW (5.1.2)-2) date 2019-11-18 15:02:21*
%MOMM*%
%LPD*%
G04 APERTURE LIST*
%ADD10C,0.120000*%
%ADD11C,0.150000*%
G04 APERTURE END LIST*
D10*
X148010000Y-140700000D02*
X154250000Y-140700000D01*
X154250000Y-140700000D02*
X154250000Y-123460000D01*
X154250000Y-123460000D02*
X148010000Y-123460000D01*
X148010000Y-123460000D02*
X148010000Y-140700000D01*
X151130000Y-140800000D02*
X151130000Y-140700000D01*
X151130000Y-123360000D02*
X151130000Y-123460000D01*
X118840000Y-145820000D02*
X118840000Y-146150000D01*
X118840000Y-146150000D02*
X112300000Y-146150000D01*
X112300000Y-146150000D02*
X112300000Y-145820000D01*
X118840000Y-143740000D02*
X118840000Y-143410000D01*
X118840000Y-143410000D02*
X112300000Y-143410000D01*
X112300000Y-143410000D02*
X112300000Y-143740000D01*
X140430000Y-117880000D02*
X140430000Y-118210000D01*
X140430000Y-118210000D02*
X133890000Y-118210000D01*
X133890000Y-118210000D02*
X133890000Y-117880000D01*
X140430000Y-115800000D02*
X140430000Y-115470000D01*
X140430000Y-115470000D02*
X133890000Y-115470000D01*
X133890000Y-115470000D02*
X133890000Y-115800000D01*
X112300000Y-139600000D02*
X112300000Y-139930000D01*
X118840000Y-139600000D02*
X112300000Y-139600000D01*
X118840000Y-139930000D02*
X118840000Y-139600000D01*
X112300000Y-142340000D02*
X112300000Y-142010000D01*
X118840000Y-142340000D02*
X112300000Y-142340000D01*
X118840000Y-142010000D02*
X118840000Y-142340000D01*
X130270000Y-142010000D02*
X130270000Y-142340000D01*
X130270000Y-142340000D02*
X123730000Y-142340000D01*
X123730000Y-142340000D02*
X123730000Y-142010000D01*
X130270000Y-139930000D02*
X130270000Y-139600000D01*
X130270000Y-139600000D02*
X123730000Y-139600000D01*
X123730000Y-139600000D02*
X123730000Y-139930000D01*
X118840000Y-138200000D02*
X118840000Y-138530000D01*
X118840000Y-138530000D02*
X112300000Y-138530000D01*
X112300000Y-138530000D02*
X112300000Y-138200000D01*
X118840000Y-136120000D02*
X118840000Y-135790000D01*
X118840000Y-135790000D02*
X112300000Y-135790000D01*
X112300000Y-135790000D02*
X112300000Y-136120000D01*
X107560000Y-128400000D02*
X107560000Y-131430000D01*
X107560000Y-132730000D02*
X107560000Y-135640000D01*
X100720000Y-128400000D02*
X100720000Y-131430000D01*
X100720000Y-132730000D02*
X100720000Y-135640000D01*
X107560000Y-128400000D02*
X100720000Y-128400000D01*
X107560000Y-135640000D02*
X100720000Y-135640000D01*
X100720000Y-112010000D02*
X107560000Y-112010000D01*
X100720000Y-119250000D02*
X107560000Y-119250000D01*
X107560000Y-114920000D02*
X107560000Y-112010000D01*
X107560000Y-119250000D02*
X107560000Y-116220000D01*
X100720000Y-114920000D02*
X100720000Y-112010000D01*
X100720000Y-119250000D02*
X100720000Y-116220000D01*
X126440000Y-120633748D02*
X126440000Y-121156252D01*
X125020000Y-120633748D02*
X125020000Y-121156252D01*
X126440000Y-124966252D02*
X126440000Y-124443748D01*
X125020000Y-124966252D02*
X125020000Y-124443748D01*
X132790000Y-120388748D02*
X132790000Y-120911252D01*
X131370000Y-120388748D02*
X131370000Y-120911252D01*
X147380000Y-122980000D02*
X147380000Y-124780000D01*
X148280000Y-123880000D02*
X146480000Y-123880000D01*
X147400000Y-125080000D02*
X142160000Y-125080000D01*
X147400000Y-136320000D02*
X142160000Y-136320000D01*
X147400000Y-125080000D02*
X147400000Y-126880000D01*
X147400000Y-126880000D02*
X146500000Y-127780000D01*
X146500000Y-127780000D02*
X147400000Y-128680000D01*
X147400000Y-128680000D02*
X147400000Y-136320000D01*
X142160000Y-125080000D02*
X142160000Y-126880000D01*
X142160000Y-126880000D02*
X143060000Y-127780000D01*
X143060000Y-127780000D02*
X142160000Y-128680000D01*
X142160000Y-128680000D02*
X142160000Y-136320000D01*
X144780000Y-123140000D02*
X144780000Y-125080000D01*
X144780000Y-138260000D02*
X144780000Y-136320000D01*
X141060000Y-114030000D02*
X137160000Y-114030000D01*
X141060000Y-112030000D02*
X137160000Y-112030000D01*
X141060000Y-114030000D02*
X141060000Y-112030000D01*
X131100000Y-112030000D02*
X131100000Y-114030000D01*
X131100000Y-114030000D02*
X135000000Y-114030000D01*
X131100000Y-112030000D02*
X135000000Y-112030000D01*
X154880000Y-128210000D02*
X156210000Y-128210000D01*
X154880000Y-129540000D02*
X154880000Y-128210000D01*
X154880000Y-130810000D02*
X157540000Y-130810000D01*
X157540000Y-130810000D02*
X157540000Y-130870000D01*
X154880000Y-130810000D02*
X154880000Y-130870000D01*
X154880000Y-130870000D02*
X157540000Y-130870000D01*
X133290000Y-139640000D02*
X134620000Y-139640000D01*
X133290000Y-140970000D02*
X133290000Y-139640000D01*
X133290000Y-142240000D02*
X135950000Y-142240000D01*
X135950000Y-142240000D02*
X135950000Y-142300000D01*
X133290000Y-142240000D02*
X133290000Y-142300000D01*
X133290000Y-142300000D02*
X135950000Y-142300000D01*
X87570000Y-142300000D02*
X90230000Y-142300000D01*
X87570000Y-134620000D02*
X87570000Y-142300000D01*
X90230000Y-134620000D02*
X90230000Y-142300000D01*
X87570000Y-134620000D02*
X90230000Y-134620000D01*
X87570000Y-133350000D02*
X87570000Y-132020000D01*
X87570000Y-132020000D02*
X88900000Y-132020000D01*
X154840000Y-125190000D02*
X155170000Y-125190000D01*
X154840000Y-118650000D02*
X154840000Y-125190000D01*
X155170000Y-118650000D02*
X154840000Y-118650000D01*
X157580000Y-125190000D02*
X157250000Y-125190000D01*
X157580000Y-118650000D02*
X157580000Y-125190000D01*
X157250000Y-118650000D02*
X157580000Y-118650000D01*
X151860000Y-119480000D02*
X151860000Y-119150000D01*
X145320000Y-119480000D02*
X151860000Y-119480000D01*
X145320000Y-119150000D02*
X145320000Y-119480000D01*
X151860000Y-116740000D02*
X151860000Y-117070000D01*
X145320000Y-116740000D02*
X151860000Y-116740000D01*
X145320000Y-117070000D02*
X145320000Y-116740000D01*
X123730000Y-135790000D02*
X123730000Y-136120000D01*
X130270000Y-135790000D02*
X123730000Y-135790000D01*
X130270000Y-136120000D02*
X130270000Y-135790000D01*
X123730000Y-138530000D02*
X123730000Y-138200000D01*
X130270000Y-138530000D02*
X123730000Y-138530000D01*
X130270000Y-138200000D02*
X130270000Y-138530000D01*
X137160000Y-124480000D02*
X139110000Y-124480000D01*
X137160000Y-124480000D02*
X135210000Y-124480000D01*
X137160000Y-119360000D02*
X139110000Y-119360000D01*
X137160000Y-119360000D02*
X133710000Y-119360000D01*
X122511078Y-122630000D02*
X121993922Y-122630000D01*
X122511078Y-121210000D02*
X121993922Y-121210000D01*
X122511078Y-126290000D02*
X121993922Y-126290000D01*
X122511078Y-127710000D02*
X121993922Y-127710000D01*
X128830000Y-121241078D02*
X128830000Y-120723922D01*
X130250000Y-121241078D02*
X130250000Y-120723922D01*
X128830000Y-116913922D02*
X128830000Y-117431078D01*
X130250000Y-116913922D02*
X130250000Y-117431078D01*
X111890000Y-119770000D02*
X114920000Y-119770000D01*
X116220000Y-119770000D02*
X119130000Y-119770000D01*
X111890000Y-126610000D02*
X114920000Y-126610000D01*
X116220000Y-126610000D02*
X119130000Y-126610000D01*
X111890000Y-119770000D02*
X111890000Y-126610000D01*
X119130000Y-119770000D02*
X119130000Y-126610000D01*
X122511078Y-120090000D02*
X121993922Y-120090000D01*
X122511078Y-118670000D02*
X121993922Y-118670000D01*
X121993922Y-125170000D02*
X122511078Y-125170000D01*
X121993922Y-123750000D02*
X122511078Y-123750000D01*
X104140000Y-138410000D02*
X102190000Y-138410000D01*
X104140000Y-138410000D02*
X106090000Y-138410000D01*
X104140000Y-143530000D02*
X102190000Y-143530000D01*
X104140000Y-143530000D02*
X107590000Y-143530000D01*
X104205000Y-121265000D02*
X102255000Y-121265000D01*
X104205000Y-121265000D02*
X106155000Y-121265000D01*
X104205000Y-126385000D02*
X102255000Y-126385000D01*
X104205000Y-126385000D02*
X107655000Y-126385000D01*
D11*
X154122380Y-132722857D02*
X153646190Y-133056190D01*
X154122380Y-133294285D02*
X153122380Y-133294285D01*
X153122380Y-132913333D01*
X153170000Y-132818095D01*
X153217619Y-132770476D01*
X153312857Y-132722857D01*
X153455714Y-132722857D01*
X153550952Y-132770476D01*
X153598571Y-132818095D01*
X153646190Y-132913333D01*
X153646190Y-133294285D01*
X154122380Y-131770476D02*
X154122380Y-132341904D01*
X154122380Y-132056190D02*
X153122380Y-132056190D01*
X153265238Y-132151428D01*
X153360476Y-132246666D01*
X153408095Y-132341904D01*
X153122380Y-131437142D02*
X153122380Y-130818095D01*
X153503333Y-131151428D01*
X153503333Y-131008571D01*
X153550952Y-130913333D01*
X153598571Y-130865714D01*
X153693809Y-130818095D01*
X153931904Y-130818095D01*
X154027142Y-130865714D01*
X154074761Y-130913333D01*
X154122380Y-131008571D01*
X154122380Y-131294285D01*
X154074761Y-131389523D01*
X154027142Y-131437142D01*
X109053333Y-145232380D02*
X108720000Y-144756190D01*
X108481904Y-145232380D02*
X108481904Y-144232380D01*
X108862857Y-144232380D01*
X108958095Y-144280000D01*
X109005714Y-144327619D01*
X109053333Y-144422857D01*
X109053333Y-144565714D01*
X109005714Y-144660952D01*
X108958095Y-144708571D01*
X108862857Y-144756190D01*
X108481904Y-144756190D01*
X109434285Y-144327619D02*
X109481904Y-144280000D01*
X109577142Y-144232380D01*
X109815238Y-144232380D01*
X109910476Y-144280000D01*
X109958095Y-144327619D01*
X110005714Y-144422857D01*
X110005714Y-144518095D01*
X109958095Y-144660952D01*
X109386666Y-145232380D01*
X110005714Y-145232380D01*
X85018571Y-125880714D02*
X85066190Y-125737857D01*
X85113809Y-125690238D01*
X85209047Y-125642619D01*
X85351904Y-125642619D01*
X85447142Y-125690238D01*
X85494761Y-125737857D01*
X85542380Y-125833095D01*
X85542380Y-126214047D01*
X84542380Y-126214047D01*
X84542380Y-125880714D01*
X84590000Y-125785476D01*
X84637619Y-125737857D01*
X84732857Y-125690238D01*
X84828095Y-125690238D01*
X84923333Y-125737857D01*
X84970952Y-125785476D01*
X85018571Y-125880714D01*
X85018571Y-126214047D01*
X84542380Y-125356904D02*
X84542380Y-124785476D01*
X85542380Y-125071190D02*
X84542380Y-125071190D01*
X85542380Y-123928333D02*
X85542380Y-124499761D01*
X85542380Y-124214047D02*
X84542380Y-124214047D01*
X84685238Y-124309285D01*
X84780476Y-124404523D01*
X84828095Y-124499761D01*
X141597142Y-116022380D02*
X141263809Y-115546190D01*
X141025714Y-116022380D02*
X141025714Y-115022380D01*
X141406666Y-115022380D01*
X141501904Y-115070000D01*
X141549523Y-115117619D01*
X141597142Y-115212857D01*
X141597142Y-115355714D01*
X141549523Y-115450952D01*
X141501904Y-115498571D01*
X141406666Y-115546190D01*
X141025714Y-115546190D01*
X142549523Y-116022380D02*
X141978095Y-116022380D01*
X142263809Y-116022380D02*
X142263809Y-115022380D01*
X142168571Y-115165238D01*
X142073333Y-115260476D01*
X141978095Y-115308095D01*
X143406666Y-115022380D02*
X143216190Y-115022380D01*
X143120952Y-115070000D01*
X143073333Y-115117619D01*
X142978095Y-115260476D01*
X142930476Y-115450952D01*
X142930476Y-115831904D01*
X142978095Y-115927142D01*
X143025714Y-115974761D01*
X143120952Y-116022380D01*
X143311428Y-116022380D01*
X143406666Y-115974761D01*
X143454285Y-115927142D01*
X143501904Y-115831904D01*
X143501904Y-115593809D01*
X143454285Y-115498571D01*
X143406666Y-115450952D01*
X143311428Y-115403333D01*
X143120952Y-115403333D01*
X143025714Y-115450952D01*
X142978095Y-115498571D01*
X142930476Y-115593809D01*
X109053333Y-141422380D02*
X108720000Y-140946190D01*
X108481904Y-141422380D02*
X108481904Y-140422380D01*
X108862857Y-140422380D01*
X108958095Y-140470000D01*
X109005714Y-140517619D01*
X109053333Y-140612857D01*
X109053333Y-140755714D01*
X109005714Y-140850952D01*
X108958095Y-140898571D01*
X108862857Y-140946190D01*
X108481904Y-140946190D01*
X109529523Y-141422380D02*
X109720000Y-141422380D01*
X109815238Y-141374761D01*
X109862857Y-141327142D01*
X109958095Y-141184285D01*
X110005714Y-140993809D01*
X110005714Y-140612857D01*
X109958095Y-140517619D01*
X109910476Y-140470000D01*
X109815238Y-140422380D01*
X109624761Y-140422380D01*
X109529523Y-140470000D01*
X109481904Y-140517619D01*
X109434285Y-140612857D01*
X109434285Y-140850952D01*
X109481904Y-140946190D01*
X109529523Y-140993809D01*
X109624761Y-141041428D01*
X109815238Y-141041428D01*
X109910476Y-140993809D01*
X109958095Y-140946190D01*
X110005714Y-140850952D01*
X126833333Y-143792380D02*
X126500000Y-143316190D01*
X126261904Y-143792380D02*
X126261904Y-142792380D01*
X126642857Y-142792380D01*
X126738095Y-142840000D01*
X126785714Y-142887619D01*
X126833333Y-142982857D01*
X126833333Y-143125714D01*
X126785714Y-143220952D01*
X126738095Y-143268571D01*
X126642857Y-143316190D01*
X126261904Y-143316190D01*
X127785714Y-143792380D02*
X127214285Y-143792380D01*
X127500000Y-143792380D02*
X127500000Y-142792380D01*
X127404761Y-142935238D01*
X127309523Y-143030476D01*
X127214285Y-143078095D01*
X114927142Y-133802380D02*
X114593809Y-133326190D01*
X114355714Y-133802380D02*
X114355714Y-132802380D01*
X114736666Y-132802380D01*
X114831904Y-132850000D01*
X114879523Y-132897619D01*
X114927142Y-132992857D01*
X114927142Y-133135714D01*
X114879523Y-133230952D01*
X114831904Y-133278571D01*
X114736666Y-133326190D01*
X114355714Y-133326190D01*
X115308095Y-132897619D02*
X115355714Y-132850000D01*
X115450952Y-132802380D01*
X115689047Y-132802380D01*
X115784285Y-132850000D01*
X115831904Y-132897619D01*
X115879523Y-132992857D01*
X115879523Y-133088095D01*
X115831904Y-133230952D01*
X115260476Y-133802380D01*
X115879523Y-133802380D01*
X116736666Y-133135714D02*
X116736666Y-133802380D01*
X116498571Y-132754761D02*
X116260476Y-133469047D01*
X116879523Y-133469047D01*
X108142380Y-133139047D02*
X108142380Y-133615238D01*
X108618571Y-133662857D01*
X108570952Y-133615238D01*
X108523333Y-133520000D01*
X108523333Y-133281904D01*
X108570952Y-133186666D01*
X108618571Y-133139047D01*
X108713809Y-133091428D01*
X108951904Y-133091428D01*
X109047142Y-133139047D01*
X109094761Y-133186666D01*
X109142380Y-133281904D01*
X109142380Y-133520000D01*
X109094761Y-133615238D01*
X109047142Y-133662857D01*
X108142380Y-132472380D02*
X108142380Y-132377142D01*
X108190000Y-132281904D01*
X108237619Y-132234285D01*
X108332857Y-132186666D01*
X108523333Y-132139047D01*
X108761428Y-132139047D01*
X108951904Y-132186666D01*
X109047142Y-132234285D01*
X109094761Y-132281904D01*
X109142380Y-132377142D01*
X109142380Y-132472380D01*
X109094761Y-132567619D01*
X109047142Y-132615238D01*
X108951904Y-132662857D01*
X108761428Y-132710476D01*
X108523333Y-132710476D01*
X108332857Y-132662857D01*
X108237619Y-132615238D01*
X108190000Y-132567619D01*
X108142380Y-132472380D01*
X109142380Y-131710476D02*
X108142380Y-131710476D01*
X108761428Y-131615238D02*
X109142380Y-131329523D01*
X108475714Y-131329523D02*
X108856666Y-131710476D01*
X109142380Y-130377142D02*
X109142380Y-130948571D01*
X109142380Y-130662857D02*
X108142380Y-130662857D01*
X108285238Y-130758095D01*
X108380476Y-130853333D01*
X108428095Y-130948571D01*
X99042380Y-116749047D02*
X99042380Y-117225238D01*
X99518571Y-117272857D01*
X99470952Y-117225238D01*
X99423333Y-117130000D01*
X99423333Y-116891904D01*
X99470952Y-116796666D01*
X99518571Y-116749047D01*
X99613809Y-116701428D01*
X99851904Y-116701428D01*
X99947142Y-116749047D01*
X99994761Y-116796666D01*
X100042380Y-116891904D01*
X100042380Y-117130000D01*
X99994761Y-117225238D01*
X99947142Y-117272857D01*
X99042380Y-116082380D02*
X99042380Y-115987142D01*
X99090000Y-115891904D01*
X99137619Y-115844285D01*
X99232857Y-115796666D01*
X99423333Y-115749047D01*
X99661428Y-115749047D01*
X99851904Y-115796666D01*
X99947142Y-115844285D01*
X99994761Y-115891904D01*
X100042380Y-115987142D01*
X100042380Y-116082380D01*
X99994761Y-116177619D01*
X99947142Y-116225238D01*
X99851904Y-116272857D01*
X99661428Y-116320476D01*
X99423333Y-116320476D01*
X99232857Y-116272857D01*
X99137619Y-116225238D01*
X99090000Y-116177619D01*
X99042380Y-116082380D01*
X100042380Y-115320476D02*
X99042380Y-115320476D01*
X99661428Y-115225238D02*
X100042380Y-114939523D01*
X99375714Y-114939523D02*
X99756666Y-115320476D01*
X99137619Y-114558571D02*
X99090000Y-114510952D01*
X99042380Y-114415714D01*
X99042380Y-114177619D01*
X99090000Y-114082380D01*
X99137619Y-114034761D01*
X99232857Y-113987142D01*
X99328095Y-113987142D01*
X99470952Y-114034761D01*
X100042380Y-114606190D01*
X100042380Y-113987142D01*
X85018571Y-115720714D02*
X85066190Y-115577857D01*
X85113809Y-115530238D01*
X85209047Y-115482619D01*
X85351904Y-115482619D01*
X85447142Y-115530238D01*
X85494761Y-115577857D01*
X85542380Y-115673095D01*
X85542380Y-116054047D01*
X84542380Y-116054047D01*
X84542380Y-115720714D01*
X84590000Y-115625476D01*
X84637619Y-115577857D01*
X84732857Y-115530238D01*
X84828095Y-115530238D01*
X84923333Y-115577857D01*
X84970952Y-115625476D01*
X85018571Y-115720714D01*
X85018571Y-116054047D01*
X84542380Y-115196904D02*
X84542380Y-114625476D01*
X85542380Y-114911190D02*
X84542380Y-114911190D01*
X84637619Y-114339761D02*
X84590000Y-114292142D01*
X84542380Y-114196904D01*
X84542380Y-113958809D01*
X84590000Y-113863571D01*
X84637619Y-113815952D01*
X84732857Y-113768333D01*
X84828095Y-113768333D01*
X84970952Y-113815952D01*
X85542380Y-114387380D01*
X85542380Y-113768333D01*
X127737142Y-121061666D02*
X127784761Y-121109285D01*
X127832380Y-121252142D01*
X127832380Y-121347380D01*
X127784761Y-121490238D01*
X127689523Y-121585476D01*
X127594285Y-121633095D01*
X127403809Y-121680714D01*
X127260952Y-121680714D01*
X127070476Y-121633095D01*
X126975238Y-121585476D01*
X126880000Y-121490238D01*
X126832380Y-121347380D01*
X126832380Y-121252142D01*
X126880000Y-121109285D01*
X126927619Y-121061666D01*
X127832380Y-120109285D02*
X127832380Y-120680714D01*
X127832380Y-120395000D02*
X126832380Y-120395000D01*
X126975238Y-120490238D01*
X127070476Y-120585476D01*
X127118095Y-120680714D01*
X127800977Y-124725428D02*
X127848596Y-124773047D01*
X127896215Y-124915904D01*
X127896215Y-125011142D01*
X127848596Y-125154000D01*
X127753358Y-125249238D01*
X127658120Y-125296857D01*
X127467644Y-125344476D01*
X127324787Y-125344476D01*
X127134311Y-125296857D01*
X127039073Y-125249238D01*
X126943835Y-125154000D01*
X126896215Y-125011142D01*
X126896215Y-124915904D01*
X126943835Y-124773047D01*
X126991454Y-124725428D01*
X126991454Y-124344476D02*
X126943835Y-124296857D01*
X126896215Y-124201619D01*
X126896215Y-123963523D01*
X126943835Y-123868285D01*
X126991454Y-123820666D01*
X127086692Y-123773047D01*
X127181930Y-123773047D01*
X127324787Y-123820666D01*
X127896215Y-124392095D01*
X127896215Y-123773047D01*
X132167239Y-123852566D02*
X132214858Y-123900185D01*
X132262477Y-124043042D01*
X132262477Y-124138280D01*
X132214858Y-124281138D01*
X132119620Y-124376376D01*
X132024382Y-124423995D01*
X131833906Y-124471614D01*
X131691049Y-124471614D01*
X131500573Y-124423995D01*
X131405335Y-124376376D01*
X131310097Y-124281138D01*
X131262477Y-124138280D01*
X131262477Y-124043042D01*
X131310097Y-123900185D01*
X131357716Y-123852566D01*
X131262477Y-123519233D02*
X131262477Y-122900185D01*
X131643430Y-123233519D01*
X131643430Y-123090661D01*
X131691049Y-122995423D01*
X131738668Y-122947804D01*
X131833906Y-122900185D01*
X132072001Y-122900185D01*
X132167239Y-122947804D01*
X132214858Y-122995423D01*
X132262477Y-123090661D01*
X132262477Y-123376376D01*
X132214858Y-123471614D01*
X132167239Y-123519233D01*
X143867142Y-130976666D02*
X143914761Y-131024285D01*
X143962380Y-131167142D01*
X143962380Y-131262380D01*
X143914761Y-131405238D01*
X143819523Y-131500476D01*
X143724285Y-131548095D01*
X143533809Y-131595714D01*
X143390952Y-131595714D01*
X143200476Y-131548095D01*
X143105238Y-131500476D01*
X143010000Y-131405238D01*
X142962380Y-131262380D01*
X142962380Y-131167142D01*
X143010000Y-131024285D01*
X143057619Y-130976666D01*
X142962380Y-130071904D02*
X142962380Y-130548095D01*
X143438571Y-130595714D01*
X143390952Y-130548095D01*
X143343333Y-130452857D01*
X143343333Y-130214761D01*
X143390952Y-130119523D01*
X143438571Y-130071904D01*
X143533809Y-130024285D01*
X143771904Y-130024285D01*
X143867142Y-130071904D01*
X143914761Y-130119523D01*
X143962380Y-130214761D01*
X143962380Y-130452857D01*
X143914761Y-130548095D01*
X143867142Y-130595714D01*
X138297484Y-111503633D02*
X138297484Y-110503633D01*
X138535580Y-110503633D01*
X138678437Y-110551253D01*
X138773675Y-110646491D01*
X138821294Y-110741729D01*
X138868913Y-110932205D01*
X138868913Y-111075062D01*
X138821294Y-111265538D01*
X138773675Y-111360776D01*
X138678437Y-111456014D01*
X138535580Y-111503633D01*
X138297484Y-111503633D01*
X139202246Y-110503633D02*
X139821294Y-110503633D01*
X139487960Y-110884586D01*
X139630818Y-110884586D01*
X139726056Y-110932205D01*
X139773675Y-110979824D01*
X139821294Y-111075062D01*
X139821294Y-111313157D01*
X139773675Y-111408395D01*
X139726056Y-111456014D01*
X139630818Y-111503633D01*
X139345103Y-111503633D01*
X139249865Y-111456014D01*
X139202246Y-111408395D01*
X132611904Y-111482380D02*
X132611904Y-110482380D01*
X132850000Y-110482380D01*
X132992857Y-110530000D01*
X133088095Y-110625238D01*
X133135714Y-110720476D01*
X133183333Y-110910952D01*
X133183333Y-111053809D01*
X133135714Y-111244285D01*
X133088095Y-111339523D01*
X132992857Y-111434761D01*
X132850000Y-111482380D01*
X132611904Y-111482380D01*
X134040476Y-110815714D02*
X134040476Y-111482380D01*
X133802380Y-110434761D02*
X133564285Y-111149047D01*
X134183333Y-111149047D01*
X155876666Y-126662380D02*
X155876666Y-127376666D01*
X155829047Y-127519523D01*
X155733809Y-127614761D01*
X155590952Y-127662380D01*
X155495714Y-127662380D01*
X156876666Y-127662380D02*
X156305238Y-127662380D01*
X156590952Y-127662380D02*
X156590952Y-126662380D01*
X156495714Y-126805238D01*
X156400476Y-126900476D01*
X156305238Y-126948095D01*
X134286666Y-138092380D02*
X134286666Y-138806666D01*
X134239047Y-138949523D01*
X134143809Y-139044761D01*
X134000952Y-139092380D01*
X133905714Y-139092380D01*
X134715238Y-138187619D02*
X134762857Y-138140000D01*
X134858095Y-138092380D01*
X135096190Y-138092380D01*
X135191428Y-138140000D01*
X135239047Y-138187619D01*
X135286666Y-138282857D01*
X135286666Y-138378095D01*
X135239047Y-138520952D01*
X134667619Y-139092380D01*
X135286666Y-139092380D01*
X88566666Y-130472380D02*
X88566666Y-131186666D01*
X88519047Y-131329523D01*
X88423809Y-131424761D01*
X88280952Y-131472380D01*
X88185714Y-131472380D01*
X88947619Y-130472380D02*
X89566666Y-130472380D01*
X89233333Y-130853333D01*
X89376190Y-130853333D01*
X89471428Y-130900952D01*
X89519047Y-130948571D01*
X89566666Y-131043809D01*
X89566666Y-131281904D01*
X89519047Y-131377142D01*
X89471428Y-131424761D01*
X89376190Y-131472380D01*
X89090476Y-131472380D01*
X88995238Y-131424761D01*
X88947619Y-131377142D01*
X159032380Y-122562857D02*
X158556190Y-122896190D01*
X159032380Y-123134285D02*
X158032380Y-123134285D01*
X158032380Y-122753333D01*
X158080000Y-122658095D01*
X158127619Y-122610476D01*
X158222857Y-122562857D01*
X158365714Y-122562857D01*
X158460952Y-122610476D01*
X158508571Y-122658095D01*
X158556190Y-122753333D01*
X158556190Y-123134285D01*
X159032380Y-121610476D02*
X159032380Y-122181904D01*
X159032380Y-121896190D02*
X158032380Y-121896190D01*
X158175238Y-121991428D01*
X158270476Y-122086666D01*
X158318095Y-122181904D01*
X158032380Y-120705714D02*
X158032380Y-121181904D01*
X158508571Y-121229523D01*
X158460952Y-121181904D01*
X158413333Y-121086666D01*
X158413333Y-120848571D01*
X158460952Y-120753333D01*
X158508571Y-120705714D01*
X158603809Y-120658095D01*
X158841904Y-120658095D01*
X158937142Y-120705714D01*
X158984761Y-120753333D01*
X159032380Y-120848571D01*
X159032380Y-121086666D01*
X158984761Y-121181904D01*
X158937142Y-121229523D01*
X147947142Y-116192380D02*
X147613809Y-115716190D01*
X147375714Y-116192380D02*
X147375714Y-115192380D01*
X147756666Y-115192380D01*
X147851904Y-115240000D01*
X147899523Y-115287619D01*
X147947142Y-115382857D01*
X147947142Y-115525714D01*
X147899523Y-115620952D01*
X147851904Y-115668571D01*
X147756666Y-115716190D01*
X147375714Y-115716190D01*
X148899523Y-116192380D02*
X148328095Y-116192380D01*
X148613809Y-116192380D02*
X148613809Y-115192380D01*
X148518571Y-115335238D01*
X148423333Y-115430476D01*
X148328095Y-115478095D01*
X149232857Y-115192380D02*
X149899523Y-115192380D01*
X149470952Y-116192380D01*
X126357142Y-133802380D02*
X126023809Y-133326190D01*
X125785714Y-133802380D02*
X125785714Y-132802380D01*
X126166666Y-132802380D01*
X126261904Y-132850000D01*
X126309523Y-132897619D01*
X126357142Y-132992857D01*
X126357142Y-133135714D01*
X126309523Y-133230952D01*
X126261904Y-133278571D01*
X126166666Y-133326190D01*
X125785714Y-133326190D01*
X126738095Y-132897619D02*
X126785714Y-132850000D01*
X126880952Y-132802380D01*
X127119047Y-132802380D01*
X127214285Y-132850000D01*
X127261904Y-132897619D01*
X127309523Y-132992857D01*
X127309523Y-133088095D01*
X127261904Y-133230952D01*
X126690476Y-133802380D01*
X127309523Y-133802380D01*
X127642857Y-132802380D02*
X128261904Y-132802380D01*
X127928571Y-133183333D01*
X128071428Y-133183333D01*
X128166666Y-133230952D01*
X128214285Y-133278571D01*
X128261904Y-133373809D01*
X128261904Y-133611904D01*
X128214285Y-133707142D01*
X128166666Y-133754761D01*
X128071428Y-133802380D01*
X127785714Y-133802380D01*
X127690476Y-133754761D01*
X127642857Y-133707142D01*
X136398095Y-126452380D02*
X136398095Y-127261904D01*
X136445714Y-127357142D01*
X136493333Y-127404761D01*
X136588571Y-127452380D01*
X136779047Y-127452380D01*
X136874285Y-127404761D01*
X136921904Y-127357142D01*
X136969523Y-127261904D01*
X136969523Y-126452380D01*
X137398095Y-126547619D02*
X137445714Y-126500000D01*
X137540952Y-126452380D01*
X137779047Y-126452380D01*
X137874285Y-126500000D01*
X137921904Y-126547619D01*
X137969523Y-126642857D01*
X137969523Y-126738095D01*
X137921904Y-126880952D01*
X137350476Y-127452380D01*
X137969523Y-127452380D01*
X119213333Y-121102380D02*
X118880000Y-120626190D01*
X118641904Y-121102380D02*
X118641904Y-120102380D01*
X119022857Y-120102380D01*
X119118095Y-120150000D01*
X119165714Y-120197619D01*
X119213333Y-120292857D01*
X119213333Y-120435714D01*
X119165714Y-120530952D01*
X119118095Y-120578571D01*
X119022857Y-120626190D01*
X118641904Y-120626190D01*
X120118095Y-120102380D02*
X119641904Y-120102380D01*
X119594285Y-120578571D01*
X119641904Y-120530952D01*
X119737142Y-120483333D01*
X119975238Y-120483333D01*
X120070476Y-120530952D01*
X120118095Y-120578571D01*
X120165714Y-120673809D01*
X120165714Y-120911904D01*
X120118095Y-121007142D01*
X120070476Y-121054761D01*
X119975238Y-121102380D01*
X119737142Y-121102380D01*
X119641904Y-121054761D01*
X119594285Y-121007142D01*
X122085833Y-129102380D02*
X121752500Y-128626190D01*
X121514404Y-129102380D02*
X121514404Y-128102380D01*
X121895357Y-128102380D01*
X121990595Y-128150000D01*
X122038214Y-128197619D01*
X122085833Y-128292857D01*
X122085833Y-128435714D01*
X122038214Y-128530952D01*
X121990595Y-128578571D01*
X121895357Y-128626190D01*
X121514404Y-128626190D01*
X122942976Y-128102380D02*
X122752500Y-128102380D01*
X122657261Y-128150000D01*
X122609642Y-128197619D01*
X122514404Y-128340476D01*
X122466785Y-128530952D01*
X122466785Y-128911904D01*
X122514404Y-129007142D01*
X122562023Y-129054761D01*
X122657261Y-129102380D01*
X122847738Y-129102380D01*
X122942976Y-129054761D01*
X122990595Y-129007142D01*
X123038214Y-128911904D01*
X123038214Y-128673809D01*
X122990595Y-128578571D01*
X122942976Y-128530952D01*
X122847738Y-128483333D01*
X122657261Y-128483333D01*
X122562023Y-128530952D01*
X122514404Y-128578571D01*
X122466785Y-128673809D01*
X129548942Y-123736406D02*
X129072752Y-124069740D01*
X129548942Y-124307835D02*
X128548942Y-124307835D01*
X128548942Y-123926882D01*
X128596562Y-123831644D01*
X128644181Y-123784025D01*
X128739419Y-123736406D01*
X128882276Y-123736406D01*
X128977514Y-123784025D01*
X129025133Y-123831644D01*
X129072752Y-123926882D01*
X129072752Y-124307835D01*
X128548942Y-123403073D02*
X128548942Y-122736406D01*
X129548942Y-123164978D01*
X129295284Y-114387368D02*
X128819094Y-114720702D01*
X129295284Y-114958797D02*
X128295284Y-114958797D01*
X128295284Y-114577844D01*
X128342904Y-114482606D01*
X128390523Y-114434987D01*
X128485761Y-114387368D01*
X128628618Y-114387368D01*
X128723856Y-114434987D01*
X128771475Y-114482606D01*
X128819094Y-114577844D01*
X128819094Y-114958797D01*
X128723856Y-113815940D02*
X128676237Y-113911178D01*
X128628618Y-113958797D01*
X128533380Y-114006416D01*
X128485761Y-114006416D01*
X128390523Y-113958797D01*
X128342904Y-113911178D01*
X128295284Y-113815940D01*
X128295284Y-113625463D01*
X128342904Y-113530225D01*
X128390523Y-113482606D01*
X128485761Y-113434987D01*
X128533380Y-113434987D01*
X128628618Y-113482606D01*
X128676237Y-113530225D01*
X128723856Y-113625463D01*
X128723856Y-113815940D01*
X128771475Y-113911178D01*
X128819094Y-113958797D01*
X128914332Y-114006416D01*
X129104808Y-114006416D01*
X129200046Y-113958797D01*
X129247665Y-113911178D01*
X129295284Y-113815940D01*
X129295284Y-113625463D01*
X129247665Y-113530225D01*
X129200046Y-113482606D01*
X129104808Y-113434987D01*
X128914332Y-113434987D01*
X128819094Y-113482606D01*
X128771475Y-113530225D01*
X128723856Y-113625463D01*
X112986190Y-119092380D02*
X112986190Y-118092380D01*
X113224285Y-119187619D02*
X113986190Y-119187619D01*
X114129047Y-118092380D02*
X114795714Y-118092380D01*
X114129047Y-119092380D01*
X114795714Y-119092380D01*
X115557619Y-119044761D02*
X115462380Y-119092380D01*
X115271904Y-119092380D01*
X115176666Y-119044761D01*
X115129047Y-118949523D01*
X115129047Y-118568571D01*
X115176666Y-118473333D01*
X115271904Y-118425714D01*
X115462380Y-118425714D01*
X115557619Y-118473333D01*
X115605238Y-118568571D01*
X115605238Y-118663809D01*
X115129047Y-118759047D01*
X116033809Y-119092380D02*
X116033809Y-118425714D01*
X116033809Y-118616190D02*
X116081428Y-118520952D01*
X116129047Y-118473333D01*
X116224285Y-118425714D01*
X116319523Y-118425714D01*
X116795714Y-119092380D02*
X116700476Y-119044761D01*
X116652857Y-118997142D01*
X116605238Y-118901904D01*
X116605238Y-118616190D01*
X116652857Y-118520952D01*
X116700476Y-118473333D01*
X116795714Y-118425714D01*
X116938571Y-118425714D01*
X117033809Y-118473333D01*
X117081428Y-118520952D01*
X117129047Y-118616190D01*
X117129047Y-118901904D01*
X117081428Y-118997142D01*
X117033809Y-119044761D01*
X116938571Y-119092380D01*
X116795714Y-119092380D01*
X118081428Y-119092380D02*
X117510000Y-119092380D01*
X117795714Y-119092380D02*
X117795714Y-118092380D01*
X117700476Y-118235238D01*
X117605238Y-118330476D01*
X117510000Y-118378095D01*
X122085833Y-118562380D02*
X121752500Y-118086190D01*
X121514404Y-118562380D02*
X121514404Y-117562380D01*
X121895357Y-117562380D01*
X121990595Y-117610000D01*
X122038214Y-117657619D01*
X122085833Y-117752857D01*
X122085833Y-117895714D01*
X122038214Y-117990952D01*
X121990595Y-118038571D01*
X121895357Y-118086190D01*
X121514404Y-118086190D01*
X122419166Y-117562380D02*
X123038214Y-117562380D01*
X122704880Y-117943333D01*
X122847738Y-117943333D01*
X122942976Y-117990952D01*
X122990595Y-118038571D01*
X123038214Y-118133809D01*
X123038214Y-118371904D01*
X122990595Y-118467142D01*
X122942976Y-118514761D01*
X122847738Y-118562380D01*
X122562023Y-118562380D01*
X122466785Y-118514761D01*
X122419166Y-118467142D01*
X119213333Y-126182380D02*
X118880000Y-125706190D01*
X118641904Y-126182380D02*
X118641904Y-125182380D01*
X119022857Y-125182380D01*
X119118095Y-125230000D01*
X119165714Y-125277619D01*
X119213333Y-125372857D01*
X119213333Y-125515714D01*
X119165714Y-125610952D01*
X119118095Y-125658571D01*
X119022857Y-125706190D01*
X118641904Y-125706190D01*
X120070476Y-125515714D02*
X120070476Y-126182380D01*
X119832380Y-125134761D02*
X119594285Y-125849047D01*
X120213333Y-125849047D01*
X103378095Y-143822380D02*
X103378095Y-144631904D01*
X103425714Y-144727142D01*
X103473333Y-144774761D01*
X103568571Y-144822380D01*
X103759047Y-144822380D01*
X103854285Y-144774761D01*
X103901904Y-144727142D01*
X103949523Y-144631904D01*
X103949523Y-143822380D01*
X104330476Y-143822380D02*
X104949523Y-143822380D01*
X104616190Y-144203333D01*
X104759047Y-144203333D01*
X104854285Y-144250952D01*
X104901904Y-144298571D01*
X104949523Y-144393809D01*
X104949523Y-144631904D01*
X104901904Y-144727142D01*
X104854285Y-144774761D01*
X104759047Y-144822380D01*
X104473333Y-144822380D01*
X104378095Y-144774761D01*
X104330476Y-144727142D01*
X103443095Y-126677380D02*
X103443095Y-127486904D01*
X103490714Y-127582142D01*
X103538333Y-127629761D01*
X103633571Y-127677380D01*
X103824047Y-127677380D01*
X103919285Y-127629761D01*
X103966904Y-127582142D01*
X104014523Y-127486904D01*
X104014523Y-126677380D01*
X104919285Y-127010714D02*
X104919285Y-127677380D01*
X104681190Y-126629761D02*
X104443095Y-127344047D01*
X105062142Y-127344047D01*
M02*
