G04 #@! TF.GenerationSoftware,KiCad,Pcbnew,(5.1.2)-2*
G04 #@! TF.CreationDate,2019-11-18T15:02:21-05:00*
G04 #@! TF.ProjectId,Lab_Sensing,4c61625f-5365-46e7-9369-6e672e6b6963,rev?*
G04 #@! TF.SameCoordinates,Original*
G04 #@! TF.FileFunction,Copper,L1,Top*
G04 #@! TF.FilePolarity,Positive*
%FSLAX46Y46*%
G04 Gerber Fmt 4.6, Leading zero omitted, Abs format (unit mm)*
G04 Created by KiCad (PCBNEW (5.1.2)-2) date 2019-11-18 15:02:21*
%MOMM*%
%LPD*%
G04 APERTURE LIST*
%ADD10C,2.400000*%
%ADD11O,2.400000X2.400000*%
%ADD12C,1.600000*%
%ADD13O,1.600000X1.600000*%
%ADD14C,2.999740*%
%ADD15R,2.999740X2.999740*%
%ADD16C,1.440000*%
%ADD17C,0.100000*%
%ADD18C,1.150000*%
%ADD19R,2.400000X2.400000*%
%ADD20R,0.900000X1.200000*%
%ADD21R,1.700000X1.700000*%
%ADD22O,1.700000X1.700000*%
%ADD23C,0.600000*%
%ADD24C,0.975000*%
%ADD25C,0.800000*%
%ADD26C,0.250000*%
%ADD27C,0.254000*%
G04 APERTURE END LIST*
D10*
X151130000Y-142240000D03*
D11*
X151130000Y-121920000D03*
D12*
X119380000Y-144780000D03*
D13*
X111760000Y-144780000D03*
D14*
X88900000Y-123190000D03*
D15*
X88900000Y-127000000D03*
D12*
X140970000Y-116840000D03*
D13*
X133350000Y-116840000D03*
X111760000Y-140970000D03*
D12*
X119380000Y-140970000D03*
X130810000Y-140970000D03*
D13*
X123190000Y-140970000D03*
D12*
X119380000Y-137160000D03*
D13*
X111760000Y-137160000D03*
D16*
X106680000Y-132080000D03*
X104140000Y-134620000D03*
X101600000Y-132080000D03*
X106680000Y-115570000D03*
X104140000Y-113030000D03*
X101600000Y-115570000D03*
D14*
X88900000Y-113030000D03*
D15*
X88900000Y-116840000D03*
D17*
G36*
X126204505Y-119296204D02*
G01*
X126228773Y-119299804D01*
X126252572Y-119305765D01*
X126275671Y-119314030D01*
X126297850Y-119324520D01*
X126318893Y-119337132D01*
X126338599Y-119351747D01*
X126356777Y-119368223D01*
X126373253Y-119386401D01*
X126387868Y-119406107D01*
X126400480Y-119427150D01*
X126410970Y-119449329D01*
X126419235Y-119472428D01*
X126425196Y-119496227D01*
X126428796Y-119520495D01*
X126430000Y-119544999D01*
X126430000Y-120195001D01*
X126428796Y-120219505D01*
X126425196Y-120243773D01*
X126419235Y-120267572D01*
X126410970Y-120290671D01*
X126400480Y-120312850D01*
X126387868Y-120333893D01*
X126373253Y-120353599D01*
X126356777Y-120371777D01*
X126338599Y-120388253D01*
X126318893Y-120402868D01*
X126297850Y-120415480D01*
X126275671Y-120425970D01*
X126252572Y-120434235D01*
X126228773Y-120440196D01*
X126204505Y-120443796D01*
X126180001Y-120445000D01*
X125279999Y-120445000D01*
X125255495Y-120443796D01*
X125231227Y-120440196D01*
X125207428Y-120434235D01*
X125184329Y-120425970D01*
X125162150Y-120415480D01*
X125141107Y-120402868D01*
X125121401Y-120388253D01*
X125103223Y-120371777D01*
X125086747Y-120353599D01*
X125072132Y-120333893D01*
X125059520Y-120312850D01*
X125049030Y-120290671D01*
X125040765Y-120267572D01*
X125034804Y-120243773D01*
X125031204Y-120219505D01*
X125030000Y-120195001D01*
X125030000Y-119544999D01*
X125031204Y-119520495D01*
X125034804Y-119496227D01*
X125040765Y-119472428D01*
X125049030Y-119449329D01*
X125059520Y-119427150D01*
X125072132Y-119406107D01*
X125086747Y-119386401D01*
X125103223Y-119368223D01*
X125121401Y-119351747D01*
X125141107Y-119337132D01*
X125162150Y-119324520D01*
X125184329Y-119314030D01*
X125207428Y-119305765D01*
X125231227Y-119299804D01*
X125255495Y-119296204D01*
X125279999Y-119295000D01*
X126180001Y-119295000D01*
X126204505Y-119296204D01*
X126204505Y-119296204D01*
G37*
D18*
X125730000Y-119870000D03*
D17*
G36*
X126204505Y-121346204D02*
G01*
X126228773Y-121349804D01*
X126252572Y-121355765D01*
X126275671Y-121364030D01*
X126297850Y-121374520D01*
X126318893Y-121387132D01*
X126338599Y-121401747D01*
X126356777Y-121418223D01*
X126373253Y-121436401D01*
X126387868Y-121456107D01*
X126400480Y-121477150D01*
X126410970Y-121499329D01*
X126419235Y-121522428D01*
X126425196Y-121546227D01*
X126428796Y-121570495D01*
X126430000Y-121594999D01*
X126430000Y-122245001D01*
X126428796Y-122269505D01*
X126425196Y-122293773D01*
X126419235Y-122317572D01*
X126410970Y-122340671D01*
X126400480Y-122362850D01*
X126387868Y-122383893D01*
X126373253Y-122403599D01*
X126356777Y-122421777D01*
X126338599Y-122438253D01*
X126318893Y-122452868D01*
X126297850Y-122465480D01*
X126275671Y-122475970D01*
X126252572Y-122484235D01*
X126228773Y-122490196D01*
X126204505Y-122493796D01*
X126180001Y-122495000D01*
X125279999Y-122495000D01*
X125255495Y-122493796D01*
X125231227Y-122490196D01*
X125207428Y-122484235D01*
X125184329Y-122475970D01*
X125162150Y-122465480D01*
X125141107Y-122452868D01*
X125121401Y-122438253D01*
X125103223Y-122421777D01*
X125086747Y-122403599D01*
X125072132Y-122383893D01*
X125059520Y-122362850D01*
X125049030Y-122340671D01*
X125040765Y-122317572D01*
X125034804Y-122293773D01*
X125031204Y-122269505D01*
X125030000Y-122245001D01*
X125030000Y-121594999D01*
X125031204Y-121570495D01*
X125034804Y-121546227D01*
X125040765Y-121522428D01*
X125049030Y-121499329D01*
X125059520Y-121477150D01*
X125072132Y-121456107D01*
X125086747Y-121436401D01*
X125103223Y-121418223D01*
X125121401Y-121401747D01*
X125141107Y-121387132D01*
X125162150Y-121374520D01*
X125184329Y-121364030D01*
X125207428Y-121355765D01*
X125231227Y-121349804D01*
X125255495Y-121346204D01*
X125279999Y-121345000D01*
X126180001Y-121345000D01*
X126204505Y-121346204D01*
X126204505Y-121346204D01*
G37*
D18*
X125730000Y-121920000D03*
D17*
G36*
X126204505Y-123106204D02*
G01*
X126228773Y-123109804D01*
X126252572Y-123115765D01*
X126275671Y-123124030D01*
X126297850Y-123134520D01*
X126318893Y-123147132D01*
X126338599Y-123161747D01*
X126356777Y-123178223D01*
X126373253Y-123196401D01*
X126387868Y-123216107D01*
X126400480Y-123237150D01*
X126410970Y-123259329D01*
X126419235Y-123282428D01*
X126425196Y-123306227D01*
X126428796Y-123330495D01*
X126430000Y-123354999D01*
X126430000Y-124005001D01*
X126428796Y-124029505D01*
X126425196Y-124053773D01*
X126419235Y-124077572D01*
X126410970Y-124100671D01*
X126400480Y-124122850D01*
X126387868Y-124143893D01*
X126373253Y-124163599D01*
X126356777Y-124181777D01*
X126338599Y-124198253D01*
X126318893Y-124212868D01*
X126297850Y-124225480D01*
X126275671Y-124235970D01*
X126252572Y-124244235D01*
X126228773Y-124250196D01*
X126204505Y-124253796D01*
X126180001Y-124255000D01*
X125279999Y-124255000D01*
X125255495Y-124253796D01*
X125231227Y-124250196D01*
X125207428Y-124244235D01*
X125184329Y-124235970D01*
X125162150Y-124225480D01*
X125141107Y-124212868D01*
X125121401Y-124198253D01*
X125103223Y-124181777D01*
X125086747Y-124163599D01*
X125072132Y-124143893D01*
X125059520Y-124122850D01*
X125049030Y-124100671D01*
X125040765Y-124077572D01*
X125034804Y-124053773D01*
X125031204Y-124029505D01*
X125030000Y-124005001D01*
X125030000Y-123354999D01*
X125031204Y-123330495D01*
X125034804Y-123306227D01*
X125040765Y-123282428D01*
X125049030Y-123259329D01*
X125059520Y-123237150D01*
X125072132Y-123216107D01*
X125086747Y-123196401D01*
X125103223Y-123178223D01*
X125121401Y-123161747D01*
X125141107Y-123147132D01*
X125162150Y-123134520D01*
X125184329Y-123124030D01*
X125207428Y-123115765D01*
X125231227Y-123109804D01*
X125255495Y-123106204D01*
X125279999Y-123105000D01*
X126180001Y-123105000D01*
X126204505Y-123106204D01*
X126204505Y-123106204D01*
G37*
D18*
X125730000Y-123680000D03*
D17*
G36*
X126204505Y-125156204D02*
G01*
X126228773Y-125159804D01*
X126252572Y-125165765D01*
X126275671Y-125174030D01*
X126297850Y-125184520D01*
X126318893Y-125197132D01*
X126338599Y-125211747D01*
X126356777Y-125228223D01*
X126373253Y-125246401D01*
X126387868Y-125266107D01*
X126400480Y-125287150D01*
X126410970Y-125309329D01*
X126419235Y-125332428D01*
X126425196Y-125356227D01*
X126428796Y-125380495D01*
X126430000Y-125404999D01*
X126430000Y-126055001D01*
X126428796Y-126079505D01*
X126425196Y-126103773D01*
X126419235Y-126127572D01*
X126410970Y-126150671D01*
X126400480Y-126172850D01*
X126387868Y-126193893D01*
X126373253Y-126213599D01*
X126356777Y-126231777D01*
X126338599Y-126248253D01*
X126318893Y-126262868D01*
X126297850Y-126275480D01*
X126275671Y-126285970D01*
X126252572Y-126294235D01*
X126228773Y-126300196D01*
X126204505Y-126303796D01*
X126180001Y-126305000D01*
X125279999Y-126305000D01*
X125255495Y-126303796D01*
X125231227Y-126300196D01*
X125207428Y-126294235D01*
X125184329Y-126285970D01*
X125162150Y-126275480D01*
X125141107Y-126262868D01*
X125121401Y-126248253D01*
X125103223Y-126231777D01*
X125086747Y-126213599D01*
X125072132Y-126193893D01*
X125059520Y-126172850D01*
X125049030Y-126150671D01*
X125040765Y-126127572D01*
X125034804Y-126103773D01*
X125031204Y-126079505D01*
X125030000Y-126055001D01*
X125030000Y-125404999D01*
X125031204Y-125380495D01*
X125034804Y-125356227D01*
X125040765Y-125332428D01*
X125049030Y-125309329D01*
X125059520Y-125287150D01*
X125072132Y-125266107D01*
X125086747Y-125246401D01*
X125103223Y-125228223D01*
X125121401Y-125211747D01*
X125141107Y-125197132D01*
X125162150Y-125184520D01*
X125184329Y-125174030D01*
X125207428Y-125165765D01*
X125231227Y-125159804D01*
X125255495Y-125156204D01*
X125279999Y-125155000D01*
X126180001Y-125155000D01*
X126204505Y-125156204D01*
X126204505Y-125156204D01*
G37*
D18*
X125730000Y-125730000D03*
D17*
G36*
X132554505Y-119051204D02*
G01*
X132578773Y-119054804D01*
X132602572Y-119060765D01*
X132625671Y-119069030D01*
X132647850Y-119079520D01*
X132668893Y-119092132D01*
X132688599Y-119106747D01*
X132706777Y-119123223D01*
X132723253Y-119141401D01*
X132737868Y-119161107D01*
X132750480Y-119182150D01*
X132760970Y-119204329D01*
X132769235Y-119227428D01*
X132775196Y-119251227D01*
X132778796Y-119275495D01*
X132780000Y-119299999D01*
X132780000Y-119950001D01*
X132778796Y-119974505D01*
X132775196Y-119998773D01*
X132769235Y-120022572D01*
X132760970Y-120045671D01*
X132750480Y-120067850D01*
X132737868Y-120088893D01*
X132723253Y-120108599D01*
X132706777Y-120126777D01*
X132688599Y-120143253D01*
X132668893Y-120157868D01*
X132647850Y-120170480D01*
X132625671Y-120180970D01*
X132602572Y-120189235D01*
X132578773Y-120195196D01*
X132554505Y-120198796D01*
X132530001Y-120200000D01*
X131629999Y-120200000D01*
X131605495Y-120198796D01*
X131581227Y-120195196D01*
X131557428Y-120189235D01*
X131534329Y-120180970D01*
X131512150Y-120170480D01*
X131491107Y-120157868D01*
X131471401Y-120143253D01*
X131453223Y-120126777D01*
X131436747Y-120108599D01*
X131422132Y-120088893D01*
X131409520Y-120067850D01*
X131399030Y-120045671D01*
X131390765Y-120022572D01*
X131384804Y-119998773D01*
X131381204Y-119974505D01*
X131380000Y-119950001D01*
X131380000Y-119299999D01*
X131381204Y-119275495D01*
X131384804Y-119251227D01*
X131390765Y-119227428D01*
X131399030Y-119204329D01*
X131409520Y-119182150D01*
X131422132Y-119161107D01*
X131436747Y-119141401D01*
X131453223Y-119123223D01*
X131471401Y-119106747D01*
X131491107Y-119092132D01*
X131512150Y-119079520D01*
X131534329Y-119069030D01*
X131557428Y-119060765D01*
X131581227Y-119054804D01*
X131605495Y-119051204D01*
X131629999Y-119050000D01*
X132530001Y-119050000D01*
X132554505Y-119051204D01*
X132554505Y-119051204D01*
G37*
D18*
X132080000Y-119625000D03*
D17*
G36*
X132554505Y-121101204D02*
G01*
X132578773Y-121104804D01*
X132602572Y-121110765D01*
X132625671Y-121119030D01*
X132647850Y-121129520D01*
X132668893Y-121142132D01*
X132688599Y-121156747D01*
X132706777Y-121173223D01*
X132723253Y-121191401D01*
X132737868Y-121211107D01*
X132750480Y-121232150D01*
X132760970Y-121254329D01*
X132769235Y-121277428D01*
X132775196Y-121301227D01*
X132778796Y-121325495D01*
X132780000Y-121349999D01*
X132780000Y-122000001D01*
X132778796Y-122024505D01*
X132775196Y-122048773D01*
X132769235Y-122072572D01*
X132760970Y-122095671D01*
X132750480Y-122117850D01*
X132737868Y-122138893D01*
X132723253Y-122158599D01*
X132706777Y-122176777D01*
X132688599Y-122193253D01*
X132668893Y-122207868D01*
X132647850Y-122220480D01*
X132625671Y-122230970D01*
X132602572Y-122239235D01*
X132578773Y-122245196D01*
X132554505Y-122248796D01*
X132530001Y-122250000D01*
X131629999Y-122250000D01*
X131605495Y-122248796D01*
X131581227Y-122245196D01*
X131557428Y-122239235D01*
X131534329Y-122230970D01*
X131512150Y-122220480D01*
X131491107Y-122207868D01*
X131471401Y-122193253D01*
X131453223Y-122176777D01*
X131436747Y-122158599D01*
X131422132Y-122138893D01*
X131409520Y-122117850D01*
X131399030Y-122095671D01*
X131390765Y-122072572D01*
X131384804Y-122048773D01*
X131381204Y-122024505D01*
X131380000Y-122000001D01*
X131380000Y-121349999D01*
X131381204Y-121325495D01*
X131384804Y-121301227D01*
X131390765Y-121277428D01*
X131399030Y-121254329D01*
X131409520Y-121232150D01*
X131422132Y-121211107D01*
X131436747Y-121191401D01*
X131453223Y-121173223D01*
X131471401Y-121156747D01*
X131491107Y-121142132D01*
X131512150Y-121129520D01*
X131534329Y-121119030D01*
X131557428Y-121110765D01*
X131581227Y-121104804D01*
X131605495Y-121101204D01*
X131629999Y-121100000D01*
X132530001Y-121100000D01*
X132554505Y-121101204D01*
X132554505Y-121101204D01*
G37*
D18*
X132080000Y-121675000D03*
D19*
X144780000Y-121700000D03*
D11*
X144780000Y-139700000D03*
D20*
X137160000Y-113030000D03*
X140460000Y-113030000D03*
X131700000Y-113030000D03*
X135000000Y-113030000D03*
D21*
X156210000Y-129540000D03*
X134620000Y-140970000D03*
X88900000Y-133350000D03*
D22*
X88900000Y-135890000D03*
X88900000Y-138430000D03*
X88900000Y-140970000D03*
D13*
X156210000Y-125730000D03*
D12*
X156210000Y-118110000D03*
D13*
X152400000Y-118110000D03*
D12*
X144780000Y-118110000D03*
D13*
X123190000Y-137160000D03*
D12*
X130810000Y-137160000D03*
D17*
G36*
X135524703Y-119715722D02*
G01*
X135539264Y-119717882D01*
X135553543Y-119721459D01*
X135567403Y-119726418D01*
X135580710Y-119732712D01*
X135593336Y-119740280D01*
X135605159Y-119749048D01*
X135616066Y-119758934D01*
X135625952Y-119769841D01*
X135634720Y-119781664D01*
X135642288Y-119794290D01*
X135648582Y-119807597D01*
X135653541Y-119821457D01*
X135657118Y-119835736D01*
X135659278Y-119850297D01*
X135660000Y-119865000D01*
X135660000Y-120165000D01*
X135659278Y-120179703D01*
X135657118Y-120194264D01*
X135653541Y-120208543D01*
X135648582Y-120222403D01*
X135642288Y-120235710D01*
X135634720Y-120248336D01*
X135625952Y-120260159D01*
X135616066Y-120271066D01*
X135605159Y-120280952D01*
X135593336Y-120289720D01*
X135580710Y-120297288D01*
X135567403Y-120303582D01*
X135553543Y-120308541D01*
X135539264Y-120312118D01*
X135524703Y-120314278D01*
X135510000Y-120315000D01*
X133860000Y-120315000D01*
X133845297Y-120314278D01*
X133830736Y-120312118D01*
X133816457Y-120308541D01*
X133802597Y-120303582D01*
X133789290Y-120297288D01*
X133776664Y-120289720D01*
X133764841Y-120280952D01*
X133753934Y-120271066D01*
X133744048Y-120260159D01*
X133735280Y-120248336D01*
X133727712Y-120235710D01*
X133721418Y-120222403D01*
X133716459Y-120208543D01*
X133712882Y-120194264D01*
X133710722Y-120179703D01*
X133710000Y-120165000D01*
X133710000Y-119865000D01*
X133710722Y-119850297D01*
X133712882Y-119835736D01*
X133716459Y-119821457D01*
X133721418Y-119807597D01*
X133727712Y-119794290D01*
X133735280Y-119781664D01*
X133744048Y-119769841D01*
X133753934Y-119758934D01*
X133764841Y-119749048D01*
X133776664Y-119740280D01*
X133789290Y-119732712D01*
X133802597Y-119726418D01*
X133816457Y-119721459D01*
X133830736Y-119717882D01*
X133845297Y-119715722D01*
X133860000Y-119715000D01*
X135510000Y-119715000D01*
X135524703Y-119715722D01*
X135524703Y-119715722D01*
G37*
D23*
X134685000Y-120015000D03*
D17*
G36*
X135524703Y-120985722D02*
G01*
X135539264Y-120987882D01*
X135553543Y-120991459D01*
X135567403Y-120996418D01*
X135580710Y-121002712D01*
X135593336Y-121010280D01*
X135605159Y-121019048D01*
X135616066Y-121028934D01*
X135625952Y-121039841D01*
X135634720Y-121051664D01*
X135642288Y-121064290D01*
X135648582Y-121077597D01*
X135653541Y-121091457D01*
X135657118Y-121105736D01*
X135659278Y-121120297D01*
X135660000Y-121135000D01*
X135660000Y-121435000D01*
X135659278Y-121449703D01*
X135657118Y-121464264D01*
X135653541Y-121478543D01*
X135648582Y-121492403D01*
X135642288Y-121505710D01*
X135634720Y-121518336D01*
X135625952Y-121530159D01*
X135616066Y-121541066D01*
X135605159Y-121550952D01*
X135593336Y-121559720D01*
X135580710Y-121567288D01*
X135567403Y-121573582D01*
X135553543Y-121578541D01*
X135539264Y-121582118D01*
X135524703Y-121584278D01*
X135510000Y-121585000D01*
X133860000Y-121585000D01*
X133845297Y-121584278D01*
X133830736Y-121582118D01*
X133816457Y-121578541D01*
X133802597Y-121573582D01*
X133789290Y-121567288D01*
X133776664Y-121559720D01*
X133764841Y-121550952D01*
X133753934Y-121541066D01*
X133744048Y-121530159D01*
X133735280Y-121518336D01*
X133727712Y-121505710D01*
X133721418Y-121492403D01*
X133716459Y-121478543D01*
X133712882Y-121464264D01*
X133710722Y-121449703D01*
X133710000Y-121435000D01*
X133710000Y-121135000D01*
X133710722Y-121120297D01*
X133712882Y-121105736D01*
X133716459Y-121091457D01*
X133721418Y-121077597D01*
X133727712Y-121064290D01*
X133735280Y-121051664D01*
X133744048Y-121039841D01*
X133753934Y-121028934D01*
X133764841Y-121019048D01*
X133776664Y-121010280D01*
X133789290Y-121002712D01*
X133802597Y-120996418D01*
X133816457Y-120991459D01*
X133830736Y-120987882D01*
X133845297Y-120985722D01*
X133860000Y-120985000D01*
X135510000Y-120985000D01*
X135524703Y-120985722D01*
X135524703Y-120985722D01*
G37*
D23*
X134685000Y-121285000D03*
D17*
G36*
X135524703Y-122255722D02*
G01*
X135539264Y-122257882D01*
X135553543Y-122261459D01*
X135567403Y-122266418D01*
X135580710Y-122272712D01*
X135593336Y-122280280D01*
X135605159Y-122289048D01*
X135616066Y-122298934D01*
X135625952Y-122309841D01*
X135634720Y-122321664D01*
X135642288Y-122334290D01*
X135648582Y-122347597D01*
X135653541Y-122361457D01*
X135657118Y-122375736D01*
X135659278Y-122390297D01*
X135660000Y-122405000D01*
X135660000Y-122705000D01*
X135659278Y-122719703D01*
X135657118Y-122734264D01*
X135653541Y-122748543D01*
X135648582Y-122762403D01*
X135642288Y-122775710D01*
X135634720Y-122788336D01*
X135625952Y-122800159D01*
X135616066Y-122811066D01*
X135605159Y-122820952D01*
X135593336Y-122829720D01*
X135580710Y-122837288D01*
X135567403Y-122843582D01*
X135553543Y-122848541D01*
X135539264Y-122852118D01*
X135524703Y-122854278D01*
X135510000Y-122855000D01*
X133860000Y-122855000D01*
X133845297Y-122854278D01*
X133830736Y-122852118D01*
X133816457Y-122848541D01*
X133802597Y-122843582D01*
X133789290Y-122837288D01*
X133776664Y-122829720D01*
X133764841Y-122820952D01*
X133753934Y-122811066D01*
X133744048Y-122800159D01*
X133735280Y-122788336D01*
X133727712Y-122775710D01*
X133721418Y-122762403D01*
X133716459Y-122748543D01*
X133712882Y-122734264D01*
X133710722Y-122719703D01*
X133710000Y-122705000D01*
X133710000Y-122405000D01*
X133710722Y-122390297D01*
X133712882Y-122375736D01*
X133716459Y-122361457D01*
X133721418Y-122347597D01*
X133727712Y-122334290D01*
X133735280Y-122321664D01*
X133744048Y-122309841D01*
X133753934Y-122298934D01*
X133764841Y-122289048D01*
X133776664Y-122280280D01*
X133789290Y-122272712D01*
X133802597Y-122266418D01*
X133816457Y-122261459D01*
X133830736Y-122257882D01*
X133845297Y-122255722D01*
X133860000Y-122255000D01*
X135510000Y-122255000D01*
X135524703Y-122255722D01*
X135524703Y-122255722D01*
G37*
D23*
X134685000Y-122555000D03*
D17*
G36*
X135524703Y-123525722D02*
G01*
X135539264Y-123527882D01*
X135553543Y-123531459D01*
X135567403Y-123536418D01*
X135580710Y-123542712D01*
X135593336Y-123550280D01*
X135605159Y-123559048D01*
X135616066Y-123568934D01*
X135625952Y-123579841D01*
X135634720Y-123591664D01*
X135642288Y-123604290D01*
X135648582Y-123617597D01*
X135653541Y-123631457D01*
X135657118Y-123645736D01*
X135659278Y-123660297D01*
X135660000Y-123675000D01*
X135660000Y-123975000D01*
X135659278Y-123989703D01*
X135657118Y-124004264D01*
X135653541Y-124018543D01*
X135648582Y-124032403D01*
X135642288Y-124045710D01*
X135634720Y-124058336D01*
X135625952Y-124070159D01*
X135616066Y-124081066D01*
X135605159Y-124090952D01*
X135593336Y-124099720D01*
X135580710Y-124107288D01*
X135567403Y-124113582D01*
X135553543Y-124118541D01*
X135539264Y-124122118D01*
X135524703Y-124124278D01*
X135510000Y-124125000D01*
X133860000Y-124125000D01*
X133845297Y-124124278D01*
X133830736Y-124122118D01*
X133816457Y-124118541D01*
X133802597Y-124113582D01*
X133789290Y-124107288D01*
X133776664Y-124099720D01*
X133764841Y-124090952D01*
X133753934Y-124081066D01*
X133744048Y-124070159D01*
X133735280Y-124058336D01*
X133727712Y-124045710D01*
X133721418Y-124032403D01*
X133716459Y-124018543D01*
X133712882Y-124004264D01*
X133710722Y-123989703D01*
X133710000Y-123975000D01*
X133710000Y-123675000D01*
X133710722Y-123660297D01*
X133712882Y-123645736D01*
X133716459Y-123631457D01*
X133721418Y-123617597D01*
X133727712Y-123604290D01*
X133735280Y-123591664D01*
X133744048Y-123579841D01*
X133753934Y-123568934D01*
X133764841Y-123559048D01*
X133776664Y-123550280D01*
X133789290Y-123542712D01*
X133802597Y-123536418D01*
X133816457Y-123531459D01*
X133830736Y-123527882D01*
X133845297Y-123525722D01*
X133860000Y-123525000D01*
X135510000Y-123525000D01*
X135524703Y-123525722D01*
X135524703Y-123525722D01*
G37*
D23*
X134685000Y-123825000D03*
D17*
G36*
X140474703Y-123525722D02*
G01*
X140489264Y-123527882D01*
X140503543Y-123531459D01*
X140517403Y-123536418D01*
X140530710Y-123542712D01*
X140543336Y-123550280D01*
X140555159Y-123559048D01*
X140566066Y-123568934D01*
X140575952Y-123579841D01*
X140584720Y-123591664D01*
X140592288Y-123604290D01*
X140598582Y-123617597D01*
X140603541Y-123631457D01*
X140607118Y-123645736D01*
X140609278Y-123660297D01*
X140610000Y-123675000D01*
X140610000Y-123975000D01*
X140609278Y-123989703D01*
X140607118Y-124004264D01*
X140603541Y-124018543D01*
X140598582Y-124032403D01*
X140592288Y-124045710D01*
X140584720Y-124058336D01*
X140575952Y-124070159D01*
X140566066Y-124081066D01*
X140555159Y-124090952D01*
X140543336Y-124099720D01*
X140530710Y-124107288D01*
X140517403Y-124113582D01*
X140503543Y-124118541D01*
X140489264Y-124122118D01*
X140474703Y-124124278D01*
X140460000Y-124125000D01*
X138810000Y-124125000D01*
X138795297Y-124124278D01*
X138780736Y-124122118D01*
X138766457Y-124118541D01*
X138752597Y-124113582D01*
X138739290Y-124107288D01*
X138726664Y-124099720D01*
X138714841Y-124090952D01*
X138703934Y-124081066D01*
X138694048Y-124070159D01*
X138685280Y-124058336D01*
X138677712Y-124045710D01*
X138671418Y-124032403D01*
X138666459Y-124018543D01*
X138662882Y-124004264D01*
X138660722Y-123989703D01*
X138660000Y-123975000D01*
X138660000Y-123675000D01*
X138660722Y-123660297D01*
X138662882Y-123645736D01*
X138666459Y-123631457D01*
X138671418Y-123617597D01*
X138677712Y-123604290D01*
X138685280Y-123591664D01*
X138694048Y-123579841D01*
X138703934Y-123568934D01*
X138714841Y-123559048D01*
X138726664Y-123550280D01*
X138739290Y-123542712D01*
X138752597Y-123536418D01*
X138766457Y-123531459D01*
X138780736Y-123527882D01*
X138795297Y-123525722D01*
X138810000Y-123525000D01*
X140460000Y-123525000D01*
X140474703Y-123525722D01*
X140474703Y-123525722D01*
G37*
D23*
X139635000Y-123825000D03*
D17*
G36*
X140474703Y-122255722D02*
G01*
X140489264Y-122257882D01*
X140503543Y-122261459D01*
X140517403Y-122266418D01*
X140530710Y-122272712D01*
X140543336Y-122280280D01*
X140555159Y-122289048D01*
X140566066Y-122298934D01*
X140575952Y-122309841D01*
X140584720Y-122321664D01*
X140592288Y-122334290D01*
X140598582Y-122347597D01*
X140603541Y-122361457D01*
X140607118Y-122375736D01*
X140609278Y-122390297D01*
X140610000Y-122405000D01*
X140610000Y-122705000D01*
X140609278Y-122719703D01*
X140607118Y-122734264D01*
X140603541Y-122748543D01*
X140598582Y-122762403D01*
X140592288Y-122775710D01*
X140584720Y-122788336D01*
X140575952Y-122800159D01*
X140566066Y-122811066D01*
X140555159Y-122820952D01*
X140543336Y-122829720D01*
X140530710Y-122837288D01*
X140517403Y-122843582D01*
X140503543Y-122848541D01*
X140489264Y-122852118D01*
X140474703Y-122854278D01*
X140460000Y-122855000D01*
X138810000Y-122855000D01*
X138795297Y-122854278D01*
X138780736Y-122852118D01*
X138766457Y-122848541D01*
X138752597Y-122843582D01*
X138739290Y-122837288D01*
X138726664Y-122829720D01*
X138714841Y-122820952D01*
X138703934Y-122811066D01*
X138694048Y-122800159D01*
X138685280Y-122788336D01*
X138677712Y-122775710D01*
X138671418Y-122762403D01*
X138666459Y-122748543D01*
X138662882Y-122734264D01*
X138660722Y-122719703D01*
X138660000Y-122705000D01*
X138660000Y-122405000D01*
X138660722Y-122390297D01*
X138662882Y-122375736D01*
X138666459Y-122361457D01*
X138671418Y-122347597D01*
X138677712Y-122334290D01*
X138685280Y-122321664D01*
X138694048Y-122309841D01*
X138703934Y-122298934D01*
X138714841Y-122289048D01*
X138726664Y-122280280D01*
X138739290Y-122272712D01*
X138752597Y-122266418D01*
X138766457Y-122261459D01*
X138780736Y-122257882D01*
X138795297Y-122255722D01*
X138810000Y-122255000D01*
X140460000Y-122255000D01*
X140474703Y-122255722D01*
X140474703Y-122255722D01*
G37*
D23*
X139635000Y-122555000D03*
D17*
G36*
X140474703Y-120985722D02*
G01*
X140489264Y-120987882D01*
X140503543Y-120991459D01*
X140517403Y-120996418D01*
X140530710Y-121002712D01*
X140543336Y-121010280D01*
X140555159Y-121019048D01*
X140566066Y-121028934D01*
X140575952Y-121039841D01*
X140584720Y-121051664D01*
X140592288Y-121064290D01*
X140598582Y-121077597D01*
X140603541Y-121091457D01*
X140607118Y-121105736D01*
X140609278Y-121120297D01*
X140610000Y-121135000D01*
X140610000Y-121435000D01*
X140609278Y-121449703D01*
X140607118Y-121464264D01*
X140603541Y-121478543D01*
X140598582Y-121492403D01*
X140592288Y-121505710D01*
X140584720Y-121518336D01*
X140575952Y-121530159D01*
X140566066Y-121541066D01*
X140555159Y-121550952D01*
X140543336Y-121559720D01*
X140530710Y-121567288D01*
X140517403Y-121573582D01*
X140503543Y-121578541D01*
X140489264Y-121582118D01*
X140474703Y-121584278D01*
X140460000Y-121585000D01*
X138810000Y-121585000D01*
X138795297Y-121584278D01*
X138780736Y-121582118D01*
X138766457Y-121578541D01*
X138752597Y-121573582D01*
X138739290Y-121567288D01*
X138726664Y-121559720D01*
X138714841Y-121550952D01*
X138703934Y-121541066D01*
X138694048Y-121530159D01*
X138685280Y-121518336D01*
X138677712Y-121505710D01*
X138671418Y-121492403D01*
X138666459Y-121478543D01*
X138662882Y-121464264D01*
X138660722Y-121449703D01*
X138660000Y-121435000D01*
X138660000Y-121135000D01*
X138660722Y-121120297D01*
X138662882Y-121105736D01*
X138666459Y-121091457D01*
X138671418Y-121077597D01*
X138677712Y-121064290D01*
X138685280Y-121051664D01*
X138694048Y-121039841D01*
X138703934Y-121028934D01*
X138714841Y-121019048D01*
X138726664Y-121010280D01*
X138739290Y-121002712D01*
X138752597Y-120996418D01*
X138766457Y-120991459D01*
X138780736Y-120987882D01*
X138795297Y-120985722D01*
X138810000Y-120985000D01*
X140460000Y-120985000D01*
X140474703Y-120985722D01*
X140474703Y-120985722D01*
G37*
D23*
X139635000Y-121285000D03*
D17*
G36*
X140474703Y-119715722D02*
G01*
X140489264Y-119717882D01*
X140503543Y-119721459D01*
X140517403Y-119726418D01*
X140530710Y-119732712D01*
X140543336Y-119740280D01*
X140555159Y-119749048D01*
X140566066Y-119758934D01*
X140575952Y-119769841D01*
X140584720Y-119781664D01*
X140592288Y-119794290D01*
X140598582Y-119807597D01*
X140603541Y-119821457D01*
X140607118Y-119835736D01*
X140609278Y-119850297D01*
X140610000Y-119865000D01*
X140610000Y-120165000D01*
X140609278Y-120179703D01*
X140607118Y-120194264D01*
X140603541Y-120208543D01*
X140598582Y-120222403D01*
X140592288Y-120235710D01*
X140584720Y-120248336D01*
X140575952Y-120260159D01*
X140566066Y-120271066D01*
X140555159Y-120280952D01*
X140543336Y-120289720D01*
X140530710Y-120297288D01*
X140517403Y-120303582D01*
X140503543Y-120308541D01*
X140489264Y-120312118D01*
X140474703Y-120314278D01*
X140460000Y-120315000D01*
X138810000Y-120315000D01*
X138795297Y-120314278D01*
X138780736Y-120312118D01*
X138766457Y-120308541D01*
X138752597Y-120303582D01*
X138739290Y-120297288D01*
X138726664Y-120289720D01*
X138714841Y-120280952D01*
X138703934Y-120271066D01*
X138694048Y-120260159D01*
X138685280Y-120248336D01*
X138677712Y-120235710D01*
X138671418Y-120222403D01*
X138666459Y-120208543D01*
X138662882Y-120194264D01*
X138660722Y-120179703D01*
X138660000Y-120165000D01*
X138660000Y-119865000D01*
X138660722Y-119850297D01*
X138662882Y-119835736D01*
X138666459Y-119821457D01*
X138671418Y-119807597D01*
X138677712Y-119794290D01*
X138685280Y-119781664D01*
X138694048Y-119769841D01*
X138703934Y-119758934D01*
X138714841Y-119749048D01*
X138726664Y-119740280D01*
X138739290Y-119732712D01*
X138752597Y-119726418D01*
X138766457Y-119721459D01*
X138780736Y-119717882D01*
X138795297Y-119715722D01*
X138810000Y-119715000D01*
X140460000Y-119715000D01*
X140474703Y-119715722D01*
X140474703Y-119715722D01*
G37*
D23*
X139635000Y-120015000D03*
D17*
G36*
X123457642Y-121221174D02*
G01*
X123481303Y-121224684D01*
X123504507Y-121230496D01*
X123527029Y-121238554D01*
X123548653Y-121248782D01*
X123569170Y-121261079D01*
X123588383Y-121275329D01*
X123606107Y-121291393D01*
X123622171Y-121309117D01*
X123636421Y-121328330D01*
X123648718Y-121348847D01*
X123658946Y-121370471D01*
X123667004Y-121392993D01*
X123672816Y-121416197D01*
X123676326Y-121439858D01*
X123677500Y-121463750D01*
X123677500Y-122376250D01*
X123676326Y-122400142D01*
X123672816Y-122423803D01*
X123667004Y-122447007D01*
X123658946Y-122469529D01*
X123648718Y-122491153D01*
X123636421Y-122511670D01*
X123622171Y-122530883D01*
X123606107Y-122548607D01*
X123588383Y-122564671D01*
X123569170Y-122578921D01*
X123548653Y-122591218D01*
X123527029Y-122601446D01*
X123504507Y-122609504D01*
X123481303Y-122615316D01*
X123457642Y-122618826D01*
X123433750Y-122620000D01*
X122946250Y-122620000D01*
X122922358Y-122618826D01*
X122898697Y-122615316D01*
X122875493Y-122609504D01*
X122852971Y-122601446D01*
X122831347Y-122591218D01*
X122810830Y-122578921D01*
X122791617Y-122564671D01*
X122773893Y-122548607D01*
X122757829Y-122530883D01*
X122743579Y-122511670D01*
X122731282Y-122491153D01*
X122721054Y-122469529D01*
X122712996Y-122447007D01*
X122707184Y-122423803D01*
X122703674Y-122400142D01*
X122702500Y-122376250D01*
X122702500Y-121463750D01*
X122703674Y-121439858D01*
X122707184Y-121416197D01*
X122712996Y-121392993D01*
X122721054Y-121370471D01*
X122731282Y-121348847D01*
X122743579Y-121328330D01*
X122757829Y-121309117D01*
X122773893Y-121291393D01*
X122791617Y-121275329D01*
X122810830Y-121261079D01*
X122831347Y-121248782D01*
X122852971Y-121238554D01*
X122875493Y-121230496D01*
X122898697Y-121224684D01*
X122922358Y-121221174D01*
X122946250Y-121220000D01*
X123433750Y-121220000D01*
X123457642Y-121221174D01*
X123457642Y-121221174D01*
G37*
D24*
X123190000Y-121920000D03*
D17*
G36*
X121582642Y-121221174D02*
G01*
X121606303Y-121224684D01*
X121629507Y-121230496D01*
X121652029Y-121238554D01*
X121673653Y-121248782D01*
X121694170Y-121261079D01*
X121713383Y-121275329D01*
X121731107Y-121291393D01*
X121747171Y-121309117D01*
X121761421Y-121328330D01*
X121773718Y-121348847D01*
X121783946Y-121370471D01*
X121792004Y-121392993D01*
X121797816Y-121416197D01*
X121801326Y-121439858D01*
X121802500Y-121463750D01*
X121802500Y-122376250D01*
X121801326Y-122400142D01*
X121797816Y-122423803D01*
X121792004Y-122447007D01*
X121783946Y-122469529D01*
X121773718Y-122491153D01*
X121761421Y-122511670D01*
X121747171Y-122530883D01*
X121731107Y-122548607D01*
X121713383Y-122564671D01*
X121694170Y-122578921D01*
X121673653Y-122591218D01*
X121652029Y-122601446D01*
X121629507Y-122609504D01*
X121606303Y-122615316D01*
X121582642Y-122618826D01*
X121558750Y-122620000D01*
X121071250Y-122620000D01*
X121047358Y-122618826D01*
X121023697Y-122615316D01*
X121000493Y-122609504D01*
X120977971Y-122601446D01*
X120956347Y-122591218D01*
X120935830Y-122578921D01*
X120916617Y-122564671D01*
X120898893Y-122548607D01*
X120882829Y-122530883D01*
X120868579Y-122511670D01*
X120856282Y-122491153D01*
X120846054Y-122469529D01*
X120837996Y-122447007D01*
X120832184Y-122423803D01*
X120828674Y-122400142D01*
X120827500Y-122376250D01*
X120827500Y-121463750D01*
X120828674Y-121439858D01*
X120832184Y-121416197D01*
X120837996Y-121392993D01*
X120846054Y-121370471D01*
X120856282Y-121348847D01*
X120868579Y-121328330D01*
X120882829Y-121309117D01*
X120898893Y-121291393D01*
X120916617Y-121275329D01*
X120935830Y-121261079D01*
X120956347Y-121248782D01*
X120977971Y-121238554D01*
X121000493Y-121230496D01*
X121023697Y-121224684D01*
X121047358Y-121221174D01*
X121071250Y-121220000D01*
X121558750Y-121220000D01*
X121582642Y-121221174D01*
X121582642Y-121221174D01*
G37*
D24*
X121315000Y-121920000D03*
D17*
G36*
X121582642Y-126301174D02*
G01*
X121606303Y-126304684D01*
X121629507Y-126310496D01*
X121652029Y-126318554D01*
X121673653Y-126328782D01*
X121694170Y-126341079D01*
X121713383Y-126355329D01*
X121731107Y-126371393D01*
X121747171Y-126389117D01*
X121761421Y-126408330D01*
X121773718Y-126428847D01*
X121783946Y-126450471D01*
X121792004Y-126472993D01*
X121797816Y-126496197D01*
X121801326Y-126519858D01*
X121802500Y-126543750D01*
X121802500Y-127456250D01*
X121801326Y-127480142D01*
X121797816Y-127503803D01*
X121792004Y-127527007D01*
X121783946Y-127549529D01*
X121773718Y-127571153D01*
X121761421Y-127591670D01*
X121747171Y-127610883D01*
X121731107Y-127628607D01*
X121713383Y-127644671D01*
X121694170Y-127658921D01*
X121673653Y-127671218D01*
X121652029Y-127681446D01*
X121629507Y-127689504D01*
X121606303Y-127695316D01*
X121582642Y-127698826D01*
X121558750Y-127700000D01*
X121071250Y-127700000D01*
X121047358Y-127698826D01*
X121023697Y-127695316D01*
X121000493Y-127689504D01*
X120977971Y-127681446D01*
X120956347Y-127671218D01*
X120935830Y-127658921D01*
X120916617Y-127644671D01*
X120898893Y-127628607D01*
X120882829Y-127610883D01*
X120868579Y-127591670D01*
X120856282Y-127571153D01*
X120846054Y-127549529D01*
X120837996Y-127527007D01*
X120832184Y-127503803D01*
X120828674Y-127480142D01*
X120827500Y-127456250D01*
X120827500Y-126543750D01*
X120828674Y-126519858D01*
X120832184Y-126496197D01*
X120837996Y-126472993D01*
X120846054Y-126450471D01*
X120856282Y-126428847D01*
X120868579Y-126408330D01*
X120882829Y-126389117D01*
X120898893Y-126371393D01*
X120916617Y-126355329D01*
X120935830Y-126341079D01*
X120956347Y-126328782D01*
X120977971Y-126318554D01*
X121000493Y-126310496D01*
X121023697Y-126304684D01*
X121047358Y-126301174D01*
X121071250Y-126300000D01*
X121558750Y-126300000D01*
X121582642Y-126301174D01*
X121582642Y-126301174D01*
G37*
D24*
X121315000Y-127000000D03*
D17*
G36*
X123457642Y-126301174D02*
G01*
X123481303Y-126304684D01*
X123504507Y-126310496D01*
X123527029Y-126318554D01*
X123548653Y-126328782D01*
X123569170Y-126341079D01*
X123588383Y-126355329D01*
X123606107Y-126371393D01*
X123622171Y-126389117D01*
X123636421Y-126408330D01*
X123648718Y-126428847D01*
X123658946Y-126450471D01*
X123667004Y-126472993D01*
X123672816Y-126496197D01*
X123676326Y-126519858D01*
X123677500Y-126543750D01*
X123677500Y-127456250D01*
X123676326Y-127480142D01*
X123672816Y-127503803D01*
X123667004Y-127527007D01*
X123658946Y-127549529D01*
X123648718Y-127571153D01*
X123636421Y-127591670D01*
X123622171Y-127610883D01*
X123606107Y-127628607D01*
X123588383Y-127644671D01*
X123569170Y-127658921D01*
X123548653Y-127671218D01*
X123527029Y-127681446D01*
X123504507Y-127689504D01*
X123481303Y-127695316D01*
X123457642Y-127698826D01*
X123433750Y-127700000D01*
X122946250Y-127700000D01*
X122922358Y-127698826D01*
X122898697Y-127695316D01*
X122875493Y-127689504D01*
X122852971Y-127681446D01*
X122831347Y-127671218D01*
X122810830Y-127658921D01*
X122791617Y-127644671D01*
X122773893Y-127628607D01*
X122757829Y-127610883D01*
X122743579Y-127591670D01*
X122731282Y-127571153D01*
X122721054Y-127549529D01*
X122712996Y-127527007D01*
X122707184Y-127503803D01*
X122703674Y-127480142D01*
X122702500Y-127456250D01*
X122702500Y-126543750D01*
X122703674Y-126519858D01*
X122707184Y-126496197D01*
X122712996Y-126472993D01*
X122721054Y-126450471D01*
X122731282Y-126428847D01*
X122743579Y-126408330D01*
X122757829Y-126389117D01*
X122773893Y-126371393D01*
X122791617Y-126355329D01*
X122810830Y-126341079D01*
X122831347Y-126328782D01*
X122852971Y-126318554D01*
X122875493Y-126310496D01*
X122898697Y-126304684D01*
X122922358Y-126301174D01*
X122946250Y-126300000D01*
X123433750Y-126300000D01*
X123457642Y-126301174D01*
X123457642Y-126301174D01*
G37*
D24*
X123190000Y-127000000D03*
D17*
G36*
X130020142Y-121433674D02*
G01*
X130043803Y-121437184D01*
X130067007Y-121442996D01*
X130089529Y-121451054D01*
X130111153Y-121461282D01*
X130131670Y-121473579D01*
X130150883Y-121487829D01*
X130168607Y-121503893D01*
X130184671Y-121521617D01*
X130198921Y-121540830D01*
X130211218Y-121561347D01*
X130221446Y-121582971D01*
X130229504Y-121605493D01*
X130235316Y-121628697D01*
X130238826Y-121652358D01*
X130240000Y-121676250D01*
X130240000Y-122163750D01*
X130238826Y-122187642D01*
X130235316Y-122211303D01*
X130229504Y-122234507D01*
X130221446Y-122257029D01*
X130211218Y-122278653D01*
X130198921Y-122299170D01*
X130184671Y-122318383D01*
X130168607Y-122336107D01*
X130150883Y-122352171D01*
X130131670Y-122366421D01*
X130111153Y-122378718D01*
X130089529Y-122388946D01*
X130067007Y-122397004D01*
X130043803Y-122402816D01*
X130020142Y-122406326D01*
X129996250Y-122407500D01*
X129083750Y-122407500D01*
X129059858Y-122406326D01*
X129036197Y-122402816D01*
X129012993Y-122397004D01*
X128990471Y-122388946D01*
X128968847Y-122378718D01*
X128948330Y-122366421D01*
X128929117Y-122352171D01*
X128911393Y-122336107D01*
X128895329Y-122318383D01*
X128881079Y-122299170D01*
X128868782Y-122278653D01*
X128858554Y-122257029D01*
X128850496Y-122234507D01*
X128844684Y-122211303D01*
X128841174Y-122187642D01*
X128840000Y-122163750D01*
X128840000Y-121676250D01*
X128841174Y-121652358D01*
X128844684Y-121628697D01*
X128850496Y-121605493D01*
X128858554Y-121582971D01*
X128868782Y-121561347D01*
X128881079Y-121540830D01*
X128895329Y-121521617D01*
X128911393Y-121503893D01*
X128929117Y-121487829D01*
X128948330Y-121473579D01*
X128968847Y-121461282D01*
X128990471Y-121451054D01*
X129012993Y-121442996D01*
X129036197Y-121437184D01*
X129059858Y-121433674D01*
X129083750Y-121432500D01*
X129996250Y-121432500D01*
X130020142Y-121433674D01*
X130020142Y-121433674D01*
G37*
D24*
X129540000Y-121920000D03*
D17*
G36*
X130020142Y-119558674D02*
G01*
X130043803Y-119562184D01*
X130067007Y-119567996D01*
X130089529Y-119576054D01*
X130111153Y-119586282D01*
X130131670Y-119598579D01*
X130150883Y-119612829D01*
X130168607Y-119628893D01*
X130184671Y-119646617D01*
X130198921Y-119665830D01*
X130211218Y-119686347D01*
X130221446Y-119707971D01*
X130229504Y-119730493D01*
X130235316Y-119753697D01*
X130238826Y-119777358D01*
X130240000Y-119801250D01*
X130240000Y-120288750D01*
X130238826Y-120312642D01*
X130235316Y-120336303D01*
X130229504Y-120359507D01*
X130221446Y-120382029D01*
X130211218Y-120403653D01*
X130198921Y-120424170D01*
X130184671Y-120443383D01*
X130168607Y-120461107D01*
X130150883Y-120477171D01*
X130131670Y-120491421D01*
X130111153Y-120503718D01*
X130089529Y-120513946D01*
X130067007Y-120522004D01*
X130043803Y-120527816D01*
X130020142Y-120531326D01*
X129996250Y-120532500D01*
X129083750Y-120532500D01*
X129059858Y-120531326D01*
X129036197Y-120527816D01*
X129012993Y-120522004D01*
X128990471Y-120513946D01*
X128968847Y-120503718D01*
X128948330Y-120491421D01*
X128929117Y-120477171D01*
X128911393Y-120461107D01*
X128895329Y-120443383D01*
X128881079Y-120424170D01*
X128868782Y-120403653D01*
X128858554Y-120382029D01*
X128850496Y-120359507D01*
X128844684Y-120336303D01*
X128841174Y-120312642D01*
X128840000Y-120288750D01*
X128840000Y-119801250D01*
X128841174Y-119777358D01*
X128844684Y-119753697D01*
X128850496Y-119730493D01*
X128858554Y-119707971D01*
X128868782Y-119686347D01*
X128881079Y-119665830D01*
X128895329Y-119646617D01*
X128911393Y-119628893D01*
X128929117Y-119612829D01*
X128948330Y-119598579D01*
X128968847Y-119586282D01*
X128990471Y-119576054D01*
X129012993Y-119567996D01*
X129036197Y-119562184D01*
X129059858Y-119558674D01*
X129083750Y-119557500D01*
X129996250Y-119557500D01*
X130020142Y-119558674D01*
X130020142Y-119558674D01*
G37*
D24*
X129540000Y-120045000D03*
D17*
G36*
X130020142Y-117623674D02*
G01*
X130043803Y-117627184D01*
X130067007Y-117632996D01*
X130089529Y-117641054D01*
X130111153Y-117651282D01*
X130131670Y-117663579D01*
X130150883Y-117677829D01*
X130168607Y-117693893D01*
X130184671Y-117711617D01*
X130198921Y-117730830D01*
X130211218Y-117751347D01*
X130221446Y-117772971D01*
X130229504Y-117795493D01*
X130235316Y-117818697D01*
X130238826Y-117842358D01*
X130240000Y-117866250D01*
X130240000Y-118353750D01*
X130238826Y-118377642D01*
X130235316Y-118401303D01*
X130229504Y-118424507D01*
X130221446Y-118447029D01*
X130211218Y-118468653D01*
X130198921Y-118489170D01*
X130184671Y-118508383D01*
X130168607Y-118526107D01*
X130150883Y-118542171D01*
X130131670Y-118556421D01*
X130111153Y-118568718D01*
X130089529Y-118578946D01*
X130067007Y-118587004D01*
X130043803Y-118592816D01*
X130020142Y-118596326D01*
X129996250Y-118597500D01*
X129083750Y-118597500D01*
X129059858Y-118596326D01*
X129036197Y-118592816D01*
X129012993Y-118587004D01*
X128990471Y-118578946D01*
X128968847Y-118568718D01*
X128948330Y-118556421D01*
X128929117Y-118542171D01*
X128911393Y-118526107D01*
X128895329Y-118508383D01*
X128881079Y-118489170D01*
X128868782Y-118468653D01*
X128858554Y-118447029D01*
X128850496Y-118424507D01*
X128844684Y-118401303D01*
X128841174Y-118377642D01*
X128840000Y-118353750D01*
X128840000Y-117866250D01*
X128841174Y-117842358D01*
X128844684Y-117818697D01*
X128850496Y-117795493D01*
X128858554Y-117772971D01*
X128868782Y-117751347D01*
X128881079Y-117730830D01*
X128895329Y-117711617D01*
X128911393Y-117693893D01*
X128929117Y-117677829D01*
X128948330Y-117663579D01*
X128968847Y-117651282D01*
X128990471Y-117641054D01*
X129012993Y-117632996D01*
X129036197Y-117627184D01*
X129059858Y-117623674D01*
X129083750Y-117622500D01*
X129996250Y-117622500D01*
X130020142Y-117623674D01*
X130020142Y-117623674D01*
G37*
D24*
X129540000Y-118110000D03*
D17*
G36*
X130020142Y-115748674D02*
G01*
X130043803Y-115752184D01*
X130067007Y-115757996D01*
X130089529Y-115766054D01*
X130111153Y-115776282D01*
X130131670Y-115788579D01*
X130150883Y-115802829D01*
X130168607Y-115818893D01*
X130184671Y-115836617D01*
X130198921Y-115855830D01*
X130211218Y-115876347D01*
X130221446Y-115897971D01*
X130229504Y-115920493D01*
X130235316Y-115943697D01*
X130238826Y-115967358D01*
X130240000Y-115991250D01*
X130240000Y-116478750D01*
X130238826Y-116502642D01*
X130235316Y-116526303D01*
X130229504Y-116549507D01*
X130221446Y-116572029D01*
X130211218Y-116593653D01*
X130198921Y-116614170D01*
X130184671Y-116633383D01*
X130168607Y-116651107D01*
X130150883Y-116667171D01*
X130131670Y-116681421D01*
X130111153Y-116693718D01*
X130089529Y-116703946D01*
X130067007Y-116712004D01*
X130043803Y-116717816D01*
X130020142Y-116721326D01*
X129996250Y-116722500D01*
X129083750Y-116722500D01*
X129059858Y-116721326D01*
X129036197Y-116717816D01*
X129012993Y-116712004D01*
X128990471Y-116703946D01*
X128968847Y-116693718D01*
X128948330Y-116681421D01*
X128929117Y-116667171D01*
X128911393Y-116651107D01*
X128895329Y-116633383D01*
X128881079Y-116614170D01*
X128868782Y-116593653D01*
X128858554Y-116572029D01*
X128850496Y-116549507D01*
X128844684Y-116526303D01*
X128841174Y-116502642D01*
X128840000Y-116478750D01*
X128840000Y-115991250D01*
X128841174Y-115967358D01*
X128844684Y-115943697D01*
X128850496Y-115920493D01*
X128858554Y-115897971D01*
X128868782Y-115876347D01*
X128881079Y-115855830D01*
X128895329Y-115836617D01*
X128911393Y-115818893D01*
X128929117Y-115802829D01*
X128948330Y-115788579D01*
X128968847Y-115776282D01*
X128990471Y-115766054D01*
X129012993Y-115757996D01*
X129036197Y-115752184D01*
X129059858Y-115748674D01*
X129083750Y-115747500D01*
X129996250Y-115747500D01*
X130020142Y-115748674D01*
X130020142Y-115748674D01*
G37*
D24*
X129540000Y-116235000D03*
D16*
X115570000Y-120650000D03*
X118110000Y-123190000D03*
X115570000Y-125730000D03*
D17*
G36*
X123457642Y-118681174D02*
G01*
X123481303Y-118684684D01*
X123504507Y-118690496D01*
X123527029Y-118698554D01*
X123548653Y-118708782D01*
X123569170Y-118721079D01*
X123588383Y-118735329D01*
X123606107Y-118751393D01*
X123622171Y-118769117D01*
X123636421Y-118788330D01*
X123648718Y-118808847D01*
X123658946Y-118830471D01*
X123667004Y-118852993D01*
X123672816Y-118876197D01*
X123676326Y-118899858D01*
X123677500Y-118923750D01*
X123677500Y-119836250D01*
X123676326Y-119860142D01*
X123672816Y-119883803D01*
X123667004Y-119907007D01*
X123658946Y-119929529D01*
X123648718Y-119951153D01*
X123636421Y-119971670D01*
X123622171Y-119990883D01*
X123606107Y-120008607D01*
X123588383Y-120024671D01*
X123569170Y-120038921D01*
X123548653Y-120051218D01*
X123527029Y-120061446D01*
X123504507Y-120069504D01*
X123481303Y-120075316D01*
X123457642Y-120078826D01*
X123433750Y-120080000D01*
X122946250Y-120080000D01*
X122922358Y-120078826D01*
X122898697Y-120075316D01*
X122875493Y-120069504D01*
X122852971Y-120061446D01*
X122831347Y-120051218D01*
X122810830Y-120038921D01*
X122791617Y-120024671D01*
X122773893Y-120008607D01*
X122757829Y-119990883D01*
X122743579Y-119971670D01*
X122731282Y-119951153D01*
X122721054Y-119929529D01*
X122712996Y-119907007D01*
X122707184Y-119883803D01*
X122703674Y-119860142D01*
X122702500Y-119836250D01*
X122702500Y-118923750D01*
X122703674Y-118899858D01*
X122707184Y-118876197D01*
X122712996Y-118852993D01*
X122721054Y-118830471D01*
X122731282Y-118808847D01*
X122743579Y-118788330D01*
X122757829Y-118769117D01*
X122773893Y-118751393D01*
X122791617Y-118735329D01*
X122810830Y-118721079D01*
X122831347Y-118708782D01*
X122852971Y-118698554D01*
X122875493Y-118690496D01*
X122898697Y-118684684D01*
X122922358Y-118681174D01*
X122946250Y-118680000D01*
X123433750Y-118680000D01*
X123457642Y-118681174D01*
X123457642Y-118681174D01*
G37*
D24*
X123190000Y-119380000D03*
D17*
G36*
X121582642Y-118681174D02*
G01*
X121606303Y-118684684D01*
X121629507Y-118690496D01*
X121652029Y-118698554D01*
X121673653Y-118708782D01*
X121694170Y-118721079D01*
X121713383Y-118735329D01*
X121731107Y-118751393D01*
X121747171Y-118769117D01*
X121761421Y-118788330D01*
X121773718Y-118808847D01*
X121783946Y-118830471D01*
X121792004Y-118852993D01*
X121797816Y-118876197D01*
X121801326Y-118899858D01*
X121802500Y-118923750D01*
X121802500Y-119836250D01*
X121801326Y-119860142D01*
X121797816Y-119883803D01*
X121792004Y-119907007D01*
X121783946Y-119929529D01*
X121773718Y-119951153D01*
X121761421Y-119971670D01*
X121747171Y-119990883D01*
X121731107Y-120008607D01*
X121713383Y-120024671D01*
X121694170Y-120038921D01*
X121673653Y-120051218D01*
X121652029Y-120061446D01*
X121629507Y-120069504D01*
X121606303Y-120075316D01*
X121582642Y-120078826D01*
X121558750Y-120080000D01*
X121071250Y-120080000D01*
X121047358Y-120078826D01*
X121023697Y-120075316D01*
X121000493Y-120069504D01*
X120977971Y-120061446D01*
X120956347Y-120051218D01*
X120935830Y-120038921D01*
X120916617Y-120024671D01*
X120898893Y-120008607D01*
X120882829Y-119990883D01*
X120868579Y-119971670D01*
X120856282Y-119951153D01*
X120846054Y-119929529D01*
X120837996Y-119907007D01*
X120832184Y-119883803D01*
X120828674Y-119860142D01*
X120827500Y-119836250D01*
X120827500Y-118923750D01*
X120828674Y-118899858D01*
X120832184Y-118876197D01*
X120837996Y-118852993D01*
X120846054Y-118830471D01*
X120856282Y-118808847D01*
X120868579Y-118788330D01*
X120882829Y-118769117D01*
X120898893Y-118751393D01*
X120916617Y-118735329D01*
X120935830Y-118721079D01*
X120956347Y-118708782D01*
X120977971Y-118698554D01*
X121000493Y-118690496D01*
X121023697Y-118684684D01*
X121047358Y-118681174D01*
X121071250Y-118680000D01*
X121558750Y-118680000D01*
X121582642Y-118681174D01*
X121582642Y-118681174D01*
G37*
D24*
X121315000Y-119380000D03*
D17*
G36*
X123457642Y-123761174D02*
G01*
X123481303Y-123764684D01*
X123504507Y-123770496D01*
X123527029Y-123778554D01*
X123548653Y-123788782D01*
X123569170Y-123801079D01*
X123588383Y-123815329D01*
X123606107Y-123831393D01*
X123622171Y-123849117D01*
X123636421Y-123868330D01*
X123648718Y-123888847D01*
X123658946Y-123910471D01*
X123667004Y-123932993D01*
X123672816Y-123956197D01*
X123676326Y-123979858D01*
X123677500Y-124003750D01*
X123677500Y-124916250D01*
X123676326Y-124940142D01*
X123672816Y-124963803D01*
X123667004Y-124987007D01*
X123658946Y-125009529D01*
X123648718Y-125031153D01*
X123636421Y-125051670D01*
X123622171Y-125070883D01*
X123606107Y-125088607D01*
X123588383Y-125104671D01*
X123569170Y-125118921D01*
X123548653Y-125131218D01*
X123527029Y-125141446D01*
X123504507Y-125149504D01*
X123481303Y-125155316D01*
X123457642Y-125158826D01*
X123433750Y-125160000D01*
X122946250Y-125160000D01*
X122922358Y-125158826D01*
X122898697Y-125155316D01*
X122875493Y-125149504D01*
X122852971Y-125141446D01*
X122831347Y-125131218D01*
X122810830Y-125118921D01*
X122791617Y-125104671D01*
X122773893Y-125088607D01*
X122757829Y-125070883D01*
X122743579Y-125051670D01*
X122731282Y-125031153D01*
X122721054Y-125009529D01*
X122712996Y-124987007D01*
X122707184Y-124963803D01*
X122703674Y-124940142D01*
X122702500Y-124916250D01*
X122702500Y-124003750D01*
X122703674Y-123979858D01*
X122707184Y-123956197D01*
X122712996Y-123932993D01*
X122721054Y-123910471D01*
X122731282Y-123888847D01*
X122743579Y-123868330D01*
X122757829Y-123849117D01*
X122773893Y-123831393D01*
X122791617Y-123815329D01*
X122810830Y-123801079D01*
X122831347Y-123788782D01*
X122852971Y-123778554D01*
X122875493Y-123770496D01*
X122898697Y-123764684D01*
X122922358Y-123761174D01*
X122946250Y-123760000D01*
X123433750Y-123760000D01*
X123457642Y-123761174D01*
X123457642Y-123761174D01*
G37*
D24*
X123190000Y-124460000D03*
D17*
G36*
X121582642Y-123761174D02*
G01*
X121606303Y-123764684D01*
X121629507Y-123770496D01*
X121652029Y-123778554D01*
X121673653Y-123788782D01*
X121694170Y-123801079D01*
X121713383Y-123815329D01*
X121731107Y-123831393D01*
X121747171Y-123849117D01*
X121761421Y-123868330D01*
X121773718Y-123888847D01*
X121783946Y-123910471D01*
X121792004Y-123932993D01*
X121797816Y-123956197D01*
X121801326Y-123979858D01*
X121802500Y-124003750D01*
X121802500Y-124916250D01*
X121801326Y-124940142D01*
X121797816Y-124963803D01*
X121792004Y-124987007D01*
X121783946Y-125009529D01*
X121773718Y-125031153D01*
X121761421Y-125051670D01*
X121747171Y-125070883D01*
X121731107Y-125088607D01*
X121713383Y-125104671D01*
X121694170Y-125118921D01*
X121673653Y-125131218D01*
X121652029Y-125141446D01*
X121629507Y-125149504D01*
X121606303Y-125155316D01*
X121582642Y-125158826D01*
X121558750Y-125160000D01*
X121071250Y-125160000D01*
X121047358Y-125158826D01*
X121023697Y-125155316D01*
X121000493Y-125149504D01*
X120977971Y-125141446D01*
X120956347Y-125131218D01*
X120935830Y-125118921D01*
X120916617Y-125104671D01*
X120898893Y-125088607D01*
X120882829Y-125070883D01*
X120868579Y-125051670D01*
X120856282Y-125031153D01*
X120846054Y-125009529D01*
X120837996Y-124987007D01*
X120832184Y-124963803D01*
X120828674Y-124940142D01*
X120827500Y-124916250D01*
X120827500Y-124003750D01*
X120828674Y-123979858D01*
X120832184Y-123956197D01*
X120837996Y-123932993D01*
X120846054Y-123910471D01*
X120856282Y-123888847D01*
X120868579Y-123868330D01*
X120882829Y-123849117D01*
X120898893Y-123831393D01*
X120916617Y-123815329D01*
X120935830Y-123801079D01*
X120956347Y-123788782D01*
X120977971Y-123778554D01*
X121000493Y-123770496D01*
X121023697Y-123764684D01*
X121047358Y-123761174D01*
X121071250Y-123760000D01*
X121558750Y-123760000D01*
X121582642Y-123761174D01*
X121582642Y-123761174D01*
G37*
D24*
X121315000Y-124460000D03*
D17*
G36*
X107454703Y-142575722D02*
G01*
X107469264Y-142577882D01*
X107483543Y-142581459D01*
X107497403Y-142586418D01*
X107510710Y-142592712D01*
X107523336Y-142600280D01*
X107535159Y-142609048D01*
X107546066Y-142618934D01*
X107555952Y-142629841D01*
X107564720Y-142641664D01*
X107572288Y-142654290D01*
X107578582Y-142667597D01*
X107583541Y-142681457D01*
X107587118Y-142695736D01*
X107589278Y-142710297D01*
X107590000Y-142725000D01*
X107590000Y-143025000D01*
X107589278Y-143039703D01*
X107587118Y-143054264D01*
X107583541Y-143068543D01*
X107578582Y-143082403D01*
X107572288Y-143095710D01*
X107564720Y-143108336D01*
X107555952Y-143120159D01*
X107546066Y-143131066D01*
X107535159Y-143140952D01*
X107523336Y-143149720D01*
X107510710Y-143157288D01*
X107497403Y-143163582D01*
X107483543Y-143168541D01*
X107469264Y-143172118D01*
X107454703Y-143174278D01*
X107440000Y-143175000D01*
X105790000Y-143175000D01*
X105775297Y-143174278D01*
X105760736Y-143172118D01*
X105746457Y-143168541D01*
X105732597Y-143163582D01*
X105719290Y-143157288D01*
X105706664Y-143149720D01*
X105694841Y-143140952D01*
X105683934Y-143131066D01*
X105674048Y-143120159D01*
X105665280Y-143108336D01*
X105657712Y-143095710D01*
X105651418Y-143082403D01*
X105646459Y-143068543D01*
X105642882Y-143054264D01*
X105640722Y-143039703D01*
X105640000Y-143025000D01*
X105640000Y-142725000D01*
X105640722Y-142710297D01*
X105642882Y-142695736D01*
X105646459Y-142681457D01*
X105651418Y-142667597D01*
X105657712Y-142654290D01*
X105665280Y-142641664D01*
X105674048Y-142629841D01*
X105683934Y-142618934D01*
X105694841Y-142609048D01*
X105706664Y-142600280D01*
X105719290Y-142592712D01*
X105732597Y-142586418D01*
X105746457Y-142581459D01*
X105760736Y-142577882D01*
X105775297Y-142575722D01*
X105790000Y-142575000D01*
X107440000Y-142575000D01*
X107454703Y-142575722D01*
X107454703Y-142575722D01*
G37*
D23*
X106615000Y-142875000D03*
D17*
G36*
X107454703Y-141305722D02*
G01*
X107469264Y-141307882D01*
X107483543Y-141311459D01*
X107497403Y-141316418D01*
X107510710Y-141322712D01*
X107523336Y-141330280D01*
X107535159Y-141339048D01*
X107546066Y-141348934D01*
X107555952Y-141359841D01*
X107564720Y-141371664D01*
X107572288Y-141384290D01*
X107578582Y-141397597D01*
X107583541Y-141411457D01*
X107587118Y-141425736D01*
X107589278Y-141440297D01*
X107590000Y-141455000D01*
X107590000Y-141755000D01*
X107589278Y-141769703D01*
X107587118Y-141784264D01*
X107583541Y-141798543D01*
X107578582Y-141812403D01*
X107572288Y-141825710D01*
X107564720Y-141838336D01*
X107555952Y-141850159D01*
X107546066Y-141861066D01*
X107535159Y-141870952D01*
X107523336Y-141879720D01*
X107510710Y-141887288D01*
X107497403Y-141893582D01*
X107483543Y-141898541D01*
X107469264Y-141902118D01*
X107454703Y-141904278D01*
X107440000Y-141905000D01*
X105790000Y-141905000D01*
X105775297Y-141904278D01*
X105760736Y-141902118D01*
X105746457Y-141898541D01*
X105732597Y-141893582D01*
X105719290Y-141887288D01*
X105706664Y-141879720D01*
X105694841Y-141870952D01*
X105683934Y-141861066D01*
X105674048Y-141850159D01*
X105665280Y-141838336D01*
X105657712Y-141825710D01*
X105651418Y-141812403D01*
X105646459Y-141798543D01*
X105642882Y-141784264D01*
X105640722Y-141769703D01*
X105640000Y-141755000D01*
X105640000Y-141455000D01*
X105640722Y-141440297D01*
X105642882Y-141425736D01*
X105646459Y-141411457D01*
X105651418Y-141397597D01*
X105657712Y-141384290D01*
X105665280Y-141371664D01*
X105674048Y-141359841D01*
X105683934Y-141348934D01*
X105694841Y-141339048D01*
X105706664Y-141330280D01*
X105719290Y-141322712D01*
X105732597Y-141316418D01*
X105746457Y-141311459D01*
X105760736Y-141307882D01*
X105775297Y-141305722D01*
X105790000Y-141305000D01*
X107440000Y-141305000D01*
X107454703Y-141305722D01*
X107454703Y-141305722D01*
G37*
D23*
X106615000Y-141605000D03*
D17*
G36*
X107454703Y-140035722D02*
G01*
X107469264Y-140037882D01*
X107483543Y-140041459D01*
X107497403Y-140046418D01*
X107510710Y-140052712D01*
X107523336Y-140060280D01*
X107535159Y-140069048D01*
X107546066Y-140078934D01*
X107555952Y-140089841D01*
X107564720Y-140101664D01*
X107572288Y-140114290D01*
X107578582Y-140127597D01*
X107583541Y-140141457D01*
X107587118Y-140155736D01*
X107589278Y-140170297D01*
X107590000Y-140185000D01*
X107590000Y-140485000D01*
X107589278Y-140499703D01*
X107587118Y-140514264D01*
X107583541Y-140528543D01*
X107578582Y-140542403D01*
X107572288Y-140555710D01*
X107564720Y-140568336D01*
X107555952Y-140580159D01*
X107546066Y-140591066D01*
X107535159Y-140600952D01*
X107523336Y-140609720D01*
X107510710Y-140617288D01*
X107497403Y-140623582D01*
X107483543Y-140628541D01*
X107469264Y-140632118D01*
X107454703Y-140634278D01*
X107440000Y-140635000D01*
X105790000Y-140635000D01*
X105775297Y-140634278D01*
X105760736Y-140632118D01*
X105746457Y-140628541D01*
X105732597Y-140623582D01*
X105719290Y-140617288D01*
X105706664Y-140609720D01*
X105694841Y-140600952D01*
X105683934Y-140591066D01*
X105674048Y-140580159D01*
X105665280Y-140568336D01*
X105657712Y-140555710D01*
X105651418Y-140542403D01*
X105646459Y-140528543D01*
X105642882Y-140514264D01*
X105640722Y-140499703D01*
X105640000Y-140485000D01*
X105640000Y-140185000D01*
X105640722Y-140170297D01*
X105642882Y-140155736D01*
X105646459Y-140141457D01*
X105651418Y-140127597D01*
X105657712Y-140114290D01*
X105665280Y-140101664D01*
X105674048Y-140089841D01*
X105683934Y-140078934D01*
X105694841Y-140069048D01*
X105706664Y-140060280D01*
X105719290Y-140052712D01*
X105732597Y-140046418D01*
X105746457Y-140041459D01*
X105760736Y-140037882D01*
X105775297Y-140035722D01*
X105790000Y-140035000D01*
X107440000Y-140035000D01*
X107454703Y-140035722D01*
X107454703Y-140035722D01*
G37*
D23*
X106615000Y-140335000D03*
D17*
G36*
X107454703Y-138765722D02*
G01*
X107469264Y-138767882D01*
X107483543Y-138771459D01*
X107497403Y-138776418D01*
X107510710Y-138782712D01*
X107523336Y-138790280D01*
X107535159Y-138799048D01*
X107546066Y-138808934D01*
X107555952Y-138819841D01*
X107564720Y-138831664D01*
X107572288Y-138844290D01*
X107578582Y-138857597D01*
X107583541Y-138871457D01*
X107587118Y-138885736D01*
X107589278Y-138900297D01*
X107590000Y-138915000D01*
X107590000Y-139215000D01*
X107589278Y-139229703D01*
X107587118Y-139244264D01*
X107583541Y-139258543D01*
X107578582Y-139272403D01*
X107572288Y-139285710D01*
X107564720Y-139298336D01*
X107555952Y-139310159D01*
X107546066Y-139321066D01*
X107535159Y-139330952D01*
X107523336Y-139339720D01*
X107510710Y-139347288D01*
X107497403Y-139353582D01*
X107483543Y-139358541D01*
X107469264Y-139362118D01*
X107454703Y-139364278D01*
X107440000Y-139365000D01*
X105790000Y-139365000D01*
X105775297Y-139364278D01*
X105760736Y-139362118D01*
X105746457Y-139358541D01*
X105732597Y-139353582D01*
X105719290Y-139347288D01*
X105706664Y-139339720D01*
X105694841Y-139330952D01*
X105683934Y-139321066D01*
X105674048Y-139310159D01*
X105665280Y-139298336D01*
X105657712Y-139285710D01*
X105651418Y-139272403D01*
X105646459Y-139258543D01*
X105642882Y-139244264D01*
X105640722Y-139229703D01*
X105640000Y-139215000D01*
X105640000Y-138915000D01*
X105640722Y-138900297D01*
X105642882Y-138885736D01*
X105646459Y-138871457D01*
X105651418Y-138857597D01*
X105657712Y-138844290D01*
X105665280Y-138831664D01*
X105674048Y-138819841D01*
X105683934Y-138808934D01*
X105694841Y-138799048D01*
X105706664Y-138790280D01*
X105719290Y-138782712D01*
X105732597Y-138776418D01*
X105746457Y-138771459D01*
X105760736Y-138767882D01*
X105775297Y-138765722D01*
X105790000Y-138765000D01*
X107440000Y-138765000D01*
X107454703Y-138765722D01*
X107454703Y-138765722D01*
G37*
D23*
X106615000Y-139065000D03*
D17*
G36*
X102504703Y-138765722D02*
G01*
X102519264Y-138767882D01*
X102533543Y-138771459D01*
X102547403Y-138776418D01*
X102560710Y-138782712D01*
X102573336Y-138790280D01*
X102585159Y-138799048D01*
X102596066Y-138808934D01*
X102605952Y-138819841D01*
X102614720Y-138831664D01*
X102622288Y-138844290D01*
X102628582Y-138857597D01*
X102633541Y-138871457D01*
X102637118Y-138885736D01*
X102639278Y-138900297D01*
X102640000Y-138915000D01*
X102640000Y-139215000D01*
X102639278Y-139229703D01*
X102637118Y-139244264D01*
X102633541Y-139258543D01*
X102628582Y-139272403D01*
X102622288Y-139285710D01*
X102614720Y-139298336D01*
X102605952Y-139310159D01*
X102596066Y-139321066D01*
X102585159Y-139330952D01*
X102573336Y-139339720D01*
X102560710Y-139347288D01*
X102547403Y-139353582D01*
X102533543Y-139358541D01*
X102519264Y-139362118D01*
X102504703Y-139364278D01*
X102490000Y-139365000D01*
X100840000Y-139365000D01*
X100825297Y-139364278D01*
X100810736Y-139362118D01*
X100796457Y-139358541D01*
X100782597Y-139353582D01*
X100769290Y-139347288D01*
X100756664Y-139339720D01*
X100744841Y-139330952D01*
X100733934Y-139321066D01*
X100724048Y-139310159D01*
X100715280Y-139298336D01*
X100707712Y-139285710D01*
X100701418Y-139272403D01*
X100696459Y-139258543D01*
X100692882Y-139244264D01*
X100690722Y-139229703D01*
X100690000Y-139215000D01*
X100690000Y-138915000D01*
X100690722Y-138900297D01*
X100692882Y-138885736D01*
X100696459Y-138871457D01*
X100701418Y-138857597D01*
X100707712Y-138844290D01*
X100715280Y-138831664D01*
X100724048Y-138819841D01*
X100733934Y-138808934D01*
X100744841Y-138799048D01*
X100756664Y-138790280D01*
X100769290Y-138782712D01*
X100782597Y-138776418D01*
X100796457Y-138771459D01*
X100810736Y-138767882D01*
X100825297Y-138765722D01*
X100840000Y-138765000D01*
X102490000Y-138765000D01*
X102504703Y-138765722D01*
X102504703Y-138765722D01*
G37*
D23*
X101665000Y-139065000D03*
D17*
G36*
X102504703Y-140035722D02*
G01*
X102519264Y-140037882D01*
X102533543Y-140041459D01*
X102547403Y-140046418D01*
X102560710Y-140052712D01*
X102573336Y-140060280D01*
X102585159Y-140069048D01*
X102596066Y-140078934D01*
X102605952Y-140089841D01*
X102614720Y-140101664D01*
X102622288Y-140114290D01*
X102628582Y-140127597D01*
X102633541Y-140141457D01*
X102637118Y-140155736D01*
X102639278Y-140170297D01*
X102640000Y-140185000D01*
X102640000Y-140485000D01*
X102639278Y-140499703D01*
X102637118Y-140514264D01*
X102633541Y-140528543D01*
X102628582Y-140542403D01*
X102622288Y-140555710D01*
X102614720Y-140568336D01*
X102605952Y-140580159D01*
X102596066Y-140591066D01*
X102585159Y-140600952D01*
X102573336Y-140609720D01*
X102560710Y-140617288D01*
X102547403Y-140623582D01*
X102533543Y-140628541D01*
X102519264Y-140632118D01*
X102504703Y-140634278D01*
X102490000Y-140635000D01*
X100840000Y-140635000D01*
X100825297Y-140634278D01*
X100810736Y-140632118D01*
X100796457Y-140628541D01*
X100782597Y-140623582D01*
X100769290Y-140617288D01*
X100756664Y-140609720D01*
X100744841Y-140600952D01*
X100733934Y-140591066D01*
X100724048Y-140580159D01*
X100715280Y-140568336D01*
X100707712Y-140555710D01*
X100701418Y-140542403D01*
X100696459Y-140528543D01*
X100692882Y-140514264D01*
X100690722Y-140499703D01*
X100690000Y-140485000D01*
X100690000Y-140185000D01*
X100690722Y-140170297D01*
X100692882Y-140155736D01*
X100696459Y-140141457D01*
X100701418Y-140127597D01*
X100707712Y-140114290D01*
X100715280Y-140101664D01*
X100724048Y-140089841D01*
X100733934Y-140078934D01*
X100744841Y-140069048D01*
X100756664Y-140060280D01*
X100769290Y-140052712D01*
X100782597Y-140046418D01*
X100796457Y-140041459D01*
X100810736Y-140037882D01*
X100825297Y-140035722D01*
X100840000Y-140035000D01*
X102490000Y-140035000D01*
X102504703Y-140035722D01*
X102504703Y-140035722D01*
G37*
D23*
X101665000Y-140335000D03*
D17*
G36*
X102504703Y-141305722D02*
G01*
X102519264Y-141307882D01*
X102533543Y-141311459D01*
X102547403Y-141316418D01*
X102560710Y-141322712D01*
X102573336Y-141330280D01*
X102585159Y-141339048D01*
X102596066Y-141348934D01*
X102605952Y-141359841D01*
X102614720Y-141371664D01*
X102622288Y-141384290D01*
X102628582Y-141397597D01*
X102633541Y-141411457D01*
X102637118Y-141425736D01*
X102639278Y-141440297D01*
X102640000Y-141455000D01*
X102640000Y-141755000D01*
X102639278Y-141769703D01*
X102637118Y-141784264D01*
X102633541Y-141798543D01*
X102628582Y-141812403D01*
X102622288Y-141825710D01*
X102614720Y-141838336D01*
X102605952Y-141850159D01*
X102596066Y-141861066D01*
X102585159Y-141870952D01*
X102573336Y-141879720D01*
X102560710Y-141887288D01*
X102547403Y-141893582D01*
X102533543Y-141898541D01*
X102519264Y-141902118D01*
X102504703Y-141904278D01*
X102490000Y-141905000D01*
X100840000Y-141905000D01*
X100825297Y-141904278D01*
X100810736Y-141902118D01*
X100796457Y-141898541D01*
X100782597Y-141893582D01*
X100769290Y-141887288D01*
X100756664Y-141879720D01*
X100744841Y-141870952D01*
X100733934Y-141861066D01*
X100724048Y-141850159D01*
X100715280Y-141838336D01*
X100707712Y-141825710D01*
X100701418Y-141812403D01*
X100696459Y-141798543D01*
X100692882Y-141784264D01*
X100690722Y-141769703D01*
X100690000Y-141755000D01*
X100690000Y-141455000D01*
X100690722Y-141440297D01*
X100692882Y-141425736D01*
X100696459Y-141411457D01*
X100701418Y-141397597D01*
X100707712Y-141384290D01*
X100715280Y-141371664D01*
X100724048Y-141359841D01*
X100733934Y-141348934D01*
X100744841Y-141339048D01*
X100756664Y-141330280D01*
X100769290Y-141322712D01*
X100782597Y-141316418D01*
X100796457Y-141311459D01*
X100810736Y-141307882D01*
X100825297Y-141305722D01*
X100840000Y-141305000D01*
X102490000Y-141305000D01*
X102504703Y-141305722D01*
X102504703Y-141305722D01*
G37*
D23*
X101665000Y-141605000D03*
D17*
G36*
X102504703Y-142575722D02*
G01*
X102519264Y-142577882D01*
X102533543Y-142581459D01*
X102547403Y-142586418D01*
X102560710Y-142592712D01*
X102573336Y-142600280D01*
X102585159Y-142609048D01*
X102596066Y-142618934D01*
X102605952Y-142629841D01*
X102614720Y-142641664D01*
X102622288Y-142654290D01*
X102628582Y-142667597D01*
X102633541Y-142681457D01*
X102637118Y-142695736D01*
X102639278Y-142710297D01*
X102640000Y-142725000D01*
X102640000Y-143025000D01*
X102639278Y-143039703D01*
X102637118Y-143054264D01*
X102633541Y-143068543D01*
X102628582Y-143082403D01*
X102622288Y-143095710D01*
X102614720Y-143108336D01*
X102605952Y-143120159D01*
X102596066Y-143131066D01*
X102585159Y-143140952D01*
X102573336Y-143149720D01*
X102560710Y-143157288D01*
X102547403Y-143163582D01*
X102533543Y-143168541D01*
X102519264Y-143172118D01*
X102504703Y-143174278D01*
X102490000Y-143175000D01*
X100840000Y-143175000D01*
X100825297Y-143174278D01*
X100810736Y-143172118D01*
X100796457Y-143168541D01*
X100782597Y-143163582D01*
X100769290Y-143157288D01*
X100756664Y-143149720D01*
X100744841Y-143140952D01*
X100733934Y-143131066D01*
X100724048Y-143120159D01*
X100715280Y-143108336D01*
X100707712Y-143095710D01*
X100701418Y-143082403D01*
X100696459Y-143068543D01*
X100692882Y-143054264D01*
X100690722Y-143039703D01*
X100690000Y-143025000D01*
X100690000Y-142725000D01*
X100690722Y-142710297D01*
X100692882Y-142695736D01*
X100696459Y-142681457D01*
X100701418Y-142667597D01*
X100707712Y-142654290D01*
X100715280Y-142641664D01*
X100724048Y-142629841D01*
X100733934Y-142618934D01*
X100744841Y-142609048D01*
X100756664Y-142600280D01*
X100769290Y-142592712D01*
X100782597Y-142586418D01*
X100796457Y-142581459D01*
X100810736Y-142577882D01*
X100825297Y-142575722D01*
X100840000Y-142575000D01*
X102490000Y-142575000D01*
X102504703Y-142575722D01*
X102504703Y-142575722D01*
G37*
D23*
X101665000Y-142875000D03*
D17*
G36*
X107519703Y-125430722D02*
G01*
X107534264Y-125432882D01*
X107548543Y-125436459D01*
X107562403Y-125441418D01*
X107575710Y-125447712D01*
X107588336Y-125455280D01*
X107600159Y-125464048D01*
X107611066Y-125473934D01*
X107620952Y-125484841D01*
X107629720Y-125496664D01*
X107637288Y-125509290D01*
X107643582Y-125522597D01*
X107648541Y-125536457D01*
X107652118Y-125550736D01*
X107654278Y-125565297D01*
X107655000Y-125580000D01*
X107655000Y-125880000D01*
X107654278Y-125894703D01*
X107652118Y-125909264D01*
X107648541Y-125923543D01*
X107643582Y-125937403D01*
X107637288Y-125950710D01*
X107629720Y-125963336D01*
X107620952Y-125975159D01*
X107611066Y-125986066D01*
X107600159Y-125995952D01*
X107588336Y-126004720D01*
X107575710Y-126012288D01*
X107562403Y-126018582D01*
X107548543Y-126023541D01*
X107534264Y-126027118D01*
X107519703Y-126029278D01*
X107505000Y-126030000D01*
X105855000Y-126030000D01*
X105840297Y-126029278D01*
X105825736Y-126027118D01*
X105811457Y-126023541D01*
X105797597Y-126018582D01*
X105784290Y-126012288D01*
X105771664Y-126004720D01*
X105759841Y-125995952D01*
X105748934Y-125986066D01*
X105739048Y-125975159D01*
X105730280Y-125963336D01*
X105722712Y-125950710D01*
X105716418Y-125937403D01*
X105711459Y-125923543D01*
X105707882Y-125909264D01*
X105705722Y-125894703D01*
X105705000Y-125880000D01*
X105705000Y-125580000D01*
X105705722Y-125565297D01*
X105707882Y-125550736D01*
X105711459Y-125536457D01*
X105716418Y-125522597D01*
X105722712Y-125509290D01*
X105730280Y-125496664D01*
X105739048Y-125484841D01*
X105748934Y-125473934D01*
X105759841Y-125464048D01*
X105771664Y-125455280D01*
X105784290Y-125447712D01*
X105797597Y-125441418D01*
X105811457Y-125436459D01*
X105825736Y-125432882D01*
X105840297Y-125430722D01*
X105855000Y-125430000D01*
X107505000Y-125430000D01*
X107519703Y-125430722D01*
X107519703Y-125430722D01*
G37*
D23*
X106680000Y-125730000D03*
D17*
G36*
X107519703Y-124160722D02*
G01*
X107534264Y-124162882D01*
X107548543Y-124166459D01*
X107562403Y-124171418D01*
X107575710Y-124177712D01*
X107588336Y-124185280D01*
X107600159Y-124194048D01*
X107611066Y-124203934D01*
X107620952Y-124214841D01*
X107629720Y-124226664D01*
X107637288Y-124239290D01*
X107643582Y-124252597D01*
X107648541Y-124266457D01*
X107652118Y-124280736D01*
X107654278Y-124295297D01*
X107655000Y-124310000D01*
X107655000Y-124610000D01*
X107654278Y-124624703D01*
X107652118Y-124639264D01*
X107648541Y-124653543D01*
X107643582Y-124667403D01*
X107637288Y-124680710D01*
X107629720Y-124693336D01*
X107620952Y-124705159D01*
X107611066Y-124716066D01*
X107600159Y-124725952D01*
X107588336Y-124734720D01*
X107575710Y-124742288D01*
X107562403Y-124748582D01*
X107548543Y-124753541D01*
X107534264Y-124757118D01*
X107519703Y-124759278D01*
X107505000Y-124760000D01*
X105855000Y-124760000D01*
X105840297Y-124759278D01*
X105825736Y-124757118D01*
X105811457Y-124753541D01*
X105797597Y-124748582D01*
X105784290Y-124742288D01*
X105771664Y-124734720D01*
X105759841Y-124725952D01*
X105748934Y-124716066D01*
X105739048Y-124705159D01*
X105730280Y-124693336D01*
X105722712Y-124680710D01*
X105716418Y-124667403D01*
X105711459Y-124653543D01*
X105707882Y-124639264D01*
X105705722Y-124624703D01*
X105705000Y-124610000D01*
X105705000Y-124310000D01*
X105705722Y-124295297D01*
X105707882Y-124280736D01*
X105711459Y-124266457D01*
X105716418Y-124252597D01*
X105722712Y-124239290D01*
X105730280Y-124226664D01*
X105739048Y-124214841D01*
X105748934Y-124203934D01*
X105759841Y-124194048D01*
X105771664Y-124185280D01*
X105784290Y-124177712D01*
X105797597Y-124171418D01*
X105811457Y-124166459D01*
X105825736Y-124162882D01*
X105840297Y-124160722D01*
X105855000Y-124160000D01*
X107505000Y-124160000D01*
X107519703Y-124160722D01*
X107519703Y-124160722D01*
G37*
D23*
X106680000Y-124460000D03*
D17*
G36*
X107519703Y-122890722D02*
G01*
X107534264Y-122892882D01*
X107548543Y-122896459D01*
X107562403Y-122901418D01*
X107575710Y-122907712D01*
X107588336Y-122915280D01*
X107600159Y-122924048D01*
X107611066Y-122933934D01*
X107620952Y-122944841D01*
X107629720Y-122956664D01*
X107637288Y-122969290D01*
X107643582Y-122982597D01*
X107648541Y-122996457D01*
X107652118Y-123010736D01*
X107654278Y-123025297D01*
X107655000Y-123040000D01*
X107655000Y-123340000D01*
X107654278Y-123354703D01*
X107652118Y-123369264D01*
X107648541Y-123383543D01*
X107643582Y-123397403D01*
X107637288Y-123410710D01*
X107629720Y-123423336D01*
X107620952Y-123435159D01*
X107611066Y-123446066D01*
X107600159Y-123455952D01*
X107588336Y-123464720D01*
X107575710Y-123472288D01*
X107562403Y-123478582D01*
X107548543Y-123483541D01*
X107534264Y-123487118D01*
X107519703Y-123489278D01*
X107505000Y-123490000D01*
X105855000Y-123490000D01*
X105840297Y-123489278D01*
X105825736Y-123487118D01*
X105811457Y-123483541D01*
X105797597Y-123478582D01*
X105784290Y-123472288D01*
X105771664Y-123464720D01*
X105759841Y-123455952D01*
X105748934Y-123446066D01*
X105739048Y-123435159D01*
X105730280Y-123423336D01*
X105722712Y-123410710D01*
X105716418Y-123397403D01*
X105711459Y-123383543D01*
X105707882Y-123369264D01*
X105705722Y-123354703D01*
X105705000Y-123340000D01*
X105705000Y-123040000D01*
X105705722Y-123025297D01*
X105707882Y-123010736D01*
X105711459Y-122996457D01*
X105716418Y-122982597D01*
X105722712Y-122969290D01*
X105730280Y-122956664D01*
X105739048Y-122944841D01*
X105748934Y-122933934D01*
X105759841Y-122924048D01*
X105771664Y-122915280D01*
X105784290Y-122907712D01*
X105797597Y-122901418D01*
X105811457Y-122896459D01*
X105825736Y-122892882D01*
X105840297Y-122890722D01*
X105855000Y-122890000D01*
X107505000Y-122890000D01*
X107519703Y-122890722D01*
X107519703Y-122890722D01*
G37*
D23*
X106680000Y-123190000D03*
D17*
G36*
X107519703Y-121620722D02*
G01*
X107534264Y-121622882D01*
X107548543Y-121626459D01*
X107562403Y-121631418D01*
X107575710Y-121637712D01*
X107588336Y-121645280D01*
X107600159Y-121654048D01*
X107611066Y-121663934D01*
X107620952Y-121674841D01*
X107629720Y-121686664D01*
X107637288Y-121699290D01*
X107643582Y-121712597D01*
X107648541Y-121726457D01*
X107652118Y-121740736D01*
X107654278Y-121755297D01*
X107655000Y-121770000D01*
X107655000Y-122070000D01*
X107654278Y-122084703D01*
X107652118Y-122099264D01*
X107648541Y-122113543D01*
X107643582Y-122127403D01*
X107637288Y-122140710D01*
X107629720Y-122153336D01*
X107620952Y-122165159D01*
X107611066Y-122176066D01*
X107600159Y-122185952D01*
X107588336Y-122194720D01*
X107575710Y-122202288D01*
X107562403Y-122208582D01*
X107548543Y-122213541D01*
X107534264Y-122217118D01*
X107519703Y-122219278D01*
X107505000Y-122220000D01*
X105855000Y-122220000D01*
X105840297Y-122219278D01*
X105825736Y-122217118D01*
X105811457Y-122213541D01*
X105797597Y-122208582D01*
X105784290Y-122202288D01*
X105771664Y-122194720D01*
X105759841Y-122185952D01*
X105748934Y-122176066D01*
X105739048Y-122165159D01*
X105730280Y-122153336D01*
X105722712Y-122140710D01*
X105716418Y-122127403D01*
X105711459Y-122113543D01*
X105707882Y-122099264D01*
X105705722Y-122084703D01*
X105705000Y-122070000D01*
X105705000Y-121770000D01*
X105705722Y-121755297D01*
X105707882Y-121740736D01*
X105711459Y-121726457D01*
X105716418Y-121712597D01*
X105722712Y-121699290D01*
X105730280Y-121686664D01*
X105739048Y-121674841D01*
X105748934Y-121663934D01*
X105759841Y-121654048D01*
X105771664Y-121645280D01*
X105784290Y-121637712D01*
X105797597Y-121631418D01*
X105811457Y-121626459D01*
X105825736Y-121622882D01*
X105840297Y-121620722D01*
X105855000Y-121620000D01*
X107505000Y-121620000D01*
X107519703Y-121620722D01*
X107519703Y-121620722D01*
G37*
D23*
X106680000Y-121920000D03*
D17*
G36*
X102569703Y-121620722D02*
G01*
X102584264Y-121622882D01*
X102598543Y-121626459D01*
X102612403Y-121631418D01*
X102625710Y-121637712D01*
X102638336Y-121645280D01*
X102650159Y-121654048D01*
X102661066Y-121663934D01*
X102670952Y-121674841D01*
X102679720Y-121686664D01*
X102687288Y-121699290D01*
X102693582Y-121712597D01*
X102698541Y-121726457D01*
X102702118Y-121740736D01*
X102704278Y-121755297D01*
X102705000Y-121770000D01*
X102705000Y-122070000D01*
X102704278Y-122084703D01*
X102702118Y-122099264D01*
X102698541Y-122113543D01*
X102693582Y-122127403D01*
X102687288Y-122140710D01*
X102679720Y-122153336D01*
X102670952Y-122165159D01*
X102661066Y-122176066D01*
X102650159Y-122185952D01*
X102638336Y-122194720D01*
X102625710Y-122202288D01*
X102612403Y-122208582D01*
X102598543Y-122213541D01*
X102584264Y-122217118D01*
X102569703Y-122219278D01*
X102555000Y-122220000D01*
X100905000Y-122220000D01*
X100890297Y-122219278D01*
X100875736Y-122217118D01*
X100861457Y-122213541D01*
X100847597Y-122208582D01*
X100834290Y-122202288D01*
X100821664Y-122194720D01*
X100809841Y-122185952D01*
X100798934Y-122176066D01*
X100789048Y-122165159D01*
X100780280Y-122153336D01*
X100772712Y-122140710D01*
X100766418Y-122127403D01*
X100761459Y-122113543D01*
X100757882Y-122099264D01*
X100755722Y-122084703D01*
X100755000Y-122070000D01*
X100755000Y-121770000D01*
X100755722Y-121755297D01*
X100757882Y-121740736D01*
X100761459Y-121726457D01*
X100766418Y-121712597D01*
X100772712Y-121699290D01*
X100780280Y-121686664D01*
X100789048Y-121674841D01*
X100798934Y-121663934D01*
X100809841Y-121654048D01*
X100821664Y-121645280D01*
X100834290Y-121637712D01*
X100847597Y-121631418D01*
X100861457Y-121626459D01*
X100875736Y-121622882D01*
X100890297Y-121620722D01*
X100905000Y-121620000D01*
X102555000Y-121620000D01*
X102569703Y-121620722D01*
X102569703Y-121620722D01*
G37*
D23*
X101730000Y-121920000D03*
D17*
G36*
X102569703Y-122890722D02*
G01*
X102584264Y-122892882D01*
X102598543Y-122896459D01*
X102612403Y-122901418D01*
X102625710Y-122907712D01*
X102638336Y-122915280D01*
X102650159Y-122924048D01*
X102661066Y-122933934D01*
X102670952Y-122944841D01*
X102679720Y-122956664D01*
X102687288Y-122969290D01*
X102693582Y-122982597D01*
X102698541Y-122996457D01*
X102702118Y-123010736D01*
X102704278Y-123025297D01*
X102705000Y-123040000D01*
X102705000Y-123340000D01*
X102704278Y-123354703D01*
X102702118Y-123369264D01*
X102698541Y-123383543D01*
X102693582Y-123397403D01*
X102687288Y-123410710D01*
X102679720Y-123423336D01*
X102670952Y-123435159D01*
X102661066Y-123446066D01*
X102650159Y-123455952D01*
X102638336Y-123464720D01*
X102625710Y-123472288D01*
X102612403Y-123478582D01*
X102598543Y-123483541D01*
X102584264Y-123487118D01*
X102569703Y-123489278D01*
X102555000Y-123490000D01*
X100905000Y-123490000D01*
X100890297Y-123489278D01*
X100875736Y-123487118D01*
X100861457Y-123483541D01*
X100847597Y-123478582D01*
X100834290Y-123472288D01*
X100821664Y-123464720D01*
X100809841Y-123455952D01*
X100798934Y-123446066D01*
X100789048Y-123435159D01*
X100780280Y-123423336D01*
X100772712Y-123410710D01*
X100766418Y-123397403D01*
X100761459Y-123383543D01*
X100757882Y-123369264D01*
X100755722Y-123354703D01*
X100755000Y-123340000D01*
X100755000Y-123040000D01*
X100755722Y-123025297D01*
X100757882Y-123010736D01*
X100761459Y-122996457D01*
X100766418Y-122982597D01*
X100772712Y-122969290D01*
X100780280Y-122956664D01*
X100789048Y-122944841D01*
X100798934Y-122933934D01*
X100809841Y-122924048D01*
X100821664Y-122915280D01*
X100834290Y-122907712D01*
X100847597Y-122901418D01*
X100861457Y-122896459D01*
X100875736Y-122892882D01*
X100890297Y-122890722D01*
X100905000Y-122890000D01*
X102555000Y-122890000D01*
X102569703Y-122890722D01*
X102569703Y-122890722D01*
G37*
D23*
X101730000Y-123190000D03*
D17*
G36*
X102569703Y-124160722D02*
G01*
X102584264Y-124162882D01*
X102598543Y-124166459D01*
X102612403Y-124171418D01*
X102625710Y-124177712D01*
X102638336Y-124185280D01*
X102650159Y-124194048D01*
X102661066Y-124203934D01*
X102670952Y-124214841D01*
X102679720Y-124226664D01*
X102687288Y-124239290D01*
X102693582Y-124252597D01*
X102698541Y-124266457D01*
X102702118Y-124280736D01*
X102704278Y-124295297D01*
X102705000Y-124310000D01*
X102705000Y-124610000D01*
X102704278Y-124624703D01*
X102702118Y-124639264D01*
X102698541Y-124653543D01*
X102693582Y-124667403D01*
X102687288Y-124680710D01*
X102679720Y-124693336D01*
X102670952Y-124705159D01*
X102661066Y-124716066D01*
X102650159Y-124725952D01*
X102638336Y-124734720D01*
X102625710Y-124742288D01*
X102612403Y-124748582D01*
X102598543Y-124753541D01*
X102584264Y-124757118D01*
X102569703Y-124759278D01*
X102555000Y-124760000D01*
X100905000Y-124760000D01*
X100890297Y-124759278D01*
X100875736Y-124757118D01*
X100861457Y-124753541D01*
X100847597Y-124748582D01*
X100834290Y-124742288D01*
X100821664Y-124734720D01*
X100809841Y-124725952D01*
X100798934Y-124716066D01*
X100789048Y-124705159D01*
X100780280Y-124693336D01*
X100772712Y-124680710D01*
X100766418Y-124667403D01*
X100761459Y-124653543D01*
X100757882Y-124639264D01*
X100755722Y-124624703D01*
X100755000Y-124610000D01*
X100755000Y-124310000D01*
X100755722Y-124295297D01*
X100757882Y-124280736D01*
X100761459Y-124266457D01*
X100766418Y-124252597D01*
X100772712Y-124239290D01*
X100780280Y-124226664D01*
X100789048Y-124214841D01*
X100798934Y-124203934D01*
X100809841Y-124194048D01*
X100821664Y-124185280D01*
X100834290Y-124177712D01*
X100847597Y-124171418D01*
X100861457Y-124166459D01*
X100875736Y-124162882D01*
X100890297Y-124160722D01*
X100905000Y-124160000D01*
X102555000Y-124160000D01*
X102569703Y-124160722D01*
X102569703Y-124160722D01*
G37*
D23*
X101730000Y-124460000D03*
D17*
G36*
X102569703Y-125430722D02*
G01*
X102584264Y-125432882D01*
X102598543Y-125436459D01*
X102612403Y-125441418D01*
X102625710Y-125447712D01*
X102638336Y-125455280D01*
X102650159Y-125464048D01*
X102661066Y-125473934D01*
X102670952Y-125484841D01*
X102679720Y-125496664D01*
X102687288Y-125509290D01*
X102693582Y-125522597D01*
X102698541Y-125536457D01*
X102702118Y-125550736D01*
X102704278Y-125565297D01*
X102705000Y-125580000D01*
X102705000Y-125880000D01*
X102704278Y-125894703D01*
X102702118Y-125909264D01*
X102698541Y-125923543D01*
X102693582Y-125937403D01*
X102687288Y-125950710D01*
X102679720Y-125963336D01*
X102670952Y-125975159D01*
X102661066Y-125986066D01*
X102650159Y-125995952D01*
X102638336Y-126004720D01*
X102625710Y-126012288D01*
X102612403Y-126018582D01*
X102598543Y-126023541D01*
X102584264Y-126027118D01*
X102569703Y-126029278D01*
X102555000Y-126030000D01*
X100905000Y-126030000D01*
X100890297Y-126029278D01*
X100875736Y-126027118D01*
X100861457Y-126023541D01*
X100847597Y-126018582D01*
X100834290Y-126012288D01*
X100821664Y-126004720D01*
X100809841Y-125995952D01*
X100798934Y-125986066D01*
X100789048Y-125975159D01*
X100780280Y-125963336D01*
X100772712Y-125950710D01*
X100766418Y-125937403D01*
X100761459Y-125923543D01*
X100757882Y-125909264D01*
X100755722Y-125894703D01*
X100755000Y-125880000D01*
X100755000Y-125580000D01*
X100755722Y-125565297D01*
X100757882Y-125550736D01*
X100761459Y-125536457D01*
X100766418Y-125522597D01*
X100772712Y-125509290D01*
X100780280Y-125496664D01*
X100789048Y-125484841D01*
X100798934Y-125473934D01*
X100809841Y-125464048D01*
X100821664Y-125455280D01*
X100834290Y-125447712D01*
X100847597Y-125441418D01*
X100861457Y-125436459D01*
X100875736Y-125432882D01*
X100890297Y-125430722D01*
X100905000Y-125430000D01*
X102555000Y-125430000D01*
X102569703Y-125430722D01*
X102569703Y-125430722D01*
G37*
D23*
X101730000Y-125730000D03*
D25*
X99060000Y-124460000D03*
X142240000Y-119380000D03*
X99060000Y-142240000D03*
X109220000Y-121920000D03*
X134685000Y-125665000D03*
X106615000Y-137225000D03*
X124460000Y-115570000D03*
X128270000Y-124460000D03*
D26*
X105661767Y-132080000D02*
X106680000Y-132080000D01*
X105133398Y-132080000D02*
X105661767Y-132080000D01*
X102965010Y-134248388D02*
X105133398Y-132080000D01*
X102965010Y-142649990D02*
X102965010Y-134248388D01*
X102740000Y-142875000D02*
X102965010Y-142649990D01*
X101665000Y-142875000D02*
X102740000Y-142875000D01*
X105540000Y-142875000D02*
X106615000Y-142875000D01*
X104140000Y-141475000D02*
X105540000Y-142875000D01*
X104140000Y-134620000D02*
X104140000Y-141475000D01*
X104140000Y-114300000D02*
X104140000Y-113030000D01*
X104140000Y-124265000D02*
X104140000Y-114300000D01*
X106680000Y-125730000D02*
X105605000Y-125730000D01*
X105605000Y-125730000D02*
X104140000Y-124265000D01*
X101600000Y-116840000D02*
X101600000Y-115570000D01*
X103689990Y-118929990D02*
X101600000Y-116840000D01*
X103689990Y-124845010D02*
X103689990Y-118929990D01*
X101730000Y-125730000D02*
X102805000Y-125730000D01*
X102805000Y-125730000D02*
X103689990Y-124845010D01*
X111125000Y-137795000D02*
X111760000Y-137160000D01*
X101730000Y-124460000D02*
X100330000Y-124460000D01*
X100330000Y-124460000D02*
X99060000Y-124460000D01*
X99060000Y-124460000D02*
X99060000Y-124460000D01*
X139635000Y-120015000D02*
X141605000Y-120015000D01*
X141605000Y-120015000D02*
X142240000Y-119380000D01*
X142240000Y-119380000D02*
X142240000Y-119380000D01*
X101665000Y-141605000D02*
X99695000Y-141605000D01*
X99695000Y-141605000D02*
X99060000Y-142240000D01*
X99060000Y-142240000D02*
X99060000Y-142240000D01*
X106680000Y-121920000D02*
X109220000Y-121920000D01*
X109220000Y-121920000D02*
X109220000Y-121920000D01*
X134685000Y-123825000D02*
X134685000Y-125665000D01*
X134685000Y-125665000D02*
X134685000Y-125665000D01*
X106615000Y-139065000D02*
X106615000Y-137225000D01*
X106615000Y-137225000D02*
X106615000Y-137225000D01*
X123680000Y-119870000D02*
X123190000Y-119380000D01*
X125730000Y-119870000D02*
X123680000Y-119870000D01*
X123190000Y-119380000D02*
X123190000Y-116840000D01*
X123190000Y-116840000D02*
X124460000Y-115570000D01*
X124460000Y-115570000D02*
X124460000Y-115570000D01*
X126530000Y-125730000D02*
X125730000Y-125730000D01*
X130435000Y-125730000D02*
X126530000Y-125730000D01*
X134685000Y-122555000D02*
X133610000Y-122555000D01*
X124460000Y-125730000D02*
X123190000Y-127000000D01*
X125730000Y-125730000D02*
X124460000Y-125730000D01*
X125730000Y-121920000D02*
X123190000Y-121920000D01*
X133610000Y-122555000D02*
X131257500Y-124907500D01*
X131257500Y-124907500D02*
X130435000Y-125730000D01*
X123970000Y-123680000D02*
X123190000Y-124460000D01*
X125730000Y-123680000D02*
X123970000Y-123680000D01*
X125730000Y-123680000D02*
X127490000Y-123680000D01*
X127490000Y-123680000D02*
X128270000Y-124460000D01*
X128270000Y-124460000D02*
X128270000Y-124460000D01*
X132982481Y-123182519D02*
X133610000Y-122555000D01*
X126992519Y-123182519D02*
X132982481Y-123182519D01*
X125730000Y-121920000D02*
X126992519Y-123182519D01*
X132470000Y-120015000D02*
X132080000Y-119625000D01*
X134685000Y-120015000D02*
X132470000Y-120015000D01*
X130565000Y-118110000D02*
X132080000Y-119625000D01*
X129540000Y-118110000D02*
X130565000Y-118110000D01*
X132470000Y-121285000D02*
X132080000Y-121675000D01*
X134685000Y-121285000D02*
X132470000Y-121285000D01*
X130175000Y-121285000D02*
X129540000Y-121920000D01*
X134685000Y-121285000D02*
X130175000Y-121285000D01*
X156210000Y-118110000D02*
X152400000Y-118110000D01*
X146230000Y-121700000D02*
X144780000Y-121700000D01*
X147985010Y-119944990D02*
X146230000Y-121700000D01*
X150565010Y-119944990D02*
X147985010Y-119944990D01*
X152400000Y-118110000D02*
X150565010Y-119944990D01*
X144365000Y-121285000D02*
X144780000Y-121700000D01*
X139635000Y-121285000D02*
X144365000Y-121285000D01*
X141380001Y-123225001D02*
X140710000Y-122555000D01*
X140710000Y-122555000D02*
X139635000Y-122555000D01*
X144780000Y-139700000D02*
X144780000Y-130810000D01*
X144780000Y-130810000D02*
X144780000Y-126625000D01*
X148590000Y-121920000D02*
X144332500Y-126177500D01*
X151130000Y-121920000D02*
X148590000Y-121920000D01*
X144780000Y-126625000D02*
X144332500Y-126177500D01*
X144332500Y-126177500D02*
X140710000Y-122555000D01*
X137160000Y-113030000D02*
X135000000Y-113030000D01*
X139760000Y-113030000D02*
X140460000Y-113030000D01*
X138834999Y-112104999D02*
X139760000Y-113030000D01*
X130989999Y-112104999D02*
X138834999Y-112104999D01*
X130924999Y-112169999D02*
X130989999Y-112104999D01*
X130989999Y-113955001D02*
X130924999Y-113890001D01*
X132130003Y-113955001D02*
X130989999Y-113955001D01*
X130924999Y-113890001D02*
X130924999Y-112169999D01*
X135015002Y-116840000D02*
X132130003Y-113955001D01*
X140970000Y-116840000D02*
X135015002Y-116840000D01*
X142384999Y-115714999D02*
X135084999Y-115714999D01*
X107755000Y-124460000D02*
X106680000Y-124460000D01*
X110213398Y-124460000D02*
X107755000Y-124460000D01*
X142095001Y-117380001D02*
X141510001Y-117965001D01*
X142095001Y-116299999D02*
X142095001Y-117380001D01*
X141510001Y-115714999D02*
X142095001Y-116299999D01*
X135084999Y-115714999D02*
X141510001Y-115714999D01*
X132400000Y-113030000D02*
X135084999Y-115714999D01*
X131700000Y-113030000D02*
X132400000Y-113030000D01*
X119411612Y-122945010D02*
X118611601Y-122144999D01*
X122127510Y-121228160D02*
X122127510Y-122611840D01*
X122585660Y-120770010D02*
X122127510Y-121228160D01*
X118611601Y-122144999D02*
X112528399Y-122144999D01*
X126168200Y-120770010D02*
X122585660Y-120770010D01*
X132610680Y-122732510D02*
X128130700Y-122732510D01*
X133423190Y-121920000D02*
X132610680Y-122732510D01*
X121794340Y-122945010D02*
X119411612Y-122945010D01*
X136083232Y-121920000D02*
X133423190Y-121920000D01*
X128130700Y-122732510D02*
X126168200Y-120770010D01*
X140038231Y-117965001D02*
X136083232Y-121920000D01*
X112528399Y-122144999D02*
X110213398Y-124460000D01*
X122127510Y-122611840D02*
X121794340Y-122945010D01*
X141510001Y-117965001D02*
X140038231Y-117965001D01*
X142384999Y-115714999D02*
X141510001Y-115714999D01*
X144780000Y-118110000D02*
X142384999Y-115714999D01*
X151130000Y-142240000D02*
X156210000Y-142240000D01*
X156210000Y-125730000D02*
X156210000Y-142240000D01*
X134620000Y-140970000D02*
X130810000Y-140970000D01*
X130810000Y-137160000D02*
X130810000Y-140970000D01*
X89749999Y-135040001D02*
X88900000Y-135890000D01*
X90075001Y-134714999D02*
X89749999Y-135040001D01*
X90075001Y-129634999D02*
X90075001Y-134525001D01*
X96520000Y-123190000D02*
X90075001Y-129634999D01*
X101730000Y-123190000D02*
X96520000Y-123190000D01*
X90075001Y-133769999D02*
X90075001Y-134525001D01*
X90075001Y-134525001D02*
X90075001Y-134714999D01*
X101030000Y-140970000D02*
X101665000Y-140335000D01*
X88900000Y-140970000D02*
X101030000Y-140970000D01*
X121920000Y-140970000D02*
X119380000Y-138430000D01*
X121920000Y-140970000D02*
X123190000Y-140970000D01*
X119380000Y-140970000D02*
X121920000Y-140970000D01*
X114695002Y-138430000D02*
X112155002Y-135890000D01*
X119380000Y-138430000D02*
X114695002Y-138430000D01*
X111364998Y-135890000D02*
X110490000Y-136764998D01*
X112155002Y-135890000D02*
X111364998Y-135890000D01*
X107690000Y-141605000D02*
X106615000Y-141605000D01*
X110490000Y-138805000D02*
X107690000Y-141605000D01*
X110490000Y-136764998D02*
X110490000Y-138805000D01*
X119380000Y-140970000D02*
X119380000Y-144780000D01*
X114300000Y-137160000D02*
X112145010Y-135005010D01*
X120650000Y-137160000D02*
X114300000Y-137160000D01*
X120650000Y-137160000D02*
X123190000Y-137160000D01*
X119380000Y-137160000D02*
X120650000Y-137160000D01*
X107690000Y-140335000D02*
X106615000Y-140335000D01*
X107915010Y-140109990D02*
X107690000Y-140335000D01*
X107915010Y-138703578D02*
X107915010Y-140109990D01*
X111613578Y-135005010D02*
X107915010Y-138703578D01*
X112145010Y-135005010D02*
X111613578Y-135005010D01*
X121315000Y-119380000D02*
X121315000Y-121920000D01*
X116840000Y-119380000D02*
X115570000Y-120650000D01*
X121315000Y-119380000D02*
X116840000Y-119380000D01*
X139264290Y-123454290D02*
X139635000Y-123825000D01*
X139009990Y-123199990D02*
X139264290Y-123454290D01*
X128838222Y-128025010D02*
X133663242Y-123199990D01*
X116318408Y-128025010D02*
X128838222Y-128025010D01*
X114524999Y-126231601D02*
X116318408Y-128025010D01*
X114524999Y-125228399D02*
X114524999Y-126231601D01*
X116563398Y-123190000D02*
X114524999Y-125228399D01*
X118110000Y-123190000D02*
X116563398Y-123190000D01*
X144259997Y-119235001D02*
X149609997Y-119235001D01*
X149609997Y-119235001D02*
X152004998Y-116840000D01*
X133663242Y-123199990D02*
X137150010Y-123199990D01*
X137150010Y-123199990D02*
X139009990Y-123199990D01*
X137150010Y-123199990D02*
X137150010Y-122123222D01*
X137150010Y-122123222D02*
X138623232Y-120650000D01*
X138623232Y-120650000D02*
X142844998Y-120650000D01*
X142844998Y-120650000D02*
X144259997Y-119235001D01*
X152004998Y-116840000D02*
X156605002Y-116840000D01*
X157335001Y-117569999D02*
X157335001Y-118650001D01*
X156605002Y-116840000D02*
X157335001Y-117569999D01*
X138623232Y-121920000D02*
X138334990Y-122208242D01*
X138334990Y-122208242D02*
X138334990Y-123094990D01*
X142299615Y-123508205D02*
X140711410Y-121920000D01*
X157335001Y-118650001D02*
X152655001Y-123330001D01*
X152655001Y-121187999D02*
X151862001Y-120394999D01*
X151862001Y-120394999D02*
X149478591Y-120394999D01*
X149478591Y-120394999D02*
X146365385Y-123508205D01*
X146365385Y-123508205D02*
X142299615Y-123508205D01*
X140711410Y-121920000D02*
X138623232Y-121920000D01*
X152655001Y-123330001D02*
X152655001Y-121187999D01*
X149604999Y-123445001D02*
X152540001Y-123445001D01*
X148079998Y-124970002D02*
X149604999Y-123445001D01*
X146305001Y-140432001D02*
X146305001Y-125985001D01*
X139635000Y-123825000D02*
X141079981Y-123825000D01*
X141079981Y-123825000D02*
X143254999Y-126000018D01*
X146305001Y-125985001D02*
X147320000Y-124970002D01*
X143254999Y-126000018D02*
X143254999Y-140432001D01*
X143254999Y-140432001D02*
X144047999Y-141225001D01*
X152540001Y-123445001D02*
X152655001Y-123330001D01*
X144047999Y-141225001D02*
X145512001Y-141225001D01*
X147320000Y-124970002D02*
X148079998Y-124970002D01*
X145512001Y-141225001D02*
X146305001Y-140432001D01*
X155669999Y-124604999D02*
X156750001Y-124604999D01*
X155034999Y-141434979D02*
X155034999Y-125239999D01*
X156750001Y-124604999D02*
X157385001Y-125239999D01*
X157385001Y-141701409D02*
X155321409Y-143765001D01*
X155321409Y-143765001D02*
X150397999Y-143765001D01*
X151579003Y-140432001D02*
X152936992Y-141789990D01*
X155390010Y-141789990D02*
X155034999Y-141434979D01*
X155034999Y-125239999D02*
X155669999Y-124604999D01*
X152936992Y-141789990D02*
X155390010Y-141789990D01*
X157385001Y-125239999D02*
X157385001Y-141701409D01*
X149604999Y-142972001D02*
X150397999Y-143765001D01*
X149604999Y-141984999D02*
X149604999Y-142972001D01*
X149322001Y-141702001D02*
X149604999Y-141984999D01*
X149322001Y-140432001D02*
X149322001Y-141702001D01*
X149322001Y-140432001D02*
X151579003Y-140432001D01*
X146305001Y-140432001D02*
X149322001Y-140432001D01*
X121315000Y-127000000D02*
X121315000Y-124460000D01*
X116840000Y-127000000D02*
X115570000Y-125730000D01*
X121315000Y-127000000D02*
X116840000Y-127000000D01*
X88900000Y-123190000D02*
X88900000Y-116840000D01*
D27*
G36*
X160630001Y-145390000D02*
G01*
X120680562Y-145390000D01*
X120759853Y-145198574D01*
X120815000Y-144921335D01*
X120815000Y-144638665D01*
X120759853Y-144361426D01*
X120651680Y-144100273D01*
X120494637Y-143865241D01*
X120294759Y-143665363D01*
X120140000Y-143561957D01*
X120140000Y-142188043D01*
X120294759Y-142084637D01*
X120494637Y-141884759D01*
X120598043Y-141730000D01*
X121882676Y-141730000D01*
X121919999Y-141733676D01*
X121957322Y-141730000D01*
X121969099Y-141730000D01*
X121991068Y-141771101D01*
X122170392Y-141989608D01*
X122388899Y-142168932D01*
X122638192Y-142302182D01*
X122908691Y-142384236D01*
X123119508Y-142405000D01*
X123260492Y-142405000D01*
X123471309Y-142384236D01*
X123741808Y-142302182D01*
X123991101Y-142168932D01*
X124209608Y-141989608D01*
X124388932Y-141771101D01*
X124522182Y-141521808D01*
X124604236Y-141251309D01*
X124631943Y-140970000D01*
X124604236Y-140688691D01*
X124522182Y-140418192D01*
X124388932Y-140168899D01*
X124209608Y-139950392D01*
X123991101Y-139771068D01*
X123741808Y-139637818D01*
X123471309Y-139555764D01*
X123260492Y-139535000D01*
X123119508Y-139535000D01*
X122908691Y-139555764D01*
X122638192Y-139637818D01*
X122388899Y-139771068D01*
X122170392Y-139950392D01*
X122082406Y-140057603D01*
X120297099Y-138272297D01*
X120494637Y-138074759D01*
X120598043Y-137920000D01*
X121969099Y-137920000D01*
X121991068Y-137961101D01*
X122170392Y-138179608D01*
X122388899Y-138358932D01*
X122638192Y-138492182D01*
X122908691Y-138574236D01*
X123119508Y-138595000D01*
X123260492Y-138595000D01*
X123471309Y-138574236D01*
X123741808Y-138492182D01*
X123991101Y-138358932D01*
X124209608Y-138179608D01*
X124388932Y-137961101D01*
X124522182Y-137711808D01*
X124604236Y-137441309D01*
X124631943Y-137160000D01*
X124618023Y-137018665D01*
X129375000Y-137018665D01*
X129375000Y-137301335D01*
X129430147Y-137578574D01*
X129538320Y-137839727D01*
X129695363Y-138074759D01*
X129895241Y-138274637D01*
X130050000Y-138378044D01*
X130050001Y-139751956D01*
X129895241Y-139855363D01*
X129695363Y-140055241D01*
X129538320Y-140290273D01*
X129430147Y-140551426D01*
X129375000Y-140828665D01*
X129375000Y-141111335D01*
X129430147Y-141388574D01*
X129538320Y-141649727D01*
X129695363Y-141884759D01*
X129895241Y-142084637D01*
X130130273Y-142241680D01*
X130391426Y-142349853D01*
X130668665Y-142405000D01*
X130951335Y-142405000D01*
X131228574Y-142349853D01*
X131489727Y-142241680D01*
X131724759Y-142084637D01*
X131924637Y-141884759D01*
X132028043Y-141730000D01*
X133131928Y-141730000D01*
X133131928Y-141820000D01*
X133144188Y-141944482D01*
X133180498Y-142064180D01*
X133239463Y-142174494D01*
X133318815Y-142271185D01*
X133415506Y-142350537D01*
X133525820Y-142409502D01*
X133645518Y-142445812D01*
X133770000Y-142458072D01*
X135470000Y-142458072D01*
X135594482Y-142445812D01*
X135714180Y-142409502D01*
X135824494Y-142350537D01*
X135921185Y-142271185D01*
X136000537Y-142174494D01*
X136059502Y-142064180D01*
X136095812Y-141944482D01*
X136108072Y-141820000D01*
X136108072Y-140120000D01*
X136095812Y-139995518D01*
X136059502Y-139875820D01*
X136000537Y-139765506D01*
X135921185Y-139668815D01*
X135824494Y-139589463D01*
X135714180Y-139530498D01*
X135594482Y-139494188D01*
X135470000Y-139481928D01*
X133770000Y-139481928D01*
X133645518Y-139494188D01*
X133525820Y-139530498D01*
X133415506Y-139589463D01*
X133318815Y-139668815D01*
X133239463Y-139765506D01*
X133180498Y-139875820D01*
X133144188Y-139995518D01*
X133131928Y-140120000D01*
X133131928Y-140210000D01*
X132028043Y-140210000D01*
X131924637Y-140055241D01*
X131724759Y-139855363D01*
X131570000Y-139751957D01*
X131570000Y-138378043D01*
X131724759Y-138274637D01*
X131924637Y-138074759D01*
X132081680Y-137839727D01*
X132189853Y-137578574D01*
X132245000Y-137301335D01*
X132245000Y-137018665D01*
X132189853Y-136741426D01*
X132081680Y-136480273D01*
X131924637Y-136245241D01*
X131724759Y-136045363D01*
X131489727Y-135888320D01*
X131228574Y-135780147D01*
X130951335Y-135725000D01*
X130668665Y-135725000D01*
X130391426Y-135780147D01*
X130130273Y-135888320D01*
X129895241Y-136045363D01*
X129695363Y-136245241D01*
X129538320Y-136480273D01*
X129430147Y-136741426D01*
X129375000Y-137018665D01*
X124618023Y-137018665D01*
X124604236Y-136878691D01*
X124522182Y-136608192D01*
X124388932Y-136358899D01*
X124209608Y-136140392D01*
X123991101Y-135961068D01*
X123741808Y-135827818D01*
X123471309Y-135745764D01*
X123260492Y-135725000D01*
X123119508Y-135725000D01*
X122908691Y-135745764D01*
X122638192Y-135827818D01*
X122388899Y-135961068D01*
X122170392Y-136140392D01*
X121991068Y-136358899D01*
X121969099Y-136400000D01*
X120598043Y-136400000D01*
X120494637Y-136245241D01*
X120294759Y-136045363D01*
X120059727Y-135888320D01*
X119798574Y-135780147D01*
X119521335Y-135725000D01*
X119238665Y-135725000D01*
X118961426Y-135780147D01*
X118700273Y-135888320D01*
X118465241Y-136045363D01*
X118265363Y-136245241D01*
X118161957Y-136400000D01*
X114614802Y-136400000D01*
X112708814Y-134494013D01*
X112685011Y-134465009D01*
X112569286Y-134370036D01*
X112437257Y-134299464D01*
X112293996Y-134256007D01*
X112182343Y-134245010D01*
X112182332Y-134245010D01*
X112145010Y-134241334D01*
X112107688Y-134245010D01*
X111650900Y-134245010D01*
X111613577Y-134241334D01*
X111576254Y-134245010D01*
X111576245Y-134245010D01*
X111464592Y-134256007D01*
X111349237Y-134290999D01*
X111321331Y-134299464D01*
X111189301Y-134370036D01*
X111146698Y-134405000D01*
X111073577Y-134465009D01*
X111049779Y-134494007D01*
X107416859Y-138126928D01*
X107375000Y-138126928D01*
X107375000Y-137928711D01*
X107418937Y-137884774D01*
X107532205Y-137715256D01*
X107610226Y-137526898D01*
X107650000Y-137326939D01*
X107650000Y-137123061D01*
X107610226Y-136923102D01*
X107532205Y-136734744D01*
X107418937Y-136565226D01*
X107274774Y-136421063D01*
X107105256Y-136307795D01*
X106916898Y-136229774D01*
X106716939Y-136190000D01*
X106513061Y-136190000D01*
X106313102Y-136229774D01*
X106124744Y-136307795D01*
X105955226Y-136421063D01*
X105811063Y-136565226D01*
X105697795Y-136734744D01*
X105619774Y-136923102D01*
X105580000Y-137123061D01*
X105580000Y-137326939D01*
X105619774Y-137526898D01*
X105697795Y-137715256D01*
X105811063Y-137884774D01*
X105855001Y-137928712D01*
X105855001Y-138126928D01*
X105790000Y-138126928D01*
X105636255Y-138142071D01*
X105488418Y-138186916D01*
X105352171Y-138259742D01*
X105232749Y-138357749D01*
X105134742Y-138477171D01*
X105061916Y-138613418D01*
X105017071Y-138761255D01*
X105001928Y-138915000D01*
X105001928Y-139215000D01*
X105017071Y-139368745D01*
X105061916Y-139516582D01*
X105134742Y-139652829D01*
X105173454Y-139700000D01*
X105134742Y-139747171D01*
X105061916Y-139883418D01*
X105017071Y-140031255D01*
X105001928Y-140185000D01*
X105001928Y-140485000D01*
X105017071Y-140638745D01*
X105061916Y-140786582D01*
X105134742Y-140922829D01*
X105173454Y-140970000D01*
X105134742Y-141017171D01*
X105061916Y-141153418D01*
X105022653Y-141282852D01*
X104900000Y-141160199D01*
X104900000Y-135741828D01*
X105003762Y-135672497D01*
X105192497Y-135483762D01*
X105340785Y-135261833D01*
X105442928Y-135015239D01*
X105495000Y-134753456D01*
X105495000Y-134486544D01*
X105442928Y-134224761D01*
X105340785Y-133978167D01*
X105192497Y-133756238D01*
X105003762Y-133567503D01*
X104834077Y-133454123D01*
X105448200Y-132840000D01*
X105558172Y-132840000D01*
X105627503Y-132943762D01*
X105816238Y-133132497D01*
X106038167Y-133280785D01*
X106284761Y-133382928D01*
X106546544Y-133435000D01*
X106813456Y-133435000D01*
X107075239Y-133382928D01*
X107321833Y-133280785D01*
X107543762Y-133132497D01*
X107732497Y-132943762D01*
X107880785Y-132721833D01*
X107982928Y-132475239D01*
X108035000Y-132213456D01*
X108035000Y-131946544D01*
X107982928Y-131684761D01*
X107880785Y-131438167D01*
X107732497Y-131216238D01*
X107543762Y-131027503D01*
X107321833Y-130879215D01*
X107075239Y-130777072D01*
X106813456Y-130725000D01*
X106546544Y-130725000D01*
X106284761Y-130777072D01*
X106038167Y-130879215D01*
X105816238Y-131027503D01*
X105627503Y-131216238D01*
X105558172Y-131320000D01*
X105170723Y-131320000D01*
X105133398Y-131316324D01*
X105096073Y-131320000D01*
X105096065Y-131320000D01*
X104984412Y-131330997D01*
X104841151Y-131374454D01*
X104709122Y-131445026D01*
X104593397Y-131539999D01*
X104569599Y-131568997D01*
X102454008Y-133684589D01*
X102425010Y-133708387D01*
X102401212Y-133737385D01*
X102401211Y-133737386D01*
X102330036Y-133824112D01*
X102259464Y-133956142D01*
X102216008Y-134099403D01*
X102201334Y-134248388D01*
X102205011Y-134285720D01*
X102205011Y-138128867D01*
X101950750Y-138130000D01*
X101792000Y-138288750D01*
X101792000Y-138938000D01*
X101812000Y-138938000D01*
X101812000Y-139192000D01*
X101792000Y-139192000D01*
X101792000Y-139212000D01*
X101538000Y-139212000D01*
X101538000Y-139192000D01*
X100213750Y-139192000D01*
X100055000Y-139350750D01*
X100051928Y-139365000D01*
X100064188Y-139489482D01*
X100100498Y-139609180D01*
X100159463Y-139719494D01*
X100183730Y-139749064D01*
X100111916Y-139883418D01*
X100067071Y-140031255D01*
X100051928Y-140185000D01*
X100051928Y-140210000D01*
X90177595Y-140210000D01*
X90140706Y-140140986D01*
X89955134Y-139914866D01*
X89729014Y-139729294D01*
X89664477Y-139694799D01*
X89781355Y-139625178D01*
X89997588Y-139430269D01*
X90171641Y-139196920D01*
X90296825Y-138934099D01*
X90341476Y-138786890D01*
X90329924Y-138765000D01*
X100051928Y-138765000D01*
X100055000Y-138779250D01*
X100213750Y-138938000D01*
X101538000Y-138938000D01*
X101538000Y-138288750D01*
X101379250Y-138130000D01*
X100690000Y-138126928D01*
X100565518Y-138139188D01*
X100445820Y-138175498D01*
X100335506Y-138234463D01*
X100238815Y-138313815D01*
X100159463Y-138410506D01*
X100100498Y-138520820D01*
X100064188Y-138640518D01*
X100051928Y-138765000D01*
X90329924Y-138765000D01*
X90220155Y-138557000D01*
X89027000Y-138557000D01*
X89027000Y-138577000D01*
X88773000Y-138577000D01*
X88773000Y-138557000D01*
X87579845Y-138557000D01*
X87458524Y-138786890D01*
X87503175Y-138934099D01*
X87628359Y-139196920D01*
X87802412Y-139430269D01*
X88018645Y-139625178D01*
X88135523Y-139694799D01*
X88070986Y-139729294D01*
X87844866Y-139914866D01*
X87659294Y-140140986D01*
X87521401Y-140398966D01*
X87436487Y-140678889D01*
X87407815Y-140970000D01*
X87436487Y-141261111D01*
X87521401Y-141541034D01*
X87659294Y-141799014D01*
X87844866Y-142025134D01*
X88070986Y-142210706D01*
X88328966Y-142348599D01*
X88608889Y-142433513D01*
X88827050Y-142455000D01*
X88972950Y-142455000D01*
X89191111Y-142433513D01*
X89471034Y-142348599D01*
X89729014Y-142210706D01*
X89955134Y-142025134D01*
X90140706Y-141799014D01*
X90177595Y-141730000D01*
X98155987Y-141730000D01*
X98142795Y-141749744D01*
X98064774Y-141938102D01*
X98025000Y-142138061D01*
X98025000Y-142341939D01*
X98064774Y-142541898D01*
X98142795Y-142730256D01*
X98256063Y-142899774D01*
X98400226Y-143043937D01*
X98569744Y-143157205D01*
X98758102Y-143235226D01*
X98958061Y-143275000D01*
X99161939Y-143275000D01*
X99361898Y-143235226D01*
X99550256Y-143157205D01*
X99719774Y-143043937D01*
X99863937Y-142899774D01*
X99977205Y-142730256D01*
X100055226Y-142541898D01*
X100090413Y-142365000D01*
X100143141Y-142365000D01*
X100111916Y-142423418D01*
X100067071Y-142571255D01*
X100051928Y-142725000D01*
X100051928Y-143025000D01*
X100067071Y-143178745D01*
X100111916Y-143326582D01*
X100184742Y-143462829D01*
X100282749Y-143582251D01*
X100402171Y-143680258D01*
X100538418Y-143753084D01*
X100686255Y-143797929D01*
X100840000Y-143813072D01*
X102490000Y-143813072D01*
X102643745Y-143797929D01*
X102791582Y-143753084D01*
X102927829Y-143680258D01*
X103047251Y-143582251D01*
X103061469Y-143564926D01*
X103164276Y-143509974D01*
X103280001Y-143415001D01*
X103303804Y-143385997D01*
X103476008Y-143213793D01*
X103505011Y-143189991D01*
X103599984Y-143074266D01*
X103670556Y-142942237D01*
X103714013Y-142798976D01*
X103725010Y-142687323D01*
X103725010Y-142687314D01*
X103728686Y-142649991D01*
X103725010Y-142612668D01*
X103725010Y-142134811D01*
X104976201Y-143386003D01*
X104999999Y-143415001D01*
X105028997Y-143438799D01*
X105115723Y-143509974D01*
X105218531Y-143564926D01*
X105232749Y-143582251D01*
X105352171Y-143680258D01*
X105488418Y-143753084D01*
X105636255Y-143797929D01*
X105790000Y-143813072D01*
X107440000Y-143813072D01*
X107593745Y-143797929D01*
X107741582Y-143753084D01*
X107877829Y-143680258D01*
X107997251Y-143582251D01*
X108095258Y-143462829D01*
X108168084Y-143326582D01*
X108212929Y-143178745D01*
X108228072Y-143025000D01*
X108228072Y-142725000D01*
X108212929Y-142571255D01*
X108168084Y-142423418D01*
X108095258Y-142287171D01*
X108074134Y-142261431D01*
X108114276Y-142239974D01*
X108230001Y-142145001D01*
X108253804Y-142115997D01*
X109050762Y-141319039D01*
X110368096Y-141319039D01*
X110408754Y-141453087D01*
X110528963Y-141707420D01*
X110696481Y-141933414D01*
X110904869Y-142122385D01*
X111146119Y-142267070D01*
X111410960Y-142361909D01*
X111633000Y-142240624D01*
X111633000Y-141097000D01*
X111887000Y-141097000D01*
X111887000Y-142240624D01*
X112109040Y-142361909D01*
X112373881Y-142267070D01*
X112615131Y-142122385D01*
X112823519Y-141933414D01*
X112991037Y-141707420D01*
X113111246Y-141453087D01*
X113151904Y-141319039D01*
X113029915Y-141097000D01*
X111887000Y-141097000D01*
X111633000Y-141097000D01*
X110490085Y-141097000D01*
X110368096Y-141319039D01*
X109050762Y-141319039D01*
X109748840Y-140620961D01*
X110368096Y-140620961D01*
X110490085Y-140843000D01*
X111633000Y-140843000D01*
X111633000Y-139699376D01*
X111887000Y-139699376D01*
X111887000Y-140843000D01*
X113029915Y-140843000D01*
X113151904Y-140620961D01*
X113111246Y-140486913D01*
X112991037Y-140232580D01*
X112823519Y-140006586D01*
X112615131Y-139817615D01*
X112373881Y-139672930D01*
X112109040Y-139578091D01*
X111887000Y-139699376D01*
X111633000Y-139699376D01*
X111410960Y-139578091D01*
X111146119Y-139672930D01*
X110904869Y-139817615D01*
X110696481Y-140006586D01*
X110528963Y-140232580D01*
X110408754Y-140486913D01*
X110368096Y-140620961D01*
X109748840Y-140620961D01*
X111001003Y-139368799D01*
X111030001Y-139345001D01*
X111056332Y-139312917D01*
X111124974Y-139229277D01*
X111195546Y-139097247D01*
X111205336Y-139064973D01*
X111239003Y-138953986D01*
X111250000Y-138842333D01*
X111250000Y-138842323D01*
X111253676Y-138805000D01*
X111250000Y-138767677D01*
X111250000Y-138494270D01*
X111410960Y-138551909D01*
X111633000Y-138430624D01*
X111633000Y-137287000D01*
X111613000Y-137287000D01*
X111613000Y-137033000D01*
X111633000Y-137033000D01*
X111633000Y-137013000D01*
X111887000Y-137013000D01*
X111887000Y-137033000D01*
X111907000Y-137033000D01*
X111907000Y-137287000D01*
X111887000Y-137287000D01*
X111887000Y-138430624D01*
X112109040Y-138551909D01*
X112373881Y-138457070D01*
X112615131Y-138312385D01*
X112823519Y-138123414D01*
X112991037Y-137897420D01*
X113022035Y-137831835D01*
X114131207Y-138941008D01*
X114155001Y-138970001D01*
X114183994Y-138993795D01*
X114183998Y-138993799D01*
X114184704Y-138994378D01*
X114270726Y-139064974D01*
X114402755Y-139135546D01*
X114546016Y-139179003D01*
X114657669Y-139190000D01*
X114657678Y-139190000D01*
X114695001Y-139193676D01*
X114732324Y-139190000D01*
X119065199Y-139190000D01*
X119410199Y-139535000D01*
X119238665Y-139535000D01*
X118961426Y-139590147D01*
X118700273Y-139698320D01*
X118465241Y-139855363D01*
X118265363Y-140055241D01*
X118108320Y-140290273D01*
X118000147Y-140551426D01*
X117945000Y-140828665D01*
X117945000Y-141111335D01*
X118000147Y-141388574D01*
X118108320Y-141649727D01*
X118265363Y-141884759D01*
X118465241Y-142084637D01*
X118620000Y-142188044D01*
X118620001Y-143561956D01*
X118465241Y-143665363D01*
X118265363Y-143865241D01*
X118108320Y-144100273D01*
X118000147Y-144361426D01*
X117945000Y-144638665D01*
X117945000Y-144921335D01*
X118000147Y-145198574D01*
X118079438Y-145390000D01*
X113051261Y-145390000D01*
X113111246Y-145263087D01*
X113151904Y-145129039D01*
X113029915Y-144907000D01*
X111887000Y-144907000D01*
X111887000Y-144927000D01*
X111633000Y-144927000D01*
X111633000Y-144907000D01*
X110490085Y-144907000D01*
X110368096Y-145129039D01*
X110408754Y-145263087D01*
X110468739Y-145390000D01*
X81940000Y-145390000D01*
X81940000Y-144430961D01*
X110368096Y-144430961D01*
X110490085Y-144653000D01*
X111633000Y-144653000D01*
X111633000Y-143509376D01*
X111887000Y-143509376D01*
X111887000Y-144653000D01*
X113029915Y-144653000D01*
X113151904Y-144430961D01*
X113111246Y-144296913D01*
X112991037Y-144042580D01*
X112823519Y-143816586D01*
X112615131Y-143627615D01*
X112373881Y-143482930D01*
X112109040Y-143388091D01*
X111887000Y-143509376D01*
X111633000Y-143509376D01*
X111410960Y-143388091D01*
X111146119Y-143482930D01*
X110904869Y-143627615D01*
X110696481Y-143816586D01*
X110528963Y-144042580D01*
X110408754Y-144296913D01*
X110368096Y-144430961D01*
X81940000Y-144430961D01*
X81940000Y-132500000D01*
X87411928Y-132500000D01*
X87415000Y-133064250D01*
X87573750Y-133223000D01*
X88773000Y-133223000D01*
X88773000Y-132023750D01*
X88614250Y-131865000D01*
X88050000Y-131861928D01*
X87925518Y-131874188D01*
X87805820Y-131910498D01*
X87695506Y-131969463D01*
X87598815Y-132048815D01*
X87519463Y-132145506D01*
X87460498Y-132255820D01*
X87424188Y-132375518D01*
X87411928Y-132500000D01*
X81940000Y-132500000D01*
X81940000Y-115340130D01*
X86762058Y-115340130D01*
X86762058Y-118339870D01*
X86774318Y-118464352D01*
X86810628Y-118584050D01*
X86869593Y-118694364D01*
X86948945Y-118791055D01*
X87045636Y-118870407D01*
X87155950Y-118929372D01*
X87275648Y-118965682D01*
X87400130Y-118977942D01*
X88140001Y-118977942D01*
X88140000Y-121194036D01*
X87888760Y-121298103D01*
X87539100Y-121531738D01*
X87241738Y-121829100D01*
X87008103Y-122178760D01*
X86847172Y-122567281D01*
X86765130Y-122979734D01*
X86765130Y-123400266D01*
X86847172Y-123812719D01*
X87008103Y-124201240D01*
X87241738Y-124550900D01*
X87539100Y-124848262D01*
X87559747Y-124862058D01*
X87400130Y-124862058D01*
X87275648Y-124874318D01*
X87155950Y-124910628D01*
X87045636Y-124969593D01*
X86948945Y-125048945D01*
X86869593Y-125145636D01*
X86810628Y-125255950D01*
X86774318Y-125375648D01*
X86762058Y-125500130D01*
X86762058Y-128499870D01*
X86774318Y-128624352D01*
X86810628Y-128744050D01*
X86869593Y-128854364D01*
X86948945Y-128951055D01*
X87045636Y-129030407D01*
X87155950Y-129089372D01*
X87275648Y-129125682D01*
X87400130Y-129137942D01*
X89499757Y-129137942D01*
X89479872Y-129162173D01*
X89440027Y-129210723D01*
X89369456Y-129342752D01*
X89369455Y-129342753D01*
X89325998Y-129486014D01*
X89315001Y-129597667D01*
X89315001Y-129597677D01*
X89311325Y-129634999D01*
X89315001Y-129672322D01*
X89315001Y-131864296D01*
X89185750Y-131865000D01*
X89027000Y-132023750D01*
X89027000Y-133223000D01*
X89047000Y-133223000D01*
X89047000Y-133477000D01*
X89027000Y-133477000D01*
X89027000Y-133497000D01*
X88773000Y-133497000D01*
X88773000Y-133477000D01*
X87573750Y-133477000D01*
X87415000Y-133635750D01*
X87411928Y-134200000D01*
X87424188Y-134324482D01*
X87460498Y-134444180D01*
X87519463Y-134554494D01*
X87598815Y-134651185D01*
X87695506Y-134730537D01*
X87805820Y-134789502D01*
X87874687Y-134810393D01*
X87844866Y-134834866D01*
X87659294Y-135060986D01*
X87521401Y-135318966D01*
X87436487Y-135598889D01*
X87407815Y-135890000D01*
X87436487Y-136181111D01*
X87521401Y-136461034D01*
X87659294Y-136719014D01*
X87844866Y-136945134D01*
X88070986Y-137130706D01*
X88135523Y-137165201D01*
X88018645Y-137234822D01*
X87802412Y-137429731D01*
X87628359Y-137663080D01*
X87503175Y-137925901D01*
X87458524Y-138073110D01*
X87579845Y-138303000D01*
X88773000Y-138303000D01*
X88773000Y-138283000D01*
X89027000Y-138283000D01*
X89027000Y-138303000D01*
X90220155Y-138303000D01*
X90341476Y-138073110D01*
X90296825Y-137925901D01*
X90171641Y-137663080D01*
X89997588Y-137429731D01*
X89781355Y-137234822D01*
X89664477Y-137165201D01*
X89729014Y-137130706D01*
X89955134Y-136945134D01*
X90140706Y-136719014D01*
X90278599Y-136461034D01*
X90363513Y-136181111D01*
X90392185Y-135890000D01*
X90363513Y-135598889D01*
X90340797Y-135524004D01*
X90585998Y-135278803D01*
X90615002Y-135255000D01*
X90709975Y-135139275D01*
X90763038Y-135040002D01*
X90780547Y-135007246D01*
X90824003Y-134863986D01*
X90824004Y-134863984D01*
X90835001Y-134752331D01*
X90835001Y-134752323D01*
X90838677Y-134715000D01*
X90835001Y-134677677D01*
X90835001Y-131946544D01*
X100245000Y-131946544D01*
X100245000Y-132213456D01*
X100297072Y-132475239D01*
X100399215Y-132721833D01*
X100547503Y-132943762D01*
X100736238Y-133132497D01*
X100958167Y-133280785D01*
X101204761Y-133382928D01*
X101466544Y-133435000D01*
X101733456Y-133435000D01*
X101995239Y-133382928D01*
X102241833Y-133280785D01*
X102463762Y-133132497D01*
X102652497Y-132943762D01*
X102800785Y-132721833D01*
X102902928Y-132475239D01*
X102955000Y-132213456D01*
X102955000Y-131946544D01*
X102902928Y-131684761D01*
X102800785Y-131438167D01*
X102652497Y-131216238D01*
X102463762Y-131027503D01*
X102241833Y-130879215D01*
X101995239Y-130777072D01*
X101733456Y-130725000D01*
X101466544Y-130725000D01*
X101204761Y-130777072D01*
X100958167Y-130879215D01*
X100736238Y-131027503D01*
X100547503Y-131216238D01*
X100399215Y-131438167D01*
X100297072Y-131684761D01*
X100245000Y-131946544D01*
X90835001Y-131946544D01*
X90835001Y-129949800D01*
X96834802Y-123950000D01*
X98155987Y-123950000D01*
X98142795Y-123969744D01*
X98064774Y-124158102D01*
X98025000Y-124358061D01*
X98025000Y-124561939D01*
X98064774Y-124761898D01*
X98142795Y-124950256D01*
X98256063Y-125119774D01*
X98400226Y-125263937D01*
X98569744Y-125377205D01*
X98758102Y-125455226D01*
X98958061Y-125495000D01*
X99161939Y-125495000D01*
X99361898Y-125455226D01*
X99550256Y-125377205D01*
X99719774Y-125263937D01*
X99763711Y-125220000D01*
X100208141Y-125220000D01*
X100176916Y-125278418D01*
X100132071Y-125426255D01*
X100116928Y-125580000D01*
X100116928Y-125880000D01*
X100132071Y-126033745D01*
X100176916Y-126181582D01*
X100249742Y-126317829D01*
X100347749Y-126437251D01*
X100467171Y-126535258D01*
X100603418Y-126608084D01*
X100751255Y-126652929D01*
X100905000Y-126668072D01*
X102555000Y-126668072D01*
X102708745Y-126652929D01*
X102856582Y-126608084D01*
X102992829Y-126535258D01*
X103112251Y-126437251D01*
X103126469Y-126419926D01*
X103229276Y-126364974D01*
X103345001Y-126270001D01*
X103368803Y-126240998D01*
X104200994Y-125408808D01*
X104205395Y-125405196D01*
X105041200Y-126241002D01*
X105064999Y-126270001D01*
X105180724Y-126364974D01*
X105283531Y-126419926D01*
X105297749Y-126437251D01*
X105417171Y-126535258D01*
X105553418Y-126608084D01*
X105701255Y-126652929D01*
X105855000Y-126668072D01*
X107505000Y-126668072D01*
X107658745Y-126652929D01*
X107806582Y-126608084D01*
X107942829Y-126535258D01*
X108062251Y-126437251D01*
X108160258Y-126317829D01*
X108233084Y-126181582D01*
X108277929Y-126033745D01*
X108293072Y-125880000D01*
X108293072Y-125580000D01*
X108277929Y-125426255D01*
X108233084Y-125278418D01*
X108201859Y-125220000D01*
X110176076Y-125220000D01*
X110213398Y-125223676D01*
X110250720Y-125220000D01*
X110250731Y-125220000D01*
X110362384Y-125209003D01*
X110505645Y-125165546D01*
X110637674Y-125094974D01*
X110753399Y-125000001D01*
X110777202Y-124970997D01*
X112843201Y-122904999D01*
X115773597Y-122904999D01*
X114014002Y-124664595D01*
X113984998Y-124688398D01*
X113936253Y-124747795D01*
X113890025Y-124804123D01*
X113825552Y-124924742D01*
X113819453Y-124936153D01*
X113775996Y-125079414D01*
X113764999Y-125191067D01*
X113764999Y-125191077D01*
X113761323Y-125228399D01*
X113764999Y-125265722D01*
X113765000Y-126194269D01*
X113761323Y-126231601D01*
X113765000Y-126268934D01*
X113775997Y-126380587D01*
X113789179Y-126424043D01*
X113819453Y-126523847D01*
X113890025Y-126655877D01*
X113932600Y-126707754D01*
X113984999Y-126771602D01*
X114013997Y-126795400D01*
X115754609Y-128536013D01*
X115778407Y-128565011D01*
X115894132Y-128659984D01*
X116026161Y-128730556D01*
X116169422Y-128774013D01*
X116281075Y-128785010D01*
X116281084Y-128785010D01*
X116318407Y-128788686D01*
X116355730Y-128785010D01*
X128800900Y-128785010D01*
X128838222Y-128788686D01*
X128875544Y-128785010D01*
X128875555Y-128785010D01*
X128987208Y-128774013D01*
X129130469Y-128730556D01*
X129262498Y-128659984D01*
X129378223Y-128565011D01*
X129402026Y-128536007D01*
X133359340Y-124578694D01*
X133422171Y-124630258D01*
X133558418Y-124703084D01*
X133706255Y-124747929D01*
X133860000Y-124763072D01*
X133925001Y-124763072D01*
X133925001Y-124961288D01*
X133881063Y-125005226D01*
X133767795Y-125174744D01*
X133689774Y-125363102D01*
X133650000Y-125563061D01*
X133650000Y-125766939D01*
X133689774Y-125966898D01*
X133767795Y-126155256D01*
X133881063Y-126324774D01*
X134025226Y-126468937D01*
X134194744Y-126582205D01*
X134383102Y-126660226D01*
X134583061Y-126700000D01*
X134786939Y-126700000D01*
X134986898Y-126660226D01*
X135175256Y-126582205D01*
X135344774Y-126468937D01*
X135488937Y-126324774D01*
X135602205Y-126155256D01*
X135680226Y-125966898D01*
X135720000Y-125766939D01*
X135720000Y-125563061D01*
X135680226Y-125363102D01*
X135602205Y-125174744D01*
X135488937Y-125005226D01*
X135445000Y-124961289D01*
X135445000Y-124763072D01*
X135510000Y-124763072D01*
X135663745Y-124747929D01*
X135811582Y-124703084D01*
X135947829Y-124630258D01*
X136067251Y-124532251D01*
X136165258Y-124412829D01*
X136238084Y-124276582D01*
X136282929Y-124128745D01*
X136298072Y-123975000D01*
X136298072Y-123959990D01*
X137112677Y-123959990D01*
X137150010Y-123963667D01*
X137187343Y-123959990D01*
X138021928Y-123959990D01*
X138021928Y-123975000D01*
X138037071Y-124128745D01*
X138081916Y-124276582D01*
X138154742Y-124412829D01*
X138252749Y-124532251D01*
X138372171Y-124630258D01*
X138508418Y-124703084D01*
X138656255Y-124747929D01*
X138810000Y-124763072D01*
X140460000Y-124763072D01*
X140613745Y-124747929D01*
X140761582Y-124703084D01*
X140840879Y-124660699D01*
X142494999Y-126314820D01*
X142495000Y-140394668D01*
X142491323Y-140432001D01*
X142495000Y-140469333D01*
X142495000Y-140469334D01*
X142505997Y-140580987D01*
X142508739Y-140590027D01*
X142549453Y-140724247D01*
X142620025Y-140856277D01*
X142682718Y-140932668D01*
X142714999Y-140972002D01*
X142743997Y-140995800D01*
X143484200Y-141736003D01*
X143507998Y-141765002D01*
X143623723Y-141859975D01*
X143755752Y-141930547D01*
X143899013Y-141974004D01*
X144010666Y-141985001D01*
X144010675Y-141985001D01*
X144047998Y-141988677D01*
X144085321Y-141985001D01*
X145474679Y-141985001D01*
X145512001Y-141988677D01*
X145549323Y-141985001D01*
X145549334Y-141985001D01*
X145660987Y-141974004D01*
X145804248Y-141930547D01*
X145936277Y-141859975D01*
X146052002Y-141765002D01*
X146075804Y-141735999D01*
X146619803Y-141192001D01*
X148562002Y-141192001D01*
X148562002Y-141664669D01*
X148558325Y-141702001D01*
X148562002Y-141739334D01*
X148572999Y-141850987D01*
X148583715Y-141886314D01*
X148616455Y-141994247D01*
X148687027Y-142126277D01*
X148746428Y-142198656D01*
X148782001Y-142242002D01*
X148810999Y-142265800D01*
X148844999Y-142299800D01*
X148845000Y-142934669D01*
X148841323Y-142972001D01*
X148855997Y-143120986D01*
X148899453Y-143264247D01*
X148970025Y-143396277D01*
X149032789Y-143472754D01*
X149064999Y-143512002D01*
X149093997Y-143535800D01*
X149834200Y-144276003D01*
X149857998Y-144305002D01*
X149973723Y-144399975D01*
X150105752Y-144470547D01*
X150249013Y-144514004D01*
X150360666Y-144525001D01*
X150360675Y-144525001D01*
X150397998Y-144528677D01*
X150435321Y-144525001D01*
X155284087Y-144525001D01*
X155321409Y-144528677D01*
X155358731Y-144525001D01*
X155358742Y-144525001D01*
X155470395Y-144514004D01*
X155613656Y-144470547D01*
X155745685Y-144399975D01*
X155861410Y-144305002D01*
X155885213Y-144275998D01*
X157896004Y-142265208D01*
X157925002Y-142241410D01*
X158019975Y-142125685D01*
X158090547Y-141993656D01*
X158134004Y-141850395D01*
X158145001Y-141738742D01*
X158145001Y-141738734D01*
X158148677Y-141701409D01*
X158145001Y-141664084D01*
X158145001Y-125277332D01*
X158148678Y-125239999D01*
X158134004Y-125091013D01*
X158090547Y-124947752D01*
X158019975Y-124815723D01*
X157948800Y-124728996D01*
X157925002Y-124699998D01*
X157896005Y-124676201D01*
X157313804Y-124094001D01*
X157290002Y-124064998D01*
X157174277Y-123970025D01*
X157042248Y-123899453D01*
X156898987Y-123855996D01*
X156787334Y-123844999D01*
X156787323Y-123844999D01*
X156750001Y-123841323D01*
X156712679Y-123844999D01*
X155707332Y-123844999D01*
X155669999Y-123841322D01*
X155632666Y-123844999D01*
X155521013Y-123855996D01*
X155377752Y-123899453D01*
X155245723Y-123970025D01*
X155129998Y-124064998D01*
X155106199Y-124093997D01*
X154523997Y-124676200D01*
X154494999Y-124699998D01*
X154471201Y-124728996D01*
X154471200Y-124728997D01*
X154400025Y-124815723D01*
X154329453Y-124947753D01*
X154309357Y-125014003D01*
X154286861Y-125088167D01*
X154285997Y-125091014D01*
X154271323Y-125239999D01*
X154275000Y-125277332D01*
X154274999Y-141029990D01*
X153251795Y-141029990D01*
X152142806Y-139921003D01*
X152119004Y-139892000D01*
X152003279Y-139797027D01*
X151871250Y-139726455D01*
X151727989Y-139682998D01*
X151616336Y-139672001D01*
X151616325Y-139672001D01*
X151579003Y-139668325D01*
X151541681Y-139672001D01*
X149359334Y-139672001D01*
X149322001Y-139668324D01*
X149284668Y-139672001D01*
X147065001Y-139672001D01*
X147065001Y-126299802D01*
X147634802Y-125730002D01*
X148042676Y-125730002D01*
X148079998Y-125733678D01*
X148117320Y-125730002D01*
X148117331Y-125730002D01*
X148228984Y-125719005D01*
X148372245Y-125675548D01*
X148504274Y-125604976D01*
X148619999Y-125510003D01*
X148643802Y-125480999D01*
X149919801Y-124205001D01*
X152502679Y-124205001D01*
X152540001Y-124208677D01*
X152577323Y-124205001D01*
X152577334Y-124205001D01*
X152688987Y-124194004D01*
X152832248Y-124150547D01*
X152964277Y-124079975D01*
X153080002Y-123985002D01*
X153103805Y-123955998D01*
X153165999Y-123893804D01*
X153195002Y-123870002D01*
X153218805Y-123840998D01*
X157846009Y-119213796D01*
X157875002Y-119190002D01*
X157898796Y-119161009D01*
X157898800Y-119161005D01*
X157969974Y-119074278D01*
X157996443Y-119024759D01*
X158040547Y-118942248D01*
X158084004Y-118798987D01*
X158095001Y-118687334D01*
X158095001Y-118687325D01*
X158098677Y-118650002D01*
X158095001Y-118612679D01*
X158095001Y-117607321D01*
X158098677Y-117569998D01*
X158095001Y-117532675D01*
X158095001Y-117532666D01*
X158084004Y-117421013D01*
X158040547Y-117277752D01*
X157969975Y-117145723D01*
X157913571Y-117076994D01*
X157898800Y-117058995D01*
X157898796Y-117058991D01*
X157875002Y-117029998D01*
X157846010Y-117006205D01*
X157168805Y-116329002D01*
X157145003Y-116299999D01*
X157029278Y-116205026D01*
X156897249Y-116134454D01*
X156753988Y-116090997D01*
X156642335Y-116080000D01*
X156642324Y-116080000D01*
X156605002Y-116076324D01*
X156567680Y-116080000D01*
X152042321Y-116080000D01*
X152004998Y-116076324D01*
X151967675Y-116080000D01*
X151967665Y-116080000D01*
X151856012Y-116090997D01*
X151712751Y-116134454D01*
X151580721Y-116205026D01*
X151550566Y-116229774D01*
X151464997Y-116299999D01*
X151441199Y-116328997D01*
X149295196Y-118475001D01*
X146170509Y-118475001D01*
X146215000Y-118251335D01*
X146215000Y-117968665D01*
X146159853Y-117691426D01*
X146051680Y-117430273D01*
X145894637Y-117195241D01*
X145694759Y-116995363D01*
X145459727Y-116838320D01*
X145198574Y-116730147D01*
X144921335Y-116675000D01*
X144638665Y-116675000D01*
X144456114Y-116711312D01*
X142948803Y-115204002D01*
X142925000Y-115174998D01*
X142809275Y-115080025D01*
X142677246Y-115009453D01*
X142533985Y-114965996D01*
X142422332Y-114954999D01*
X142422321Y-114954999D01*
X142384999Y-114951323D01*
X142347677Y-114954999D01*
X141547323Y-114954999D01*
X141510001Y-114951323D01*
X141472679Y-114954999D01*
X135399801Y-114954999D01*
X134712874Y-114268072D01*
X135450000Y-114268072D01*
X135574482Y-114255812D01*
X135694180Y-114219502D01*
X135804494Y-114160537D01*
X135901185Y-114081185D01*
X135980537Y-113984494D01*
X136039502Y-113874180D01*
X136065038Y-113790000D01*
X136094962Y-113790000D01*
X136120498Y-113874180D01*
X136179463Y-113984494D01*
X136258815Y-114081185D01*
X136355506Y-114160537D01*
X136465820Y-114219502D01*
X136585518Y-114255812D01*
X136710000Y-114268072D01*
X137610000Y-114268072D01*
X137734482Y-114255812D01*
X137854180Y-114219502D01*
X137964494Y-114160537D01*
X138061185Y-114081185D01*
X138140537Y-113984494D01*
X138199502Y-113874180D01*
X138235812Y-113754482D01*
X138248072Y-113630000D01*
X138248072Y-112864999D01*
X138520198Y-112864999D01*
X139196200Y-113541002D01*
X139219999Y-113570001D01*
X139248997Y-113593799D01*
X139335723Y-113664974D01*
X139377576Y-113687345D01*
X139384188Y-113754482D01*
X139420498Y-113874180D01*
X139479463Y-113984494D01*
X139558815Y-114081185D01*
X139655506Y-114160537D01*
X139765820Y-114219502D01*
X139885518Y-114255812D01*
X140010000Y-114268072D01*
X140910000Y-114268072D01*
X141034482Y-114255812D01*
X141154180Y-114219502D01*
X141264494Y-114160537D01*
X141361185Y-114081185D01*
X141440537Y-113984494D01*
X141499502Y-113874180D01*
X141535812Y-113754482D01*
X141548072Y-113630000D01*
X141548072Y-112430000D01*
X141535812Y-112305518D01*
X141499502Y-112185820D01*
X141440537Y-112075506D01*
X141361185Y-111978815D01*
X141264494Y-111899463D01*
X141154180Y-111840498D01*
X141034482Y-111804188D01*
X140910000Y-111791928D01*
X140010000Y-111791928D01*
X139885518Y-111804188D01*
X139765820Y-111840498D01*
X139687280Y-111882479D01*
X139398802Y-111594001D01*
X139375000Y-111564998D01*
X139259275Y-111470025D01*
X139127246Y-111399453D01*
X138983985Y-111355996D01*
X138872332Y-111344999D01*
X138872321Y-111344999D01*
X138834999Y-111341323D01*
X138797677Y-111344999D01*
X131027322Y-111344999D01*
X130989999Y-111341323D01*
X130952677Y-111344999D01*
X130952666Y-111344999D01*
X130841013Y-111355996D01*
X130697752Y-111399453D01*
X130565723Y-111470025D01*
X130449998Y-111564998D01*
X130426195Y-111594002D01*
X130413997Y-111606200D01*
X130384999Y-111629998D01*
X130361201Y-111658996D01*
X130361200Y-111658997D01*
X130290025Y-111745723D01*
X130219453Y-111877753D01*
X130212868Y-111899463D01*
X130176681Y-112018760D01*
X130175997Y-112021014D01*
X130161323Y-112169999D01*
X130165000Y-112207331D01*
X130164999Y-113852678D01*
X130161323Y-113890001D01*
X130164999Y-113927323D01*
X130164999Y-113927333D01*
X130175996Y-114038986D01*
X130219453Y-114182247D01*
X130290025Y-114314277D01*
X130305332Y-114332928D01*
X130384998Y-114430002D01*
X130414002Y-114453805D01*
X130426195Y-114465998D01*
X130449998Y-114495002D01*
X130565723Y-114589975D01*
X130697752Y-114660547D01*
X130841013Y-114704004D01*
X130952666Y-114715001D01*
X130952677Y-114715001D01*
X130989999Y-114718677D01*
X131027322Y-114715001D01*
X131815202Y-114715001D01*
X132677991Y-115577791D01*
X132494869Y-115687615D01*
X132286481Y-115876586D01*
X132118963Y-116102580D01*
X131998754Y-116356913D01*
X131958096Y-116490961D01*
X132080085Y-116713000D01*
X133223000Y-116713000D01*
X133223000Y-116693000D01*
X133477000Y-116693000D01*
X133477000Y-116713000D01*
X133497000Y-116713000D01*
X133497000Y-116967000D01*
X133477000Y-116967000D01*
X133477000Y-118110624D01*
X133699040Y-118231909D01*
X133963881Y-118137070D01*
X134205131Y-117992385D01*
X134413519Y-117803414D01*
X134581037Y-117577420D01*
X134621646Y-117491501D01*
X134722755Y-117545546D01*
X134866016Y-117589003D01*
X134977669Y-117600000D01*
X134977677Y-117600000D01*
X135015002Y-117603676D01*
X135052327Y-117600000D01*
X139328430Y-117600000D01*
X136188248Y-120740183D01*
X136165258Y-120697171D01*
X136126546Y-120650000D01*
X136165258Y-120602829D01*
X136238084Y-120466582D01*
X136282929Y-120318745D01*
X136298072Y-120165000D01*
X136298072Y-119865000D01*
X136282929Y-119711255D01*
X136238084Y-119563418D01*
X136165258Y-119427171D01*
X136067251Y-119307749D01*
X135947829Y-119209742D01*
X135811582Y-119136916D01*
X135663745Y-119092071D01*
X135510000Y-119076928D01*
X133860000Y-119076928D01*
X133706255Y-119092071D01*
X133558418Y-119136916D01*
X133422171Y-119209742D01*
X133410154Y-119219604D01*
X133401008Y-119126745D01*
X133350472Y-118960149D01*
X133268405Y-118806613D01*
X133157962Y-118672038D01*
X133023387Y-118561595D01*
X132869851Y-118479528D01*
X132703255Y-118428992D01*
X132530001Y-118411928D01*
X131941730Y-118411928D01*
X131128804Y-117599003D01*
X131105001Y-117569999D01*
X130989276Y-117475026D01*
X130857247Y-117404454D01*
X130717825Y-117362162D01*
X130619792Y-117242708D01*
X130613436Y-117237492D01*
X130672476Y-117189039D01*
X131958096Y-117189039D01*
X131998754Y-117323087D01*
X132118963Y-117577420D01*
X132286481Y-117803414D01*
X132494869Y-117992385D01*
X132736119Y-118137070D01*
X133000960Y-118231909D01*
X133223000Y-118110624D01*
X133223000Y-116967000D01*
X132080085Y-116967000D01*
X131958096Y-117189039D01*
X130672476Y-117189039D01*
X130691185Y-117173685D01*
X130770537Y-117076994D01*
X130829502Y-116966680D01*
X130865812Y-116846982D01*
X130878072Y-116722500D01*
X130875000Y-116520750D01*
X130716250Y-116362000D01*
X129667000Y-116362000D01*
X129667000Y-116382000D01*
X129413000Y-116382000D01*
X129413000Y-116362000D01*
X128363750Y-116362000D01*
X128205000Y-116520750D01*
X128201928Y-116722500D01*
X128214188Y-116846982D01*
X128250498Y-116966680D01*
X128309463Y-117076994D01*
X128388815Y-117173685D01*
X128466564Y-117237492D01*
X128460208Y-117242708D01*
X128350542Y-117376336D01*
X128269053Y-117528791D01*
X128218872Y-117694215D01*
X128201928Y-117866250D01*
X128201928Y-118353750D01*
X128218872Y-118525785D01*
X128269053Y-118691209D01*
X128350542Y-118843664D01*
X128460208Y-118977292D01*
X128506838Y-119015561D01*
X128485506Y-119026963D01*
X128388815Y-119106315D01*
X128309463Y-119203006D01*
X128250498Y-119313320D01*
X128214188Y-119433018D01*
X128201928Y-119557500D01*
X128205000Y-119759250D01*
X128363750Y-119918000D01*
X129413000Y-119918000D01*
X129413000Y-119898000D01*
X129667000Y-119898000D01*
X129667000Y-119918000D01*
X129687000Y-119918000D01*
X129687000Y-120172000D01*
X129667000Y-120172000D01*
X129667000Y-120192000D01*
X129413000Y-120192000D01*
X129413000Y-120172000D01*
X128363750Y-120172000D01*
X128205000Y-120330750D01*
X128201928Y-120532500D01*
X128214188Y-120656982D01*
X128250498Y-120776680D01*
X128309463Y-120886994D01*
X128388815Y-120983685D01*
X128466564Y-121047492D01*
X128460208Y-121052708D01*
X128350542Y-121186336D01*
X128269053Y-121338791D01*
X128218872Y-121504215D01*
X128201928Y-121676250D01*
X128201928Y-121728936D01*
X127002187Y-120529196D01*
X127051008Y-120368255D01*
X127068072Y-120195001D01*
X127068072Y-119544999D01*
X127051008Y-119371745D01*
X127000472Y-119205149D01*
X126918405Y-119051613D01*
X126807962Y-118917038D01*
X126673387Y-118806595D01*
X126519851Y-118724528D01*
X126353255Y-118673992D01*
X126180001Y-118656928D01*
X125279999Y-118656928D01*
X125106745Y-118673992D01*
X124940149Y-118724528D01*
X124786613Y-118806595D01*
X124652038Y-118917038D01*
X124541595Y-119051613D01*
X124510386Y-119110000D01*
X124315572Y-119110000D01*
X124315572Y-118923750D01*
X124298628Y-118751715D01*
X124248447Y-118586291D01*
X124166958Y-118433836D01*
X124057292Y-118300208D01*
X123950000Y-118212155D01*
X123950000Y-117154801D01*
X124499802Y-116605000D01*
X124561939Y-116605000D01*
X124761898Y-116565226D01*
X124950256Y-116487205D01*
X125119774Y-116373937D01*
X125263937Y-116229774D01*
X125377205Y-116060256D01*
X125455226Y-115871898D01*
X125479970Y-115747500D01*
X128201928Y-115747500D01*
X128205000Y-115949250D01*
X128363750Y-116108000D01*
X129413000Y-116108000D01*
X129413000Y-115271250D01*
X129667000Y-115271250D01*
X129667000Y-116108000D01*
X130716250Y-116108000D01*
X130875000Y-115949250D01*
X130878072Y-115747500D01*
X130865812Y-115623018D01*
X130829502Y-115503320D01*
X130770537Y-115393006D01*
X130691185Y-115296315D01*
X130594494Y-115216963D01*
X130484180Y-115157998D01*
X130364482Y-115121688D01*
X130240000Y-115109428D01*
X129825750Y-115112500D01*
X129667000Y-115271250D01*
X129413000Y-115271250D01*
X129254250Y-115112500D01*
X128840000Y-115109428D01*
X128715518Y-115121688D01*
X128595820Y-115157998D01*
X128485506Y-115216963D01*
X128388815Y-115296315D01*
X128309463Y-115393006D01*
X128250498Y-115503320D01*
X128214188Y-115623018D01*
X128201928Y-115747500D01*
X125479970Y-115747500D01*
X125495000Y-115671939D01*
X125495000Y-115468061D01*
X125455226Y-115268102D01*
X125377205Y-115079744D01*
X125263937Y-114910226D01*
X125119774Y-114766063D01*
X124950256Y-114652795D01*
X124761898Y-114574774D01*
X124561939Y-114535000D01*
X124358061Y-114535000D01*
X124158102Y-114574774D01*
X123969744Y-114652795D01*
X123800226Y-114766063D01*
X123656063Y-114910226D01*
X123542795Y-115079744D01*
X123464774Y-115268102D01*
X123425000Y-115468061D01*
X123425000Y-115530198D01*
X122678998Y-116276201D01*
X122650000Y-116299999D01*
X122626202Y-116328997D01*
X122626201Y-116328998D01*
X122555026Y-116415724D01*
X122484454Y-116547754D01*
X122463654Y-116616325D01*
X122440998Y-116691014D01*
X122430001Y-116802667D01*
X122426324Y-116840000D01*
X122430001Y-116877332D01*
X122430000Y-118212155D01*
X122322708Y-118300208D01*
X122252500Y-118385756D01*
X122182292Y-118300208D01*
X122048664Y-118190542D01*
X121896209Y-118109053D01*
X121730785Y-118058872D01*
X121558750Y-118041928D01*
X121071250Y-118041928D01*
X120899215Y-118058872D01*
X120733791Y-118109053D01*
X120581336Y-118190542D01*
X120447708Y-118300208D01*
X120338042Y-118433836D01*
X120256553Y-118586291D01*
X120246327Y-118620000D01*
X116877322Y-118620000D01*
X116839999Y-118616324D01*
X116802676Y-118620000D01*
X116802667Y-118620000D01*
X116691014Y-118630997D01*
X116547753Y-118674454D01*
X116415724Y-118745026D01*
X116299999Y-118839999D01*
X116276201Y-118868997D01*
X115825852Y-119319346D01*
X115703456Y-119295000D01*
X115436544Y-119295000D01*
X115174761Y-119347072D01*
X114928167Y-119449215D01*
X114706238Y-119597503D01*
X114517503Y-119786238D01*
X114369215Y-120008167D01*
X114267072Y-120254761D01*
X114215000Y-120516544D01*
X114215000Y-120783456D01*
X114267072Y-121045239D01*
X114369215Y-121291833D01*
X114431466Y-121384999D01*
X112565722Y-121384999D01*
X112528399Y-121381323D01*
X112491076Y-121384999D01*
X112491066Y-121384999D01*
X112379413Y-121395996D01*
X112236152Y-121439453D01*
X112104123Y-121510025D01*
X111988398Y-121604998D01*
X111964600Y-121633996D01*
X109898597Y-123700000D01*
X108254870Y-123700000D01*
X108280812Y-123614482D01*
X108293072Y-123490000D01*
X108290000Y-123475750D01*
X108131250Y-123317000D01*
X106807000Y-123317000D01*
X106807000Y-123337000D01*
X106553000Y-123337000D01*
X106553000Y-123317000D01*
X105228750Y-123317000D01*
X105070000Y-123475750D01*
X105066928Y-123490000D01*
X105079188Y-123614482D01*
X105115498Y-123734180D01*
X105174463Y-123844494D01*
X105198730Y-123874064D01*
X105126916Y-124008418D01*
X105087653Y-124137852D01*
X104900000Y-123950199D01*
X104900000Y-121770000D01*
X105066928Y-121770000D01*
X105066928Y-122070000D01*
X105082071Y-122223745D01*
X105126916Y-122371582D01*
X105198730Y-122505936D01*
X105174463Y-122535506D01*
X105115498Y-122645820D01*
X105079188Y-122765518D01*
X105066928Y-122890000D01*
X105070000Y-122904250D01*
X105228750Y-123063000D01*
X106553000Y-123063000D01*
X106553000Y-123043000D01*
X106807000Y-123043000D01*
X106807000Y-123063000D01*
X108131250Y-123063000D01*
X108290000Y-122904250D01*
X108293072Y-122890000D01*
X108280812Y-122765518D01*
X108254870Y-122680000D01*
X108516289Y-122680000D01*
X108560226Y-122723937D01*
X108729744Y-122837205D01*
X108918102Y-122915226D01*
X109118061Y-122955000D01*
X109321939Y-122955000D01*
X109521898Y-122915226D01*
X109710256Y-122837205D01*
X109879774Y-122723937D01*
X110023937Y-122579774D01*
X110137205Y-122410256D01*
X110215226Y-122221898D01*
X110255000Y-122021939D01*
X110255000Y-121818061D01*
X110215226Y-121618102D01*
X110137205Y-121429744D01*
X110023937Y-121260226D01*
X109879774Y-121116063D01*
X109710256Y-121002795D01*
X109521898Y-120924774D01*
X109321939Y-120885000D01*
X109118061Y-120885000D01*
X108918102Y-120924774D01*
X108729744Y-121002795D01*
X108560226Y-121116063D01*
X108516289Y-121160000D01*
X107997976Y-121160000D01*
X107942829Y-121114742D01*
X107806582Y-121041916D01*
X107658745Y-120997071D01*
X107505000Y-120981928D01*
X105855000Y-120981928D01*
X105701255Y-120997071D01*
X105553418Y-121041916D01*
X105417171Y-121114742D01*
X105297749Y-121212749D01*
X105199742Y-121332171D01*
X105126916Y-121468418D01*
X105082071Y-121616255D01*
X105066928Y-121770000D01*
X104900000Y-121770000D01*
X104900000Y-115436544D01*
X105325000Y-115436544D01*
X105325000Y-115703456D01*
X105377072Y-115965239D01*
X105479215Y-116211833D01*
X105627503Y-116433762D01*
X105816238Y-116622497D01*
X106038167Y-116770785D01*
X106284761Y-116872928D01*
X106546544Y-116925000D01*
X106813456Y-116925000D01*
X107075239Y-116872928D01*
X107321833Y-116770785D01*
X107543762Y-116622497D01*
X107732497Y-116433762D01*
X107880785Y-116211833D01*
X107982928Y-115965239D01*
X108035000Y-115703456D01*
X108035000Y-115436544D01*
X107982928Y-115174761D01*
X107880785Y-114928167D01*
X107732497Y-114706238D01*
X107543762Y-114517503D01*
X107321833Y-114369215D01*
X107075239Y-114267072D01*
X106813456Y-114215000D01*
X106546544Y-114215000D01*
X106284761Y-114267072D01*
X106038167Y-114369215D01*
X105816238Y-114517503D01*
X105627503Y-114706238D01*
X105479215Y-114928167D01*
X105377072Y-115174761D01*
X105325000Y-115436544D01*
X104900000Y-115436544D01*
X104900000Y-114151828D01*
X105003762Y-114082497D01*
X105192497Y-113893762D01*
X105340785Y-113671833D01*
X105442928Y-113425239D01*
X105495000Y-113163456D01*
X105495000Y-112896544D01*
X105442928Y-112634761D01*
X105340785Y-112388167D01*
X105192497Y-112166238D01*
X105003762Y-111977503D01*
X104781833Y-111829215D01*
X104535239Y-111727072D01*
X104273456Y-111675000D01*
X104006544Y-111675000D01*
X103744761Y-111727072D01*
X103498167Y-111829215D01*
X103276238Y-111977503D01*
X103087503Y-112166238D01*
X102939215Y-112388167D01*
X102837072Y-112634761D01*
X102785000Y-112896544D01*
X102785000Y-113163456D01*
X102837072Y-113425239D01*
X102939215Y-113671833D01*
X103087503Y-113893762D01*
X103276238Y-114082497D01*
X103380000Y-114151829D01*
X103380000Y-114337332D01*
X103380001Y-114337342D01*
X103380001Y-117545199D01*
X102459887Y-116625086D01*
X102463762Y-116622497D01*
X102652497Y-116433762D01*
X102800785Y-116211833D01*
X102902928Y-115965239D01*
X102955000Y-115703456D01*
X102955000Y-115436544D01*
X102902928Y-115174761D01*
X102800785Y-114928167D01*
X102652497Y-114706238D01*
X102463762Y-114517503D01*
X102241833Y-114369215D01*
X101995239Y-114267072D01*
X101733456Y-114215000D01*
X101466544Y-114215000D01*
X101204761Y-114267072D01*
X100958167Y-114369215D01*
X100736238Y-114517503D01*
X100547503Y-114706238D01*
X100399215Y-114928167D01*
X100297072Y-115174761D01*
X100245000Y-115436544D01*
X100245000Y-115703456D01*
X100297072Y-115965239D01*
X100399215Y-116211833D01*
X100547503Y-116433762D01*
X100736238Y-116622497D01*
X100840000Y-116691829D01*
X100840000Y-116802677D01*
X100836324Y-116840000D01*
X100840000Y-116877322D01*
X100840000Y-116877332D01*
X100850997Y-116988985D01*
X100872234Y-117058995D01*
X100894454Y-117132246D01*
X100965026Y-117264276D01*
X101001648Y-117308899D01*
X101059999Y-117380001D01*
X101089003Y-117403804D01*
X102929991Y-119244793D01*
X102929991Y-121024677D01*
X102829482Y-120994188D01*
X102705000Y-120981928D01*
X102015750Y-120985000D01*
X101857000Y-121143750D01*
X101857000Y-121793000D01*
X101877000Y-121793000D01*
X101877000Y-122047000D01*
X101857000Y-122047000D01*
X101857000Y-122067000D01*
X101603000Y-122067000D01*
X101603000Y-122047000D01*
X100278750Y-122047000D01*
X100120000Y-122205750D01*
X100116928Y-122220000D01*
X100129188Y-122344482D01*
X100155130Y-122430000D01*
X96557322Y-122430000D01*
X96520000Y-122426324D01*
X96482677Y-122430000D01*
X96482667Y-122430000D01*
X96371014Y-122440997D01*
X96233374Y-122482749D01*
X96227753Y-122484454D01*
X96095723Y-122555026D01*
X96026496Y-122611840D01*
X95979999Y-122649999D01*
X95956201Y-122678997D01*
X91037942Y-127597257D01*
X91037942Y-125500130D01*
X91025682Y-125375648D01*
X90989372Y-125255950D01*
X90930407Y-125145636D01*
X90851055Y-125048945D01*
X90754364Y-124969593D01*
X90644050Y-124910628D01*
X90524352Y-124874318D01*
X90399870Y-124862058D01*
X90240253Y-124862058D01*
X90260900Y-124848262D01*
X90558262Y-124550900D01*
X90791897Y-124201240D01*
X90952828Y-123812719D01*
X91034870Y-123400266D01*
X91034870Y-122979734D01*
X90952828Y-122567281D01*
X90791897Y-122178760D01*
X90558262Y-121829100D01*
X90349162Y-121620000D01*
X100116928Y-121620000D01*
X100120000Y-121634250D01*
X100278750Y-121793000D01*
X101603000Y-121793000D01*
X101603000Y-121143750D01*
X101444250Y-120985000D01*
X100755000Y-120981928D01*
X100630518Y-120994188D01*
X100510820Y-121030498D01*
X100400506Y-121089463D01*
X100303815Y-121168815D01*
X100224463Y-121265506D01*
X100165498Y-121375820D01*
X100129188Y-121495518D01*
X100116928Y-121620000D01*
X90349162Y-121620000D01*
X90260900Y-121531738D01*
X89911240Y-121298103D01*
X89660000Y-121194036D01*
X89660000Y-118977942D01*
X90399870Y-118977942D01*
X90524352Y-118965682D01*
X90644050Y-118929372D01*
X90754364Y-118870407D01*
X90851055Y-118791055D01*
X90930407Y-118694364D01*
X90989372Y-118584050D01*
X91025682Y-118464352D01*
X91037942Y-118339870D01*
X91037942Y-115340130D01*
X91025682Y-115215648D01*
X90989372Y-115095950D01*
X90930407Y-114985636D01*
X90851055Y-114888945D01*
X90754364Y-114809593D01*
X90644050Y-114750628D01*
X90524352Y-114714318D01*
X90399870Y-114702058D01*
X90240253Y-114702058D01*
X90260900Y-114688262D01*
X90558262Y-114390900D01*
X90791897Y-114041240D01*
X90952828Y-113652719D01*
X91034870Y-113240266D01*
X91034870Y-112819734D01*
X90952828Y-112407281D01*
X90791897Y-112018760D01*
X90558262Y-111669100D01*
X90260900Y-111371738D01*
X89911240Y-111138103D01*
X89522719Y-110977172D01*
X89110266Y-110895130D01*
X88689734Y-110895130D01*
X88277281Y-110977172D01*
X87888760Y-111138103D01*
X87539100Y-111371738D01*
X87241738Y-111669100D01*
X87008103Y-112018760D01*
X86847172Y-112407281D01*
X86765130Y-112819734D01*
X86765130Y-113240266D01*
X86847172Y-113652719D01*
X87008103Y-114041240D01*
X87241738Y-114390900D01*
X87539100Y-114688262D01*
X87559747Y-114702058D01*
X87400130Y-114702058D01*
X87275648Y-114714318D01*
X87155950Y-114750628D01*
X87045636Y-114809593D01*
X86948945Y-114888945D01*
X86869593Y-114985636D01*
X86810628Y-115095950D01*
X86774318Y-115215648D01*
X86762058Y-115340130D01*
X81940000Y-115340130D01*
X81940000Y-108610000D01*
X160630000Y-108610000D01*
X160630001Y-145390000D01*
X160630001Y-145390000D01*
G37*
X160630001Y-145390000D02*
X120680562Y-145390000D01*
X120759853Y-145198574D01*
X120815000Y-144921335D01*
X120815000Y-144638665D01*
X120759853Y-144361426D01*
X120651680Y-144100273D01*
X120494637Y-143865241D01*
X120294759Y-143665363D01*
X120140000Y-143561957D01*
X120140000Y-142188043D01*
X120294759Y-142084637D01*
X120494637Y-141884759D01*
X120598043Y-141730000D01*
X121882676Y-141730000D01*
X121919999Y-141733676D01*
X121957322Y-141730000D01*
X121969099Y-141730000D01*
X121991068Y-141771101D01*
X122170392Y-141989608D01*
X122388899Y-142168932D01*
X122638192Y-142302182D01*
X122908691Y-142384236D01*
X123119508Y-142405000D01*
X123260492Y-142405000D01*
X123471309Y-142384236D01*
X123741808Y-142302182D01*
X123991101Y-142168932D01*
X124209608Y-141989608D01*
X124388932Y-141771101D01*
X124522182Y-141521808D01*
X124604236Y-141251309D01*
X124631943Y-140970000D01*
X124604236Y-140688691D01*
X124522182Y-140418192D01*
X124388932Y-140168899D01*
X124209608Y-139950392D01*
X123991101Y-139771068D01*
X123741808Y-139637818D01*
X123471309Y-139555764D01*
X123260492Y-139535000D01*
X123119508Y-139535000D01*
X122908691Y-139555764D01*
X122638192Y-139637818D01*
X122388899Y-139771068D01*
X122170392Y-139950392D01*
X122082406Y-140057603D01*
X120297099Y-138272297D01*
X120494637Y-138074759D01*
X120598043Y-137920000D01*
X121969099Y-137920000D01*
X121991068Y-137961101D01*
X122170392Y-138179608D01*
X122388899Y-138358932D01*
X122638192Y-138492182D01*
X122908691Y-138574236D01*
X123119508Y-138595000D01*
X123260492Y-138595000D01*
X123471309Y-138574236D01*
X123741808Y-138492182D01*
X123991101Y-138358932D01*
X124209608Y-138179608D01*
X124388932Y-137961101D01*
X124522182Y-137711808D01*
X124604236Y-137441309D01*
X124631943Y-137160000D01*
X124618023Y-137018665D01*
X129375000Y-137018665D01*
X129375000Y-137301335D01*
X129430147Y-137578574D01*
X129538320Y-137839727D01*
X129695363Y-138074759D01*
X129895241Y-138274637D01*
X130050000Y-138378044D01*
X130050001Y-139751956D01*
X129895241Y-139855363D01*
X129695363Y-140055241D01*
X129538320Y-140290273D01*
X129430147Y-140551426D01*
X129375000Y-140828665D01*
X129375000Y-141111335D01*
X129430147Y-141388574D01*
X129538320Y-141649727D01*
X129695363Y-141884759D01*
X129895241Y-142084637D01*
X130130273Y-142241680D01*
X130391426Y-142349853D01*
X130668665Y-142405000D01*
X130951335Y-142405000D01*
X131228574Y-142349853D01*
X131489727Y-142241680D01*
X131724759Y-142084637D01*
X131924637Y-141884759D01*
X132028043Y-141730000D01*
X133131928Y-141730000D01*
X133131928Y-141820000D01*
X133144188Y-141944482D01*
X133180498Y-142064180D01*
X133239463Y-142174494D01*
X133318815Y-142271185D01*
X133415506Y-142350537D01*
X133525820Y-142409502D01*
X133645518Y-142445812D01*
X133770000Y-142458072D01*
X135470000Y-142458072D01*
X135594482Y-142445812D01*
X135714180Y-142409502D01*
X135824494Y-142350537D01*
X135921185Y-142271185D01*
X136000537Y-142174494D01*
X136059502Y-142064180D01*
X136095812Y-141944482D01*
X136108072Y-141820000D01*
X136108072Y-140120000D01*
X136095812Y-139995518D01*
X136059502Y-139875820D01*
X136000537Y-139765506D01*
X135921185Y-139668815D01*
X135824494Y-139589463D01*
X135714180Y-139530498D01*
X135594482Y-139494188D01*
X135470000Y-139481928D01*
X133770000Y-139481928D01*
X133645518Y-139494188D01*
X133525820Y-139530498D01*
X133415506Y-139589463D01*
X133318815Y-139668815D01*
X133239463Y-139765506D01*
X133180498Y-139875820D01*
X133144188Y-139995518D01*
X133131928Y-140120000D01*
X133131928Y-140210000D01*
X132028043Y-140210000D01*
X131924637Y-140055241D01*
X131724759Y-139855363D01*
X131570000Y-139751957D01*
X131570000Y-138378043D01*
X131724759Y-138274637D01*
X131924637Y-138074759D01*
X132081680Y-137839727D01*
X132189853Y-137578574D01*
X132245000Y-137301335D01*
X132245000Y-137018665D01*
X132189853Y-136741426D01*
X132081680Y-136480273D01*
X131924637Y-136245241D01*
X131724759Y-136045363D01*
X131489727Y-135888320D01*
X131228574Y-135780147D01*
X130951335Y-135725000D01*
X130668665Y-135725000D01*
X130391426Y-135780147D01*
X130130273Y-135888320D01*
X129895241Y-136045363D01*
X129695363Y-136245241D01*
X129538320Y-136480273D01*
X129430147Y-136741426D01*
X129375000Y-137018665D01*
X124618023Y-137018665D01*
X124604236Y-136878691D01*
X124522182Y-136608192D01*
X124388932Y-136358899D01*
X124209608Y-136140392D01*
X123991101Y-135961068D01*
X123741808Y-135827818D01*
X123471309Y-135745764D01*
X123260492Y-135725000D01*
X123119508Y-135725000D01*
X122908691Y-135745764D01*
X122638192Y-135827818D01*
X122388899Y-135961068D01*
X122170392Y-136140392D01*
X121991068Y-136358899D01*
X121969099Y-136400000D01*
X120598043Y-136400000D01*
X120494637Y-136245241D01*
X120294759Y-136045363D01*
X120059727Y-135888320D01*
X119798574Y-135780147D01*
X119521335Y-135725000D01*
X119238665Y-135725000D01*
X118961426Y-135780147D01*
X118700273Y-135888320D01*
X118465241Y-136045363D01*
X118265363Y-136245241D01*
X118161957Y-136400000D01*
X114614802Y-136400000D01*
X112708814Y-134494013D01*
X112685011Y-134465009D01*
X112569286Y-134370036D01*
X112437257Y-134299464D01*
X112293996Y-134256007D01*
X112182343Y-134245010D01*
X112182332Y-134245010D01*
X112145010Y-134241334D01*
X112107688Y-134245010D01*
X111650900Y-134245010D01*
X111613577Y-134241334D01*
X111576254Y-134245010D01*
X111576245Y-134245010D01*
X111464592Y-134256007D01*
X111349237Y-134290999D01*
X111321331Y-134299464D01*
X111189301Y-134370036D01*
X111146698Y-134405000D01*
X111073577Y-134465009D01*
X111049779Y-134494007D01*
X107416859Y-138126928D01*
X107375000Y-138126928D01*
X107375000Y-137928711D01*
X107418937Y-137884774D01*
X107532205Y-137715256D01*
X107610226Y-137526898D01*
X107650000Y-137326939D01*
X107650000Y-137123061D01*
X107610226Y-136923102D01*
X107532205Y-136734744D01*
X107418937Y-136565226D01*
X107274774Y-136421063D01*
X107105256Y-136307795D01*
X106916898Y-136229774D01*
X106716939Y-136190000D01*
X106513061Y-136190000D01*
X106313102Y-136229774D01*
X106124744Y-136307795D01*
X105955226Y-136421063D01*
X105811063Y-136565226D01*
X105697795Y-136734744D01*
X105619774Y-136923102D01*
X105580000Y-137123061D01*
X105580000Y-137326939D01*
X105619774Y-137526898D01*
X105697795Y-137715256D01*
X105811063Y-137884774D01*
X105855001Y-137928712D01*
X105855001Y-138126928D01*
X105790000Y-138126928D01*
X105636255Y-138142071D01*
X105488418Y-138186916D01*
X105352171Y-138259742D01*
X105232749Y-138357749D01*
X105134742Y-138477171D01*
X105061916Y-138613418D01*
X105017071Y-138761255D01*
X105001928Y-138915000D01*
X105001928Y-139215000D01*
X105017071Y-139368745D01*
X105061916Y-139516582D01*
X105134742Y-139652829D01*
X105173454Y-139700000D01*
X105134742Y-139747171D01*
X105061916Y-139883418D01*
X105017071Y-140031255D01*
X105001928Y-140185000D01*
X105001928Y-140485000D01*
X105017071Y-140638745D01*
X105061916Y-140786582D01*
X105134742Y-140922829D01*
X105173454Y-140970000D01*
X105134742Y-141017171D01*
X105061916Y-141153418D01*
X105022653Y-141282852D01*
X104900000Y-141160199D01*
X104900000Y-135741828D01*
X105003762Y-135672497D01*
X105192497Y-135483762D01*
X105340785Y-135261833D01*
X105442928Y-135015239D01*
X105495000Y-134753456D01*
X105495000Y-134486544D01*
X105442928Y-134224761D01*
X105340785Y-133978167D01*
X105192497Y-133756238D01*
X105003762Y-133567503D01*
X104834077Y-133454123D01*
X105448200Y-132840000D01*
X105558172Y-132840000D01*
X105627503Y-132943762D01*
X105816238Y-133132497D01*
X106038167Y-133280785D01*
X106284761Y-133382928D01*
X106546544Y-133435000D01*
X106813456Y-133435000D01*
X107075239Y-133382928D01*
X107321833Y-133280785D01*
X107543762Y-133132497D01*
X107732497Y-132943762D01*
X107880785Y-132721833D01*
X107982928Y-132475239D01*
X108035000Y-132213456D01*
X108035000Y-131946544D01*
X107982928Y-131684761D01*
X107880785Y-131438167D01*
X107732497Y-131216238D01*
X107543762Y-131027503D01*
X107321833Y-130879215D01*
X107075239Y-130777072D01*
X106813456Y-130725000D01*
X106546544Y-130725000D01*
X106284761Y-130777072D01*
X106038167Y-130879215D01*
X105816238Y-131027503D01*
X105627503Y-131216238D01*
X105558172Y-131320000D01*
X105170723Y-131320000D01*
X105133398Y-131316324D01*
X105096073Y-131320000D01*
X105096065Y-131320000D01*
X104984412Y-131330997D01*
X104841151Y-131374454D01*
X104709122Y-131445026D01*
X104593397Y-131539999D01*
X104569599Y-131568997D01*
X102454008Y-133684589D01*
X102425010Y-133708387D01*
X102401212Y-133737385D01*
X102401211Y-133737386D01*
X102330036Y-133824112D01*
X102259464Y-133956142D01*
X102216008Y-134099403D01*
X102201334Y-134248388D01*
X102205011Y-134285720D01*
X102205011Y-138128867D01*
X101950750Y-138130000D01*
X101792000Y-138288750D01*
X101792000Y-138938000D01*
X101812000Y-138938000D01*
X101812000Y-139192000D01*
X101792000Y-139192000D01*
X101792000Y-139212000D01*
X101538000Y-139212000D01*
X101538000Y-139192000D01*
X100213750Y-139192000D01*
X100055000Y-139350750D01*
X100051928Y-139365000D01*
X100064188Y-139489482D01*
X100100498Y-139609180D01*
X100159463Y-139719494D01*
X100183730Y-139749064D01*
X100111916Y-139883418D01*
X100067071Y-140031255D01*
X100051928Y-140185000D01*
X100051928Y-140210000D01*
X90177595Y-140210000D01*
X90140706Y-140140986D01*
X89955134Y-139914866D01*
X89729014Y-139729294D01*
X89664477Y-139694799D01*
X89781355Y-139625178D01*
X89997588Y-139430269D01*
X90171641Y-139196920D01*
X90296825Y-138934099D01*
X90341476Y-138786890D01*
X90329924Y-138765000D01*
X100051928Y-138765000D01*
X100055000Y-138779250D01*
X100213750Y-138938000D01*
X101538000Y-138938000D01*
X101538000Y-138288750D01*
X101379250Y-138130000D01*
X100690000Y-138126928D01*
X100565518Y-138139188D01*
X100445820Y-138175498D01*
X100335506Y-138234463D01*
X100238815Y-138313815D01*
X100159463Y-138410506D01*
X100100498Y-138520820D01*
X100064188Y-138640518D01*
X100051928Y-138765000D01*
X90329924Y-138765000D01*
X90220155Y-138557000D01*
X89027000Y-138557000D01*
X89027000Y-138577000D01*
X88773000Y-138577000D01*
X88773000Y-138557000D01*
X87579845Y-138557000D01*
X87458524Y-138786890D01*
X87503175Y-138934099D01*
X87628359Y-139196920D01*
X87802412Y-139430269D01*
X88018645Y-139625178D01*
X88135523Y-139694799D01*
X88070986Y-139729294D01*
X87844866Y-139914866D01*
X87659294Y-140140986D01*
X87521401Y-140398966D01*
X87436487Y-140678889D01*
X87407815Y-140970000D01*
X87436487Y-141261111D01*
X87521401Y-141541034D01*
X87659294Y-141799014D01*
X87844866Y-142025134D01*
X88070986Y-142210706D01*
X88328966Y-142348599D01*
X88608889Y-142433513D01*
X88827050Y-142455000D01*
X88972950Y-142455000D01*
X89191111Y-142433513D01*
X89471034Y-142348599D01*
X89729014Y-142210706D01*
X89955134Y-142025134D01*
X90140706Y-141799014D01*
X90177595Y-141730000D01*
X98155987Y-141730000D01*
X98142795Y-141749744D01*
X98064774Y-141938102D01*
X98025000Y-142138061D01*
X98025000Y-142341939D01*
X98064774Y-142541898D01*
X98142795Y-142730256D01*
X98256063Y-142899774D01*
X98400226Y-143043937D01*
X98569744Y-143157205D01*
X98758102Y-143235226D01*
X98958061Y-143275000D01*
X99161939Y-143275000D01*
X99361898Y-143235226D01*
X99550256Y-143157205D01*
X99719774Y-143043937D01*
X99863937Y-142899774D01*
X99977205Y-142730256D01*
X100055226Y-142541898D01*
X100090413Y-142365000D01*
X100143141Y-142365000D01*
X100111916Y-142423418D01*
X100067071Y-142571255D01*
X100051928Y-142725000D01*
X100051928Y-143025000D01*
X100067071Y-143178745D01*
X100111916Y-143326582D01*
X100184742Y-143462829D01*
X100282749Y-143582251D01*
X100402171Y-143680258D01*
X100538418Y-143753084D01*
X100686255Y-143797929D01*
X100840000Y-143813072D01*
X102490000Y-143813072D01*
X102643745Y-143797929D01*
X102791582Y-143753084D01*
X102927829Y-143680258D01*
X103047251Y-143582251D01*
X103061469Y-143564926D01*
X103164276Y-143509974D01*
X103280001Y-143415001D01*
X103303804Y-143385997D01*
X103476008Y-143213793D01*
X103505011Y-143189991D01*
X103599984Y-143074266D01*
X103670556Y-142942237D01*
X103714013Y-142798976D01*
X103725010Y-142687323D01*
X103725010Y-142687314D01*
X103728686Y-142649991D01*
X103725010Y-142612668D01*
X103725010Y-142134811D01*
X104976201Y-143386003D01*
X104999999Y-143415001D01*
X105028997Y-143438799D01*
X105115723Y-143509974D01*
X105218531Y-143564926D01*
X105232749Y-143582251D01*
X105352171Y-143680258D01*
X105488418Y-143753084D01*
X105636255Y-143797929D01*
X105790000Y-143813072D01*
X107440000Y-143813072D01*
X107593745Y-143797929D01*
X107741582Y-143753084D01*
X107877829Y-143680258D01*
X107997251Y-143582251D01*
X108095258Y-143462829D01*
X108168084Y-143326582D01*
X108212929Y-143178745D01*
X108228072Y-143025000D01*
X108228072Y-142725000D01*
X108212929Y-142571255D01*
X108168084Y-142423418D01*
X108095258Y-142287171D01*
X108074134Y-142261431D01*
X108114276Y-142239974D01*
X108230001Y-142145001D01*
X108253804Y-142115997D01*
X109050762Y-141319039D01*
X110368096Y-141319039D01*
X110408754Y-141453087D01*
X110528963Y-141707420D01*
X110696481Y-141933414D01*
X110904869Y-142122385D01*
X111146119Y-142267070D01*
X111410960Y-142361909D01*
X111633000Y-142240624D01*
X111633000Y-141097000D01*
X111887000Y-141097000D01*
X111887000Y-142240624D01*
X112109040Y-142361909D01*
X112373881Y-142267070D01*
X112615131Y-142122385D01*
X112823519Y-141933414D01*
X112991037Y-141707420D01*
X113111246Y-141453087D01*
X113151904Y-141319039D01*
X113029915Y-141097000D01*
X111887000Y-141097000D01*
X111633000Y-141097000D01*
X110490085Y-141097000D01*
X110368096Y-141319039D01*
X109050762Y-141319039D01*
X109748840Y-140620961D01*
X110368096Y-140620961D01*
X110490085Y-140843000D01*
X111633000Y-140843000D01*
X111633000Y-139699376D01*
X111887000Y-139699376D01*
X111887000Y-140843000D01*
X113029915Y-140843000D01*
X113151904Y-140620961D01*
X113111246Y-140486913D01*
X112991037Y-140232580D01*
X112823519Y-140006586D01*
X112615131Y-139817615D01*
X112373881Y-139672930D01*
X112109040Y-139578091D01*
X111887000Y-139699376D01*
X111633000Y-139699376D01*
X111410960Y-139578091D01*
X111146119Y-139672930D01*
X110904869Y-139817615D01*
X110696481Y-140006586D01*
X110528963Y-140232580D01*
X110408754Y-140486913D01*
X110368096Y-140620961D01*
X109748840Y-140620961D01*
X111001003Y-139368799D01*
X111030001Y-139345001D01*
X111056332Y-139312917D01*
X111124974Y-139229277D01*
X111195546Y-139097247D01*
X111205336Y-139064973D01*
X111239003Y-138953986D01*
X111250000Y-138842333D01*
X111250000Y-138842323D01*
X111253676Y-138805000D01*
X111250000Y-138767677D01*
X111250000Y-138494270D01*
X111410960Y-138551909D01*
X111633000Y-138430624D01*
X111633000Y-137287000D01*
X111613000Y-137287000D01*
X111613000Y-137033000D01*
X111633000Y-137033000D01*
X111633000Y-137013000D01*
X111887000Y-137013000D01*
X111887000Y-137033000D01*
X111907000Y-137033000D01*
X111907000Y-137287000D01*
X111887000Y-137287000D01*
X111887000Y-138430624D01*
X112109040Y-138551909D01*
X112373881Y-138457070D01*
X112615131Y-138312385D01*
X112823519Y-138123414D01*
X112991037Y-137897420D01*
X113022035Y-137831835D01*
X114131207Y-138941008D01*
X114155001Y-138970001D01*
X114183994Y-138993795D01*
X114183998Y-138993799D01*
X114184704Y-138994378D01*
X114270726Y-139064974D01*
X114402755Y-139135546D01*
X114546016Y-139179003D01*
X114657669Y-139190000D01*
X114657678Y-139190000D01*
X114695001Y-139193676D01*
X114732324Y-139190000D01*
X119065199Y-139190000D01*
X119410199Y-139535000D01*
X119238665Y-139535000D01*
X118961426Y-139590147D01*
X118700273Y-139698320D01*
X118465241Y-139855363D01*
X118265363Y-140055241D01*
X118108320Y-140290273D01*
X118000147Y-140551426D01*
X117945000Y-140828665D01*
X117945000Y-141111335D01*
X118000147Y-141388574D01*
X118108320Y-141649727D01*
X118265363Y-141884759D01*
X118465241Y-142084637D01*
X118620000Y-142188044D01*
X118620001Y-143561956D01*
X118465241Y-143665363D01*
X118265363Y-143865241D01*
X118108320Y-144100273D01*
X118000147Y-144361426D01*
X117945000Y-144638665D01*
X117945000Y-144921335D01*
X118000147Y-145198574D01*
X118079438Y-145390000D01*
X113051261Y-145390000D01*
X113111246Y-145263087D01*
X113151904Y-145129039D01*
X113029915Y-144907000D01*
X111887000Y-144907000D01*
X111887000Y-144927000D01*
X111633000Y-144927000D01*
X111633000Y-144907000D01*
X110490085Y-144907000D01*
X110368096Y-145129039D01*
X110408754Y-145263087D01*
X110468739Y-145390000D01*
X81940000Y-145390000D01*
X81940000Y-144430961D01*
X110368096Y-144430961D01*
X110490085Y-144653000D01*
X111633000Y-144653000D01*
X111633000Y-143509376D01*
X111887000Y-143509376D01*
X111887000Y-144653000D01*
X113029915Y-144653000D01*
X113151904Y-144430961D01*
X113111246Y-144296913D01*
X112991037Y-144042580D01*
X112823519Y-143816586D01*
X112615131Y-143627615D01*
X112373881Y-143482930D01*
X112109040Y-143388091D01*
X111887000Y-143509376D01*
X111633000Y-143509376D01*
X111410960Y-143388091D01*
X111146119Y-143482930D01*
X110904869Y-143627615D01*
X110696481Y-143816586D01*
X110528963Y-144042580D01*
X110408754Y-144296913D01*
X110368096Y-144430961D01*
X81940000Y-144430961D01*
X81940000Y-132500000D01*
X87411928Y-132500000D01*
X87415000Y-133064250D01*
X87573750Y-133223000D01*
X88773000Y-133223000D01*
X88773000Y-132023750D01*
X88614250Y-131865000D01*
X88050000Y-131861928D01*
X87925518Y-131874188D01*
X87805820Y-131910498D01*
X87695506Y-131969463D01*
X87598815Y-132048815D01*
X87519463Y-132145506D01*
X87460498Y-132255820D01*
X87424188Y-132375518D01*
X87411928Y-132500000D01*
X81940000Y-132500000D01*
X81940000Y-115340130D01*
X86762058Y-115340130D01*
X86762058Y-118339870D01*
X86774318Y-118464352D01*
X86810628Y-118584050D01*
X86869593Y-118694364D01*
X86948945Y-118791055D01*
X87045636Y-118870407D01*
X87155950Y-118929372D01*
X87275648Y-118965682D01*
X87400130Y-118977942D01*
X88140001Y-118977942D01*
X88140000Y-121194036D01*
X87888760Y-121298103D01*
X87539100Y-121531738D01*
X87241738Y-121829100D01*
X87008103Y-122178760D01*
X86847172Y-122567281D01*
X86765130Y-122979734D01*
X86765130Y-123400266D01*
X86847172Y-123812719D01*
X87008103Y-124201240D01*
X87241738Y-124550900D01*
X87539100Y-124848262D01*
X87559747Y-124862058D01*
X87400130Y-124862058D01*
X87275648Y-124874318D01*
X87155950Y-124910628D01*
X87045636Y-124969593D01*
X86948945Y-125048945D01*
X86869593Y-125145636D01*
X86810628Y-125255950D01*
X86774318Y-125375648D01*
X86762058Y-125500130D01*
X86762058Y-128499870D01*
X86774318Y-128624352D01*
X86810628Y-128744050D01*
X86869593Y-128854364D01*
X86948945Y-128951055D01*
X87045636Y-129030407D01*
X87155950Y-129089372D01*
X87275648Y-129125682D01*
X87400130Y-129137942D01*
X89499757Y-129137942D01*
X89479872Y-129162173D01*
X89440027Y-129210723D01*
X89369456Y-129342752D01*
X89369455Y-129342753D01*
X89325998Y-129486014D01*
X89315001Y-129597667D01*
X89315001Y-129597677D01*
X89311325Y-129634999D01*
X89315001Y-129672322D01*
X89315001Y-131864296D01*
X89185750Y-131865000D01*
X89027000Y-132023750D01*
X89027000Y-133223000D01*
X89047000Y-133223000D01*
X89047000Y-133477000D01*
X89027000Y-133477000D01*
X89027000Y-133497000D01*
X88773000Y-133497000D01*
X88773000Y-133477000D01*
X87573750Y-133477000D01*
X87415000Y-133635750D01*
X87411928Y-134200000D01*
X87424188Y-134324482D01*
X87460498Y-134444180D01*
X87519463Y-134554494D01*
X87598815Y-134651185D01*
X87695506Y-134730537D01*
X87805820Y-134789502D01*
X87874687Y-134810393D01*
X87844866Y-134834866D01*
X87659294Y-135060986D01*
X87521401Y-135318966D01*
X87436487Y-135598889D01*
X87407815Y-135890000D01*
X87436487Y-136181111D01*
X87521401Y-136461034D01*
X87659294Y-136719014D01*
X87844866Y-136945134D01*
X88070986Y-137130706D01*
X88135523Y-137165201D01*
X88018645Y-137234822D01*
X87802412Y-137429731D01*
X87628359Y-137663080D01*
X87503175Y-137925901D01*
X87458524Y-138073110D01*
X87579845Y-138303000D01*
X88773000Y-138303000D01*
X88773000Y-138283000D01*
X89027000Y-138283000D01*
X89027000Y-138303000D01*
X90220155Y-138303000D01*
X90341476Y-138073110D01*
X90296825Y-137925901D01*
X90171641Y-137663080D01*
X89997588Y-137429731D01*
X89781355Y-137234822D01*
X89664477Y-137165201D01*
X89729014Y-137130706D01*
X89955134Y-136945134D01*
X90140706Y-136719014D01*
X90278599Y-136461034D01*
X90363513Y-136181111D01*
X90392185Y-135890000D01*
X90363513Y-135598889D01*
X90340797Y-135524004D01*
X90585998Y-135278803D01*
X90615002Y-135255000D01*
X90709975Y-135139275D01*
X90763038Y-135040002D01*
X90780547Y-135007246D01*
X90824003Y-134863986D01*
X90824004Y-134863984D01*
X90835001Y-134752331D01*
X90835001Y-134752323D01*
X90838677Y-134715000D01*
X90835001Y-134677677D01*
X90835001Y-131946544D01*
X100245000Y-131946544D01*
X100245000Y-132213456D01*
X100297072Y-132475239D01*
X100399215Y-132721833D01*
X100547503Y-132943762D01*
X100736238Y-133132497D01*
X100958167Y-133280785D01*
X101204761Y-133382928D01*
X101466544Y-133435000D01*
X101733456Y-133435000D01*
X101995239Y-133382928D01*
X102241833Y-133280785D01*
X102463762Y-133132497D01*
X102652497Y-132943762D01*
X102800785Y-132721833D01*
X102902928Y-132475239D01*
X102955000Y-132213456D01*
X102955000Y-131946544D01*
X102902928Y-131684761D01*
X102800785Y-131438167D01*
X102652497Y-131216238D01*
X102463762Y-131027503D01*
X102241833Y-130879215D01*
X101995239Y-130777072D01*
X101733456Y-130725000D01*
X101466544Y-130725000D01*
X101204761Y-130777072D01*
X100958167Y-130879215D01*
X100736238Y-131027503D01*
X100547503Y-131216238D01*
X100399215Y-131438167D01*
X100297072Y-131684761D01*
X100245000Y-131946544D01*
X90835001Y-131946544D01*
X90835001Y-129949800D01*
X96834802Y-123950000D01*
X98155987Y-123950000D01*
X98142795Y-123969744D01*
X98064774Y-124158102D01*
X98025000Y-124358061D01*
X98025000Y-124561939D01*
X98064774Y-124761898D01*
X98142795Y-124950256D01*
X98256063Y-125119774D01*
X98400226Y-125263937D01*
X98569744Y-125377205D01*
X98758102Y-125455226D01*
X98958061Y-125495000D01*
X99161939Y-125495000D01*
X99361898Y-125455226D01*
X99550256Y-125377205D01*
X99719774Y-125263937D01*
X99763711Y-125220000D01*
X100208141Y-125220000D01*
X100176916Y-125278418D01*
X100132071Y-125426255D01*
X100116928Y-125580000D01*
X100116928Y-125880000D01*
X100132071Y-126033745D01*
X100176916Y-126181582D01*
X100249742Y-126317829D01*
X100347749Y-126437251D01*
X100467171Y-126535258D01*
X100603418Y-126608084D01*
X100751255Y-126652929D01*
X100905000Y-126668072D01*
X102555000Y-126668072D01*
X102708745Y-126652929D01*
X102856582Y-126608084D01*
X102992829Y-126535258D01*
X103112251Y-126437251D01*
X103126469Y-126419926D01*
X103229276Y-126364974D01*
X103345001Y-126270001D01*
X103368803Y-126240998D01*
X104200994Y-125408808D01*
X104205395Y-125405196D01*
X105041200Y-126241002D01*
X105064999Y-126270001D01*
X105180724Y-126364974D01*
X105283531Y-126419926D01*
X105297749Y-126437251D01*
X105417171Y-126535258D01*
X105553418Y-126608084D01*
X105701255Y-126652929D01*
X105855000Y-126668072D01*
X107505000Y-126668072D01*
X107658745Y-126652929D01*
X107806582Y-126608084D01*
X107942829Y-126535258D01*
X108062251Y-126437251D01*
X108160258Y-126317829D01*
X108233084Y-126181582D01*
X108277929Y-126033745D01*
X108293072Y-125880000D01*
X108293072Y-125580000D01*
X108277929Y-125426255D01*
X108233084Y-125278418D01*
X108201859Y-125220000D01*
X110176076Y-125220000D01*
X110213398Y-125223676D01*
X110250720Y-125220000D01*
X110250731Y-125220000D01*
X110362384Y-125209003D01*
X110505645Y-125165546D01*
X110637674Y-125094974D01*
X110753399Y-125000001D01*
X110777202Y-124970997D01*
X112843201Y-122904999D01*
X115773597Y-122904999D01*
X114014002Y-124664595D01*
X113984998Y-124688398D01*
X113936253Y-124747795D01*
X113890025Y-124804123D01*
X113825552Y-124924742D01*
X113819453Y-124936153D01*
X113775996Y-125079414D01*
X113764999Y-125191067D01*
X113764999Y-125191077D01*
X113761323Y-125228399D01*
X113764999Y-125265722D01*
X113765000Y-126194269D01*
X113761323Y-126231601D01*
X113765000Y-126268934D01*
X113775997Y-126380587D01*
X113789179Y-126424043D01*
X113819453Y-126523847D01*
X113890025Y-126655877D01*
X113932600Y-126707754D01*
X113984999Y-126771602D01*
X114013997Y-126795400D01*
X115754609Y-128536013D01*
X115778407Y-128565011D01*
X115894132Y-128659984D01*
X116026161Y-128730556D01*
X116169422Y-128774013D01*
X116281075Y-128785010D01*
X116281084Y-128785010D01*
X116318407Y-128788686D01*
X116355730Y-128785010D01*
X128800900Y-128785010D01*
X128838222Y-128788686D01*
X128875544Y-128785010D01*
X128875555Y-128785010D01*
X128987208Y-128774013D01*
X129130469Y-128730556D01*
X129262498Y-128659984D01*
X129378223Y-128565011D01*
X129402026Y-128536007D01*
X133359340Y-124578694D01*
X133422171Y-124630258D01*
X133558418Y-124703084D01*
X133706255Y-124747929D01*
X133860000Y-124763072D01*
X133925001Y-124763072D01*
X133925001Y-124961288D01*
X133881063Y-125005226D01*
X133767795Y-125174744D01*
X133689774Y-125363102D01*
X133650000Y-125563061D01*
X133650000Y-125766939D01*
X133689774Y-125966898D01*
X133767795Y-126155256D01*
X133881063Y-126324774D01*
X134025226Y-126468937D01*
X134194744Y-126582205D01*
X134383102Y-126660226D01*
X134583061Y-126700000D01*
X134786939Y-126700000D01*
X134986898Y-126660226D01*
X135175256Y-126582205D01*
X135344774Y-126468937D01*
X135488937Y-126324774D01*
X135602205Y-126155256D01*
X135680226Y-125966898D01*
X135720000Y-125766939D01*
X135720000Y-125563061D01*
X135680226Y-125363102D01*
X135602205Y-125174744D01*
X135488937Y-125005226D01*
X135445000Y-124961289D01*
X135445000Y-124763072D01*
X135510000Y-124763072D01*
X135663745Y-124747929D01*
X135811582Y-124703084D01*
X135947829Y-124630258D01*
X136067251Y-124532251D01*
X136165258Y-124412829D01*
X136238084Y-124276582D01*
X136282929Y-124128745D01*
X136298072Y-123975000D01*
X136298072Y-123959990D01*
X137112677Y-123959990D01*
X137150010Y-123963667D01*
X137187343Y-123959990D01*
X138021928Y-123959990D01*
X138021928Y-123975000D01*
X138037071Y-124128745D01*
X138081916Y-124276582D01*
X138154742Y-124412829D01*
X138252749Y-124532251D01*
X138372171Y-124630258D01*
X138508418Y-124703084D01*
X138656255Y-124747929D01*
X138810000Y-124763072D01*
X140460000Y-124763072D01*
X140613745Y-124747929D01*
X140761582Y-124703084D01*
X140840879Y-124660699D01*
X142494999Y-126314820D01*
X142495000Y-140394668D01*
X142491323Y-140432001D01*
X142495000Y-140469333D01*
X142495000Y-140469334D01*
X142505997Y-140580987D01*
X142508739Y-140590027D01*
X142549453Y-140724247D01*
X142620025Y-140856277D01*
X142682718Y-140932668D01*
X142714999Y-140972002D01*
X142743997Y-140995800D01*
X143484200Y-141736003D01*
X143507998Y-141765002D01*
X143623723Y-141859975D01*
X143755752Y-141930547D01*
X143899013Y-141974004D01*
X144010666Y-141985001D01*
X144010675Y-141985001D01*
X144047998Y-141988677D01*
X144085321Y-141985001D01*
X145474679Y-141985001D01*
X145512001Y-141988677D01*
X145549323Y-141985001D01*
X145549334Y-141985001D01*
X145660987Y-141974004D01*
X145804248Y-141930547D01*
X145936277Y-141859975D01*
X146052002Y-141765002D01*
X146075804Y-141735999D01*
X146619803Y-141192001D01*
X148562002Y-141192001D01*
X148562002Y-141664669D01*
X148558325Y-141702001D01*
X148562002Y-141739334D01*
X148572999Y-141850987D01*
X148583715Y-141886314D01*
X148616455Y-141994247D01*
X148687027Y-142126277D01*
X148746428Y-142198656D01*
X148782001Y-142242002D01*
X148810999Y-142265800D01*
X148844999Y-142299800D01*
X148845000Y-142934669D01*
X148841323Y-142972001D01*
X148855997Y-143120986D01*
X148899453Y-143264247D01*
X148970025Y-143396277D01*
X149032789Y-143472754D01*
X149064999Y-143512002D01*
X149093997Y-143535800D01*
X149834200Y-144276003D01*
X149857998Y-144305002D01*
X149973723Y-144399975D01*
X150105752Y-144470547D01*
X150249013Y-144514004D01*
X150360666Y-144525001D01*
X150360675Y-144525001D01*
X150397998Y-144528677D01*
X150435321Y-144525001D01*
X155284087Y-144525001D01*
X155321409Y-144528677D01*
X155358731Y-144525001D01*
X155358742Y-144525001D01*
X155470395Y-144514004D01*
X155613656Y-144470547D01*
X155745685Y-144399975D01*
X155861410Y-144305002D01*
X155885213Y-144275998D01*
X157896004Y-142265208D01*
X157925002Y-142241410D01*
X158019975Y-142125685D01*
X158090547Y-141993656D01*
X158134004Y-141850395D01*
X158145001Y-141738742D01*
X158145001Y-141738734D01*
X158148677Y-141701409D01*
X158145001Y-141664084D01*
X158145001Y-125277332D01*
X158148678Y-125239999D01*
X158134004Y-125091013D01*
X158090547Y-124947752D01*
X158019975Y-124815723D01*
X157948800Y-124728996D01*
X157925002Y-124699998D01*
X157896005Y-124676201D01*
X157313804Y-124094001D01*
X157290002Y-124064998D01*
X157174277Y-123970025D01*
X157042248Y-123899453D01*
X156898987Y-123855996D01*
X156787334Y-123844999D01*
X156787323Y-123844999D01*
X156750001Y-123841323D01*
X156712679Y-123844999D01*
X155707332Y-123844999D01*
X155669999Y-123841322D01*
X155632666Y-123844999D01*
X155521013Y-123855996D01*
X155377752Y-123899453D01*
X155245723Y-123970025D01*
X155129998Y-124064998D01*
X155106199Y-124093997D01*
X154523997Y-124676200D01*
X154494999Y-124699998D01*
X154471201Y-124728996D01*
X154471200Y-124728997D01*
X154400025Y-124815723D01*
X154329453Y-124947753D01*
X154309357Y-125014003D01*
X154286861Y-125088167D01*
X154285997Y-125091014D01*
X154271323Y-125239999D01*
X154275000Y-125277332D01*
X154274999Y-141029990D01*
X153251795Y-141029990D01*
X152142806Y-139921003D01*
X152119004Y-139892000D01*
X152003279Y-139797027D01*
X151871250Y-139726455D01*
X151727989Y-139682998D01*
X151616336Y-139672001D01*
X151616325Y-139672001D01*
X151579003Y-139668325D01*
X151541681Y-139672001D01*
X149359334Y-139672001D01*
X149322001Y-139668324D01*
X149284668Y-139672001D01*
X147065001Y-139672001D01*
X147065001Y-126299802D01*
X147634802Y-125730002D01*
X148042676Y-125730002D01*
X148079998Y-125733678D01*
X148117320Y-125730002D01*
X148117331Y-125730002D01*
X148228984Y-125719005D01*
X148372245Y-125675548D01*
X148504274Y-125604976D01*
X148619999Y-125510003D01*
X148643802Y-125480999D01*
X149919801Y-124205001D01*
X152502679Y-124205001D01*
X152540001Y-124208677D01*
X152577323Y-124205001D01*
X152577334Y-124205001D01*
X152688987Y-124194004D01*
X152832248Y-124150547D01*
X152964277Y-124079975D01*
X153080002Y-123985002D01*
X153103805Y-123955998D01*
X153165999Y-123893804D01*
X153195002Y-123870002D01*
X153218805Y-123840998D01*
X157846009Y-119213796D01*
X157875002Y-119190002D01*
X157898796Y-119161009D01*
X157898800Y-119161005D01*
X157969974Y-119074278D01*
X157996443Y-119024759D01*
X158040547Y-118942248D01*
X158084004Y-118798987D01*
X158095001Y-118687334D01*
X158095001Y-118687325D01*
X158098677Y-118650002D01*
X158095001Y-118612679D01*
X158095001Y-117607321D01*
X158098677Y-117569998D01*
X158095001Y-117532675D01*
X158095001Y-117532666D01*
X158084004Y-117421013D01*
X158040547Y-117277752D01*
X157969975Y-117145723D01*
X157913571Y-117076994D01*
X157898800Y-117058995D01*
X157898796Y-117058991D01*
X157875002Y-117029998D01*
X157846010Y-117006205D01*
X157168805Y-116329002D01*
X157145003Y-116299999D01*
X157029278Y-116205026D01*
X156897249Y-116134454D01*
X156753988Y-116090997D01*
X156642335Y-116080000D01*
X156642324Y-116080000D01*
X156605002Y-116076324D01*
X156567680Y-116080000D01*
X152042321Y-116080000D01*
X152004998Y-116076324D01*
X151967675Y-116080000D01*
X151967665Y-116080000D01*
X151856012Y-116090997D01*
X151712751Y-116134454D01*
X151580721Y-116205026D01*
X151550566Y-116229774D01*
X151464997Y-116299999D01*
X151441199Y-116328997D01*
X149295196Y-118475001D01*
X146170509Y-118475001D01*
X146215000Y-118251335D01*
X146215000Y-117968665D01*
X146159853Y-117691426D01*
X146051680Y-117430273D01*
X145894637Y-117195241D01*
X145694759Y-116995363D01*
X145459727Y-116838320D01*
X145198574Y-116730147D01*
X144921335Y-116675000D01*
X144638665Y-116675000D01*
X144456114Y-116711312D01*
X142948803Y-115204002D01*
X142925000Y-115174998D01*
X142809275Y-115080025D01*
X142677246Y-115009453D01*
X142533985Y-114965996D01*
X142422332Y-114954999D01*
X142422321Y-114954999D01*
X142384999Y-114951323D01*
X142347677Y-114954999D01*
X141547323Y-114954999D01*
X141510001Y-114951323D01*
X141472679Y-114954999D01*
X135399801Y-114954999D01*
X134712874Y-114268072D01*
X135450000Y-114268072D01*
X135574482Y-114255812D01*
X135694180Y-114219502D01*
X135804494Y-114160537D01*
X135901185Y-114081185D01*
X135980537Y-113984494D01*
X136039502Y-113874180D01*
X136065038Y-113790000D01*
X136094962Y-113790000D01*
X136120498Y-113874180D01*
X136179463Y-113984494D01*
X136258815Y-114081185D01*
X136355506Y-114160537D01*
X136465820Y-114219502D01*
X136585518Y-114255812D01*
X136710000Y-114268072D01*
X137610000Y-114268072D01*
X137734482Y-114255812D01*
X137854180Y-114219502D01*
X137964494Y-114160537D01*
X138061185Y-114081185D01*
X138140537Y-113984494D01*
X138199502Y-113874180D01*
X138235812Y-113754482D01*
X138248072Y-113630000D01*
X138248072Y-112864999D01*
X138520198Y-112864999D01*
X139196200Y-113541002D01*
X139219999Y-113570001D01*
X139248997Y-113593799D01*
X139335723Y-113664974D01*
X139377576Y-113687345D01*
X139384188Y-113754482D01*
X139420498Y-113874180D01*
X139479463Y-113984494D01*
X139558815Y-114081185D01*
X139655506Y-114160537D01*
X139765820Y-114219502D01*
X139885518Y-114255812D01*
X140010000Y-114268072D01*
X140910000Y-114268072D01*
X141034482Y-114255812D01*
X141154180Y-114219502D01*
X141264494Y-114160537D01*
X141361185Y-114081185D01*
X141440537Y-113984494D01*
X141499502Y-113874180D01*
X141535812Y-113754482D01*
X141548072Y-113630000D01*
X141548072Y-112430000D01*
X141535812Y-112305518D01*
X141499502Y-112185820D01*
X141440537Y-112075506D01*
X141361185Y-111978815D01*
X141264494Y-111899463D01*
X141154180Y-111840498D01*
X141034482Y-111804188D01*
X140910000Y-111791928D01*
X140010000Y-111791928D01*
X139885518Y-111804188D01*
X139765820Y-111840498D01*
X139687280Y-111882479D01*
X139398802Y-111594001D01*
X139375000Y-111564998D01*
X139259275Y-111470025D01*
X139127246Y-111399453D01*
X138983985Y-111355996D01*
X138872332Y-111344999D01*
X138872321Y-111344999D01*
X138834999Y-111341323D01*
X138797677Y-111344999D01*
X131027322Y-111344999D01*
X130989999Y-111341323D01*
X130952677Y-111344999D01*
X130952666Y-111344999D01*
X130841013Y-111355996D01*
X130697752Y-111399453D01*
X130565723Y-111470025D01*
X130449998Y-111564998D01*
X130426195Y-111594002D01*
X130413997Y-111606200D01*
X130384999Y-111629998D01*
X130361201Y-111658996D01*
X130361200Y-111658997D01*
X130290025Y-111745723D01*
X130219453Y-111877753D01*
X130212868Y-111899463D01*
X130176681Y-112018760D01*
X130175997Y-112021014D01*
X130161323Y-112169999D01*
X130165000Y-112207331D01*
X130164999Y-113852678D01*
X130161323Y-113890001D01*
X130164999Y-113927323D01*
X130164999Y-113927333D01*
X130175996Y-114038986D01*
X130219453Y-114182247D01*
X130290025Y-114314277D01*
X130305332Y-114332928D01*
X130384998Y-114430002D01*
X130414002Y-114453805D01*
X130426195Y-114465998D01*
X130449998Y-114495002D01*
X130565723Y-114589975D01*
X130697752Y-114660547D01*
X130841013Y-114704004D01*
X130952666Y-114715001D01*
X130952677Y-114715001D01*
X130989999Y-114718677D01*
X131027322Y-114715001D01*
X131815202Y-114715001D01*
X132677991Y-115577791D01*
X132494869Y-115687615D01*
X132286481Y-115876586D01*
X132118963Y-116102580D01*
X131998754Y-116356913D01*
X131958096Y-116490961D01*
X132080085Y-116713000D01*
X133223000Y-116713000D01*
X133223000Y-116693000D01*
X133477000Y-116693000D01*
X133477000Y-116713000D01*
X133497000Y-116713000D01*
X133497000Y-116967000D01*
X133477000Y-116967000D01*
X133477000Y-118110624D01*
X133699040Y-118231909D01*
X133963881Y-118137070D01*
X134205131Y-117992385D01*
X134413519Y-117803414D01*
X134581037Y-117577420D01*
X134621646Y-117491501D01*
X134722755Y-117545546D01*
X134866016Y-117589003D01*
X134977669Y-117600000D01*
X134977677Y-117600000D01*
X135015002Y-117603676D01*
X135052327Y-117600000D01*
X139328430Y-117600000D01*
X136188248Y-120740183D01*
X136165258Y-120697171D01*
X136126546Y-120650000D01*
X136165258Y-120602829D01*
X136238084Y-120466582D01*
X136282929Y-120318745D01*
X136298072Y-120165000D01*
X136298072Y-119865000D01*
X136282929Y-119711255D01*
X136238084Y-119563418D01*
X136165258Y-119427171D01*
X136067251Y-119307749D01*
X135947829Y-119209742D01*
X135811582Y-119136916D01*
X135663745Y-119092071D01*
X135510000Y-119076928D01*
X133860000Y-119076928D01*
X133706255Y-119092071D01*
X133558418Y-119136916D01*
X133422171Y-119209742D01*
X133410154Y-119219604D01*
X133401008Y-119126745D01*
X133350472Y-118960149D01*
X133268405Y-118806613D01*
X133157962Y-118672038D01*
X133023387Y-118561595D01*
X132869851Y-118479528D01*
X132703255Y-118428992D01*
X132530001Y-118411928D01*
X131941730Y-118411928D01*
X131128804Y-117599003D01*
X131105001Y-117569999D01*
X130989276Y-117475026D01*
X130857247Y-117404454D01*
X130717825Y-117362162D01*
X130619792Y-117242708D01*
X130613436Y-117237492D01*
X130672476Y-117189039D01*
X131958096Y-117189039D01*
X131998754Y-117323087D01*
X132118963Y-117577420D01*
X132286481Y-117803414D01*
X132494869Y-117992385D01*
X132736119Y-118137070D01*
X133000960Y-118231909D01*
X133223000Y-118110624D01*
X133223000Y-116967000D01*
X132080085Y-116967000D01*
X131958096Y-117189039D01*
X130672476Y-117189039D01*
X130691185Y-117173685D01*
X130770537Y-117076994D01*
X130829502Y-116966680D01*
X130865812Y-116846982D01*
X130878072Y-116722500D01*
X130875000Y-116520750D01*
X130716250Y-116362000D01*
X129667000Y-116362000D01*
X129667000Y-116382000D01*
X129413000Y-116382000D01*
X129413000Y-116362000D01*
X128363750Y-116362000D01*
X128205000Y-116520750D01*
X128201928Y-116722500D01*
X128214188Y-116846982D01*
X128250498Y-116966680D01*
X128309463Y-117076994D01*
X128388815Y-117173685D01*
X128466564Y-117237492D01*
X128460208Y-117242708D01*
X128350542Y-117376336D01*
X128269053Y-117528791D01*
X128218872Y-117694215D01*
X128201928Y-117866250D01*
X128201928Y-118353750D01*
X128218872Y-118525785D01*
X128269053Y-118691209D01*
X128350542Y-118843664D01*
X128460208Y-118977292D01*
X128506838Y-119015561D01*
X128485506Y-119026963D01*
X128388815Y-119106315D01*
X128309463Y-119203006D01*
X128250498Y-119313320D01*
X128214188Y-119433018D01*
X128201928Y-119557500D01*
X128205000Y-119759250D01*
X128363750Y-119918000D01*
X129413000Y-119918000D01*
X129413000Y-119898000D01*
X129667000Y-119898000D01*
X129667000Y-119918000D01*
X129687000Y-119918000D01*
X129687000Y-120172000D01*
X129667000Y-120172000D01*
X129667000Y-120192000D01*
X129413000Y-120192000D01*
X129413000Y-120172000D01*
X128363750Y-120172000D01*
X128205000Y-120330750D01*
X128201928Y-120532500D01*
X128214188Y-120656982D01*
X128250498Y-120776680D01*
X128309463Y-120886994D01*
X128388815Y-120983685D01*
X128466564Y-121047492D01*
X128460208Y-121052708D01*
X128350542Y-121186336D01*
X128269053Y-121338791D01*
X128218872Y-121504215D01*
X128201928Y-121676250D01*
X128201928Y-121728936D01*
X127002187Y-120529196D01*
X127051008Y-120368255D01*
X127068072Y-120195001D01*
X127068072Y-119544999D01*
X127051008Y-119371745D01*
X127000472Y-119205149D01*
X126918405Y-119051613D01*
X126807962Y-118917038D01*
X126673387Y-118806595D01*
X126519851Y-118724528D01*
X126353255Y-118673992D01*
X126180001Y-118656928D01*
X125279999Y-118656928D01*
X125106745Y-118673992D01*
X124940149Y-118724528D01*
X124786613Y-118806595D01*
X124652038Y-118917038D01*
X124541595Y-119051613D01*
X124510386Y-119110000D01*
X124315572Y-119110000D01*
X124315572Y-118923750D01*
X124298628Y-118751715D01*
X124248447Y-118586291D01*
X124166958Y-118433836D01*
X124057292Y-118300208D01*
X123950000Y-118212155D01*
X123950000Y-117154801D01*
X124499802Y-116605000D01*
X124561939Y-116605000D01*
X124761898Y-116565226D01*
X124950256Y-116487205D01*
X125119774Y-116373937D01*
X125263937Y-116229774D01*
X125377205Y-116060256D01*
X125455226Y-115871898D01*
X125479970Y-115747500D01*
X128201928Y-115747500D01*
X128205000Y-115949250D01*
X128363750Y-116108000D01*
X129413000Y-116108000D01*
X129413000Y-115271250D01*
X129667000Y-115271250D01*
X129667000Y-116108000D01*
X130716250Y-116108000D01*
X130875000Y-115949250D01*
X130878072Y-115747500D01*
X130865812Y-115623018D01*
X130829502Y-115503320D01*
X130770537Y-115393006D01*
X130691185Y-115296315D01*
X130594494Y-115216963D01*
X130484180Y-115157998D01*
X130364482Y-115121688D01*
X130240000Y-115109428D01*
X129825750Y-115112500D01*
X129667000Y-115271250D01*
X129413000Y-115271250D01*
X129254250Y-115112500D01*
X128840000Y-115109428D01*
X128715518Y-115121688D01*
X128595820Y-115157998D01*
X128485506Y-115216963D01*
X128388815Y-115296315D01*
X128309463Y-115393006D01*
X128250498Y-115503320D01*
X128214188Y-115623018D01*
X128201928Y-115747500D01*
X125479970Y-115747500D01*
X125495000Y-115671939D01*
X125495000Y-115468061D01*
X125455226Y-115268102D01*
X125377205Y-115079744D01*
X125263937Y-114910226D01*
X125119774Y-114766063D01*
X124950256Y-114652795D01*
X124761898Y-114574774D01*
X124561939Y-114535000D01*
X124358061Y-114535000D01*
X124158102Y-114574774D01*
X123969744Y-114652795D01*
X123800226Y-114766063D01*
X123656063Y-114910226D01*
X123542795Y-115079744D01*
X123464774Y-115268102D01*
X123425000Y-115468061D01*
X123425000Y-115530198D01*
X122678998Y-116276201D01*
X122650000Y-116299999D01*
X122626202Y-116328997D01*
X122626201Y-116328998D01*
X122555026Y-116415724D01*
X122484454Y-116547754D01*
X122463654Y-116616325D01*
X122440998Y-116691014D01*
X122430001Y-116802667D01*
X122426324Y-116840000D01*
X122430001Y-116877332D01*
X122430000Y-118212155D01*
X122322708Y-118300208D01*
X122252500Y-118385756D01*
X122182292Y-118300208D01*
X122048664Y-118190542D01*
X121896209Y-118109053D01*
X121730785Y-118058872D01*
X121558750Y-118041928D01*
X121071250Y-118041928D01*
X120899215Y-118058872D01*
X120733791Y-118109053D01*
X120581336Y-118190542D01*
X120447708Y-118300208D01*
X120338042Y-118433836D01*
X120256553Y-118586291D01*
X120246327Y-118620000D01*
X116877322Y-118620000D01*
X116839999Y-118616324D01*
X116802676Y-118620000D01*
X116802667Y-118620000D01*
X116691014Y-118630997D01*
X116547753Y-118674454D01*
X116415724Y-118745026D01*
X116299999Y-118839999D01*
X116276201Y-118868997D01*
X115825852Y-119319346D01*
X115703456Y-119295000D01*
X115436544Y-119295000D01*
X115174761Y-119347072D01*
X114928167Y-119449215D01*
X114706238Y-119597503D01*
X114517503Y-119786238D01*
X114369215Y-120008167D01*
X114267072Y-120254761D01*
X114215000Y-120516544D01*
X114215000Y-120783456D01*
X114267072Y-121045239D01*
X114369215Y-121291833D01*
X114431466Y-121384999D01*
X112565722Y-121384999D01*
X112528399Y-121381323D01*
X112491076Y-121384999D01*
X112491066Y-121384999D01*
X112379413Y-121395996D01*
X112236152Y-121439453D01*
X112104123Y-121510025D01*
X111988398Y-121604998D01*
X111964600Y-121633996D01*
X109898597Y-123700000D01*
X108254870Y-123700000D01*
X108280812Y-123614482D01*
X108293072Y-123490000D01*
X108290000Y-123475750D01*
X108131250Y-123317000D01*
X106807000Y-123317000D01*
X106807000Y-123337000D01*
X106553000Y-123337000D01*
X106553000Y-123317000D01*
X105228750Y-123317000D01*
X105070000Y-123475750D01*
X105066928Y-123490000D01*
X105079188Y-123614482D01*
X105115498Y-123734180D01*
X105174463Y-123844494D01*
X105198730Y-123874064D01*
X105126916Y-124008418D01*
X105087653Y-124137852D01*
X104900000Y-123950199D01*
X104900000Y-121770000D01*
X105066928Y-121770000D01*
X105066928Y-122070000D01*
X105082071Y-122223745D01*
X105126916Y-122371582D01*
X105198730Y-122505936D01*
X105174463Y-122535506D01*
X105115498Y-122645820D01*
X105079188Y-122765518D01*
X105066928Y-122890000D01*
X105070000Y-122904250D01*
X105228750Y-123063000D01*
X106553000Y-123063000D01*
X106553000Y-123043000D01*
X106807000Y-123043000D01*
X106807000Y-123063000D01*
X108131250Y-123063000D01*
X108290000Y-122904250D01*
X108293072Y-122890000D01*
X108280812Y-122765518D01*
X108254870Y-122680000D01*
X108516289Y-122680000D01*
X108560226Y-122723937D01*
X108729744Y-122837205D01*
X108918102Y-122915226D01*
X109118061Y-122955000D01*
X109321939Y-122955000D01*
X109521898Y-122915226D01*
X109710256Y-122837205D01*
X109879774Y-122723937D01*
X110023937Y-122579774D01*
X110137205Y-122410256D01*
X110215226Y-122221898D01*
X110255000Y-122021939D01*
X110255000Y-121818061D01*
X110215226Y-121618102D01*
X110137205Y-121429744D01*
X110023937Y-121260226D01*
X109879774Y-121116063D01*
X109710256Y-121002795D01*
X109521898Y-120924774D01*
X109321939Y-120885000D01*
X109118061Y-120885000D01*
X108918102Y-120924774D01*
X108729744Y-121002795D01*
X108560226Y-121116063D01*
X108516289Y-121160000D01*
X107997976Y-121160000D01*
X107942829Y-121114742D01*
X107806582Y-121041916D01*
X107658745Y-120997071D01*
X107505000Y-120981928D01*
X105855000Y-120981928D01*
X105701255Y-120997071D01*
X105553418Y-121041916D01*
X105417171Y-121114742D01*
X105297749Y-121212749D01*
X105199742Y-121332171D01*
X105126916Y-121468418D01*
X105082071Y-121616255D01*
X105066928Y-121770000D01*
X104900000Y-121770000D01*
X104900000Y-115436544D01*
X105325000Y-115436544D01*
X105325000Y-115703456D01*
X105377072Y-115965239D01*
X105479215Y-116211833D01*
X105627503Y-116433762D01*
X105816238Y-116622497D01*
X106038167Y-116770785D01*
X106284761Y-116872928D01*
X106546544Y-116925000D01*
X106813456Y-116925000D01*
X107075239Y-116872928D01*
X107321833Y-116770785D01*
X107543762Y-116622497D01*
X107732497Y-116433762D01*
X107880785Y-116211833D01*
X107982928Y-115965239D01*
X108035000Y-115703456D01*
X108035000Y-115436544D01*
X107982928Y-115174761D01*
X107880785Y-114928167D01*
X107732497Y-114706238D01*
X107543762Y-114517503D01*
X107321833Y-114369215D01*
X107075239Y-114267072D01*
X106813456Y-114215000D01*
X106546544Y-114215000D01*
X106284761Y-114267072D01*
X106038167Y-114369215D01*
X105816238Y-114517503D01*
X105627503Y-114706238D01*
X105479215Y-114928167D01*
X105377072Y-115174761D01*
X105325000Y-115436544D01*
X104900000Y-115436544D01*
X104900000Y-114151828D01*
X105003762Y-114082497D01*
X105192497Y-113893762D01*
X105340785Y-113671833D01*
X105442928Y-113425239D01*
X105495000Y-113163456D01*
X105495000Y-112896544D01*
X105442928Y-112634761D01*
X105340785Y-112388167D01*
X105192497Y-112166238D01*
X105003762Y-111977503D01*
X104781833Y-111829215D01*
X104535239Y-111727072D01*
X104273456Y-111675000D01*
X104006544Y-111675000D01*
X103744761Y-111727072D01*
X103498167Y-111829215D01*
X103276238Y-111977503D01*
X103087503Y-112166238D01*
X102939215Y-112388167D01*
X102837072Y-112634761D01*
X102785000Y-112896544D01*
X102785000Y-113163456D01*
X102837072Y-113425239D01*
X102939215Y-113671833D01*
X103087503Y-113893762D01*
X103276238Y-114082497D01*
X103380000Y-114151829D01*
X103380000Y-114337332D01*
X103380001Y-114337342D01*
X103380001Y-117545199D01*
X102459887Y-116625086D01*
X102463762Y-116622497D01*
X102652497Y-116433762D01*
X102800785Y-116211833D01*
X102902928Y-115965239D01*
X102955000Y-115703456D01*
X102955000Y-115436544D01*
X102902928Y-115174761D01*
X102800785Y-114928167D01*
X102652497Y-114706238D01*
X102463762Y-114517503D01*
X102241833Y-114369215D01*
X101995239Y-114267072D01*
X101733456Y-114215000D01*
X101466544Y-114215000D01*
X101204761Y-114267072D01*
X100958167Y-114369215D01*
X100736238Y-114517503D01*
X100547503Y-114706238D01*
X100399215Y-114928167D01*
X100297072Y-115174761D01*
X100245000Y-115436544D01*
X100245000Y-115703456D01*
X100297072Y-115965239D01*
X100399215Y-116211833D01*
X100547503Y-116433762D01*
X100736238Y-116622497D01*
X100840000Y-116691829D01*
X100840000Y-116802677D01*
X100836324Y-116840000D01*
X100840000Y-116877322D01*
X100840000Y-116877332D01*
X100850997Y-116988985D01*
X100872234Y-117058995D01*
X100894454Y-117132246D01*
X100965026Y-117264276D01*
X101001648Y-117308899D01*
X101059999Y-117380001D01*
X101089003Y-117403804D01*
X102929991Y-119244793D01*
X102929991Y-121024677D01*
X102829482Y-120994188D01*
X102705000Y-120981928D01*
X102015750Y-120985000D01*
X101857000Y-121143750D01*
X101857000Y-121793000D01*
X101877000Y-121793000D01*
X101877000Y-122047000D01*
X101857000Y-122047000D01*
X101857000Y-122067000D01*
X101603000Y-122067000D01*
X101603000Y-122047000D01*
X100278750Y-122047000D01*
X100120000Y-122205750D01*
X100116928Y-122220000D01*
X100129188Y-122344482D01*
X100155130Y-122430000D01*
X96557322Y-122430000D01*
X96520000Y-122426324D01*
X96482677Y-122430000D01*
X96482667Y-122430000D01*
X96371014Y-122440997D01*
X96233374Y-122482749D01*
X96227753Y-122484454D01*
X96095723Y-122555026D01*
X96026496Y-122611840D01*
X95979999Y-122649999D01*
X95956201Y-122678997D01*
X91037942Y-127597257D01*
X91037942Y-125500130D01*
X91025682Y-125375648D01*
X90989372Y-125255950D01*
X90930407Y-125145636D01*
X90851055Y-125048945D01*
X90754364Y-124969593D01*
X90644050Y-124910628D01*
X90524352Y-124874318D01*
X90399870Y-124862058D01*
X90240253Y-124862058D01*
X90260900Y-124848262D01*
X90558262Y-124550900D01*
X90791897Y-124201240D01*
X90952828Y-123812719D01*
X91034870Y-123400266D01*
X91034870Y-122979734D01*
X90952828Y-122567281D01*
X90791897Y-122178760D01*
X90558262Y-121829100D01*
X90349162Y-121620000D01*
X100116928Y-121620000D01*
X100120000Y-121634250D01*
X100278750Y-121793000D01*
X101603000Y-121793000D01*
X101603000Y-121143750D01*
X101444250Y-120985000D01*
X100755000Y-120981928D01*
X100630518Y-120994188D01*
X100510820Y-121030498D01*
X100400506Y-121089463D01*
X100303815Y-121168815D01*
X100224463Y-121265506D01*
X100165498Y-121375820D01*
X100129188Y-121495518D01*
X100116928Y-121620000D01*
X90349162Y-121620000D01*
X90260900Y-121531738D01*
X89911240Y-121298103D01*
X89660000Y-121194036D01*
X89660000Y-118977942D01*
X90399870Y-118977942D01*
X90524352Y-118965682D01*
X90644050Y-118929372D01*
X90754364Y-118870407D01*
X90851055Y-118791055D01*
X90930407Y-118694364D01*
X90989372Y-118584050D01*
X91025682Y-118464352D01*
X91037942Y-118339870D01*
X91037942Y-115340130D01*
X91025682Y-115215648D01*
X90989372Y-115095950D01*
X90930407Y-114985636D01*
X90851055Y-114888945D01*
X90754364Y-114809593D01*
X90644050Y-114750628D01*
X90524352Y-114714318D01*
X90399870Y-114702058D01*
X90240253Y-114702058D01*
X90260900Y-114688262D01*
X90558262Y-114390900D01*
X90791897Y-114041240D01*
X90952828Y-113652719D01*
X91034870Y-113240266D01*
X91034870Y-112819734D01*
X90952828Y-112407281D01*
X90791897Y-112018760D01*
X90558262Y-111669100D01*
X90260900Y-111371738D01*
X89911240Y-111138103D01*
X89522719Y-110977172D01*
X89110266Y-110895130D01*
X88689734Y-110895130D01*
X88277281Y-110977172D01*
X87888760Y-111138103D01*
X87539100Y-111371738D01*
X87241738Y-111669100D01*
X87008103Y-112018760D01*
X86847172Y-112407281D01*
X86765130Y-112819734D01*
X86765130Y-113240266D01*
X86847172Y-113652719D01*
X87008103Y-114041240D01*
X87241738Y-114390900D01*
X87539100Y-114688262D01*
X87559747Y-114702058D01*
X87400130Y-114702058D01*
X87275648Y-114714318D01*
X87155950Y-114750628D01*
X87045636Y-114809593D01*
X86948945Y-114888945D01*
X86869593Y-114985636D01*
X86810628Y-115095950D01*
X86774318Y-115215648D01*
X86762058Y-115340130D01*
X81940000Y-115340130D01*
X81940000Y-108610000D01*
X160630000Y-108610000D01*
X160630001Y-145390000D01*
M02*
