G04 #@! TF.GenerationSoftware,KiCad,Pcbnew,(5.1.2)-2*
G04 #@! TF.CreationDate,2019-11-18T15:02:21-05:00*
G04 #@! TF.ProjectId,Lab_Sensing,4c61625f-5365-46e7-9369-6e672e6b6963,rev?*
G04 #@! TF.SameCoordinates,Original*
G04 #@! TF.FileFunction,Copper,L2,Bot*
G04 #@! TF.FilePolarity,Positive*
%FSLAX46Y46*%
G04 Gerber Fmt 4.6, Leading zero omitted, Abs format (unit mm)*
G04 Created by KiCad (PCBNEW (5.1.2)-2) date 2019-11-18 15:02:21*
%MOMM*%
%LPD*%
G04 APERTURE LIST*
%ADD10C,2.400000*%
%ADD11O,2.400000X2.400000*%
%ADD12C,1.600000*%
%ADD13O,1.600000X1.600000*%
%ADD14C,2.999740*%
%ADD15R,2.999740X2.999740*%
%ADD16C,1.440000*%
%ADD17R,2.400000X2.400000*%
%ADD18R,1.700000X1.700000*%
%ADD19O,1.700000X1.700000*%
%ADD20C,0.800000*%
%ADD21C,0.250000*%
%ADD22C,0.254000*%
G04 APERTURE END LIST*
D10*
X151130000Y-142240000D03*
D11*
X151130000Y-121920000D03*
D12*
X119380000Y-144780000D03*
D13*
X111760000Y-144780000D03*
D14*
X88900000Y-123190000D03*
D15*
X88900000Y-127000000D03*
D12*
X140970000Y-116840000D03*
D13*
X133350000Y-116840000D03*
X111760000Y-140970000D03*
D12*
X119380000Y-140970000D03*
X130810000Y-140970000D03*
D13*
X123190000Y-140970000D03*
D12*
X119380000Y-137160000D03*
D13*
X111760000Y-137160000D03*
D16*
X106680000Y-132080000D03*
X104140000Y-134620000D03*
X101600000Y-132080000D03*
X106680000Y-115570000D03*
X104140000Y-113030000D03*
X101600000Y-115570000D03*
D14*
X88900000Y-113030000D03*
D15*
X88900000Y-116840000D03*
D17*
X144780000Y-121700000D03*
D11*
X144780000Y-139700000D03*
D18*
X156210000Y-129540000D03*
X134620000Y-140970000D03*
X88900000Y-133350000D03*
D19*
X88900000Y-135890000D03*
X88900000Y-138430000D03*
X88900000Y-140970000D03*
D13*
X156210000Y-125730000D03*
D12*
X156210000Y-118110000D03*
D13*
X152400000Y-118110000D03*
D12*
X144780000Y-118110000D03*
D13*
X123190000Y-137160000D03*
D12*
X130810000Y-137160000D03*
D16*
X115570000Y-120650000D03*
X118110000Y-123190000D03*
X115570000Y-125730000D03*
D20*
X99060000Y-124460000D03*
X142240000Y-119380000D03*
X99060000Y-142240000D03*
X109220000Y-121920000D03*
X134685000Y-125665000D03*
X106615000Y-137225000D03*
X124460000Y-115570000D03*
X128270000Y-124460000D03*
D21*
X96520000Y-127000000D02*
X99060000Y-124460000D01*
X99060000Y-141674315D02*
X99060000Y-142240000D01*
X99060000Y-138909870D02*
X99060000Y-141674315D01*
X88900000Y-128749870D02*
X99060000Y-138909870D01*
X88900000Y-127000000D02*
X88900000Y-128749870D01*
X96520000Y-127000000D02*
X88900000Y-127000000D01*
X99625685Y-142240000D02*
X99060000Y-142240000D01*
X102673002Y-142240000D02*
X99625685Y-142240000D01*
X127395002Y-142240000D02*
X99060000Y-142240000D01*
X142240000Y-119380000D02*
X142240000Y-127395002D01*
X142240000Y-127395002D02*
X127395002Y-142240000D01*
X109220000Y-121920000D02*
X106680000Y-121920000D01*
X106680000Y-121920000D02*
X105410000Y-120650000D01*
X96520000Y-120650000D02*
X88900000Y-113030000D01*
X105410000Y-120650000D02*
X96520000Y-120650000D01*
X107014999Y-136825001D02*
X106615000Y-137225000D01*
X109220000Y-134620000D02*
X107014999Y-136825001D01*
X109220000Y-121920000D02*
X109220000Y-134620000D01*
X109220000Y-121354315D02*
X109220000Y-121920000D01*
X130940000Y-121920000D02*
X109220000Y-121920000D01*
X124460000Y-115570000D02*
X124460000Y-118110000D01*
X124460000Y-118110000D02*
X140970000Y-118110000D01*
X140970000Y-118110000D02*
X142240000Y-119380000D01*
X129605000Y-123125000D02*
X128270000Y-124460000D01*
X132145000Y-123125000D02*
X129605000Y-123125000D01*
X132145000Y-123125000D02*
X130940000Y-121920000D01*
X134685000Y-125665000D02*
X132145000Y-123125000D01*
D22*
G36*
X160630001Y-145390000D02*
G01*
X120680562Y-145390000D01*
X120759853Y-145198574D01*
X120815000Y-144921335D01*
X120815000Y-144638665D01*
X120759853Y-144361426D01*
X120651680Y-144100273D01*
X120494637Y-143865241D01*
X120294759Y-143665363D01*
X120059727Y-143508320D01*
X119798574Y-143400147D01*
X119521335Y-143345000D01*
X119238665Y-143345000D01*
X118961426Y-143400147D01*
X118700273Y-143508320D01*
X118465241Y-143665363D01*
X118265363Y-143865241D01*
X118108320Y-144100273D01*
X118000147Y-144361426D01*
X117945000Y-144638665D01*
X117945000Y-144921335D01*
X118000147Y-145198574D01*
X118079438Y-145390000D01*
X113051261Y-145390000D01*
X113111246Y-145263087D01*
X113151904Y-145129039D01*
X113029915Y-144907000D01*
X111887000Y-144907000D01*
X111887000Y-144927000D01*
X111633000Y-144927000D01*
X111633000Y-144907000D01*
X110490085Y-144907000D01*
X110368096Y-145129039D01*
X110408754Y-145263087D01*
X110468739Y-145390000D01*
X81940000Y-145390000D01*
X81940000Y-144430961D01*
X110368096Y-144430961D01*
X110490085Y-144653000D01*
X111633000Y-144653000D01*
X111633000Y-143509376D01*
X111887000Y-143509376D01*
X111887000Y-144653000D01*
X113029915Y-144653000D01*
X113151904Y-144430961D01*
X113111246Y-144296913D01*
X112991037Y-144042580D01*
X112823519Y-143816586D01*
X112615131Y-143627615D01*
X112373881Y-143482930D01*
X112109040Y-143388091D01*
X111887000Y-143509376D01*
X111633000Y-143509376D01*
X111410960Y-143388091D01*
X111146119Y-143482930D01*
X110904869Y-143627615D01*
X110696481Y-143816586D01*
X110528963Y-144042580D01*
X110408754Y-144296913D01*
X110368096Y-144430961D01*
X81940000Y-144430961D01*
X81940000Y-140970000D01*
X87407815Y-140970000D01*
X87436487Y-141261111D01*
X87521401Y-141541034D01*
X87659294Y-141799014D01*
X87844866Y-142025134D01*
X88070986Y-142210706D01*
X88328966Y-142348599D01*
X88608889Y-142433513D01*
X88827050Y-142455000D01*
X88972950Y-142455000D01*
X89191111Y-142433513D01*
X89471034Y-142348599D01*
X89729014Y-142210706D01*
X89955134Y-142025134D01*
X90140706Y-141799014D01*
X90278599Y-141541034D01*
X90363513Y-141261111D01*
X90392185Y-140970000D01*
X90363513Y-140678889D01*
X90278599Y-140398966D01*
X90140706Y-140140986D01*
X89955134Y-139914866D01*
X89729014Y-139729294D01*
X89664477Y-139694799D01*
X89781355Y-139625178D01*
X89997588Y-139430269D01*
X90171641Y-139196920D01*
X90296825Y-138934099D01*
X90341476Y-138786890D01*
X90220155Y-138557000D01*
X89027000Y-138557000D01*
X89027000Y-138577000D01*
X88773000Y-138577000D01*
X88773000Y-138557000D01*
X87579845Y-138557000D01*
X87458524Y-138786890D01*
X87503175Y-138934099D01*
X87628359Y-139196920D01*
X87802412Y-139430269D01*
X88018645Y-139625178D01*
X88135523Y-139694799D01*
X88070986Y-139729294D01*
X87844866Y-139914866D01*
X87659294Y-140140986D01*
X87521401Y-140398966D01*
X87436487Y-140678889D01*
X87407815Y-140970000D01*
X81940000Y-140970000D01*
X81940000Y-135890000D01*
X87407815Y-135890000D01*
X87436487Y-136181111D01*
X87521401Y-136461034D01*
X87659294Y-136719014D01*
X87844866Y-136945134D01*
X88070986Y-137130706D01*
X88135523Y-137165201D01*
X88018645Y-137234822D01*
X87802412Y-137429731D01*
X87628359Y-137663080D01*
X87503175Y-137925901D01*
X87458524Y-138073110D01*
X87579845Y-138303000D01*
X88773000Y-138303000D01*
X88773000Y-138283000D01*
X89027000Y-138283000D01*
X89027000Y-138303000D01*
X90220155Y-138303000D01*
X90341476Y-138073110D01*
X90296825Y-137925901D01*
X90171641Y-137663080D01*
X89997588Y-137429731D01*
X89781355Y-137234822D01*
X89664477Y-137165201D01*
X89729014Y-137130706D01*
X89955134Y-136945134D01*
X90140706Y-136719014D01*
X90278599Y-136461034D01*
X90363513Y-136181111D01*
X90392185Y-135890000D01*
X90363513Y-135598889D01*
X90278599Y-135318966D01*
X90140706Y-135060986D01*
X89955134Y-134834866D01*
X89925313Y-134810393D01*
X89994180Y-134789502D01*
X90104494Y-134730537D01*
X90201185Y-134651185D01*
X90280537Y-134554494D01*
X90339502Y-134444180D01*
X90375812Y-134324482D01*
X90388072Y-134200000D01*
X90385000Y-133635750D01*
X90226250Y-133477000D01*
X89027000Y-133477000D01*
X89027000Y-133497000D01*
X88773000Y-133497000D01*
X88773000Y-133477000D01*
X87573750Y-133477000D01*
X87415000Y-133635750D01*
X87411928Y-134200000D01*
X87424188Y-134324482D01*
X87460498Y-134444180D01*
X87519463Y-134554494D01*
X87598815Y-134651185D01*
X87695506Y-134730537D01*
X87805820Y-134789502D01*
X87874687Y-134810393D01*
X87844866Y-134834866D01*
X87659294Y-135060986D01*
X87521401Y-135318966D01*
X87436487Y-135598889D01*
X87407815Y-135890000D01*
X81940000Y-135890000D01*
X81940000Y-132500000D01*
X87411928Y-132500000D01*
X87415000Y-133064250D01*
X87573750Y-133223000D01*
X88773000Y-133223000D01*
X88773000Y-132023750D01*
X89027000Y-132023750D01*
X89027000Y-133223000D01*
X90226250Y-133223000D01*
X90385000Y-133064250D01*
X90388072Y-132500000D01*
X90375812Y-132375518D01*
X90339502Y-132255820D01*
X90280537Y-132145506D01*
X90201185Y-132048815D01*
X90104494Y-131969463D01*
X89994180Y-131910498D01*
X89874482Y-131874188D01*
X89750000Y-131861928D01*
X89185750Y-131865000D01*
X89027000Y-132023750D01*
X88773000Y-132023750D01*
X88614250Y-131865000D01*
X88050000Y-131861928D01*
X87925518Y-131874188D01*
X87805820Y-131910498D01*
X87695506Y-131969463D01*
X87598815Y-132048815D01*
X87519463Y-132145506D01*
X87460498Y-132255820D01*
X87424188Y-132375518D01*
X87411928Y-132500000D01*
X81940000Y-132500000D01*
X81940000Y-125500130D01*
X86762058Y-125500130D01*
X86762058Y-128499870D01*
X86774318Y-128624352D01*
X86810628Y-128744050D01*
X86869593Y-128854364D01*
X86948945Y-128951055D01*
X87045636Y-129030407D01*
X87155950Y-129089372D01*
X87275648Y-129125682D01*
X87400130Y-129137942D01*
X88245674Y-129137942D01*
X88265026Y-129174146D01*
X88336201Y-129260872D01*
X88360000Y-129289871D01*
X88388998Y-129313669D01*
X98300000Y-139224672D01*
X98300001Y-141536288D01*
X98256063Y-141580226D01*
X98142795Y-141749744D01*
X98064774Y-141938102D01*
X98025000Y-142138061D01*
X98025000Y-142341939D01*
X98064774Y-142541898D01*
X98142795Y-142730256D01*
X98256063Y-142899774D01*
X98400226Y-143043937D01*
X98569744Y-143157205D01*
X98758102Y-143235226D01*
X98958061Y-143275000D01*
X99161939Y-143275000D01*
X99361898Y-143235226D01*
X99550256Y-143157205D01*
X99719774Y-143043937D01*
X99763711Y-143000000D01*
X127357680Y-143000000D01*
X127395002Y-143003676D01*
X127432324Y-143000000D01*
X127432335Y-143000000D01*
X127543988Y-142989003D01*
X127687249Y-142945546D01*
X127819278Y-142874974D01*
X127935003Y-142780001D01*
X127958806Y-142750997D01*
X129412076Y-141297727D01*
X129430147Y-141388574D01*
X129538320Y-141649727D01*
X129695363Y-141884759D01*
X129895241Y-142084637D01*
X130130273Y-142241680D01*
X130391426Y-142349853D01*
X130668665Y-142405000D01*
X130951335Y-142405000D01*
X131228574Y-142349853D01*
X131489727Y-142241680D01*
X131724759Y-142084637D01*
X131924637Y-141884759D01*
X132081680Y-141649727D01*
X132189853Y-141388574D01*
X132245000Y-141111335D01*
X132245000Y-140828665D01*
X132189853Y-140551426D01*
X132081680Y-140290273D01*
X131967908Y-140120000D01*
X133131928Y-140120000D01*
X133131928Y-141820000D01*
X133144188Y-141944482D01*
X133180498Y-142064180D01*
X133239463Y-142174494D01*
X133318815Y-142271185D01*
X133415506Y-142350537D01*
X133525820Y-142409502D01*
X133645518Y-142445812D01*
X133770000Y-142458072D01*
X135470000Y-142458072D01*
X135594482Y-142445812D01*
X135714180Y-142409502D01*
X135824494Y-142350537D01*
X135921185Y-142271185D01*
X136000537Y-142174494D01*
X136059502Y-142064180D01*
X136060992Y-142059268D01*
X149295000Y-142059268D01*
X149295000Y-142420732D01*
X149365518Y-142775250D01*
X149503844Y-143109199D01*
X149704662Y-143409744D01*
X149960256Y-143665338D01*
X150260801Y-143866156D01*
X150594750Y-144004482D01*
X150949268Y-144075000D01*
X151310732Y-144075000D01*
X151665250Y-144004482D01*
X151999199Y-143866156D01*
X152299744Y-143665338D01*
X152555338Y-143409744D01*
X152756156Y-143109199D01*
X152894482Y-142775250D01*
X152965000Y-142420732D01*
X152965000Y-142059268D01*
X152894482Y-141704750D01*
X152756156Y-141370801D01*
X152555338Y-141070256D01*
X152299744Y-140814662D01*
X151999199Y-140613844D01*
X151665250Y-140475518D01*
X151310732Y-140405000D01*
X150949268Y-140405000D01*
X150594750Y-140475518D01*
X150260801Y-140613844D01*
X149960256Y-140814662D01*
X149704662Y-141070256D01*
X149503844Y-141370801D01*
X149365518Y-141704750D01*
X149295000Y-142059268D01*
X136060992Y-142059268D01*
X136095812Y-141944482D01*
X136108072Y-141820000D01*
X136108072Y-140120000D01*
X136095812Y-139995518D01*
X136059502Y-139875820D01*
X136000537Y-139765506D01*
X135946778Y-139700000D01*
X142936122Y-139700000D01*
X142971552Y-140059723D01*
X143076479Y-140405622D01*
X143246871Y-140724404D01*
X143476181Y-141003819D01*
X143755596Y-141233129D01*
X144074378Y-141403521D01*
X144420277Y-141508448D01*
X144689861Y-141535000D01*
X144870139Y-141535000D01*
X145139723Y-141508448D01*
X145485622Y-141403521D01*
X145804404Y-141233129D01*
X146083819Y-141003819D01*
X146313129Y-140724404D01*
X146483521Y-140405622D01*
X146588448Y-140059723D01*
X146623878Y-139700000D01*
X146588448Y-139340277D01*
X146483521Y-138994378D01*
X146313129Y-138675596D01*
X146083819Y-138396181D01*
X145804404Y-138166871D01*
X145485622Y-137996479D01*
X145139723Y-137891552D01*
X144870139Y-137865000D01*
X144689861Y-137865000D01*
X144420277Y-137891552D01*
X144074378Y-137996479D01*
X143755596Y-138166871D01*
X143476181Y-138396181D01*
X143246871Y-138675596D01*
X143076479Y-138994378D01*
X142971552Y-139340277D01*
X142936122Y-139700000D01*
X135946778Y-139700000D01*
X135921185Y-139668815D01*
X135824494Y-139589463D01*
X135714180Y-139530498D01*
X135594482Y-139494188D01*
X135470000Y-139481928D01*
X133770000Y-139481928D01*
X133645518Y-139494188D01*
X133525820Y-139530498D01*
X133415506Y-139589463D01*
X133318815Y-139668815D01*
X133239463Y-139765506D01*
X133180498Y-139875820D01*
X133144188Y-139995518D01*
X133131928Y-140120000D01*
X131967908Y-140120000D01*
X131924637Y-140055241D01*
X131724759Y-139855363D01*
X131489727Y-139698320D01*
X131228574Y-139590147D01*
X131137727Y-139572076D01*
X142019803Y-128690000D01*
X154721928Y-128690000D01*
X154721928Y-130390000D01*
X154734188Y-130514482D01*
X154770498Y-130634180D01*
X154829463Y-130744494D01*
X154908815Y-130841185D01*
X155005506Y-130920537D01*
X155115820Y-130979502D01*
X155235518Y-131015812D01*
X155360000Y-131028072D01*
X157060000Y-131028072D01*
X157184482Y-131015812D01*
X157304180Y-130979502D01*
X157414494Y-130920537D01*
X157511185Y-130841185D01*
X157590537Y-130744494D01*
X157649502Y-130634180D01*
X157685812Y-130514482D01*
X157698072Y-130390000D01*
X157698072Y-128690000D01*
X157685812Y-128565518D01*
X157649502Y-128445820D01*
X157590537Y-128335506D01*
X157511185Y-128238815D01*
X157414494Y-128159463D01*
X157304180Y-128100498D01*
X157184482Y-128064188D01*
X157060000Y-128051928D01*
X155360000Y-128051928D01*
X155235518Y-128064188D01*
X155115820Y-128100498D01*
X155005506Y-128159463D01*
X154908815Y-128238815D01*
X154829463Y-128335506D01*
X154770498Y-128445820D01*
X154734188Y-128565518D01*
X154721928Y-128690000D01*
X142019803Y-128690000D01*
X142751003Y-127958801D01*
X142780001Y-127935003D01*
X142874974Y-127819278D01*
X142945546Y-127687249D01*
X142989003Y-127543988D01*
X143000000Y-127432335D01*
X143003677Y-127395002D01*
X143000000Y-127357669D01*
X143000000Y-125730000D01*
X154768057Y-125730000D01*
X154795764Y-126011309D01*
X154877818Y-126281808D01*
X155011068Y-126531101D01*
X155190392Y-126749608D01*
X155408899Y-126928932D01*
X155658192Y-127062182D01*
X155928691Y-127144236D01*
X156139508Y-127165000D01*
X156280492Y-127165000D01*
X156491309Y-127144236D01*
X156761808Y-127062182D01*
X157011101Y-126928932D01*
X157229608Y-126749608D01*
X157408932Y-126531101D01*
X157542182Y-126281808D01*
X157624236Y-126011309D01*
X157651943Y-125730000D01*
X157624236Y-125448691D01*
X157542182Y-125178192D01*
X157408932Y-124928899D01*
X157229608Y-124710392D01*
X157011101Y-124531068D01*
X156761808Y-124397818D01*
X156491309Y-124315764D01*
X156280492Y-124295000D01*
X156139508Y-124295000D01*
X155928691Y-124315764D01*
X155658192Y-124397818D01*
X155408899Y-124531068D01*
X155190392Y-124710392D01*
X155011068Y-124928899D01*
X154877818Y-125178192D01*
X154795764Y-125448691D01*
X154768057Y-125730000D01*
X143000000Y-125730000D01*
X143000000Y-123161957D01*
X143049463Y-123254494D01*
X143128815Y-123351185D01*
X143225506Y-123430537D01*
X143335820Y-123489502D01*
X143455518Y-123525812D01*
X143580000Y-123538072D01*
X145980000Y-123538072D01*
X146104482Y-123525812D01*
X146224180Y-123489502D01*
X146334494Y-123430537D01*
X146431185Y-123351185D01*
X146510537Y-123254494D01*
X146569502Y-123144180D01*
X146605812Y-123024482D01*
X146618072Y-122900000D01*
X146618072Y-121920000D01*
X149286122Y-121920000D01*
X149321552Y-122279723D01*
X149426479Y-122625622D01*
X149596871Y-122944404D01*
X149826181Y-123223819D01*
X150105596Y-123453129D01*
X150424378Y-123623521D01*
X150770277Y-123728448D01*
X151039861Y-123755000D01*
X151220139Y-123755000D01*
X151489723Y-123728448D01*
X151835622Y-123623521D01*
X152154404Y-123453129D01*
X152433819Y-123223819D01*
X152663129Y-122944404D01*
X152833521Y-122625622D01*
X152938448Y-122279723D01*
X152973878Y-121920000D01*
X152938448Y-121560277D01*
X152833521Y-121214378D01*
X152663129Y-120895596D01*
X152433819Y-120616181D01*
X152154404Y-120386871D01*
X151835622Y-120216479D01*
X151489723Y-120111552D01*
X151220139Y-120085000D01*
X151039861Y-120085000D01*
X150770277Y-120111552D01*
X150424378Y-120216479D01*
X150105596Y-120386871D01*
X149826181Y-120616181D01*
X149596871Y-120895596D01*
X149426479Y-121214378D01*
X149321552Y-121560277D01*
X149286122Y-121920000D01*
X146618072Y-121920000D01*
X146618072Y-120500000D01*
X146605812Y-120375518D01*
X146569502Y-120255820D01*
X146510537Y-120145506D01*
X146431185Y-120048815D01*
X146334494Y-119969463D01*
X146224180Y-119910498D01*
X146104482Y-119874188D01*
X145980000Y-119861928D01*
X143580000Y-119861928D01*
X143455518Y-119874188D01*
X143335820Y-119910498D01*
X143225506Y-119969463D01*
X143128815Y-120048815D01*
X143049463Y-120145506D01*
X143000000Y-120238043D01*
X143000000Y-120083711D01*
X143043937Y-120039774D01*
X143157205Y-119870256D01*
X143235226Y-119681898D01*
X143275000Y-119481939D01*
X143275000Y-119278061D01*
X143235226Y-119078102D01*
X143157205Y-118889744D01*
X143043937Y-118720226D01*
X142899774Y-118576063D01*
X142730256Y-118462795D01*
X142541898Y-118384774D01*
X142341939Y-118345000D01*
X142279802Y-118345000D01*
X141903467Y-117968665D01*
X143345000Y-117968665D01*
X143345000Y-118251335D01*
X143400147Y-118528574D01*
X143508320Y-118789727D01*
X143665363Y-119024759D01*
X143865241Y-119224637D01*
X144100273Y-119381680D01*
X144361426Y-119489853D01*
X144638665Y-119545000D01*
X144921335Y-119545000D01*
X145198574Y-119489853D01*
X145459727Y-119381680D01*
X145694759Y-119224637D01*
X145894637Y-119024759D01*
X146051680Y-118789727D01*
X146159853Y-118528574D01*
X146215000Y-118251335D01*
X146215000Y-118110000D01*
X150958057Y-118110000D01*
X150985764Y-118391309D01*
X151067818Y-118661808D01*
X151201068Y-118911101D01*
X151380392Y-119129608D01*
X151598899Y-119308932D01*
X151848192Y-119442182D01*
X152118691Y-119524236D01*
X152329508Y-119545000D01*
X152470492Y-119545000D01*
X152681309Y-119524236D01*
X152951808Y-119442182D01*
X153201101Y-119308932D01*
X153419608Y-119129608D01*
X153598932Y-118911101D01*
X153732182Y-118661808D01*
X153814236Y-118391309D01*
X153841943Y-118110000D01*
X153828023Y-117968665D01*
X154775000Y-117968665D01*
X154775000Y-118251335D01*
X154830147Y-118528574D01*
X154938320Y-118789727D01*
X155095363Y-119024759D01*
X155295241Y-119224637D01*
X155530273Y-119381680D01*
X155791426Y-119489853D01*
X156068665Y-119545000D01*
X156351335Y-119545000D01*
X156628574Y-119489853D01*
X156889727Y-119381680D01*
X157124759Y-119224637D01*
X157324637Y-119024759D01*
X157481680Y-118789727D01*
X157589853Y-118528574D01*
X157645000Y-118251335D01*
X157645000Y-117968665D01*
X157589853Y-117691426D01*
X157481680Y-117430273D01*
X157324637Y-117195241D01*
X157124759Y-116995363D01*
X156889727Y-116838320D01*
X156628574Y-116730147D01*
X156351335Y-116675000D01*
X156068665Y-116675000D01*
X155791426Y-116730147D01*
X155530273Y-116838320D01*
X155295241Y-116995363D01*
X155095363Y-117195241D01*
X154938320Y-117430273D01*
X154830147Y-117691426D01*
X154775000Y-117968665D01*
X153828023Y-117968665D01*
X153814236Y-117828691D01*
X153732182Y-117558192D01*
X153598932Y-117308899D01*
X153419608Y-117090392D01*
X153201101Y-116911068D01*
X152951808Y-116777818D01*
X152681309Y-116695764D01*
X152470492Y-116675000D01*
X152329508Y-116675000D01*
X152118691Y-116695764D01*
X151848192Y-116777818D01*
X151598899Y-116911068D01*
X151380392Y-117090392D01*
X151201068Y-117308899D01*
X151067818Y-117558192D01*
X150985764Y-117828691D01*
X150958057Y-118110000D01*
X146215000Y-118110000D01*
X146215000Y-117968665D01*
X146159853Y-117691426D01*
X146051680Y-117430273D01*
X145894637Y-117195241D01*
X145694759Y-116995363D01*
X145459727Y-116838320D01*
X145198574Y-116730147D01*
X144921335Y-116675000D01*
X144638665Y-116675000D01*
X144361426Y-116730147D01*
X144100273Y-116838320D01*
X143865241Y-116995363D01*
X143665363Y-117195241D01*
X143508320Y-117430273D01*
X143400147Y-117691426D01*
X143345000Y-117968665D01*
X141903467Y-117968665D01*
X141887099Y-117952297D01*
X142084637Y-117754759D01*
X142241680Y-117519727D01*
X142349853Y-117258574D01*
X142405000Y-116981335D01*
X142405000Y-116698665D01*
X142349853Y-116421426D01*
X142241680Y-116160273D01*
X142084637Y-115925241D01*
X141884759Y-115725363D01*
X141649727Y-115568320D01*
X141388574Y-115460147D01*
X141111335Y-115405000D01*
X140828665Y-115405000D01*
X140551426Y-115460147D01*
X140290273Y-115568320D01*
X140055241Y-115725363D01*
X139855363Y-115925241D01*
X139698320Y-116160273D01*
X139590147Y-116421426D01*
X139535000Y-116698665D01*
X139535000Y-116981335D01*
X139590147Y-117258574D01*
X139628017Y-117350000D01*
X134688526Y-117350000D01*
X134701246Y-117323087D01*
X134741904Y-117189039D01*
X134619915Y-116967000D01*
X133477000Y-116967000D01*
X133477000Y-116987000D01*
X133223000Y-116987000D01*
X133223000Y-116967000D01*
X132080085Y-116967000D01*
X131958096Y-117189039D01*
X131998754Y-117323087D01*
X132011474Y-117350000D01*
X125220000Y-117350000D01*
X125220000Y-116490961D01*
X131958096Y-116490961D01*
X132080085Y-116713000D01*
X133223000Y-116713000D01*
X133223000Y-115569376D01*
X133477000Y-115569376D01*
X133477000Y-116713000D01*
X134619915Y-116713000D01*
X134741904Y-116490961D01*
X134701246Y-116356913D01*
X134581037Y-116102580D01*
X134413519Y-115876586D01*
X134205131Y-115687615D01*
X133963881Y-115542930D01*
X133699040Y-115448091D01*
X133477000Y-115569376D01*
X133223000Y-115569376D01*
X133000960Y-115448091D01*
X132736119Y-115542930D01*
X132494869Y-115687615D01*
X132286481Y-115876586D01*
X132118963Y-116102580D01*
X131998754Y-116356913D01*
X131958096Y-116490961D01*
X125220000Y-116490961D01*
X125220000Y-116273711D01*
X125263937Y-116229774D01*
X125377205Y-116060256D01*
X125455226Y-115871898D01*
X125495000Y-115671939D01*
X125495000Y-115468061D01*
X125455226Y-115268102D01*
X125377205Y-115079744D01*
X125263937Y-114910226D01*
X125119774Y-114766063D01*
X124950256Y-114652795D01*
X124761898Y-114574774D01*
X124561939Y-114535000D01*
X124358061Y-114535000D01*
X124158102Y-114574774D01*
X123969744Y-114652795D01*
X123800226Y-114766063D01*
X123656063Y-114910226D01*
X123542795Y-115079744D01*
X123464774Y-115268102D01*
X123425000Y-115468061D01*
X123425000Y-115671939D01*
X123464774Y-115871898D01*
X123542795Y-116060256D01*
X123656063Y-116229774D01*
X123700000Y-116273711D01*
X123700001Y-118072657D01*
X123696323Y-118110000D01*
X123710997Y-118258986D01*
X123754454Y-118402247D01*
X123825026Y-118534276D01*
X123919999Y-118650001D01*
X124035724Y-118744974D01*
X124167753Y-118815546D01*
X124311014Y-118859003D01*
X124422667Y-118870000D01*
X124460000Y-118873677D01*
X124497333Y-118870000D01*
X140655199Y-118870000D01*
X141205000Y-119419802D01*
X141205000Y-119481939D01*
X141244774Y-119681898D01*
X141322795Y-119870256D01*
X141436063Y-120039774D01*
X141480000Y-120083711D01*
X141480001Y-127080199D01*
X132080978Y-136479223D01*
X131924637Y-136245241D01*
X131724759Y-136045363D01*
X131489727Y-135888320D01*
X131228574Y-135780147D01*
X130951335Y-135725000D01*
X130668665Y-135725000D01*
X130391426Y-135780147D01*
X130130273Y-135888320D01*
X129895241Y-136045363D01*
X129695363Y-136245241D01*
X129538320Y-136480273D01*
X129430147Y-136741426D01*
X129375000Y-137018665D01*
X129375000Y-137301335D01*
X129430147Y-137578574D01*
X129538320Y-137839727D01*
X129695363Y-138074759D01*
X129895241Y-138274637D01*
X130129223Y-138430978D01*
X127080201Y-141480000D01*
X124534864Y-141480000D01*
X124604236Y-141251309D01*
X124631943Y-140970000D01*
X124604236Y-140688691D01*
X124522182Y-140418192D01*
X124388932Y-140168899D01*
X124209608Y-139950392D01*
X123991101Y-139771068D01*
X123741808Y-139637818D01*
X123471309Y-139555764D01*
X123260492Y-139535000D01*
X123119508Y-139535000D01*
X122908691Y-139555764D01*
X122638192Y-139637818D01*
X122388899Y-139771068D01*
X122170392Y-139950392D01*
X121991068Y-140168899D01*
X121857818Y-140418192D01*
X121775764Y-140688691D01*
X121748057Y-140970000D01*
X121775764Y-141251309D01*
X121845136Y-141480000D01*
X120721983Y-141480000D01*
X120759853Y-141388574D01*
X120815000Y-141111335D01*
X120815000Y-140828665D01*
X120759853Y-140551426D01*
X120651680Y-140290273D01*
X120494637Y-140055241D01*
X120294759Y-139855363D01*
X120059727Y-139698320D01*
X119798574Y-139590147D01*
X119521335Y-139535000D01*
X119238665Y-139535000D01*
X118961426Y-139590147D01*
X118700273Y-139698320D01*
X118465241Y-139855363D01*
X118265363Y-140055241D01*
X118108320Y-140290273D01*
X118000147Y-140551426D01*
X117945000Y-140828665D01*
X117945000Y-141111335D01*
X118000147Y-141388574D01*
X118038017Y-141480000D01*
X113098526Y-141480000D01*
X113111246Y-141453087D01*
X113151904Y-141319039D01*
X113029915Y-141097000D01*
X111887000Y-141097000D01*
X111887000Y-141117000D01*
X111633000Y-141117000D01*
X111633000Y-141097000D01*
X110490085Y-141097000D01*
X110368096Y-141319039D01*
X110408754Y-141453087D01*
X110421474Y-141480000D01*
X99820000Y-141480000D01*
X99820000Y-140620961D01*
X110368096Y-140620961D01*
X110490085Y-140843000D01*
X111633000Y-140843000D01*
X111633000Y-139699376D01*
X111887000Y-139699376D01*
X111887000Y-140843000D01*
X113029915Y-140843000D01*
X113151904Y-140620961D01*
X113111246Y-140486913D01*
X112991037Y-140232580D01*
X112823519Y-140006586D01*
X112615131Y-139817615D01*
X112373881Y-139672930D01*
X112109040Y-139578091D01*
X111887000Y-139699376D01*
X111633000Y-139699376D01*
X111410960Y-139578091D01*
X111146119Y-139672930D01*
X110904869Y-139817615D01*
X110696481Y-140006586D01*
X110528963Y-140232580D01*
X110408754Y-140486913D01*
X110368096Y-140620961D01*
X99820000Y-140620961D01*
X99820000Y-138947195D01*
X99823676Y-138909870D01*
X99820000Y-138872545D01*
X99820000Y-138872537D01*
X99809003Y-138760884D01*
X99765546Y-138617623D01*
X99694974Y-138485594D01*
X99600001Y-138369869D01*
X99571004Y-138346072D01*
X95711476Y-134486544D01*
X102785000Y-134486544D01*
X102785000Y-134753456D01*
X102837072Y-135015239D01*
X102939215Y-135261833D01*
X103087503Y-135483762D01*
X103276238Y-135672497D01*
X103498167Y-135820785D01*
X103744761Y-135922928D01*
X104006544Y-135975000D01*
X104273456Y-135975000D01*
X104535239Y-135922928D01*
X104781833Y-135820785D01*
X105003762Y-135672497D01*
X105192497Y-135483762D01*
X105340785Y-135261833D01*
X105442928Y-135015239D01*
X105495000Y-134753456D01*
X105495000Y-134486544D01*
X105442928Y-134224761D01*
X105340785Y-133978167D01*
X105192497Y-133756238D01*
X105003762Y-133567503D01*
X104781833Y-133419215D01*
X104535239Y-133317072D01*
X104273456Y-133265000D01*
X104006544Y-133265000D01*
X103744761Y-133317072D01*
X103498167Y-133419215D01*
X103276238Y-133567503D01*
X103087503Y-133756238D01*
X102939215Y-133978167D01*
X102837072Y-134224761D01*
X102785000Y-134486544D01*
X95711476Y-134486544D01*
X93171476Y-131946544D01*
X100245000Y-131946544D01*
X100245000Y-132213456D01*
X100297072Y-132475239D01*
X100399215Y-132721833D01*
X100547503Y-132943762D01*
X100736238Y-133132497D01*
X100958167Y-133280785D01*
X101204761Y-133382928D01*
X101466544Y-133435000D01*
X101733456Y-133435000D01*
X101995239Y-133382928D01*
X102241833Y-133280785D01*
X102463762Y-133132497D01*
X102652497Y-132943762D01*
X102800785Y-132721833D01*
X102902928Y-132475239D01*
X102955000Y-132213456D01*
X102955000Y-131946544D01*
X105325000Y-131946544D01*
X105325000Y-132213456D01*
X105377072Y-132475239D01*
X105479215Y-132721833D01*
X105627503Y-132943762D01*
X105816238Y-133132497D01*
X106038167Y-133280785D01*
X106284761Y-133382928D01*
X106546544Y-133435000D01*
X106813456Y-133435000D01*
X107075239Y-133382928D01*
X107321833Y-133280785D01*
X107543762Y-133132497D01*
X107732497Y-132943762D01*
X107880785Y-132721833D01*
X107982928Y-132475239D01*
X108035000Y-132213456D01*
X108035000Y-131946544D01*
X107982928Y-131684761D01*
X107880785Y-131438167D01*
X107732497Y-131216238D01*
X107543762Y-131027503D01*
X107321833Y-130879215D01*
X107075239Y-130777072D01*
X106813456Y-130725000D01*
X106546544Y-130725000D01*
X106284761Y-130777072D01*
X106038167Y-130879215D01*
X105816238Y-131027503D01*
X105627503Y-131216238D01*
X105479215Y-131438167D01*
X105377072Y-131684761D01*
X105325000Y-131946544D01*
X102955000Y-131946544D01*
X102902928Y-131684761D01*
X102800785Y-131438167D01*
X102652497Y-131216238D01*
X102463762Y-131027503D01*
X102241833Y-130879215D01*
X101995239Y-130777072D01*
X101733456Y-130725000D01*
X101466544Y-130725000D01*
X101204761Y-130777072D01*
X100958167Y-130879215D01*
X100736238Y-131027503D01*
X100547503Y-131216238D01*
X100399215Y-131438167D01*
X100297072Y-131684761D01*
X100245000Y-131946544D01*
X93171476Y-131946544D01*
X90362873Y-129137942D01*
X90399870Y-129137942D01*
X90524352Y-129125682D01*
X90644050Y-129089372D01*
X90754364Y-129030407D01*
X90851055Y-128951055D01*
X90930407Y-128854364D01*
X90989372Y-128744050D01*
X91025682Y-128624352D01*
X91037942Y-128499870D01*
X91037942Y-127760000D01*
X96482678Y-127760000D01*
X96520000Y-127763676D01*
X96557322Y-127760000D01*
X96557333Y-127760000D01*
X96668986Y-127749003D01*
X96812247Y-127705546D01*
X96944276Y-127634974D01*
X97060001Y-127540001D01*
X97083804Y-127510997D01*
X99099803Y-125495000D01*
X99161939Y-125495000D01*
X99361898Y-125455226D01*
X99550256Y-125377205D01*
X99719774Y-125263937D01*
X99863937Y-125119774D01*
X99977205Y-124950256D01*
X100055226Y-124761898D01*
X100095000Y-124561939D01*
X100095000Y-124358061D01*
X100055226Y-124158102D01*
X99977205Y-123969744D01*
X99863937Y-123800226D01*
X99719774Y-123656063D01*
X99550256Y-123542795D01*
X99361898Y-123464774D01*
X99161939Y-123425000D01*
X98958061Y-123425000D01*
X98758102Y-123464774D01*
X98569744Y-123542795D01*
X98400226Y-123656063D01*
X98256063Y-123800226D01*
X98142795Y-123969744D01*
X98064774Y-124158102D01*
X98025000Y-124358061D01*
X98025000Y-124420197D01*
X96205199Y-126240000D01*
X91037942Y-126240000D01*
X91037942Y-125500130D01*
X91025682Y-125375648D01*
X90989372Y-125255950D01*
X90930407Y-125145636D01*
X90851055Y-125048945D01*
X90754364Y-124969593D01*
X90644050Y-124910628D01*
X90524352Y-124874318D01*
X90399870Y-124862058D01*
X90240253Y-124862058D01*
X90260900Y-124848262D01*
X90558262Y-124550900D01*
X90791897Y-124201240D01*
X90952828Y-123812719D01*
X91034870Y-123400266D01*
X91034870Y-122979734D01*
X90952828Y-122567281D01*
X90791897Y-122178760D01*
X90558262Y-121829100D01*
X90260900Y-121531738D01*
X89911240Y-121298103D01*
X89522719Y-121137172D01*
X89110266Y-121055130D01*
X88689734Y-121055130D01*
X88277281Y-121137172D01*
X87888760Y-121298103D01*
X87539100Y-121531738D01*
X87241738Y-121829100D01*
X87008103Y-122178760D01*
X86847172Y-122567281D01*
X86765130Y-122979734D01*
X86765130Y-123400266D01*
X86847172Y-123812719D01*
X87008103Y-124201240D01*
X87241738Y-124550900D01*
X87539100Y-124848262D01*
X87559747Y-124862058D01*
X87400130Y-124862058D01*
X87275648Y-124874318D01*
X87155950Y-124910628D01*
X87045636Y-124969593D01*
X86948945Y-125048945D01*
X86869593Y-125145636D01*
X86810628Y-125255950D01*
X86774318Y-125375648D01*
X86762058Y-125500130D01*
X81940000Y-125500130D01*
X81940000Y-115340130D01*
X86762058Y-115340130D01*
X86762058Y-118339870D01*
X86774318Y-118464352D01*
X86810628Y-118584050D01*
X86869593Y-118694364D01*
X86948945Y-118791055D01*
X87045636Y-118870407D01*
X87155950Y-118929372D01*
X87275648Y-118965682D01*
X87400130Y-118977942D01*
X90399870Y-118977942D01*
X90524352Y-118965682D01*
X90644050Y-118929372D01*
X90754364Y-118870407D01*
X90851055Y-118791055D01*
X90930407Y-118694364D01*
X90989372Y-118584050D01*
X91025682Y-118464352D01*
X91037942Y-118339870D01*
X91037942Y-116242743D01*
X95956200Y-121161002D01*
X95979999Y-121190001D01*
X96095724Y-121284974D01*
X96227753Y-121355546D01*
X96371014Y-121399003D01*
X96482667Y-121410000D01*
X96482676Y-121410000D01*
X96519999Y-121413676D01*
X96557322Y-121410000D01*
X105095199Y-121410000D01*
X106116200Y-122431002D01*
X106139999Y-122460001D01*
X106255724Y-122554974D01*
X106387753Y-122625546D01*
X106531014Y-122669003D01*
X106642667Y-122680000D01*
X106642676Y-122680000D01*
X106679999Y-122683676D01*
X106717322Y-122680000D01*
X108460000Y-122680000D01*
X108460001Y-134305197D01*
X106575199Y-136190000D01*
X106513061Y-136190000D01*
X106313102Y-136229774D01*
X106124744Y-136307795D01*
X105955226Y-136421063D01*
X105811063Y-136565226D01*
X105697795Y-136734744D01*
X105619774Y-136923102D01*
X105580000Y-137123061D01*
X105580000Y-137326939D01*
X105619774Y-137526898D01*
X105697795Y-137715256D01*
X105811063Y-137884774D01*
X105955226Y-138028937D01*
X106124744Y-138142205D01*
X106313102Y-138220226D01*
X106513061Y-138260000D01*
X106716939Y-138260000D01*
X106916898Y-138220226D01*
X107105256Y-138142205D01*
X107274774Y-138028937D01*
X107418937Y-137884774D01*
X107532205Y-137715256D01*
X107610226Y-137526898D01*
X107613778Y-137509039D01*
X110368096Y-137509039D01*
X110408754Y-137643087D01*
X110528963Y-137897420D01*
X110696481Y-138123414D01*
X110904869Y-138312385D01*
X111146119Y-138457070D01*
X111410960Y-138551909D01*
X111633000Y-138430624D01*
X111633000Y-137287000D01*
X111887000Y-137287000D01*
X111887000Y-138430624D01*
X112109040Y-138551909D01*
X112373881Y-138457070D01*
X112615131Y-138312385D01*
X112823519Y-138123414D01*
X112991037Y-137897420D01*
X113111246Y-137643087D01*
X113151904Y-137509039D01*
X113029915Y-137287000D01*
X111887000Y-137287000D01*
X111633000Y-137287000D01*
X110490085Y-137287000D01*
X110368096Y-137509039D01*
X107613778Y-137509039D01*
X107650000Y-137326939D01*
X107650000Y-137264801D01*
X108103840Y-136810961D01*
X110368096Y-136810961D01*
X110490085Y-137033000D01*
X111633000Y-137033000D01*
X111633000Y-135889376D01*
X111887000Y-135889376D01*
X111887000Y-137033000D01*
X113029915Y-137033000D01*
X113037790Y-137018665D01*
X117945000Y-137018665D01*
X117945000Y-137301335D01*
X118000147Y-137578574D01*
X118108320Y-137839727D01*
X118265363Y-138074759D01*
X118465241Y-138274637D01*
X118700273Y-138431680D01*
X118961426Y-138539853D01*
X119238665Y-138595000D01*
X119521335Y-138595000D01*
X119798574Y-138539853D01*
X120059727Y-138431680D01*
X120294759Y-138274637D01*
X120494637Y-138074759D01*
X120651680Y-137839727D01*
X120759853Y-137578574D01*
X120815000Y-137301335D01*
X120815000Y-137160000D01*
X121748057Y-137160000D01*
X121775764Y-137441309D01*
X121857818Y-137711808D01*
X121991068Y-137961101D01*
X122170392Y-138179608D01*
X122388899Y-138358932D01*
X122638192Y-138492182D01*
X122908691Y-138574236D01*
X123119508Y-138595000D01*
X123260492Y-138595000D01*
X123471309Y-138574236D01*
X123741808Y-138492182D01*
X123991101Y-138358932D01*
X124209608Y-138179608D01*
X124388932Y-137961101D01*
X124522182Y-137711808D01*
X124604236Y-137441309D01*
X124631943Y-137160000D01*
X124604236Y-136878691D01*
X124522182Y-136608192D01*
X124388932Y-136358899D01*
X124209608Y-136140392D01*
X123991101Y-135961068D01*
X123741808Y-135827818D01*
X123471309Y-135745764D01*
X123260492Y-135725000D01*
X123119508Y-135725000D01*
X122908691Y-135745764D01*
X122638192Y-135827818D01*
X122388899Y-135961068D01*
X122170392Y-136140392D01*
X121991068Y-136358899D01*
X121857818Y-136608192D01*
X121775764Y-136878691D01*
X121748057Y-137160000D01*
X120815000Y-137160000D01*
X120815000Y-137018665D01*
X120759853Y-136741426D01*
X120651680Y-136480273D01*
X120494637Y-136245241D01*
X120294759Y-136045363D01*
X120059727Y-135888320D01*
X119798574Y-135780147D01*
X119521335Y-135725000D01*
X119238665Y-135725000D01*
X118961426Y-135780147D01*
X118700273Y-135888320D01*
X118465241Y-136045363D01*
X118265363Y-136245241D01*
X118108320Y-136480273D01*
X118000147Y-136741426D01*
X117945000Y-137018665D01*
X113037790Y-137018665D01*
X113151904Y-136810961D01*
X113111246Y-136676913D01*
X112991037Y-136422580D01*
X112823519Y-136196586D01*
X112615131Y-136007615D01*
X112373881Y-135862930D01*
X112109040Y-135768091D01*
X111887000Y-135889376D01*
X111633000Y-135889376D01*
X111410960Y-135768091D01*
X111146119Y-135862930D01*
X110904869Y-136007615D01*
X110696481Y-136196586D01*
X110528963Y-136422580D01*
X110408754Y-136676913D01*
X110368096Y-136810961D01*
X108103840Y-136810961D01*
X109731003Y-135183799D01*
X109760001Y-135160001D01*
X109854974Y-135044276D01*
X109925546Y-134912247D01*
X109969003Y-134768986D01*
X109980000Y-134657333D01*
X109980000Y-134657324D01*
X109983676Y-134620001D01*
X109980000Y-134582678D01*
X109980000Y-125596544D01*
X114215000Y-125596544D01*
X114215000Y-125863456D01*
X114267072Y-126125239D01*
X114369215Y-126371833D01*
X114517503Y-126593762D01*
X114706238Y-126782497D01*
X114928167Y-126930785D01*
X115174761Y-127032928D01*
X115436544Y-127085000D01*
X115703456Y-127085000D01*
X115965239Y-127032928D01*
X116211833Y-126930785D01*
X116433762Y-126782497D01*
X116622497Y-126593762D01*
X116770785Y-126371833D01*
X116872928Y-126125239D01*
X116925000Y-125863456D01*
X116925000Y-125596544D01*
X116872928Y-125334761D01*
X116770785Y-125088167D01*
X116622497Y-124866238D01*
X116433762Y-124677503D01*
X116211833Y-124529215D01*
X115965239Y-124427072D01*
X115703456Y-124375000D01*
X115436544Y-124375000D01*
X115174761Y-124427072D01*
X114928167Y-124529215D01*
X114706238Y-124677503D01*
X114517503Y-124866238D01*
X114369215Y-125088167D01*
X114267072Y-125334761D01*
X114215000Y-125596544D01*
X109980000Y-125596544D01*
X109980000Y-122680000D01*
X116854608Y-122680000D01*
X116807072Y-122794761D01*
X116755000Y-123056544D01*
X116755000Y-123323456D01*
X116807072Y-123585239D01*
X116909215Y-123831833D01*
X117057503Y-124053762D01*
X117246238Y-124242497D01*
X117468167Y-124390785D01*
X117714761Y-124492928D01*
X117976544Y-124545000D01*
X118243456Y-124545000D01*
X118505239Y-124492928D01*
X118751833Y-124390785D01*
X118973762Y-124242497D01*
X119162497Y-124053762D01*
X119310785Y-123831833D01*
X119412928Y-123585239D01*
X119465000Y-123323456D01*
X119465000Y-123056544D01*
X119412928Y-122794761D01*
X119365392Y-122680000D01*
X128975198Y-122680000D01*
X128230199Y-123425000D01*
X128168061Y-123425000D01*
X127968102Y-123464774D01*
X127779744Y-123542795D01*
X127610226Y-123656063D01*
X127466063Y-123800226D01*
X127352795Y-123969744D01*
X127274774Y-124158102D01*
X127235000Y-124358061D01*
X127235000Y-124561939D01*
X127274774Y-124761898D01*
X127352795Y-124950256D01*
X127466063Y-125119774D01*
X127610226Y-125263937D01*
X127779744Y-125377205D01*
X127968102Y-125455226D01*
X128168061Y-125495000D01*
X128371939Y-125495000D01*
X128571898Y-125455226D01*
X128760256Y-125377205D01*
X128929774Y-125263937D01*
X129073937Y-125119774D01*
X129187205Y-124950256D01*
X129265226Y-124761898D01*
X129305000Y-124561939D01*
X129305000Y-124499801D01*
X129919802Y-123885000D01*
X131830199Y-123885000D01*
X133650000Y-125704803D01*
X133650000Y-125766939D01*
X133689774Y-125966898D01*
X133767795Y-126155256D01*
X133881063Y-126324774D01*
X134025226Y-126468937D01*
X134194744Y-126582205D01*
X134383102Y-126660226D01*
X134583061Y-126700000D01*
X134786939Y-126700000D01*
X134986898Y-126660226D01*
X135175256Y-126582205D01*
X135344774Y-126468937D01*
X135488937Y-126324774D01*
X135602205Y-126155256D01*
X135680226Y-125966898D01*
X135720000Y-125766939D01*
X135720000Y-125563061D01*
X135680226Y-125363102D01*
X135602205Y-125174744D01*
X135488937Y-125005226D01*
X135344774Y-124861063D01*
X135175256Y-124747795D01*
X134986898Y-124669774D01*
X134786939Y-124630000D01*
X134724803Y-124630000D01*
X132708804Y-122614003D01*
X132685001Y-122584999D01*
X132656003Y-122561201D01*
X131503804Y-121409003D01*
X131480001Y-121379999D01*
X131364276Y-121285026D01*
X131232247Y-121214454D01*
X131088986Y-121170997D01*
X130977333Y-121160000D01*
X130977322Y-121160000D01*
X130940000Y-121156324D01*
X130902678Y-121160000D01*
X116825392Y-121160000D01*
X116872928Y-121045239D01*
X116925000Y-120783456D01*
X116925000Y-120516544D01*
X116872928Y-120254761D01*
X116770785Y-120008167D01*
X116622497Y-119786238D01*
X116433762Y-119597503D01*
X116211833Y-119449215D01*
X115965239Y-119347072D01*
X115703456Y-119295000D01*
X115436544Y-119295000D01*
X115174761Y-119347072D01*
X114928167Y-119449215D01*
X114706238Y-119597503D01*
X114517503Y-119786238D01*
X114369215Y-120008167D01*
X114267072Y-120254761D01*
X114215000Y-120516544D01*
X114215000Y-120783456D01*
X114267072Y-121045239D01*
X114314608Y-121160000D01*
X109955253Y-121160000D01*
X109925546Y-121062068D01*
X109854974Y-120930039D01*
X109760001Y-120814314D01*
X109644275Y-120719341D01*
X109512246Y-120648769D01*
X109368985Y-120605312D01*
X109220000Y-120590638D01*
X109071014Y-120605312D01*
X108927753Y-120648769D01*
X108795724Y-120719341D01*
X108679999Y-120814314D01*
X108585026Y-120930040D01*
X108514454Y-121062069D01*
X108484747Y-121160000D01*
X106994802Y-121160000D01*
X105973804Y-120139003D01*
X105950001Y-120109999D01*
X105834276Y-120015026D01*
X105702247Y-119944454D01*
X105558986Y-119900997D01*
X105447333Y-119890000D01*
X105447322Y-119890000D01*
X105410000Y-119886324D01*
X105372678Y-119890000D01*
X96834802Y-119890000D01*
X92381346Y-115436544D01*
X100245000Y-115436544D01*
X100245000Y-115703456D01*
X100297072Y-115965239D01*
X100399215Y-116211833D01*
X100547503Y-116433762D01*
X100736238Y-116622497D01*
X100958167Y-116770785D01*
X101204761Y-116872928D01*
X101466544Y-116925000D01*
X101733456Y-116925000D01*
X101995239Y-116872928D01*
X102241833Y-116770785D01*
X102463762Y-116622497D01*
X102652497Y-116433762D01*
X102800785Y-116211833D01*
X102902928Y-115965239D01*
X102955000Y-115703456D01*
X102955000Y-115436544D01*
X105325000Y-115436544D01*
X105325000Y-115703456D01*
X105377072Y-115965239D01*
X105479215Y-116211833D01*
X105627503Y-116433762D01*
X105816238Y-116622497D01*
X106038167Y-116770785D01*
X106284761Y-116872928D01*
X106546544Y-116925000D01*
X106813456Y-116925000D01*
X107075239Y-116872928D01*
X107321833Y-116770785D01*
X107543762Y-116622497D01*
X107732497Y-116433762D01*
X107880785Y-116211833D01*
X107982928Y-115965239D01*
X108035000Y-115703456D01*
X108035000Y-115436544D01*
X107982928Y-115174761D01*
X107880785Y-114928167D01*
X107732497Y-114706238D01*
X107543762Y-114517503D01*
X107321833Y-114369215D01*
X107075239Y-114267072D01*
X106813456Y-114215000D01*
X106546544Y-114215000D01*
X106284761Y-114267072D01*
X106038167Y-114369215D01*
X105816238Y-114517503D01*
X105627503Y-114706238D01*
X105479215Y-114928167D01*
X105377072Y-115174761D01*
X105325000Y-115436544D01*
X102955000Y-115436544D01*
X102902928Y-115174761D01*
X102800785Y-114928167D01*
X102652497Y-114706238D01*
X102463762Y-114517503D01*
X102241833Y-114369215D01*
X101995239Y-114267072D01*
X101733456Y-114215000D01*
X101466544Y-114215000D01*
X101204761Y-114267072D01*
X100958167Y-114369215D01*
X100736238Y-114517503D01*
X100547503Y-114706238D01*
X100399215Y-114928167D01*
X100297072Y-115174761D01*
X100245000Y-115436544D01*
X92381346Y-115436544D01*
X90848761Y-113903959D01*
X90952828Y-113652719D01*
X91034870Y-113240266D01*
X91034870Y-112896544D01*
X102785000Y-112896544D01*
X102785000Y-113163456D01*
X102837072Y-113425239D01*
X102939215Y-113671833D01*
X103087503Y-113893762D01*
X103276238Y-114082497D01*
X103498167Y-114230785D01*
X103744761Y-114332928D01*
X104006544Y-114385000D01*
X104273456Y-114385000D01*
X104535239Y-114332928D01*
X104781833Y-114230785D01*
X105003762Y-114082497D01*
X105192497Y-113893762D01*
X105340785Y-113671833D01*
X105442928Y-113425239D01*
X105495000Y-113163456D01*
X105495000Y-112896544D01*
X105442928Y-112634761D01*
X105340785Y-112388167D01*
X105192497Y-112166238D01*
X105003762Y-111977503D01*
X104781833Y-111829215D01*
X104535239Y-111727072D01*
X104273456Y-111675000D01*
X104006544Y-111675000D01*
X103744761Y-111727072D01*
X103498167Y-111829215D01*
X103276238Y-111977503D01*
X103087503Y-112166238D01*
X102939215Y-112388167D01*
X102837072Y-112634761D01*
X102785000Y-112896544D01*
X91034870Y-112896544D01*
X91034870Y-112819734D01*
X90952828Y-112407281D01*
X90791897Y-112018760D01*
X90558262Y-111669100D01*
X90260900Y-111371738D01*
X89911240Y-111138103D01*
X89522719Y-110977172D01*
X89110266Y-110895130D01*
X88689734Y-110895130D01*
X88277281Y-110977172D01*
X87888760Y-111138103D01*
X87539100Y-111371738D01*
X87241738Y-111669100D01*
X87008103Y-112018760D01*
X86847172Y-112407281D01*
X86765130Y-112819734D01*
X86765130Y-113240266D01*
X86847172Y-113652719D01*
X87008103Y-114041240D01*
X87241738Y-114390900D01*
X87539100Y-114688262D01*
X87559747Y-114702058D01*
X87400130Y-114702058D01*
X87275648Y-114714318D01*
X87155950Y-114750628D01*
X87045636Y-114809593D01*
X86948945Y-114888945D01*
X86869593Y-114985636D01*
X86810628Y-115095950D01*
X86774318Y-115215648D01*
X86762058Y-115340130D01*
X81940000Y-115340130D01*
X81940000Y-108610000D01*
X160630000Y-108610000D01*
X160630001Y-145390000D01*
X160630001Y-145390000D01*
G37*
X160630001Y-145390000D02*
X120680562Y-145390000D01*
X120759853Y-145198574D01*
X120815000Y-144921335D01*
X120815000Y-144638665D01*
X120759853Y-144361426D01*
X120651680Y-144100273D01*
X120494637Y-143865241D01*
X120294759Y-143665363D01*
X120059727Y-143508320D01*
X119798574Y-143400147D01*
X119521335Y-143345000D01*
X119238665Y-143345000D01*
X118961426Y-143400147D01*
X118700273Y-143508320D01*
X118465241Y-143665363D01*
X118265363Y-143865241D01*
X118108320Y-144100273D01*
X118000147Y-144361426D01*
X117945000Y-144638665D01*
X117945000Y-144921335D01*
X118000147Y-145198574D01*
X118079438Y-145390000D01*
X113051261Y-145390000D01*
X113111246Y-145263087D01*
X113151904Y-145129039D01*
X113029915Y-144907000D01*
X111887000Y-144907000D01*
X111887000Y-144927000D01*
X111633000Y-144927000D01*
X111633000Y-144907000D01*
X110490085Y-144907000D01*
X110368096Y-145129039D01*
X110408754Y-145263087D01*
X110468739Y-145390000D01*
X81940000Y-145390000D01*
X81940000Y-144430961D01*
X110368096Y-144430961D01*
X110490085Y-144653000D01*
X111633000Y-144653000D01*
X111633000Y-143509376D01*
X111887000Y-143509376D01*
X111887000Y-144653000D01*
X113029915Y-144653000D01*
X113151904Y-144430961D01*
X113111246Y-144296913D01*
X112991037Y-144042580D01*
X112823519Y-143816586D01*
X112615131Y-143627615D01*
X112373881Y-143482930D01*
X112109040Y-143388091D01*
X111887000Y-143509376D01*
X111633000Y-143509376D01*
X111410960Y-143388091D01*
X111146119Y-143482930D01*
X110904869Y-143627615D01*
X110696481Y-143816586D01*
X110528963Y-144042580D01*
X110408754Y-144296913D01*
X110368096Y-144430961D01*
X81940000Y-144430961D01*
X81940000Y-140970000D01*
X87407815Y-140970000D01*
X87436487Y-141261111D01*
X87521401Y-141541034D01*
X87659294Y-141799014D01*
X87844866Y-142025134D01*
X88070986Y-142210706D01*
X88328966Y-142348599D01*
X88608889Y-142433513D01*
X88827050Y-142455000D01*
X88972950Y-142455000D01*
X89191111Y-142433513D01*
X89471034Y-142348599D01*
X89729014Y-142210706D01*
X89955134Y-142025134D01*
X90140706Y-141799014D01*
X90278599Y-141541034D01*
X90363513Y-141261111D01*
X90392185Y-140970000D01*
X90363513Y-140678889D01*
X90278599Y-140398966D01*
X90140706Y-140140986D01*
X89955134Y-139914866D01*
X89729014Y-139729294D01*
X89664477Y-139694799D01*
X89781355Y-139625178D01*
X89997588Y-139430269D01*
X90171641Y-139196920D01*
X90296825Y-138934099D01*
X90341476Y-138786890D01*
X90220155Y-138557000D01*
X89027000Y-138557000D01*
X89027000Y-138577000D01*
X88773000Y-138577000D01*
X88773000Y-138557000D01*
X87579845Y-138557000D01*
X87458524Y-138786890D01*
X87503175Y-138934099D01*
X87628359Y-139196920D01*
X87802412Y-139430269D01*
X88018645Y-139625178D01*
X88135523Y-139694799D01*
X88070986Y-139729294D01*
X87844866Y-139914866D01*
X87659294Y-140140986D01*
X87521401Y-140398966D01*
X87436487Y-140678889D01*
X87407815Y-140970000D01*
X81940000Y-140970000D01*
X81940000Y-135890000D01*
X87407815Y-135890000D01*
X87436487Y-136181111D01*
X87521401Y-136461034D01*
X87659294Y-136719014D01*
X87844866Y-136945134D01*
X88070986Y-137130706D01*
X88135523Y-137165201D01*
X88018645Y-137234822D01*
X87802412Y-137429731D01*
X87628359Y-137663080D01*
X87503175Y-137925901D01*
X87458524Y-138073110D01*
X87579845Y-138303000D01*
X88773000Y-138303000D01*
X88773000Y-138283000D01*
X89027000Y-138283000D01*
X89027000Y-138303000D01*
X90220155Y-138303000D01*
X90341476Y-138073110D01*
X90296825Y-137925901D01*
X90171641Y-137663080D01*
X89997588Y-137429731D01*
X89781355Y-137234822D01*
X89664477Y-137165201D01*
X89729014Y-137130706D01*
X89955134Y-136945134D01*
X90140706Y-136719014D01*
X90278599Y-136461034D01*
X90363513Y-136181111D01*
X90392185Y-135890000D01*
X90363513Y-135598889D01*
X90278599Y-135318966D01*
X90140706Y-135060986D01*
X89955134Y-134834866D01*
X89925313Y-134810393D01*
X89994180Y-134789502D01*
X90104494Y-134730537D01*
X90201185Y-134651185D01*
X90280537Y-134554494D01*
X90339502Y-134444180D01*
X90375812Y-134324482D01*
X90388072Y-134200000D01*
X90385000Y-133635750D01*
X90226250Y-133477000D01*
X89027000Y-133477000D01*
X89027000Y-133497000D01*
X88773000Y-133497000D01*
X88773000Y-133477000D01*
X87573750Y-133477000D01*
X87415000Y-133635750D01*
X87411928Y-134200000D01*
X87424188Y-134324482D01*
X87460498Y-134444180D01*
X87519463Y-134554494D01*
X87598815Y-134651185D01*
X87695506Y-134730537D01*
X87805820Y-134789502D01*
X87874687Y-134810393D01*
X87844866Y-134834866D01*
X87659294Y-135060986D01*
X87521401Y-135318966D01*
X87436487Y-135598889D01*
X87407815Y-135890000D01*
X81940000Y-135890000D01*
X81940000Y-132500000D01*
X87411928Y-132500000D01*
X87415000Y-133064250D01*
X87573750Y-133223000D01*
X88773000Y-133223000D01*
X88773000Y-132023750D01*
X89027000Y-132023750D01*
X89027000Y-133223000D01*
X90226250Y-133223000D01*
X90385000Y-133064250D01*
X90388072Y-132500000D01*
X90375812Y-132375518D01*
X90339502Y-132255820D01*
X90280537Y-132145506D01*
X90201185Y-132048815D01*
X90104494Y-131969463D01*
X89994180Y-131910498D01*
X89874482Y-131874188D01*
X89750000Y-131861928D01*
X89185750Y-131865000D01*
X89027000Y-132023750D01*
X88773000Y-132023750D01*
X88614250Y-131865000D01*
X88050000Y-131861928D01*
X87925518Y-131874188D01*
X87805820Y-131910498D01*
X87695506Y-131969463D01*
X87598815Y-132048815D01*
X87519463Y-132145506D01*
X87460498Y-132255820D01*
X87424188Y-132375518D01*
X87411928Y-132500000D01*
X81940000Y-132500000D01*
X81940000Y-125500130D01*
X86762058Y-125500130D01*
X86762058Y-128499870D01*
X86774318Y-128624352D01*
X86810628Y-128744050D01*
X86869593Y-128854364D01*
X86948945Y-128951055D01*
X87045636Y-129030407D01*
X87155950Y-129089372D01*
X87275648Y-129125682D01*
X87400130Y-129137942D01*
X88245674Y-129137942D01*
X88265026Y-129174146D01*
X88336201Y-129260872D01*
X88360000Y-129289871D01*
X88388998Y-129313669D01*
X98300000Y-139224672D01*
X98300001Y-141536288D01*
X98256063Y-141580226D01*
X98142795Y-141749744D01*
X98064774Y-141938102D01*
X98025000Y-142138061D01*
X98025000Y-142341939D01*
X98064774Y-142541898D01*
X98142795Y-142730256D01*
X98256063Y-142899774D01*
X98400226Y-143043937D01*
X98569744Y-143157205D01*
X98758102Y-143235226D01*
X98958061Y-143275000D01*
X99161939Y-143275000D01*
X99361898Y-143235226D01*
X99550256Y-143157205D01*
X99719774Y-143043937D01*
X99763711Y-143000000D01*
X127357680Y-143000000D01*
X127395002Y-143003676D01*
X127432324Y-143000000D01*
X127432335Y-143000000D01*
X127543988Y-142989003D01*
X127687249Y-142945546D01*
X127819278Y-142874974D01*
X127935003Y-142780001D01*
X127958806Y-142750997D01*
X129412076Y-141297727D01*
X129430147Y-141388574D01*
X129538320Y-141649727D01*
X129695363Y-141884759D01*
X129895241Y-142084637D01*
X130130273Y-142241680D01*
X130391426Y-142349853D01*
X130668665Y-142405000D01*
X130951335Y-142405000D01*
X131228574Y-142349853D01*
X131489727Y-142241680D01*
X131724759Y-142084637D01*
X131924637Y-141884759D01*
X132081680Y-141649727D01*
X132189853Y-141388574D01*
X132245000Y-141111335D01*
X132245000Y-140828665D01*
X132189853Y-140551426D01*
X132081680Y-140290273D01*
X131967908Y-140120000D01*
X133131928Y-140120000D01*
X133131928Y-141820000D01*
X133144188Y-141944482D01*
X133180498Y-142064180D01*
X133239463Y-142174494D01*
X133318815Y-142271185D01*
X133415506Y-142350537D01*
X133525820Y-142409502D01*
X133645518Y-142445812D01*
X133770000Y-142458072D01*
X135470000Y-142458072D01*
X135594482Y-142445812D01*
X135714180Y-142409502D01*
X135824494Y-142350537D01*
X135921185Y-142271185D01*
X136000537Y-142174494D01*
X136059502Y-142064180D01*
X136060992Y-142059268D01*
X149295000Y-142059268D01*
X149295000Y-142420732D01*
X149365518Y-142775250D01*
X149503844Y-143109199D01*
X149704662Y-143409744D01*
X149960256Y-143665338D01*
X150260801Y-143866156D01*
X150594750Y-144004482D01*
X150949268Y-144075000D01*
X151310732Y-144075000D01*
X151665250Y-144004482D01*
X151999199Y-143866156D01*
X152299744Y-143665338D01*
X152555338Y-143409744D01*
X152756156Y-143109199D01*
X152894482Y-142775250D01*
X152965000Y-142420732D01*
X152965000Y-142059268D01*
X152894482Y-141704750D01*
X152756156Y-141370801D01*
X152555338Y-141070256D01*
X152299744Y-140814662D01*
X151999199Y-140613844D01*
X151665250Y-140475518D01*
X151310732Y-140405000D01*
X150949268Y-140405000D01*
X150594750Y-140475518D01*
X150260801Y-140613844D01*
X149960256Y-140814662D01*
X149704662Y-141070256D01*
X149503844Y-141370801D01*
X149365518Y-141704750D01*
X149295000Y-142059268D01*
X136060992Y-142059268D01*
X136095812Y-141944482D01*
X136108072Y-141820000D01*
X136108072Y-140120000D01*
X136095812Y-139995518D01*
X136059502Y-139875820D01*
X136000537Y-139765506D01*
X135946778Y-139700000D01*
X142936122Y-139700000D01*
X142971552Y-140059723D01*
X143076479Y-140405622D01*
X143246871Y-140724404D01*
X143476181Y-141003819D01*
X143755596Y-141233129D01*
X144074378Y-141403521D01*
X144420277Y-141508448D01*
X144689861Y-141535000D01*
X144870139Y-141535000D01*
X145139723Y-141508448D01*
X145485622Y-141403521D01*
X145804404Y-141233129D01*
X146083819Y-141003819D01*
X146313129Y-140724404D01*
X146483521Y-140405622D01*
X146588448Y-140059723D01*
X146623878Y-139700000D01*
X146588448Y-139340277D01*
X146483521Y-138994378D01*
X146313129Y-138675596D01*
X146083819Y-138396181D01*
X145804404Y-138166871D01*
X145485622Y-137996479D01*
X145139723Y-137891552D01*
X144870139Y-137865000D01*
X144689861Y-137865000D01*
X144420277Y-137891552D01*
X144074378Y-137996479D01*
X143755596Y-138166871D01*
X143476181Y-138396181D01*
X143246871Y-138675596D01*
X143076479Y-138994378D01*
X142971552Y-139340277D01*
X142936122Y-139700000D01*
X135946778Y-139700000D01*
X135921185Y-139668815D01*
X135824494Y-139589463D01*
X135714180Y-139530498D01*
X135594482Y-139494188D01*
X135470000Y-139481928D01*
X133770000Y-139481928D01*
X133645518Y-139494188D01*
X133525820Y-139530498D01*
X133415506Y-139589463D01*
X133318815Y-139668815D01*
X133239463Y-139765506D01*
X133180498Y-139875820D01*
X133144188Y-139995518D01*
X133131928Y-140120000D01*
X131967908Y-140120000D01*
X131924637Y-140055241D01*
X131724759Y-139855363D01*
X131489727Y-139698320D01*
X131228574Y-139590147D01*
X131137727Y-139572076D01*
X142019803Y-128690000D01*
X154721928Y-128690000D01*
X154721928Y-130390000D01*
X154734188Y-130514482D01*
X154770498Y-130634180D01*
X154829463Y-130744494D01*
X154908815Y-130841185D01*
X155005506Y-130920537D01*
X155115820Y-130979502D01*
X155235518Y-131015812D01*
X155360000Y-131028072D01*
X157060000Y-131028072D01*
X157184482Y-131015812D01*
X157304180Y-130979502D01*
X157414494Y-130920537D01*
X157511185Y-130841185D01*
X157590537Y-130744494D01*
X157649502Y-130634180D01*
X157685812Y-130514482D01*
X157698072Y-130390000D01*
X157698072Y-128690000D01*
X157685812Y-128565518D01*
X157649502Y-128445820D01*
X157590537Y-128335506D01*
X157511185Y-128238815D01*
X157414494Y-128159463D01*
X157304180Y-128100498D01*
X157184482Y-128064188D01*
X157060000Y-128051928D01*
X155360000Y-128051928D01*
X155235518Y-128064188D01*
X155115820Y-128100498D01*
X155005506Y-128159463D01*
X154908815Y-128238815D01*
X154829463Y-128335506D01*
X154770498Y-128445820D01*
X154734188Y-128565518D01*
X154721928Y-128690000D01*
X142019803Y-128690000D01*
X142751003Y-127958801D01*
X142780001Y-127935003D01*
X142874974Y-127819278D01*
X142945546Y-127687249D01*
X142989003Y-127543988D01*
X143000000Y-127432335D01*
X143003677Y-127395002D01*
X143000000Y-127357669D01*
X143000000Y-125730000D01*
X154768057Y-125730000D01*
X154795764Y-126011309D01*
X154877818Y-126281808D01*
X155011068Y-126531101D01*
X155190392Y-126749608D01*
X155408899Y-126928932D01*
X155658192Y-127062182D01*
X155928691Y-127144236D01*
X156139508Y-127165000D01*
X156280492Y-127165000D01*
X156491309Y-127144236D01*
X156761808Y-127062182D01*
X157011101Y-126928932D01*
X157229608Y-126749608D01*
X157408932Y-126531101D01*
X157542182Y-126281808D01*
X157624236Y-126011309D01*
X157651943Y-125730000D01*
X157624236Y-125448691D01*
X157542182Y-125178192D01*
X157408932Y-124928899D01*
X157229608Y-124710392D01*
X157011101Y-124531068D01*
X156761808Y-124397818D01*
X156491309Y-124315764D01*
X156280492Y-124295000D01*
X156139508Y-124295000D01*
X155928691Y-124315764D01*
X155658192Y-124397818D01*
X155408899Y-124531068D01*
X155190392Y-124710392D01*
X155011068Y-124928899D01*
X154877818Y-125178192D01*
X154795764Y-125448691D01*
X154768057Y-125730000D01*
X143000000Y-125730000D01*
X143000000Y-123161957D01*
X143049463Y-123254494D01*
X143128815Y-123351185D01*
X143225506Y-123430537D01*
X143335820Y-123489502D01*
X143455518Y-123525812D01*
X143580000Y-123538072D01*
X145980000Y-123538072D01*
X146104482Y-123525812D01*
X146224180Y-123489502D01*
X146334494Y-123430537D01*
X146431185Y-123351185D01*
X146510537Y-123254494D01*
X146569502Y-123144180D01*
X146605812Y-123024482D01*
X146618072Y-122900000D01*
X146618072Y-121920000D01*
X149286122Y-121920000D01*
X149321552Y-122279723D01*
X149426479Y-122625622D01*
X149596871Y-122944404D01*
X149826181Y-123223819D01*
X150105596Y-123453129D01*
X150424378Y-123623521D01*
X150770277Y-123728448D01*
X151039861Y-123755000D01*
X151220139Y-123755000D01*
X151489723Y-123728448D01*
X151835622Y-123623521D01*
X152154404Y-123453129D01*
X152433819Y-123223819D01*
X152663129Y-122944404D01*
X152833521Y-122625622D01*
X152938448Y-122279723D01*
X152973878Y-121920000D01*
X152938448Y-121560277D01*
X152833521Y-121214378D01*
X152663129Y-120895596D01*
X152433819Y-120616181D01*
X152154404Y-120386871D01*
X151835622Y-120216479D01*
X151489723Y-120111552D01*
X151220139Y-120085000D01*
X151039861Y-120085000D01*
X150770277Y-120111552D01*
X150424378Y-120216479D01*
X150105596Y-120386871D01*
X149826181Y-120616181D01*
X149596871Y-120895596D01*
X149426479Y-121214378D01*
X149321552Y-121560277D01*
X149286122Y-121920000D01*
X146618072Y-121920000D01*
X146618072Y-120500000D01*
X146605812Y-120375518D01*
X146569502Y-120255820D01*
X146510537Y-120145506D01*
X146431185Y-120048815D01*
X146334494Y-119969463D01*
X146224180Y-119910498D01*
X146104482Y-119874188D01*
X145980000Y-119861928D01*
X143580000Y-119861928D01*
X143455518Y-119874188D01*
X143335820Y-119910498D01*
X143225506Y-119969463D01*
X143128815Y-120048815D01*
X143049463Y-120145506D01*
X143000000Y-120238043D01*
X143000000Y-120083711D01*
X143043937Y-120039774D01*
X143157205Y-119870256D01*
X143235226Y-119681898D01*
X143275000Y-119481939D01*
X143275000Y-119278061D01*
X143235226Y-119078102D01*
X143157205Y-118889744D01*
X143043937Y-118720226D01*
X142899774Y-118576063D01*
X142730256Y-118462795D01*
X142541898Y-118384774D01*
X142341939Y-118345000D01*
X142279802Y-118345000D01*
X141903467Y-117968665D01*
X143345000Y-117968665D01*
X143345000Y-118251335D01*
X143400147Y-118528574D01*
X143508320Y-118789727D01*
X143665363Y-119024759D01*
X143865241Y-119224637D01*
X144100273Y-119381680D01*
X144361426Y-119489853D01*
X144638665Y-119545000D01*
X144921335Y-119545000D01*
X145198574Y-119489853D01*
X145459727Y-119381680D01*
X145694759Y-119224637D01*
X145894637Y-119024759D01*
X146051680Y-118789727D01*
X146159853Y-118528574D01*
X146215000Y-118251335D01*
X146215000Y-118110000D01*
X150958057Y-118110000D01*
X150985764Y-118391309D01*
X151067818Y-118661808D01*
X151201068Y-118911101D01*
X151380392Y-119129608D01*
X151598899Y-119308932D01*
X151848192Y-119442182D01*
X152118691Y-119524236D01*
X152329508Y-119545000D01*
X152470492Y-119545000D01*
X152681309Y-119524236D01*
X152951808Y-119442182D01*
X153201101Y-119308932D01*
X153419608Y-119129608D01*
X153598932Y-118911101D01*
X153732182Y-118661808D01*
X153814236Y-118391309D01*
X153841943Y-118110000D01*
X153828023Y-117968665D01*
X154775000Y-117968665D01*
X154775000Y-118251335D01*
X154830147Y-118528574D01*
X154938320Y-118789727D01*
X155095363Y-119024759D01*
X155295241Y-119224637D01*
X155530273Y-119381680D01*
X155791426Y-119489853D01*
X156068665Y-119545000D01*
X156351335Y-119545000D01*
X156628574Y-119489853D01*
X156889727Y-119381680D01*
X157124759Y-119224637D01*
X157324637Y-119024759D01*
X157481680Y-118789727D01*
X157589853Y-118528574D01*
X157645000Y-118251335D01*
X157645000Y-117968665D01*
X157589853Y-117691426D01*
X157481680Y-117430273D01*
X157324637Y-117195241D01*
X157124759Y-116995363D01*
X156889727Y-116838320D01*
X156628574Y-116730147D01*
X156351335Y-116675000D01*
X156068665Y-116675000D01*
X155791426Y-116730147D01*
X155530273Y-116838320D01*
X155295241Y-116995363D01*
X155095363Y-117195241D01*
X154938320Y-117430273D01*
X154830147Y-117691426D01*
X154775000Y-117968665D01*
X153828023Y-117968665D01*
X153814236Y-117828691D01*
X153732182Y-117558192D01*
X153598932Y-117308899D01*
X153419608Y-117090392D01*
X153201101Y-116911068D01*
X152951808Y-116777818D01*
X152681309Y-116695764D01*
X152470492Y-116675000D01*
X152329508Y-116675000D01*
X152118691Y-116695764D01*
X151848192Y-116777818D01*
X151598899Y-116911068D01*
X151380392Y-117090392D01*
X151201068Y-117308899D01*
X151067818Y-117558192D01*
X150985764Y-117828691D01*
X150958057Y-118110000D01*
X146215000Y-118110000D01*
X146215000Y-117968665D01*
X146159853Y-117691426D01*
X146051680Y-117430273D01*
X145894637Y-117195241D01*
X145694759Y-116995363D01*
X145459727Y-116838320D01*
X145198574Y-116730147D01*
X144921335Y-116675000D01*
X144638665Y-116675000D01*
X144361426Y-116730147D01*
X144100273Y-116838320D01*
X143865241Y-116995363D01*
X143665363Y-117195241D01*
X143508320Y-117430273D01*
X143400147Y-117691426D01*
X143345000Y-117968665D01*
X141903467Y-117968665D01*
X141887099Y-117952297D01*
X142084637Y-117754759D01*
X142241680Y-117519727D01*
X142349853Y-117258574D01*
X142405000Y-116981335D01*
X142405000Y-116698665D01*
X142349853Y-116421426D01*
X142241680Y-116160273D01*
X142084637Y-115925241D01*
X141884759Y-115725363D01*
X141649727Y-115568320D01*
X141388574Y-115460147D01*
X141111335Y-115405000D01*
X140828665Y-115405000D01*
X140551426Y-115460147D01*
X140290273Y-115568320D01*
X140055241Y-115725363D01*
X139855363Y-115925241D01*
X139698320Y-116160273D01*
X139590147Y-116421426D01*
X139535000Y-116698665D01*
X139535000Y-116981335D01*
X139590147Y-117258574D01*
X139628017Y-117350000D01*
X134688526Y-117350000D01*
X134701246Y-117323087D01*
X134741904Y-117189039D01*
X134619915Y-116967000D01*
X133477000Y-116967000D01*
X133477000Y-116987000D01*
X133223000Y-116987000D01*
X133223000Y-116967000D01*
X132080085Y-116967000D01*
X131958096Y-117189039D01*
X131998754Y-117323087D01*
X132011474Y-117350000D01*
X125220000Y-117350000D01*
X125220000Y-116490961D01*
X131958096Y-116490961D01*
X132080085Y-116713000D01*
X133223000Y-116713000D01*
X133223000Y-115569376D01*
X133477000Y-115569376D01*
X133477000Y-116713000D01*
X134619915Y-116713000D01*
X134741904Y-116490961D01*
X134701246Y-116356913D01*
X134581037Y-116102580D01*
X134413519Y-115876586D01*
X134205131Y-115687615D01*
X133963881Y-115542930D01*
X133699040Y-115448091D01*
X133477000Y-115569376D01*
X133223000Y-115569376D01*
X133000960Y-115448091D01*
X132736119Y-115542930D01*
X132494869Y-115687615D01*
X132286481Y-115876586D01*
X132118963Y-116102580D01*
X131998754Y-116356913D01*
X131958096Y-116490961D01*
X125220000Y-116490961D01*
X125220000Y-116273711D01*
X125263937Y-116229774D01*
X125377205Y-116060256D01*
X125455226Y-115871898D01*
X125495000Y-115671939D01*
X125495000Y-115468061D01*
X125455226Y-115268102D01*
X125377205Y-115079744D01*
X125263937Y-114910226D01*
X125119774Y-114766063D01*
X124950256Y-114652795D01*
X124761898Y-114574774D01*
X124561939Y-114535000D01*
X124358061Y-114535000D01*
X124158102Y-114574774D01*
X123969744Y-114652795D01*
X123800226Y-114766063D01*
X123656063Y-114910226D01*
X123542795Y-115079744D01*
X123464774Y-115268102D01*
X123425000Y-115468061D01*
X123425000Y-115671939D01*
X123464774Y-115871898D01*
X123542795Y-116060256D01*
X123656063Y-116229774D01*
X123700000Y-116273711D01*
X123700001Y-118072657D01*
X123696323Y-118110000D01*
X123710997Y-118258986D01*
X123754454Y-118402247D01*
X123825026Y-118534276D01*
X123919999Y-118650001D01*
X124035724Y-118744974D01*
X124167753Y-118815546D01*
X124311014Y-118859003D01*
X124422667Y-118870000D01*
X124460000Y-118873677D01*
X124497333Y-118870000D01*
X140655199Y-118870000D01*
X141205000Y-119419802D01*
X141205000Y-119481939D01*
X141244774Y-119681898D01*
X141322795Y-119870256D01*
X141436063Y-120039774D01*
X141480000Y-120083711D01*
X141480001Y-127080199D01*
X132080978Y-136479223D01*
X131924637Y-136245241D01*
X131724759Y-136045363D01*
X131489727Y-135888320D01*
X131228574Y-135780147D01*
X130951335Y-135725000D01*
X130668665Y-135725000D01*
X130391426Y-135780147D01*
X130130273Y-135888320D01*
X129895241Y-136045363D01*
X129695363Y-136245241D01*
X129538320Y-136480273D01*
X129430147Y-136741426D01*
X129375000Y-137018665D01*
X129375000Y-137301335D01*
X129430147Y-137578574D01*
X129538320Y-137839727D01*
X129695363Y-138074759D01*
X129895241Y-138274637D01*
X130129223Y-138430978D01*
X127080201Y-141480000D01*
X124534864Y-141480000D01*
X124604236Y-141251309D01*
X124631943Y-140970000D01*
X124604236Y-140688691D01*
X124522182Y-140418192D01*
X124388932Y-140168899D01*
X124209608Y-139950392D01*
X123991101Y-139771068D01*
X123741808Y-139637818D01*
X123471309Y-139555764D01*
X123260492Y-139535000D01*
X123119508Y-139535000D01*
X122908691Y-139555764D01*
X122638192Y-139637818D01*
X122388899Y-139771068D01*
X122170392Y-139950392D01*
X121991068Y-140168899D01*
X121857818Y-140418192D01*
X121775764Y-140688691D01*
X121748057Y-140970000D01*
X121775764Y-141251309D01*
X121845136Y-141480000D01*
X120721983Y-141480000D01*
X120759853Y-141388574D01*
X120815000Y-141111335D01*
X120815000Y-140828665D01*
X120759853Y-140551426D01*
X120651680Y-140290273D01*
X120494637Y-140055241D01*
X120294759Y-139855363D01*
X120059727Y-139698320D01*
X119798574Y-139590147D01*
X119521335Y-139535000D01*
X119238665Y-139535000D01*
X118961426Y-139590147D01*
X118700273Y-139698320D01*
X118465241Y-139855363D01*
X118265363Y-140055241D01*
X118108320Y-140290273D01*
X118000147Y-140551426D01*
X117945000Y-140828665D01*
X117945000Y-141111335D01*
X118000147Y-141388574D01*
X118038017Y-141480000D01*
X113098526Y-141480000D01*
X113111246Y-141453087D01*
X113151904Y-141319039D01*
X113029915Y-141097000D01*
X111887000Y-141097000D01*
X111887000Y-141117000D01*
X111633000Y-141117000D01*
X111633000Y-141097000D01*
X110490085Y-141097000D01*
X110368096Y-141319039D01*
X110408754Y-141453087D01*
X110421474Y-141480000D01*
X99820000Y-141480000D01*
X99820000Y-140620961D01*
X110368096Y-140620961D01*
X110490085Y-140843000D01*
X111633000Y-140843000D01*
X111633000Y-139699376D01*
X111887000Y-139699376D01*
X111887000Y-140843000D01*
X113029915Y-140843000D01*
X113151904Y-140620961D01*
X113111246Y-140486913D01*
X112991037Y-140232580D01*
X112823519Y-140006586D01*
X112615131Y-139817615D01*
X112373881Y-139672930D01*
X112109040Y-139578091D01*
X111887000Y-139699376D01*
X111633000Y-139699376D01*
X111410960Y-139578091D01*
X111146119Y-139672930D01*
X110904869Y-139817615D01*
X110696481Y-140006586D01*
X110528963Y-140232580D01*
X110408754Y-140486913D01*
X110368096Y-140620961D01*
X99820000Y-140620961D01*
X99820000Y-138947195D01*
X99823676Y-138909870D01*
X99820000Y-138872545D01*
X99820000Y-138872537D01*
X99809003Y-138760884D01*
X99765546Y-138617623D01*
X99694974Y-138485594D01*
X99600001Y-138369869D01*
X99571004Y-138346072D01*
X95711476Y-134486544D01*
X102785000Y-134486544D01*
X102785000Y-134753456D01*
X102837072Y-135015239D01*
X102939215Y-135261833D01*
X103087503Y-135483762D01*
X103276238Y-135672497D01*
X103498167Y-135820785D01*
X103744761Y-135922928D01*
X104006544Y-135975000D01*
X104273456Y-135975000D01*
X104535239Y-135922928D01*
X104781833Y-135820785D01*
X105003762Y-135672497D01*
X105192497Y-135483762D01*
X105340785Y-135261833D01*
X105442928Y-135015239D01*
X105495000Y-134753456D01*
X105495000Y-134486544D01*
X105442928Y-134224761D01*
X105340785Y-133978167D01*
X105192497Y-133756238D01*
X105003762Y-133567503D01*
X104781833Y-133419215D01*
X104535239Y-133317072D01*
X104273456Y-133265000D01*
X104006544Y-133265000D01*
X103744761Y-133317072D01*
X103498167Y-133419215D01*
X103276238Y-133567503D01*
X103087503Y-133756238D01*
X102939215Y-133978167D01*
X102837072Y-134224761D01*
X102785000Y-134486544D01*
X95711476Y-134486544D01*
X93171476Y-131946544D01*
X100245000Y-131946544D01*
X100245000Y-132213456D01*
X100297072Y-132475239D01*
X100399215Y-132721833D01*
X100547503Y-132943762D01*
X100736238Y-133132497D01*
X100958167Y-133280785D01*
X101204761Y-133382928D01*
X101466544Y-133435000D01*
X101733456Y-133435000D01*
X101995239Y-133382928D01*
X102241833Y-133280785D01*
X102463762Y-133132497D01*
X102652497Y-132943762D01*
X102800785Y-132721833D01*
X102902928Y-132475239D01*
X102955000Y-132213456D01*
X102955000Y-131946544D01*
X105325000Y-131946544D01*
X105325000Y-132213456D01*
X105377072Y-132475239D01*
X105479215Y-132721833D01*
X105627503Y-132943762D01*
X105816238Y-133132497D01*
X106038167Y-133280785D01*
X106284761Y-133382928D01*
X106546544Y-133435000D01*
X106813456Y-133435000D01*
X107075239Y-133382928D01*
X107321833Y-133280785D01*
X107543762Y-133132497D01*
X107732497Y-132943762D01*
X107880785Y-132721833D01*
X107982928Y-132475239D01*
X108035000Y-132213456D01*
X108035000Y-131946544D01*
X107982928Y-131684761D01*
X107880785Y-131438167D01*
X107732497Y-131216238D01*
X107543762Y-131027503D01*
X107321833Y-130879215D01*
X107075239Y-130777072D01*
X106813456Y-130725000D01*
X106546544Y-130725000D01*
X106284761Y-130777072D01*
X106038167Y-130879215D01*
X105816238Y-131027503D01*
X105627503Y-131216238D01*
X105479215Y-131438167D01*
X105377072Y-131684761D01*
X105325000Y-131946544D01*
X102955000Y-131946544D01*
X102902928Y-131684761D01*
X102800785Y-131438167D01*
X102652497Y-131216238D01*
X102463762Y-131027503D01*
X102241833Y-130879215D01*
X101995239Y-130777072D01*
X101733456Y-130725000D01*
X101466544Y-130725000D01*
X101204761Y-130777072D01*
X100958167Y-130879215D01*
X100736238Y-131027503D01*
X100547503Y-131216238D01*
X100399215Y-131438167D01*
X100297072Y-131684761D01*
X100245000Y-131946544D01*
X93171476Y-131946544D01*
X90362873Y-129137942D01*
X90399870Y-129137942D01*
X90524352Y-129125682D01*
X90644050Y-129089372D01*
X90754364Y-129030407D01*
X90851055Y-128951055D01*
X90930407Y-128854364D01*
X90989372Y-128744050D01*
X91025682Y-128624352D01*
X91037942Y-128499870D01*
X91037942Y-127760000D01*
X96482678Y-127760000D01*
X96520000Y-127763676D01*
X96557322Y-127760000D01*
X96557333Y-127760000D01*
X96668986Y-127749003D01*
X96812247Y-127705546D01*
X96944276Y-127634974D01*
X97060001Y-127540001D01*
X97083804Y-127510997D01*
X99099803Y-125495000D01*
X99161939Y-125495000D01*
X99361898Y-125455226D01*
X99550256Y-125377205D01*
X99719774Y-125263937D01*
X99863937Y-125119774D01*
X99977205Y-124950256D01*
X100055226Y-124761898D01*
X100095000Y-124561939D01*
X100095000Y-124358061D01*
X100055226Y-124158102D01*
X99977205Y-123969744D01*
X99863937Y-123800226D01*
X99719774Y-123656063D01*
X99550256Y-123542795D01*
X99361898Y-123464774D01*
X99161939Y-123425000D01*
X98958061Y-123425000D01*
X98758102Y-123464774D01*
X98569744Y-123542795D01*
X98400226Y-123656063D01*
X98256063Y-123800226D01*
X98142795Y-123969744D01*
X98064774Y-124158102D01*
X98025000Y-124358061D01*
X98025000Y-124420197D01*
X96205199Y-126240000D01*
X91037942Y-126240000D01*
X91037942Y-125500130D01*
X91025682Y-125375648D01*
X90989372Y-125255950D01*
X90930407Y-125145636D01*
X90851055Y-125048945D01*
X90754364Y-124969593D01*
X90644050Y-124910628D01*
X90524352Y-124874318D01*
X90399870Y-124862058D01*
X90240253Y-124862058D01*
X90260900Y-124848262D01*
X90558262Y-124550900D01*
X90791897Y-124201240D01*
X90952828Y-123812719D01*
X91034870Y-123400266D01*
X91034870Y-122979734D01*
X90952828Y-122567281D01*
X90791897Y-122178760D01*
X90558262Y-121829100D01*
X90260900Y-121531738D01*
X89911240Y-121298103D01*
X89522719Y-121137172D01*
X89110266Y-121055130D01*
X88689734Y-121055130D01*
X88277281Y-121137172D01*
X87888760Y-121298103D01*
X87539100Y-121531738D01*
X87241738Y-121829100D01*
X87008103Y-122178760D01*
X86847172Y-122567281D01*
X86765130Y-122979734D01*
X86765130Y-123400266D01*
X86847172Y-123812719D01*
X87008103Y-124201240D01*
X87241738Y-124550900D01*
X87539100Y-124848262D01*
X87559747Y-124862058D01*
X87400130Y-124862058D01*
X87275648Y-124874318D01*
X87155950Y-124910628D01*
X87045636Y-124969593D01*
X86948945Y-125048945D01*
X86869593Y-125145636D01*
X86810628Y-125255950D01*
X86774318Y-125375648D01*
X86762058Y-125500130D01*
X81940000Y-125500130D01*
X81940000Y-115340130D01*
X86762058Y-115340130D01*
X86762058Y-118339870D01*
X86774318Y-118464352D01*
X86810628Y-118584050D01*
X86869593Y-118694364D01*
X86948945Y-118791055D01*
X87045636Y-118870407D01*
X87155950Y-118929372D01*
X87275648Y-118965682D01*
X87400130Y-118977942D01*
X90399870Y-118977942D01*
X90524352Y-118965682D01*
X90644050Y-118929372D01*
X90754364Y-118870407D01*
X90851055Y-118791055D01*
X90930407Y-118694364D01*
X90989372Y-118584050D01*
X91025682Y-118464352D01*
X91037942Y-118339870D01*
X91037942Y-116242743D01*
X95956200Y-121161002D01*
X95979999Y-121190001D01*
X96095724Y-121284974D01*
X96227753Y-121355546D01*
X96371014Y-121399003D01*
X96482667Y-121410000D01*
X96482676Y-121410000D01*
X96519999Y-121413676D01*
X96557322Y-121410000D01*
X105095199Y-121410000D01*
X106116200Y-122431002D01*
X106139999Y-122460001D01*
X106255724Y-122554974D01*
X106387753Y-122625546D01*
X106531014Y-122669003D01*
X106642667Y-122680000D01*
X106642676Y-122680000D01*
X106679999Y-122683676D01*
X106717322Y-122680000D01*
X108460000Y-122680000D01*
X108460001Y-134305197D01*
X106575199Y-136190000D01*
X106513061Y-136190000D01*
X106313102Y-136229774D01*
X106124744Y-136307795D01*
X105955226Y-136421063D01*
X105811063Y-136565226D01*
X105697795Y-136734744D01*
X105619774Y-136923102D01*
X105580000Y-137123061D01*
X105580000Y-137326939D01*
X105619774Y-137526898D01*
X105697795Y-137715256D01*
X105811063Y-137884774D01*
X105955226Y-138028937D01*
X106124744Y-138142205D01*
X106313102Y-138220226D01*
X106513061Y-138260000D01*
X106716939Y-138260000D01*
X106916898Y-138220226D01*
X107105256Y-138142205D01*
X107274774Y-138028937D01*
X107418937Y-137884774D01*
X107532205Y-137715256D01*
X107610226Y-137526898D01*
X107613778Y-137509039D01*
X110368096Y-137509039D01*
X110408754Y-137643087D01*
X110528963Y-137897420D01*
X110696481Y-138123414D01*
X110904869Y-138312385D01*
X111146119Y-138457070D01*
X111410960Y-138551909D01*
X111633000Y-138430624D01*
X111633000Y-137287000D01*
X111887000Y-137287000D01*
X111887000Y-138430624D01*
X112109040Y-138551909D01*
X112373881Y-138457070D01*
X112615131Y-138312385D01*
X112823519Y-138123414D01*
X112991037Y-137897420D01*
X113111246Y-137643087D01*
X113151904Y-137509039D01*
X113029915Y-137287000D01*
X111887000Y-137287000D01*
X111633000Y-137287000D01*
X110490085Y-137287000D01*
X110368096Y-137509039D01*
X107613778Y-137509039D01*
X107650000Y-137326939D01*
X107650000Y-137264801D01*
X108103840Y-136810961D01*
X110368096Y-136810961D01*
X110490085Y-137033000D01*
X111633000Y-137033000D01*
X111633000Y-135889376D01*
X111887000Y-135889376D01*
X111887000Y-137033000D01*
X113029915Y-137033000D01*
X113037790Y-137018665D01*
X117945000Y-137018665D01*
X117945000Y-137301335D01*
X118000147Y-137578574D01*
X118108320Y-137839727D01*
X118265363Y-138074759D01*
X118465241Y-138274637D01*
X118700273Y-138431680D01*
X118961426Y-138539853D01*
X119238665Y-138595000D01*
X119521335Y-138595000D01*
X119798574Y-138539853D01*
X120059727Y-138431680D01*
X120294759Y-138274637D01*
X120494637Y-138074759D01*
X120651680Y-137839727D01*
X120759853Y-137578574D01*
X120815000Y-137301335D01*
X120815000Y-137160000D01*
X121748057Y-137160000D01*
X121775764Y-137441309D01*
X121857818Y-137711808D01*
X121991068Y-137961101D01*
X122170392Y-138179608D01*
X122388899Y-138358932D01*
X122638192Y-138492182D01*
X122908691Y-138574236D01*
X123119508Y-138595000D01*
X123260492Y-138595000D01*
X123471309Y-138574236D01*
X123741808Y-138492182D01*
X123991101Y-138358932D01*
X124209608Y-138179608D01*
X124388932Y-137961101D01*
X124522182Y-137711808D01*
X124604236Y-137441309D01*
X124631943Y-137160000D01*
X124604236Y-136878691D01*
X124522182Y-136608192D01*
X124388932Y-136358899D01*
X124209608Y-136140392D01*
X123991101Y-135961068D01*
X123741808Y-135827818D01*
X123471309Y-135745764D01*
X123260492Y-135725000D01*
X123119508Y-135725000D01*
X122908691Y-135745764D01*
X122638192Y-135827818D01*
X122388899Y-135961068D01*
X122170392Y-136140392D01*
X121991068Y-136358899D01*
X121857818Y-136608192D01*
X121775764Y-136878691D01*
X121748057Y-137160000D01*
X120815000Y-137160000D01*
X120815000Y-137018665D01*
X120759853Y-136741426D01*
X120651680Y-136480273D01*
X120494637Y-136245241D01*
X120294759Y-136045363D01*
X120059727Y-135888320D01*
X119798574Y-135780147D01*
X119521335Y-135725000D01*
X119238665Y-135725000D01*
X118961426Y-135780147D01*
X118700273Y-135888320D01*
X118465241Y-136045363D01*
X118265363Y-136245241D01*
X118108320Y-136480273D01*
X118000147Y-136741426D01*
X117945000Y-137018665D01*
X113037790Y-137018665D01*
X113151904Y-136810961D01*
X113111246Y-136676913D01*
X112991037Y-136422580D01*
X112823519Y-136196586D01*
X112615131Y-136007615D01*
X112373881Y-135862930D01*
X112109040Y-135768091D01*
X111887000Y-135889376D01*
X111633000Y-135889376D01*
X111410960Y-135768091D01*
X111146119Y-135862930D01*
X110904869Y-136007615D01*
X110696481Y-136196586D01*
X110528963Y-136422580D01*
X110408754Y-136676913D01*
X110368096Y-136810961D01*
X108103840Y-136810961D01*
X109731003Y-135183799D01*
X109760001Y-135160001D01*
X109854974Y-135044276D01*
X109925546Y-134912247D01*
X109969003Y-134768986D01*
X109980000Y-134657333D01*
X109980000Y-134657324D01*
X109983676Y-134620001D01*
X109980000Y-134582678D01*
X109980000Y-125596544D01*
X114215000Y-125596544D01*
X114215000Y-125863456D01*
X114267072Y-126125239D01*
X114369215Y-126371833D01*
X114517503Y-126593762D01*
X114706238Y-126782497D01*
X114928167Y-126930785D01*
X115174761Y-127032928D01*
X115436544Y-127085000D01*
X115703456Y-127085000D01*
X115965239Y-127032928D01*
X116211833Y-126930785D01*
X116433762Y-126782497D01*
X116622497Y-126593762D01*
X116770785Y-126371833D01*
X116872928Y-126125239D01*
X116925000Y-125863456D01*
X116925000Y-125596544D01*
X116872928Y-125334761D01*
X116770785Y-125088167D01*
X116622497Y-124866238D01*
X116433762Y-124677503D01*
X116211833Y-124529215D01*
X115965239Y-124427072D01*
X115703456Y-124375000D01*
X115436544Y-124375000D01*
X115174761Y-124427072D01*
X114928167Y-124529215D01*
X114706238Y-124677503D01*
X114517503Y-124866238D01*
X114369215Y-125088167D01*
X114267072Y-125334761D01*
X114215000Y-125596544D01*
X109980000Y-125596544D01*
X109980000Y-122680000D01*
X116854608Y-122680000D01*
X116807072Y-122794761D01*
X116755000Y-123056544D01*
X116755000Y-123323456D01*
X116807072Y-123585239D01*
X116909215Y-123831833D01*
X117057503Y-124053762D01*
X117246238Y-124242497D01*
X117468167Y-124390785D01*
X117714761Y-124492928D01*
X117976544Y-124545000D01*
X118243456Y-124545000D01*
X118505239Y-124492928D01*
X118751833Y-124390785D01*
X118973762Y-124242497D01*
X119162497Y-124053762D01*
X119310785Y-123831833D01*
X119412928Y-123585239D01*
X119465000Y-123323456D01*
X119465000Y-123056544D01*
X119412928Y-122794761D01*
X119365392Y-122680000D01*
X128975198Y-122680000D01*
X128230199Y-123425000D01*
X128168061Y-123425000D01*
X127968102Y-123464774D01*
X127779744Y-123542795D01*
X127610226Y-123656063D01*
X127466063Y-123800226D01*
X127352795Y-123969744D01*
X127274774Y-124158102D01*
X127235000Y-124358061D01*
X127235000Y-124561939D01*
X127274774Y-124761898D01*
X127352795Y-124950256D01*
X127466063Y-125119774D01*
X127610226Y-125263937D01*
X127779744Y-125377205D01*
X127968102Y-125455226D01*
X128168061Y-125495000D01*
X128371939Y-125495000D01*
X128571898Y-125455226D01*
X128760256Y-125377205D01*
X128929774Y-125263937D01*
X129073937Y-125119774D01*
X129187205Y-124950256D01*
X129265226Y-124761898D01*
X129305000Y-124561939D01*
X129305000Y-124499801D01*
X129919802Y-123885000D01*
X131830199Y-123885000D01*
X133650000Y-125704803D01*
X133650000Y-125766939D01*
X133689774Y-125966898D01*
X133767795Y-126155256D01*
X133881063Y-126324774D01*
X134025226Y-126468937D01*
X134194744Y-126582205D01*
X134383102Y-126660226D01*
X134583061Y-126700000D01*
X134786939Y-126700000D01*
X134986898Y-126660226D01*
X135175256Y-126582205D01*
X135344774Y-126468937D01*
X135488937Y-126324774D01*
X135602205Y-126155256D01*
X135680226Y-125966898D01*
X135720000Y-125766939D01*
X135720000Y-125563061D01*
X135680226Y-125363102D01*
X135602205Y-125174744D01*
X135488937Y-125005226D01*
X135344774Y-124861063D01*
X135175256Y-124747795D01*
X134986898Y-124669774D01*
X134786939Y-124630000D01*
X134724803Y-124630000D01*
X132708804Y-122614003D01*
X132685001Y-122584999D01*
X132656003Y-122561201D01*
X131503804Y-121409003D01*
X131480001Y-121379999D01*
X131364276Y-121285026D01*
X131232247Y-121214454D01*
X131088986Y-121170997D01*
X130977333Y-121160000D01*
X130977322Y-121160000D01*
X130940000Y-121156324D01*
X130902678Y-121160000D01*
X116825392Y-121160000D01*
X116872928Y-121045239D01*
X116925000Y-120783456D01*
X116925000Y-120516544D01*
X116872928Y-120254761D01*
X116770785Y-120008167D01*
X116622497Y-119786238D01*
X116433762Y-119597503D01*
X116211833Y-119449215D01*
X115965239Y-119347072D01*
X115703456Y-119295000D01*
X115436544Y-119295000D01*
X115174761Y-119347072D01*
X114928167Y-119449215D01*
X114706238Y-119597503D01*
X114517503Y-119786238D01*
X114369215Y-120008167D01*
X114267072Y-120254761D01*
X114215000Y-120516544D01*
X114215000Y-120783456D01*
X114267072Y-121045239D01*
X114314608Y-121160000D01*
X109955253Y-121160000D01*
X109925546Y-121062068D01*
X109854974Y-120930039D01*
X109760001Y-120814314D01*
X109644275Y-120719341D01*
X109512246Y-120648769D01*
X109368985Y-120605312D01*
X109220000Y-120590638D01*
X109071014Y-120605312D01*
X108927753Y-120648769D01*
X108795724Y-120719341D01*
X108679999Y-120814314D01*
X108585026Y-120930040D01*
X108514454Y-121062069D01*
X108484747Y-121160000D01*
X106994802Y-121160000D01*
X105973804Y-120139003D01*
X105950001Y-120109999D01*
X105834276Y-120015026D01*
X105702247Y-119944454D01*
X105558986Y-119900997D01*
X105447333Y-119890000D01*
X105447322Y-119890000D01*
X105410000Y-119886324D01*
X105372678Y-119890000D01*
X96834802Y-119890000D01*
X92381346Y-115436544D01*
X100245000Y-115436544D01*
X100245000Y-115703456D01*
X100297072Y-115965239D01*
X100399215Y-116211833D01*
X100547503Y-116433762D01*
X100736238Y-116622497D01*
X100958167Y-116770785D01*
X101204761Y-116872928D01*
X101466544Y-116925000D01*
X101733456Y-116925000D01*
X101995239Y-116872928D01*
X102241833Y-116770785D01*
X102463762Y-116622497D01*
X102652497Y-116433762D01*
X102800785Y-116211833D01*
X102902928Y-115965239D01*
X102955000Y-115703456D01*
X102955000Y-115436544D01*
X105325000Y-115436544D01*
X105325000Y-115703456D01*
X105377072Y-115965239D01*
X105479215Y-116211833D01*
X105627503Y-116433762D01*
X105816238Y-116622497D01*
X106038167Y-116770785D01*
X106284761Y-116872928D01*
X106546544Y-116925000D01*
X106813456Y-116925000D01*
X107075239Y-116872928D01*
X107321833Y-116770785D01*
X107543762Y-116622497D01*
X107732497Y-116433762D01*
X107880785Y-116211833D01*
X107982928Y-115965239D01*
X108035000Y-115703456D01*
X108035000Y-115436544D01*
X107982928Y-115174761D01*
X107880785Y-114928167D01*
X107732497Y-114706238D01*
X107543762Y-114517503D01*
X107321833Y-114369215D01*
X107075239Y-114267072D01*
X106813456Y-114215000D01*
X106546544Y-114215000D01*
X106284761Y-114267072D01*
X106038167Y-114369215D01*
X105816238Y-114517503D01*
X105627503Y-114706238D01*
X105479215Y-114928167D01*
X105377072Y-115174761D01*
X105325000Y-115436544D01*
X102955000Y-115436544D01*
X102902928Y-115174761D01*
X102800785Y-114928167D01*
X102652497Y-114706238D01*
X102463762Y-114517503D01*
X102241833Y-114369215D01*
X101995239Y-114267072D01*
X101733456Y-114215000D01*
X101466544Y-114215000D01*
X101204761Y-114267072D01*
X100958167Y-114369215D01*
X100736238Y-114517503D01*
X100547503Y-114706238D01*
X100399215Y-114928167D01*
X100297072Y-115174761D01*
X100245000Y-115436544D01*
X92381346Y-115436544D01*
X90848761Y-113903959D01*
X90952828Y-113652719D01*
X91034870Y-113240266D01*
X91034870Y-112896544D01*
X102785000Y-112896544D01*
X102785000Y-113163456D01*
X102837072Y-113425239D01*
X102939215Y-113671833D01*
X103087503Y-113893762D01*
X103276238Y-114082497D01*
X103498167Y-114230785D01*
X103744761Y-114332928D01*
X104006544Y-114385000D01*
X104273456Y-114385000D01*
X104535239Y-114332928D01*
X104781833Y-114230785D01*
X105003762Y-114082497D01*
X105192497Y-113893762D01*
X105340785Y-113671833D01*
X105442928Y-113425239D01*
X105495000Y-113163456D01*
X105495000Y-112896544D01*
X105442928Y-112634761D01*
X105340785Y-112388167D01*
X105192497Y-112166238D01*
X105003762Y-111977503D01*
X104781833Y-111829215D01*
X104535239Y-111727072D01*
X104273456Y-111675000D01*
X104006544Y-111675000D01*
X103744761Y-111727072D01*
X103498167Y-111829215D01*
X103276238Y-111977503D01*
X103087503Y-112166238D01*
X102939215Y-112388167D01*
X102837072Y-112634761D01*
X102785000Y-112896544D01*
X91034870Y-112896544D01*
X91034870Y-112819734D01*
X90952828Y-112407281D01*
X90791897Y-112018760D01*
X90558262Y-111669100D01*
X90260900Y-111371738D01*
X89911240Y-111138103D01*
X89522719Y-110977172D01*
X89110266Y-110895130D01*
X88689734Y-110895130D01*
X88277281Y-110977172D01*
X87888760Y-111138103D01*
X87539100Y-111371738D01*
X87241738Y-111669100D01*
X87008103Y-112018760D01*
X86847172Y-112407281D01*
X86765130Y-112819734D01*
X86765130Y-113240266D01*
X86847172Y-113652719D01*
X87008103Y-114041240D01*
X87241738Y-114390900D01*
X87539100Y-114688262D01*
X87559747Y-114702058D01*
X87400130Y-114702058D01*
X87275648Y-114714318D01*
X87155950Y-114750628D01*
X87045636Y-114809593D01*
X86948945Y-114888945D01*
X86869593Y-114985636D01*
X86810628Y-115095950D01*
X86774318Y-115215648D01*
X86762058Y-115340130D01*
X81940000Y-115340130D01*
X81940000Y-108610000D01*
X160630000Y-108610000D01*
X160630001Y-145390000D01*
M02*
